<svg xmlns="http://www.w3.org/2000/svg" width="407.92" height="274.27" viewBox="0 0 407.92 274.27" role="img" aria-label="vcad render"><defs><filter id="sh" x="-50%" y="-50%" width="200%" height="200%"><feGaussianBlur stdDeviation="5.46"/></filter><linearGradient id="g0" gradientUnits="userSpaceOnUse" x1="328.27" y1="240.59" x2="341.20" y2="242.43"><stop offset="0" stop-color="#235a85"/><stop offset="1" stop-color="#2b608a"/></linearGradient><linearGradient id="g1" gradientUnits="userSpaceOnUse" x1="328.27" y1="208.59" x2="341.30" y2="210.33"><stop offset="0" stop-color="#215884"/><stop offset="1" stop-color="#285e89"/></linearGradient><linearGradient id="g2" gradientUnits="userSpaceOnUse" x1="312.83" y1="247.21" x2="326.90" y2="249.40"><stop offset="0" stop-color="#1e5581"/><stop offset="1" stop-color="#235a85"/></linearGradient><linearGradient id="g3" gradientUnits="userSpaceOnUse" x1="312.83" y1="215.21" x2="327.02" y2="217.26"><stop offset="0" stop-color="#1d5480"/><stop offset="1" stop-color="#215884"/></linearGradient><linearGradient id="g4" gradientUnits="userSpaceOnUse" x1="296.33" y1="252.92" x2="311.43" y2="255.47"><stop offset="0" stop-color="#1d537d"/><stop offset="1" stop-color="#1e5581"/></linearGradient><linearGradient id="g5" gradientUnits="userSpaceOnUse" x1="296.33" y1="220.92" x2="311.58" y2="223.28"><stop offset="0" stop-color="#1c527c"/><stop offset="1" stop-color="#1d5480"/></linearGradient><linearGradient id="g6" gradientUnits="userSpaceOnUse" x1="278.95" y1="257.66" x2="294.95" y2="260.56"><stop offset="0" stop-color="#1c507a"/><stop offset="1" stop-color="#1d537d"/></linearGradient><linearGradient id="g7" gradientUnits="userSpaceOnUse" x1="278.95" y1="225.66" x2="295.13" y2="228.30"><stop offset="0" stop-color="#1b5079"/><stop offset="1" stop-color="#1c527c"/></linearGradient><linearGradient id="g8" gradientUnits="userSpaceOnUse" x1="260.84" y1="261.40" x2="277.60" y2="264.64"><stop offset="0" stop-color="#1b4e78"/><stop offset="1" stop-color="#1c507a"/></linearGradient><linearGradient id="g9" gradientUnits="userSpaceOnUse" x1="260.84" y1="229.40" x2="277.83" y2="232.27"><stop offset="0" stop-color="#1b4e77"/><stop offset="1" stop-color="#1b5079"/></linearGradient><linearGradient id="g10" gradientUnits="userSpaceOnUse" x1="242.19" y1="264.10" x2="259.55" y2="267.67"><stop offset="0" stop-color="#1a4d76"/><stop offset="1" stop-color="#1b4e78"/></linearGradient><linearGradient id="g11" gradientUnits="userSpaceOnUse" x1="128.97" y1="257.66" x2="111.29" y2="254.60"><stop offset="0" stop-color="#1a4d76"/><stop offset="1" stop-color="#1b4f78"/></linearGradient><linearGradient id="g12" gradientUnits="userSpaceOnUse" x1="128.97" y1="225.66" x2="111.36" y2="222.02"><stop offset="0" stop-color="#1b4d77"/><stop offset="1" stop-color="#1b4f79"/></linearGradient><linearGradient id="g13" gradientUnits="userSpaceOnUse" x1="111.58" y1="252.92" x2="94.61" y2="250.03"><stop offset="0" stop-color="#1b4f78"/><stop offset="1" stop-color="#1c517b"/></linearGradient><linearGradient id="g14" gradientUnits="userSpaceOnUse" x1="111.58" y1="220.92" x2="94.62" y2="217.61"><stop offset="0" stop-color="#1b4f79"/><stop offset="1" stop-color="#1c517c"/></linearGradient><linearGradient id="g15" gradientUnits="userSpaceOnUse" x1="95.09" y1="247.21" x2="78.99" y2="244.59"><stop offset="0" stop-color="#1c517b"/><stop offset="1" stop-color="#1d537e"/></linearGradient><linearGradient id="g16" gradientUnits="userSpaceOnUse" x1="95.09" y1="215.21" x2="78.97" y2="212.26"><stop offset="0" stop-color="#1c517c"/><stop offset="1" stop-color="#1d547f"/></linearGradient><linearGradient id="g17" gradientUnits="userSpaceOnUse" x1="79.64" y1="240.59" x2="64.61" y2="238.29"><stop offset="0" stop-color="#1d537e"/><stop offset="1" stop-color="#1e5682"/></linearGradient><linearGradient id="g18" gradientUnits="userSpaceOnUse" x1="79.64" y1="208.59" x2="64.57" y2="206.04"><stop offset="0" stop-color="#1d547f"/><stop offset="1" stop-color="#205783"/></linearGradient><linearGradient id="g19" gradientUnits="userSpaceOnUse" x1="65.40" y1="233.14" x2="51.60" y2="231.20"><stop offset="0" stop-color="#1e5682"/><stop offset="1" stop-color="#255b86"/></linearGradient><linearGradient id="g20" gradientUnits="userSpaceOnUse" x1="65.40" y1="201.14" x2="51.54" y2="199.00"><stop offset="0" stop-color="#205783"/><stop offset="1" stop-color="#275d88"/></linearGradient><linearGradient id="g21" gradientUnits="userSpaceOnUse" x1="52.48" y1="224.91" x2="40.10" y2="223.35"><stop offset="0" stop-color="#255b86"/><stop offset="1" stop-color="#2d628c"/></linearGradient><linearGradient id="g22" gradientUnits="userSpaceOnUse" x1="52.48" y1="192.91" x2="40.03" y2="191.20"><stop offset="0" stop-color="#275d88"/><stop offset="1" stop-color="#30648e"/></linearGradient><linearGradient id="g23" gradientUnits="userSpaceOnUse" x1="41.03" y1="215.99" x2="30.23" y2="214.81"><stop offset="0" stop-color="#2d628c"/><stop offset="1" stop-color="#366992"/></linearGradient><linearGradient id="g24" gradientUnits="userSpaceOnUse" x1="41.03" y1="183.99" x2="30.15" y2="182.69"><stop offset="0" stop-color="#30648e"/><stop offset="1" stop-color="#396c94"/></linearGradient><linearGradient id="g25" gradientUnits="userSpaceOnUse" x1="31.14" y1="206.47" x2="22.08" y2="205.64"><stop offset="0" stop-color="#366992"/><stop offset="1" stop-color="#407199"/></linearGradient><linearGradient id="g26" gradientUnits="userSpaceOnUse" x1="31.14" y1="174.47" x2="22.00" y2="173.55"><stop offset="0" stop-color="#396c94"/><stop offset="1" stop-color="#44749b"/></linearGradient><linearGradient id="g27" gradientUnits="userSpaceOnUse" x1="22.92" y1="196.43" x2="15.72" y2="195.91"><stop offset="0" stop-color="#407199"/><stop offset="1" stop-color="#4c7aa1"/></linearGradient><linearGradient id="g28" gradientUnits="userSpaceOnUse" x1="22.92" y1="164.43" x2="15.65" y2="163.85"><stop offset="0" stop-color="#44749b"/><stop offset="1" stop-color="#507ea3"/></linearGradient><linearGradient id="g29" gradientUnits="userSpaceOnUse" x1="16.44" y1="185.98" x2="11.22" y2="185.71"><stop offset="0" stop-color="#4c7aa1"/><stop offset="1" stop-color="#5985aa"/></linearGradient><linearGradient id="g30" gradientUnits="userSpaceOnUse" x1="16.44" y1="153.98" x2="11.16" y2="153.67"><stop offset="0" stop-color="#507ea3"/><stop offset="1" stop-color="#5e89ad"/></linearGradient><linearGradient id="g31" gradientUnits="userSpaceOnUse" x1="11.77" y1="175.21" x2="8.32" y2="175.01"><stop offset="0" stop-color="#5985aa"/><stop offset="1" stop-color="#638db0"/></linearGradient><linearGradient id="g32" gradientUnits="userSpaceOnUse" x1="11.77" y1="143.21" x2="8.02" y2="142.89"><stop offset="0" stop-color="#5e89ad"/><stop offset="1" stop-color="#6e96b8"/></linearGradient><linearGradient id="g33" gradientUnits="userSpaceOnUse" x1="8.94" y1="164.23" x2="7.80" y2="164.21"><stop offset="0" stop-color="#638db0"/><stop offset="1" stop-color="#7aa0c0"/></linearGradient><linearGradient id="g34" gradientUnits="userSpaceOnUse" x1="8.94" y1="132.23" x2="7.92" y2="132.22"><stop offset="0" stop-color="#6e96b8"/><stop offset="1" stop-color="#7ea2c2"/></linearGradient><linearGradient id="g35" gradientUnits="userSpaceOnUse" x1="398.97" y1="164.23" x2="399.87" y2="164.23"><stop offset="0" stop-color="#789ebe"/><stop offset="1" stop-color="#8daeca"/></linearGradient><linearGradient id="g36" gradientUnits="userSpaceOnUse" x1="398.97" y1="164.23" x2="400.00" y2="164.22"><stop offset="0" stop-color="#789ebe"/><stop offset="1" stop-color="#8aabc8"/></linearGradient><linearGradient id="g37" gradientUnits="userSpaceOnUse" x1="396.15" y1="175.21" x2="399.41" y2="175.18"><stop offset="0" stop-color="#6e96b7"/><stop offset="1" stop-color="#799ebf"/></linearGradient><linearGradient id="g38" gradientUnits="userSpaceOnUse" x1="396.15" y1="143.21" x2="398.69" y2="143.27"><stop offset="0" stop-color="#6992b4"/><stop offset="1" stop-color="#799ebf"/></linearGradient><linearGradient id="g39" gradientUnits="userSpaceOnUse" x1="391.48" y1="185.98" x2="395.65" y2="186.17"><stop offset="0" stop-color="#5f8aad"/><stop offset="1" stop-color="#6e96b7"/></linearGradient><linearGradient id="g40" gradientUnits="userSpaceOnUse" x1="391.48" y1="153.98" x2="395.69" y2="154.16"><stop offset="0" stop-color="#5b86aa"/><stop offset="1" stop-color="#6992b4"/></linearGradient><linearGradient id="g41" gradientUnits="userSpaceOnUse" x1="385.00" y1="196.43" x2="390.80" y2="196.80"><stop offset="0" stop-color="#527fa5"/><stop offset="1" stop-color="#5f8aad"/></linearGradient><linearGradient id="g42" gradientUnits="userSpaceOnUse" x1="385.00" y1="164.43" x2="390.85" y2="164.78"><stop offset="0" stop-color="#4e7ca2"/><stop offset="1" stop-color="#5b86aa"/></linearGradient><linearGradient id="g43" gradientUnits="userSpaceOnUse" x1="376.78" y1="206.47" x2="384.15" y2="207.06"><stop offset="0" stop-color="#46769d"/><stop offset="1" stop-color="#527fa5"/></linearGradient><linearGradient id="g44" gradientUnits="userSpaceOnUse" x1="376.78" y1="174.47" x2="384.21" y2="175.03"><stop offset="0" stop-color="#43739b"/><stop offset="1" stop-color="#4e7ca2"/></linearGradient><linearGradient id="g45" gradientUnits="userSpaceOnUse" x1="366.89" y1="215.99" x2="375.77" y2="216.85"><stop offset="0" stop-color="#3c6e96"/><stop offset="1" stop-color="#46769d"/></linearGradient><linearGradient id="g46" gradientUnits="userSpaceOnUse" x1="366.89" y1="183.99" x2="375.84" y2="184.80"><stop offset="0" stop-color="#396b94"/><stop offset="1" stop-color="#43739b"/></linearGradient><linearGradient id="g47" gradientUnits="userSpaceOnUse" x1="355.44" y1="224.91" x2="365.76" y2="226.07"><stop offset="0" stop-color="#336790"/><stop offset="1" stop-color="#3c6e96"/></linearGradient><linearGradient id="g48" gradientUnits="userSpaceOnUse" x1="355.44" y1="192.91" x2="365.83" y2="194.01"><stop offset="0" stop-color="#30648e"/><stop offset="1" stop-color="#396b94"/></linearGradient><linearGradient id="g49" gradientUnits="userSpaceOnUse" x1="342.52" y1="233.14" x2="354.19" y2="234.63"><stop offset="0" stop-color="#2b608a"/><stop offset="1" stop-color="#336790"/></linearGradient><linearGradient id="g50" gradientUnits="userSpaceOnUse" x1="342.52" y1="201.14" x2="354.28" y2="202.55"><stop offset="0" stop-color="#285e89"/><stop offset="1" stop-color="#30648e"/></linearGradient></defs><ellipse cx="203.96" cy="266.27" rx="184.20" ry="23.95" fill="#1a2b3a" opacity="0.20" filter="url(#sh)"/><g shape-rendering="geometricPrecision" stroke-linejoin="round"><polygon points="203.96,121.14 184.75,8.54 203.96,8.00" fill="#a8c3d9" stroke="#a8c3d9" stroke-width="0.75"/><polygon points="203.96,121.14 203.96,8.00 223.17,8.54" fill="#a8c3d9" stroke="#a8c3d9" stroke-width="0.75"/><polygon points="203.96,121.14 165.73,10.17 184.75,8.54" fill="#a8c3d9" stroke="#a8c3d9" stroke-width="0.75"/><polygon points="203.96,121.14 223.17,8.54 242.19,10.17" fill="#a8c3d9" stroke="#a8c3d9" stroke-width="0.75"/><polygon points="203.96,121.14 147.08,12.87 165.73,10.17" fill="#a8c3d9" stroke="#a8c3d9" stroke-width="0.75"/><polygon points="203.96,121.14 242.19,10.17 260.84,12.87" fill="#a8c3d9" stroke="#a8c3d9" stroke-width="0.75"/><polygon points="203.96,121.14 128.97,16.61 147.08,12.87" fill="#a8c3d9" stroke="#a8c3d9" stroke-width="0.75"/><polygon points="203.96,121.14 260.84,12.87 278.95,16.61" fill="#a8c3d9" stroke="#a8c3d9" stroke-width="0.75"/><polygon points="203.96,121.14 111.58,21.36 128.97,16.61" fill="#a8c3d9" stroke="#a8c3d9" stroke-width="0.75"/><polygon points="203.96,121.14 278.95,16.61 296.33,21.36" fill="#a8c3d9" stroke="#a8c3d9" stroke-width="0.75"/><polygon points="203.96,121.14 95.09,27.07 111.58,21.36" fill="#a8c3d9" stroke="#a8c3d9" stroke-width="0.75"/><polygon points="203.96,121.14 296.33,21.36 312.83,27.07" fill="#a8c3d9" stroke="#a8c3d9" stroke-width="0.75"/><polygon points="203.96,121.14 79.64,33.68 95.09,27.07" fill="#a8c3d9" stroke="#a8c3d9" stroke-width="0.75"/><polygon points="203.96,121.14 312.83,27.07 328.27,33.68" fill="#a8c3d9" stroke="#a8c3d9" stroke-width="0.75"/><polygon points="203.96,121.14 328.27,33.68 342.52,41.14" fill="#a8c3d9" stroke="#a8c3d9" stroke-width="0.75"/><polygon points="203.96,121.14 65.40,41.14 79.64,33.68" fill="#a8c3d9" stroke="#a8c3d9" stroke-width="0.75"/><polygon points="203.96,121.14 342.52,41.14 355.44,49.36" fill="#a8c3d9" stroke="#a8c3d9" stroke-width="0.75"/><polygon points="203.96,121.14 52.48,49.36 65.40,41.14" fill="#a8c3d9" stroke="#a8c3d9" stroke-width="0.75"/><polygon points="203.96,121.14 41.03,58.28 52.48,49.36" fill="#a8c3d9" stroke="#a8c3d9" stroke-width="0.75"/><polygon points="203.96,121.14 355.44,49.36 366.89,58.28" fill="#a8c3d9" stroke="#a8c3d9" stroke-width="0.75"/><polygon points="203.96,121.14 31.14,67.80 41.03,58.28" fill="#a8c3d9" stroke="#a8c3d9" stroke-width="0.75"/><polygon points="203.96,121.14 366.89,58.28 376.78,67.80" fill="#a8c3d9" stroke="#a8c3d9" stroke-width="0.75"/><polygon points="203.96,121.14 22.92,77.84 31.14,67.80" fill="#a8c3d9" stroke="#a8c3d9" stroke-width="0.75"/><polygon points="203.96,121.14 376.78,67.80 385.00,77.84" fill="#a8c3d9" stroke="#a8c3d9" stroke-width="0.75"/><polygon points="203.96,121.14 16.44,88.30 22.92,77.84" fill="#a8c3d9" stroke="#a8c3d9" stroke-width="0.75"/><polygon points="203.96,121.14 385.00,77.84 391.48,88.30" fill="#a8c3d9" stroke="#a8c3d9" stroke-width="0.75"/><polygon points="203.96,121.14 11.77,99.07 16.44,88.30" fill="#a8c3d9" stroke="#a8c3d9" stroke-width="0.75"/><polygon points="203.96,121.14 391.48,88.30 396.15,99.07" fill="#a8c3d9" stroke="#a8c3d9" stroke-width="0.75"/><polygon points="203.96,121.14 8.94,110.05 11.77,99.07" fill="#a8c3d9" stroke="#a8c3d9" stroke-width="0.75"/><polygon points="203.96,121.14 396.15,99.07 398.97,110.05" fill="#a8c3d9" stroke="#a8c3d9" stroke-width="0.75"/><polygon points="399.92,153.14 398.97,164.23 399.92,121.14" fill="url(#g35)" stroke="#85a8c6" stroke-width="0.75"/><polygon points="203.96,121.14 8.00,121.14 8.94,110.05" fill="#a8c3d9" stroke="#a8c3d9" stroke-width="0.75"/><polygon points="203.96,121.14 398.97,110.05 399.92,121.14" fill="#a8c3d9" stroke="#a8c3d9" stroke-width="0.75"/><polygon points="8.94,164.23 8.00,153.14 8.94,132.23" fill="url(#g33)" stroke="#6e96b8" stroke-width="0.75"/><polygon points="8.00,153.14 8.00,121.14 8.94,132.23" fill="url(#g34)" stroke="#789dbe" stroke-width="0.75"/><polygon points="398.97,164.23 398.97,132.23 399.92,121.14" fill="url(#g36)" stroke="#7ea3c2" stroke-width="0.75"/><polygon points="203.96,121.14 8.94,132.23 8.00,121.14" fill="#a8c3d9" stroke="#a8c3d9" stroke-width="0.75"/><polygon points="203.96,121.14 399.92,121.14 398.97,132.23" fill="#a8c3d9" stroke="#a8c3d9" stroke-width="0.75"/><polygon points="398.97,164.23 396.15,175.21 398.97,132.23" fill="url(#g37)" stroke="#759bbc" stroke-width="0.75"/><polygon points="11.77,175.21 8.94,164.23 11.77,143.21" fill="url(#g31)" stroke="#5e89ad" stroke-width="0.75"/><polygon points="8.94,164.23 8.94,132.23 11.77,143.21" fill="url(#g32)" stroke="#658fb1" stroke-width="0.75"/><polygon points="203.96,121.14 11.77,143.21 8.94,132.23" fill="#a8c3d9" stroke="#a8c3d9" stroke-width="0.75"/><polygon points="203.96,121.14 398.97,132.23 396.15,143.21" fill="#a8c3d9" stroke="#a8c3d9" stroke-width="0.75"/><polygon points="396.15,175.21 396.15,143.21 398.97,132.23" fill="url(#g38)" stroke="#7097b9" stroke-width="0.75"/><polygon points="396.15,175.21 391.48,185.98 396.15,143.21" fill="url(#g39)" stroke="#6790b3" stroke-width="0.75"/><polygon points="203.96,121.14 16.44,153.98 11.77,143.21" fill="#a8c3d9" stroke="#a8c3d9" stroke-width="0.75"/><polygon points="203.96,121.14 396.15,143.21 391.48,153.98" fill="#a8c3d9" stroke="#a8c3d9" stroke-width="0.75"/><polygon points="16.44,185.98 11.77,175.21 16.44,153.98" fill="url(#g29)" stroke="#527fa5" stroke-width="0.75"/><polygon points="11.77,175.21 11.77,143.21 16.44,153.98" fill="url(#g30)" stroke="#5884a9" stroke-width="0.75"/><polygon points="391.48,185.98 391.48,153.98 396.15,143.21" fill="url(#g40)" stroke="#618baf" stroke-width="0.75"/><polygon points="203.96,121.14 22.92,164.43 16.44,153.98" fill="#a8c3d9" stroke="#a8c3d9" stroke-width="0.75"/><polygon points="203.96,121.14 391.48,153.98 385.00,164.43" fill="#a8c3d9" stroke="#a8c3d9" stroke-width="0.75"/><polygon points="391.48,185.98 385.00,196.43 391.48,153.98" fill="url(#g41)" stroke="#5985a9" stroke-width="0.75"/><polygon points="22.92,196.43 16.44,185.98 22.92,164.43" fill="url(#g27)" stroke="#45759c" stroke-width="0.75"/><polygon points="16.44,185.98 16.44,153.98 22.92,164.43" fill="url(#g28)" stroke="#4b7aa0" stroke-width="0.75"/><polygon points="203.96,121.14 31.14,174.47 22.92,164.43" fill="#a8c3d9" stroke="#a8c3d9" stroke-width="0.75"/><polygon points="203.96,121.14 385.00,164.43 376.78,174.47" fill="#a8c3d9" stroke="#a8c3d9" stroke-width="0.75"/><polygon points="385.00,196.43 385.00,164.43 391.48,153.98" fill="url(#g42)" stroke="#5481a6" stroke-width="0.75"/><polygon points="385.00,196.43 376.78,206.47 385.00,164.43" fill="url(#g43)" stroke="#4d7ba1" stroke-width="0.75"/><polygon points="203.96,121.14 41.03,183.99 31.14,174.47" fill="#a8c3d9" stroke="#a8c3d9" stroke-width="0.75"/><polygon points="203.96,121.14 376.78,174.47 366.89,183.99" fill="#a8c3d9" stroke="#a8c3d9" stroke-width="0.75"/><polygon points="31.14,206.47 22.92,196.43 31.14,174.47" fill="url(#g25)" stroke="#3a6d95" stroke-width="0.75"/><polygon points="22.92,196.43 22.92,164.43 31.14,174.47" fill="url(#g26)" stroke="#3f7098" stroke-width="0.75"/><polygon points="376.78,206.47 376.78,174.47 385.00,164.43" fill="url(#g44)" stroke="#48779e" stroke-width="0.75"/><polygon points="203.96,121.14 52.48,192.91 41.03,183.99" fill="#a8c3d9" stroke="#a8c3d9" stroke-width="0.75"/><polygon points="203.96,121.14 366.89,183.99 355.44,192.91" fill="#a8c3d9" stroke="#a8c3d9" stroke-width="0.75"/><polygon points="376.78,206.47 366.89,215.99 376.78,174.47" fill="url(#g45)" stroke="#42729a" stroke-width="0.75"/><polygon points="41.03,215.99 31.14,206.47 41.03,183.99" fill="url(#g23)" stroke="#31658e" stroke-width="0.75"/><polygon points="203.96,121.14 65.40,201.14 52.48,192.91" fill="#a8c3d9" stroke="#a8c3d9" stroke-width="0.75"/><polygon points="203.96,121.14 355.44,192.91 342.52,201.14" fill="#a8c3d9" stroke="#a8c3d9" stroke-width="0.75"/><polygon points="31.14,206.47 31.14,174.47 41.03,183.99" fill="url(#g24)" stroke="#356891" stroke-width="0.75"/><polygon points="366.89,215.99 366.89,183.99 376.78,174.47" fill="url(#g46)" stroke="#3d6f97" stroke-width="0.75"/><polygon points="366.89,215.99 355.44,224.91 366.89,183.99" fill="url(#g47)" stroke="#386b93" stroke-width="0.75"/><polygon points="203.96,121.14 342.52,201.14 328.27,208.59" fill="#a8c3d9" stroke="#a8c3d9" stroke-width="0.75"/><polygon points="203.96,121.14 79.64,208.59 65.40,201.14" fill="#a8c3d9" stroke="#a8c3d9" stroke-width="0.75"/><polygon points="52.48,224.91 41.03,215.99 52.48,192.91" fill="url(#g21)" stroke="#285e89" stroke-width="0.75"/><polygon points="41.03,215.99 41.03,183.99 52.48,192.91" fill="url(#g22)" stroke="#2c618b" stroke-width="0.75"/><polygon points="203.96,121.14 328.27,208.59 312.83,215.21" fill="#a8c3d9" stroke="#a8c3d9" stroke-width="0.75"/><polygon points="203.96,121.14 95.09,215.21 79.64,208.59" fill="#a8c3d9" stroke="#a8c3d9" stroke-width="0.75"/><polygon points="355.44,224.91 355.44,192.91 366.89,183.99" fill="url(#g48)" stroke="#346791" stroke-width="0.75"/><polygon points="355.44,224.91 342.52,233.14 355.44,192.91" fill="url(#g49)" stroke="#2f648d" stroke-width="0.75"/><polygon points="203.96,121.14 312.83,215.21 296.33,220.92" fill="#a8c3d9" stroke="#a8c3d9" stroke-width="0.75"/><polygon points="203.96,121.14 111.58,220.92 95.09,215.21" fill="#a8c3d9" stroke="#a8c3d9" stroke-width="0.75"/><polygon points="65.40,233.14 52.48,224.91 65.40,201.14" fill="url(#g19)" stroke="#215884" stroke-width="0.75"/><polygon points="203.96,121.14 296.33,220.92 278.95,225.66" fill="#a8c3d9" stroke="#a8c3d9" stroke-width="0.75"/><polygon points="203.96,121.14 128.97,225.66 111.58,220.92" fill="#a8c3d9" stroke="#a8c3d9" stroke-width="0.75"/><polygon points="52.48,224.91 52.48,192.91 65.40,201.14" fill="url(#g20)" stroke="#245b86" stroke-width="0.75"/><polygon points="203.96,121.14 278.95,225.66 260.84,229.40" fill="#a8c3d9" stroke="#a8c3d9" stroke-width="0.75"/><polygon points="203.96,121.14 147.08,229.40 128.97,225.66" fill="#a8c3d9" stroke="#a8c3d9" stroke-width="0.75"/><polygon points="342.52,233.14 328.27,240.59 342.52,201.14" fill="url(#g0)" stroke="#275d88" stroke-width="0.75"/><polygon points="342.52,233.14 342.52,201.14 355.44,192.91" fill="url(#g50)" stroke="#2b618b" stroke-width="0.75"/><polygon points="203.96,121.14 260.84,229.40 242.19,232.10" fill="#a8c3d9" stroke="#a8c3d9" stroke-width="0.75"/><polygon points="203.96,121.14 165.73,232.10 147.08,229.40" fill="#a8c3d9" stroke="#a8c3d9" stroke-width="0.75"/><polygon points="79.64,240.59 65.40,233.14 79.64,208.59" fill="url(#g17)" stroke="#1d5480" stroke-width="0.75"/><polygon points="203.96,121.14 242.19,232.10 223.17,233.73" fill="#a8c3d9" stroke="#a8c3d9" stroke-width="0.75"/><polygon points="203.96,121.14 184.75,233.73 165.73,232.10" fill="#a8c3d9" stroke="#a8c3d9" stroke-width="0.75"/><polygon points="203.96,121.14 223.17,233.73 203.96,234.27" fill="#a8c3d9" stroke="#a8c3d9" stroke-width="0.75"/><polygon points="203.96,121.14 203.96,234.27 184.75,233.73" fill="#a8c3d9" stroke="#a8c3d9" stroke-width="0.75"/><polygon points="65.40,233.14 65.40,201.14 79.64,208.59" fill="url(#g18)" stroke="#1e5581" stroke-width="0.75"/><polygon points="328.27,240.59 312.83,247.21 328.27,208.59" fill="url(#g2)" stroke="#205883" stroke-width="0.75"/><polygon points="328.27,240.59 328.27,208.59 342.52,201.14" fill="url(#g1)" stroke="#245b86" stroke-width="0.75"/><polygon points="95.09,247.21 79.64,240.59 95.09,215.21" fill="url(#g15)" stroke="#1c527c" stroke-width="0.75"/><polygon points="79.64,240.59 79.64,208.59 95.09,215.21" fill="url(#g16)" stroke="#1d537e" stroke-width="0.75"/><polygon points="312.83,247.21 296.33,252.92 312.83,215.21" fill="url(#g4)" stroke="#1d547f" stroke-width="0.75"/><polygon points="312.83,247.21 312.83,215.21 328.27,208.59" fill="url(#g3)" stroke="#1e5681" stroke-width="0.75"/><polygon points="111.58,252.92 95.09,247.21 111.58,220.92" fill="url(#g13)" stroke="#1b4f79" stroke-width="0.75"/><polygon points="95.09,247.21 95.09,215.21 111.58,220.92" fill="url(#g14)" stroke="#1c507a" stroke-width="0.75"/><polygon points="296.33,252.92 278.95,257.66 296.33,220.92" fill="url(#g6)" stroke="#1c527c" stroke-width="0.75"/><polygon points="128.97,257.66 111.58,252.92 128.97,225.66" fill="url(#g11)" stroke="#1b4e77" stroke-width="0.75"/><polygon points="296.33,252.92 296.33,220.92 312.83,215.21" fill="url(#g5)" stroke="#1d537e" stroke-width="0.75"/><polygon points="278.95,257.66 260.84,261.40 278.95,225.66" fill="url(#g8)" stroke="#1b4f79" stroke-width="0.75"/><polygon points="111.58,252.92 111.58,220.92 128.97,225.66" fill="url(#g12)" stroke="#1b4e78" stroke-width="0.75"/><polygon points="147.08,261.40 128.97,257.66 147.08,229.40" fill="#1a4c75" stroke="#1a4c75" stroke-width="0.75"/><polygon points="278.95,257.66 278.95,225.66 296.33,220.92" fill="url(#g7)" stroke="#1c517b" stroke-width="0.75"/><polygon points="260.84,261.40 242.19,264.10 260.84,229.40" fill="url(#g10)" stroke="#1b4e77" stroke-width="0.75"/><polygon points="165.73,264.10 147.08,261.40 165.73,232.10" fill="#1a4b74" stroke="#1a4b74" stroke-width="0.75"/><polygon points="128.97,257.66 128.97,225.66 147.08,229.40" fill="#1a4d76" stroke="#1a4d76" stroke-width="0.75"/><polygon points="242.19,264.10 223.17,265.73 242.19,232.10" fill="#1a4c75" stroke="#1a4c75" stroke-width="0.75"/><polygon points="184.75,265.73 165.73,264.10 184.75,233.73" fill="#1a4b73" stroke="#1a4b73" stroke-width="0.75"/><polygon points="260.84,261.40 260.84,229.40 278.95,225.66" fill="url(#g9)" stroke="#1b4f78" stroke-width="0.75"/><polygon points="223.17,265.73 203.96,266.27 223.17,233.73" fill="#1a4b74" stroke="#1a4b74" stroke-width="0.75"/><polygon points="203.96,266.27 184.75,265.73 203.96,234.27" fill="#1a4b73" stroke="#1a4b73" stroke-width="0.75"/><polygon points="147.08,261.40 147.08,229.40 165.73,232.10" fill="#1a4c74" stroke="#1a4c74" stroke-width="0.75"/><polygon points="242.19,264.10 242.19,232.10 260.84,229.40" fill="#1a4d76" stroke="#1a4d76" stroke-width="0.75"/><polygon points="165.73,264.10 165.73,232.10 184.75,233.73" fill="#1a4b73" stroke="#1a4b73" stroke-width="0.75"/><polygon points="223.17,265.73 223.17,233.73 242.19,232.10" fill="#1a4c74" stroke="#1a4c74" stroke-width="0.75"/><polygon points="184.75,265.73 184.75,233.73 203.96,234.27" fill="#194b73" stroke="#194b73" stroke-width="0.75"/><polygon points="203.96,266.27 203.96,234.27 223.17,233.73" fill="#1a4b73" stroke="#1a4b73" stroke-width="0.75"/></g><g stroke="#0b2742" stroke-width="0.45" stroke-linecap="round" fill="none" opacity="0.5" stroke-dasharray="3.27 1.96"><line x1="376.78" y1="99.80" x2="385.00" y2="109.84"/><line x1="223.17" y1="40.54" x2="242.19" y2="42.17"/><line x1="278.95" y1="48.61" x2="296.33" y2="53.36"/><line x1="165.73" y1="42.17" x2="184.75" y2="40.54"/><line x1="312.83" y1="59.07" x2="328.27" y2="65.68"/><line x1="296.33" y1="53.36" x2="312.83" y2="59.07"/><line x1="147.08" y1="44.87" x2="165.73" y2="42.17"/><line x1="184.75" y1="40.54" x2="203.96" y2="40.00"/><line x1="11.77" y1="131.07" x2="16.44" y2="120.30"/><line x1="366.89" y1="90.28" x2="376.78" y2="99.80"/><line x1="65.40" y1="73.14" x2="79.64" y2="65.68"/><line x1="242.19" y1="42.17" x2="260.84" y2="44.87"/><line x1="398.97" y1="142.05" x2="399.40" y2="147.06"/><line x1="79.64" y1="65.68" x2="95.09" y2="59.07"/><line x1="342.52" y1="73.14" x2="355.44" y2="81.36"/><line x1="391.48" y1="120.30" x2="396.15" y2="131.07"/><line x1="111.58" y1="53.36" x2="128.97" y2="48.61"/><line x1="31.14" y1="99.80" x2="41.03" y2="90.28"/><line x1="396.15" y1="131.07" x2="398.97" y2="142.05"/><line x1="16.44" y1="120.30" x2="22.92" y2="109.84"/><line x1="8.55" y1="146.70" x2="8.94" y2="142.05"/><line x1="328.27" y1="65.68" x2="342.52" y2="73.14"/><line x1="95.09" y1="59.07" x2="111.58" y2="53.36"/><line x1="355.44" y1="81.36" x2="366.89" y2="90.28"/><line x1="260.84" y1="44.87" x2="278.95" y2="48.61"/><line x1="52.48" y1="81.36" x2="65.40" y2="73.14"/><line x1="385.00" y1="109.84" x2="391.48" y2="120.30"/><line x1="41.03" y1="90.28" x2="52.48" y2="81.36"/><line x1="22.92" y1="109.84" x2="31.14" y2="99.80"/><line x1="203.96" y1="40.00" x2="223.17" y2="40.54"/><line x1="128.97" y1="48.61" x2="147.08" y2="44.87"/><line x1="8.94" y1="142.05" x2="11.77" y2="131.07"/></g><g stroke="#0b2742" stroke-width="0.5" stroke-linecap="round" fill="none" opacity="1"><line x1="111.58" y1="220.92" x2="95.09" y2="215.21"/><line x1="128.97" y1="225.66" x2="111.58" y2="220.92"/><line x1="22.92" y1="164.43" x2="16.44" y2="153.98"/><line x1="260.84" y1="229.40" x2="242.19" y2="232.10"/><line x1="11.77" y1="143.21" x2="8.94" y2="132.23"/><line x1="399.92" y1="121.14" x2="398.97" y2="132.23"/><line x1="385.00" y1="164.43" x2="376.78" y2="174.47"/><line x1="203.96" y1="234.27" x2="184.75" y2="233.73"/><line x1="376.78" y1="174.47" x2="366.89" y2="183.99"/><line x1="398.97" y1="132.23" x2="396.15" y2="143.21"/><line x1="399.40" y1="147.06" x2="399.92" y2="153.14"/><line x1="31.14" y1="174.47" x2="22.92" y2="164.43"/><line x1="16.44" y1="153.98" x2="11.77" y2="143.21"/><line x1="223.17" y1="233.73" x2="203.96" y2="234.27"/><line x1="65.40" y1="201.14" x2="52.48" y2="192.91"/><line x1="95.09" y1="215.21" x2="79.64" y2="208.59"/><line x1="184.75" y1="233.73" x2="165.73" y2="232.10"/><line x1="328.27" y1="208.59" x2="312.83" y2="215.21"/><line x1="147.08" y1="229.40" x2="128.97" y2="225.66"/><line x1="8.94" y1="132.23" x2="8.00" y2="121.14"/><line x1="165.73" y1="232.10" x2="147.08" y2="229.40"/><line x1="278.95" y1="225.66" x2="260.84" y2="229.40"/><line x1="52.48" y1="192.91" x2="41.03" y2="183.99"/><line x1="8.00" y1="153.14" x2="8.55" y2="146.70"/><line x1="41.03" y1="183.99" x2="31.14" y2="174.47"/><line x1="296.33" y1="220.92" x2="278.95" y2="225.66"/><line x1="391.48" y1="153.98" x2="385.00" y2="164.43"/><line x1="366.89" y1="183.99" x2="355.44" y2="192.91"/><line x1="312.83" y1="215.21" x2="296.33" y2="220.92"/><line x1="242.19" y1="232.10" x2="223.17" y2="233.73"/><line x1="342.52" y1="201.14" x2="355.44" y2="192.91"/><line x1="342.52" y1="201.14" x2="328.27" y2="208.59"/><line x1="396.15" y1="143.21" x2="391.48" y2="153.98"/><line x1="79.64" y1="208.59" x2="65.40" y2="201.14"/></g><g stroke="#0b2742" stroke-width="1.2" stroke-linecap="round" fill="none" opacity="1"><line x1="312.83" y1="247.21" x2="296.33" y2="252.92"/><line x1="184.75" y1="265.73" x2="165.73" y2="264.10"/><line x1="391.48" y1="88.30" x2="396.15" y2="99.07"/><line x1="22.92" y1="77.84" x2="31.14" y2="67.80"/><line x1="8.00" y1="121.14" x2="8.94" y2="110.05"/><line x1="342.52" y1="41.14" x2="355.44" y2="49.36"/><line x1="398.97" y1="164.23" x2="396.15" y2="175.21"/><line x1="342.52" y1="233.14" x2="355.44" y2="224.91"/><line x1="376.78" y1="67.80" x2="385.00" y2="77.84"/><line x1="41.03" y1="215.99" x2="31.14" y2="206.47"/><line x1="328.27" y1="240.59" x2="312.83" y2="247.21"/><line x1="366.89" y1="215.99" x2="355.44" y2="224.91"/><line x1="95.09" y1="27.07" x2="111.58" y2="21.36"/><line x1="147.08" y1="12.87" x2="165.73" y2="10.17"/><line x1="31.14" y1="206.47" x2="22.92" y2="196.43"/><line x1="31.14" y1="67.80" x2="41.03" y2="58.28"/><line x1="16.44" y1="185.98" x2="11.77" y2="175.21"/><line x1="242.19" y1="10.17" x2="260.84" y2="12.87"/><line x1="278.95" y1="16.61" x2="296.33" y2="21.36"/><line x1="41.03" y1="58.28" x2="52.48" y2="49.36"/><line x1="385.00" y1="77.84" x2="391.48" y2="88.30"/><line x1="342.52" y1="233.14" x2="328.27" y2="240.59"/><line x1="65.40" y1="233.14" x2="52.48" y2="224.91"/><line x1="223.17" y1="265.73" x2="203.96" y2="266.27"/><line x1="165.73" y1="10.17" x2="184.75" y2="8.54"/><line x1="396.15" y1="99.07" x2="398.97" y2="110.05"/><line x1="396.15" y1="175.21" x2="391.48" y2="185.98"/><line x1="223.17" y1="8.54" x2="242.19" y2="10.17"/><line x1="22.92" y1="196.43" x2="16.44" y2="185.98"/><line x1="8.00" y1="153.14" x2="8.00" y2="121.14"/><line x1="11.77" y1="175.21" x2="8.94" y2="164.23"/><line x1="52.48" y1="224.91" x2="41.03" y2="215.99"/><line x1="260.84" y1="261.40" x2="242.19" y2="264.10"/><line x1="312.83" y1="27.07" x2="328.27" y2="33.68"/><line x1="16.44" y1="88.30" x2="22.92" y2="77.84"/><line x1="184.75" y1="8.54" x2="203.96" y2="8.00"/><line x1="8.94" y1="110.05" x2="11.77" y2="99.07"/><line x1="366.89" y1="58.28" x2="376.78" y2="67.80"/><line x1="242.19" y1="264.10" x2="223.17" y2="265.73"/><line x1="52.48" y1="49.36" x2="65.40" y2="41.14"/><line x1="147.08" y1="261.40" x2="128.97" y2="257.66"/><line x1="355.44" y1="49.36" x2="366.89" y2="58.28"/><line x1="111.58" y1="21.36" x2="128.97" y2="16.61"/><line x1="128.97" y1="16.61" x2="147.08" y2="12.87"/><line x1="111.58" y1="252.92" x2="95.09" y2="247.21"/><line x1="128.97" y1="257.66" x2="111.58" y2="252.92"/><line x1="278.95" y1="257.66" x2="260.84" y2="261.40"/><line x1="376.78" y1="206.47" x2="366.89" y2="215.99"/><line x1="79.64" y1="33.68" x2="95.09" y2="27.07"/><line x1="385.00" y1="196.43" x2="376.78" y2="206.47"/><line x1="328.27" y1="33.68" x2="342.52" y2="41.14"/><line x1="11.77" y1="99.07" x2="16.44" y2="88.30"/><line x1="203.96" y1="8.00" x2="223.17" y2="8.54"/><line x1="95.09" y1="247.21" x2="79.64" y2="240.59"/><line x1="391.48" y1="185.98" x2="385.00" y2="196.43"/><line x1="165.73" y1="264.10" x2="147.08" y2="261.40"/><line x1="260.84" y1="12.87" x2="278.95" y2="16.61"/><line x1="398.97" y1="110.05" x2="399.92" y2="121.14"/><line x1="203.96" y1="266.27" x2="184.75" y2="265.73"/><line x1="65.40" y1="41.14" x2="79.64" y2="33.68"/><line x1="399.92" y1="153.14" x2="399.92" y2="121.14"/><line x1="8.94" y1="164.23" x2="8.00" y2="153.14"/><line x1="79.64" y1="240.59" x2="65.40" y2="233.14"/><line x1="296.33" y1="252.92" x2="278.95" y2="257.66"/><line x1="399.92" y1="153.14" x2="398.97" y2="164.23"/><line x1="296.33" y1="21.36" x2="312.83" y2="27.07"/></g></svg>
