<svg xmlns="http://www.w3.org/2000/svg" width="104.00" height="84.00" viewBox="0 0 104.00 84.00" shape-rendering="geometricPrecision" role="img" aria-label="vcad pcb render"><polygon points="2.000,82.000 102.000,82.000 102.000,2.000 2.000,2.000" fill="#0A0F0C"/><polyline points="2.000,82.000 102.000,82.000 102.000,2.000 2.000,2.000 2.000,82.000" fill="none" stroke="#040605" stroke-width="0.800" stroke-linecap="round" stroke-linejoin="round"/><line x1="31.050" y1="50.700" x2="49.050" y2="68.700" stroke="#9DFF34" stroke-width="0.500" stroke-linecap="round"/><line x1="49.050" y1="68.700" x2="49.050" y2="74.100" stroke="#9DFF34" stroke-width="0.500" stroke-linecap="round"/><line x1="49.050" y1="74.100" x2="50.850" y2="75.900" stroke="#9DFF34" stroke-width="0.500" stroke-linecap="round"/><line x1="32.950" y1="49.800" x2="50.950" y2="67.800" stroke="#9DFF34" stroke-width="1.600" stroke-linecap="round"/><line x1="71.050" y1="50.700" x2="53.050" y2="70.500" stroke="#9DFF34" stroke-width="0.500" stroke-linecap="round"/><line x1="52.000" y1="64.920" x2="70.000" y2="46.920" stroke="#9DFF34" stroke-width="1.600" stroke-linecap="round"/><line x1="70.000" y1="46.920" x2="72.000" y2="46.920" stroke="#9DFF34" stroke-width="1.600" stroke-linecap="round"/><line x1="72.000" y1="46.920" x2="74.000" y2="48.920" stroke="#9DFF34" stroke-width="1.600" stroke-linecap="round"/><line x1="31.050" y1="30.700" x2="30.150" y2="33.400" stroke="#9DFF34" stroke-width="0.500" stroke-linecap="round"/><line x1="30.150" y1="33.400" x2="31.050" y2="48.700" stroke="#9DFF34" stroke-width="0.500" stroke-linecap="round"/><line x1="32.000" y1="34.200" x2="32.000" y2="38.200" stroke="#9DFF34" stroke-width="1.600" stroke-linecap="round"/><g opacity="0.550"><line x1="32.000" y1="38.200" x2="32.000" y2="54.200" stroke="#A24BFF" stroke-width="1.600" stroke-linecap="round"/></g><line x1="32.000" y1="34.200" x2="52.000" y2="14.540" stroke="#9DFF34" stroke-width="1.600" stroke-linecap="round"/><g opacity="0.550"><line x1="32.950" y1="29.800" x2="12.000" y2="44.540" stroke="#A24BFF" stroke-width="1.600" stroke-linecap="round"/></g><g opacity="0.550"><line x1="32.950" y1="29.800" x2="72.950" y2="29.800" stroke="#A24BFF" stroke-width="1.600" stroke-linecap="round"/></g><line x1="71.050" y1="30.700" x2="75.550" y2="35.200" stroke="#9DFF34" stroke-width="0.500" stroke-linecap="round"/><line x1="75.550" y1="35.200" x2="75.550" y2="50.500" stroke="#9DFF34" stroke-width="0.500" stroke-linecap="round"/><line x1="75.550" y1="50.500" x2="74.650" y2="51.400" stroke="#9DFF34" stroke-width="0.500" stroke-linecap="round"/><line x1="74.650" y1="51.400" x2="71.050" y2="51.400" stroke="#9DFF34" stroke-width="0.500" stroke-linecap="round"/><line x1="72.000" y1="34.200" x2="56.000" y2="18.200" stroke="#9DFF34" stroke-width="1.600" stroke-linecap="round"/><line x1="56.000" y1="18.200" x2="56.000" y2="14.200" stroke="#9DFF34" stroke-width="1.600" stroke-linecap="round"/><line x1="56.000" y1="14.200" x2="52.000" y2="9.460" stroke="#9DFF34" stroke-width="1.600" stroke-linecap="round"/><g opacity="0.550"><line x1="36.950" y1="53.800" x2="32.950" y2="57.800" stroke="#A24BFF" stroke-width="1.600" stroke-linecap="round"/></g><line x1="32.950" y1="57.800" x2="30.950" y2="57.800" stroke="#9DFF34" stroke-width="1.600" stroke-linecap="round"/><line x1="30.950" y1="57.800" x2="12.000" y2="39.460" stroke="#9DFF34" stroke-width="1.600" stroke-linecap="round"/><line x1="72.000" y1="34.200" x2="72.000" y2="44.200" stroke="#9DFF34" stroke-width="1.600" stroke-linecap="round"/><g opacity="0.550"><line x1="72.000" y1="44.200" x2="72.000" y2="54.200" stroke="#A24BFF" stroke-width="1.600" stroke-linecap="round"/></g><polygon points="50.203,75.637 50.300,77.080 50.358,77.520 50.528,77.930 50.798,78.282 51.150,78.552 51.560,78.722 52.000,78.780 52.440,78.722 52.850,78.552 53.202,78.282 53.472,77.930 53.642,77.520 53.700,77.080 53.642,76.640 53.472,76.230 53.202,75.878 52.850,75.608 52.440,75.438 52.000,75.380 50.557,75.283" fill="#9DFF34"/><polygon points="49.030,65.082 50.528,67.770 50.798,68.122 51.150,68.392 51.560,68.562 52.000,68.620 52.440,68.562 52.850,68.392 53.202,68.122 53.472,67.770 53.642,67.360 53.700,66.920 53.642,66.480 53.472,66.070 53.202,65.718 52.850,65.448 50.162,63.950" fill="#9DFF34"/><polygon points="50.300,72.000 50.358,72.440 50.528,72.850 50.798,73.202 51.150,73.472 51.560,73.642 52.000,73.700 52.440,73.642 52.850,73.472 53.202,73.202 53.472,72.850 53.642,72.440 54.472,69.652 54.102,69.316 51.560,70.358 51.150,70.528 50.798,70.798 50.528,71.150 50.358,71.560" fill="#9DFF34"/><polygon points="50.300,66.920 50.358,67.360 50.528,67.770 50.798,68.122 51.150,68.392 51.560,68.562 52.000,68.620 52.440,68.562 52.850,68.392 53.202,68.122 53.472,67.770 54.970,65.082 53.838,63.950 51.150,65.448 50.798,65.718 50.528,66.070 50.358,66.480" fill="#9DFF34"/><polygon points="49.015,16.353 50.136,17.494 52.850,16.012 53.202,15.742 53.472,15.390 53.642,14.980 53.700,14.540 53.642,14.100 53.472,13.690 53.202,13.338 52.850,13.068 52.440,12.898 52.000,12.840 51.560,12.898 51.150,13.068 50.798,13.338 50.528,13.690" fill="#9DFF34"/><g opacity="0.550"><polygon points="10.300,44.540 10.358,44.980 10.528,45.390 10.798,45.742 11.150,46.012 11.560,46.182 12.000,46.240 12.440,46.182 12.850,46.012 13.202,45.742 15.241,43.238 14.320,41.929 11.560,42.898 11.150,43.068 10.798,43.338 10.528,43.690 10.358,44.100" fill="#A24BFF"/></g><polygon points="50.300,9.460 50.358,9.900 50.528,10.310 50.798,10.662 51.150,10.932 53.581,12.574 54.804,11.542 53.472,8.610 53.202,8.258 52.850,7.988 52.440,7.818 52.000,7.760 51.560,7.818 51.150,7.988 50.798,8.258 50.528,8.610 50.358,9.020" fill="#9DFF34"/><polygon points="10.300,39.460 10.358,39.900 10.528,40.310 10.798,40.662 11.150,40.932 13.887,42.399 15.000,41.250 13.472,38.610 13.202,38.258 12.850,37.988 12.440,37.818 12.000,37.760 11.560,37.818 11.150,37.988 10.798,38.258 10.528,38.610 10.358,39.020" fill="#9DFF34"/><polygon points="30.450,30.700 31.650,30.700 31.650,28.900 30.450,28.900" fill="#C6FF5C"/><polygon points="32.350,30.700 33.550,30.700 33.550,28.900 32.350,28.900" fill="#C6FF5C"/><polygon points="31.400,35.100 32.600,35.100 32.600,33.300 31.400,33.300" fill="#C6FF5C"/><polygon points="30.450,50.700 31.650,50.700 31.650,48.900 30.450,48.900" fill="#C6FF5C"/><polygon points="32.350,50.700 33.550,50.700 33.550,48.900 32.350,48.900" fill="#C6FF5C"/><polygon points="31.400,55.100 32.600,55.100 32.600,53.300 31.400,53.300" fill="#C6FF5C"/><polygon points="70.450,30.700 71.650,30.700 71.650,28.900 70.450,28.900" fill="#C6FF5C"/><polygon points="72.350,30.700 73.550,30.700 73.550,28.900 72.350,28.900" fill="#C6FF5C"/><polygon points="71.400,35.100 72.600,35.100 72.600,33.300 71.400,33.300" fill="#C6FF5C"/><polygon points="70.450,50.700 71.650,50.700 71.650,48.900 70.450,48.900" fill="#C6FF5C"/><polygon points="72.350,50.700 73.550,50.700 73.550,48.900 72.350,48.900" fill="#C6FF5C"/><polygon points="71.400,55.100 72.600,55.100 72.600,53.300 71.400,53.300" fill="#C6FF5C"/><circle cx="52.000" cy="14.540" r="1.700" fill="#C6FF5C"/><circle cx="52.000" cy="14.540" r="1.000" fill="#040605"/><circle cx="52.000" cy="14.540" r="1.150" fill="none" stroke="#173024" stroke-width="0.300"/><circle cx="52.000" cy="9.460" r="1.700" fill="#C6FF5C"/><circle cx="52.000" cy="9.460" r="1.000" fill="#040605"/><circle cx="52.000" cy="9.460" r="1.150" fill="none" stroke="#173024" stroke-width="0.300"/><circle cx="12.000" cy="44.540" r="1.700" fill="#C6FF5C"/><circle cx="12.000" cy="44.540" r="1.000" fill="#040605"/><circle cx="12.000" cy="44.540" r="1.150" fill="none" stroke="#173024" stroke-width="0.300"/><circle cx="12.000" cy="39.460" r="1.700" fill="#C6FF5C"/><circle cx="12.000" cy="39.460" r="1.000" fill="#040605"/><circle cx="12.000" cy="39.460" r="1.150" fill="none" stroke="#173024" stroke-width="0.300"/><circle cx="52.000" cy="77.080" r="1.700" fill="#C6FF5C"/><circle cx="52.000" cy="77.080" r="1.000" fill="#040605"/><circle cx="52.000" cy="77.080" r="1.150" fill="none" stroke="#173024" stroke-width="0.300"/><circle cx="52.000" cy="72.000" r="1.700" fill="#C6FF5C"/><circle cx="52.000" cy="72.000" r="1.000" fill="#040605"/><circle cx="52.000" cy="72.000" r="1.150" fill="none" stroke="#173024" stroke-width="0.300"/><circle cx="52.000" cy="66.920" r="1.700" fill="#C6FF5C"/><circle cx="52.000" cy="66.920" r="1.000" fill="#040605"/><circle cx="52.000" cy="66.920" r="1.150" fill="none" stroke="#173024" stroke-width="0.300"/><circle cx="32.000" cy="38.200" r="0.800" fill="#CBFF3C"/><circle cx="32.000" cy="38.200" r="0.400" fill="#040605"/><circle cx="32.000" cy="38.200" r="0.550" fill="none" stroke="#173024" stroke-width="0.300"/><circle cx="32.000" cy="54.200" r="0.800" fill="#CBFF3C"/><circle cx="32.000" cy="54.200" r="0.400" fill="#040605"/><circle cx="32.000" cy="54.200" r="0.550" fill="none" stroke="#173024" stroke-width="0.300"/><circle cx="32.950" cy="29.800" r="0.800" fill="#CBFF3C"/><circle cx="32.950" cy="29.800" r="0.400" fill="#040605"/><circle cx="32.950" cy="29.800" r="0.550" fill="none" stroke="#173024" stroke-width="0.300"/><circle cx="72.950" cy="29.800" r="0.800" fill="#CBFF3C"/><circle cx="72.950" cy="29.800" r="0.400" fill="#040605"/><circle cx="72.950" cy="29.800" r="0.550" fill="none" stroke="#173024" stroke-width="0.300"/><circle cx="36.950" cy="53.800" r="0.800" fill="#CBFF3C"/><circle cx="36.950" cy="53.800" r="0.400" fill="#040605"/><circle cx="36.950" cy="53.800" r="0.550" fill="none" stroke="#173024" stroke-width="0.300"/><circle cx="32.950" cy="57.800" r="0.800" fill="#CBFF3C"/><circle cx="32.950" cy="57.800" r="0.400" fill="#040605"/><circle cx="32.950" cy="57.800" r="0.550" fill="none" stroke="#173024" stroke-width="0.300"/><circle cx="72.000" cy="44.200" r="0.800" fill="#CBFF3C"/><circle cx="72.000" cy="44.200" r="0.400" fill="#040605"/><circle cx="72.000" cy="44.200" r="0.550" fill="none" stroke="#173024" stroke-width="0.300"/><circle cx="72.000" cy="54.200" r="0.800" fill="#CBFF3C"/><circle cx="72.000" cy="54.200" r="0.400" fill="#040605"/><circle cx="72.000" cy="54.200" r="0.550" fill="none" stroke="#173024" stroke-width="0.300"/><polyline points="29.700,33.500 34.300,33.500" fill="none" stroke="#E8FFF2" stroke-width="0.350" stroke-linecap="round" stroke-linejoin="round"/><polyline points="34.300,33.500 34.300,30.500" fill="none" stroke="#E8FFF2" stroke-width="0.350" stroke-linecap="round" stroke-linejoin="round"/><polyline points="34.300,30.500 29.700,30.500" fill="none" stroke="#E8FFF2" stroke-width="0.350" stroke-linecap="round" stroke-linejoin="round"/><polyline points="29.700,30.500 29.700,33.500" fill="none" stroke="#E8FFF2" stroke-width="0.350" stroke-linecap="round" stroke-linejoin="round"/><circle cx="28.900" cy="34.300" r="0.500" fill="none" stroke="#E8FFF2" stroke-width="0.350"/><polyline points="29.700,53.500 34.300,53.500" fill="none" stroke="#E8FFF2" stroke-width="0.350" stroke-linecap="round" stroke-linejoin="round"/><polyline points="34.300,53.500 34.300,50.500" fill="none" stroke="#E8FFF2" stroke-width="0.350" stroke-linecap="round" stroke-linejoin="round"/><polyline points="34.300,50.500 29.700,50.500" fill="none" stroke="#E8FFF2" stroke-width="0.350" stroke-linecap="round" stroke-linejoin="round"/><polyline points="29.700,50.500 29.700,53.500" fill="none" stroke="#E8FFF2" stroke-width="0.350" stroke-linecap="round" stroke-linejoin="round"/><circle cx="28.900" cy="54.300" r="0.500" fill="none" stroke="#E8FFF2" stroke-width="0.350"/><polyline points="69.700,33.500 74.300,33.500" fill="none" stroke="#E8FFF2" stroke-width="0.350" stroke-linecap="round" stroke-linejoin="round"/><polyline points="74.300,33.500 74.300,30.500" fill="none" stroke="#E8FFF2" stroke-width="0.350" stroke-linecap="round" stroke-linejoin="round"/><polyline points="74.300,30.500 69.700,30.500" fill="none" stroke="#E8FFF2" stroke-width="0.350" stroke-linecap="round" stroke-linejoin="round"/><polyline points="69.700,30.500 69.700,33.500" fill="none" stroke="#E8FFF2" stroke-width="0.350" stroke-linecap="round" stroke-linejoin="round"/><circle cx="68.900" cy="34.300" r="0.500" fill="none" stroke="#E8FFF2" stroke-width="0.350"/><polyline points="69.700,53.500 74.300,53.500" fill="none" stroke="#E8FFF2" stroke-width="0.350" stroke-linecap="round" stroke-linejoin="round"/><polyline points="74.300,53.500 74.300,50.500" fill="none" stroke="#E8FFF2" stroke-width="0.350" stroke-linecap="round" stroke-linejoin="round"/><polyline points="74.300,50.500 69.700,50.500" fill="none" stroke="#E8FFF2" stroke-width="0.350" stroke-linecap="round" stroke-linejoin="round"/><polyline points="69.700,50.500 69.700,53.500" fill="none" stroke="#E8FFF2" stroke-width="0.350" stroke-linecap="round" stroke-linejoin="round"/><circle cx="68.900" cy="54.300" r="0.500" fill="none" stroke="#E8FFF2" stroke-width="0.350"/><polyline points="49.460,16.540 54.540,16.540" fill="none" stroke="#E8FFF2" stroke-width="0.350" stroke-linecap="round" stroke-linejoin="round"/><polyline points="54.540,16.540 54.540,7.460" fill="none" stroke="#E8FFF2" stroke-width="0.350" stroke-linecap="round" stroke-linejoin="round"/><polyline points="54.540,7.460 49.460,7.460" fill="none" stroke="#E8FFF2" stroke-width="0.350" stroke-linecap="round" stroke-linejoin="round"/><polyline points="49.460,7.460 49.460,16.540" fill="none" stroke="#E8FFF2" stroke-width="0.350" stroke-linecap="round" stroke-linejoin="round"/><polyline points="9.460,46.540 14.540,46.540" fill="none" stroke="#E8FFF2" stroke-width="0.350" stroke-linecap="round" stroke-linejoin="round"/><polyline points="14.540,46.540 14.540,37.460" fill="none" stroke="#E8FFF2" stroke-width="0.350" stroke-linecap="round" stroke-linejoin="round"/><polyline points="14.540,37.460 9.460,37.460" fill="none" stroke="#E8FFF2" stroke-width="0.350" stroke-linecap="round" stroke-linejoin="round"/><polyline points="9.460,37.460 9.460,46.540" fill="none" stroke="#E8FFF2" stroke-width="0.350" stroke-linecap="round" stroke-linejoin="round"/><polyline points="49.460,79.080 54.540,79.080" fill="none" stroke="#E8FFF2" stroke-width="0.350" stroke-linecap="round" stroke-linejoin="round"/><polyline points="54.540,79.080 54.540,64.920" fill="none" stroke="#E8FFF2" stroke-width="0.350" stroke-linecap="round" stroke-linejoin="round"/><polyline points="54.540,64.920 49.460,64.920" fill="none" stroke="#E8FFF2" stroke-width="0.350" stroke-linecap="round" stroke-linejoin="round"/><polyline points="49.460,64.920 49.460,79.080" fill="none" stroke="#E8FFF2" stroke-width="0.350" stroke-linecap="round" stroke-linejoin="round"/><polyline points="2.000,82.000 102.000,82.000 102.000,2.000 2.000,2.000 2.000,82.000" fill="none" stroke="#FF6A1A" stroke-width="0.350" stroke-linecap="round" stroke-linejoin="round"/></svg>
