0
SECTION
2
HEADER
9
$INSUNITS
70
4
0
ENDSEC
0
SECTION
2
ENTITIES
0
LWPOLYLINE
8
0
90
406
70
1
10
10.632017
20
-27.701746
10
11.380107
20
-30.493658
10
11.376865
20
-30.494526
10
11.426134
20
-30.691220
10
11.470773
20
-30.992147
10
11.485700
20
-31.296000
10
11.470773
20
-31.599853
10
11.426134
20
-31.900780
10
11.352215
20
-32.195882
10
11.249727
20
-32.482319
10
11.119656
20
-32.757330
10
10.963256
20
-33.018268
10
10.782032
20
-33.262619
10
10.577731
20
-33.488031
10
10.352319
20
-33.692332
10
10.107968
20
-33.873556
10
9.847030
20
-34.029956
10
9.572019
20
-34.160027
10
9.285582
20
-34.262515
10
8.990480
20
-34.336434
10
8.689553
20
-34.381073
10
8.385700
20
-34.396000
10
8.081847
20
-34.381073
10
7.780920
20
-34.336434
10
7.485818
20
-34.262515
10
7.199381
20
-34.160027
10
6.924370
20
-34.029956
10
6.663432
20
-33.873556
10
6.419081
20
-33.692332
10
6.193669
20
-33.488031
10
5.989368
20
-33.262619
10
5.808144
20
-33.018268
10
5.651744
20
-32.757330
10
5.521673
20
-32.482319
10
5.419185
20
-32.195882
10
5.394538
20
-32.097486
10
5.391367
20
-32.098336
10
4.643276
20
-29.306424
10
4.570771
20
-29.113781
10
4.462075
20
-28.938984
10
4.321367
20
-28.788752
10
4.154054
20
-28.668857
10
3.966566
20
-28.583907
10
3.766107
20
-28.537167
10
3.560381
20
-28.530432
10
3.502240
20
-28.540031
10
3.501107
20
-28.535805
10
2.817993
20
-28.611561
10
2.114981
20
-28.672101
10
1.410696
20
-28.715369
10
0.705560
20
-28.741341
10
-0.000000
20
-28.750000
10
-0.705560
20
-28.741341
10
-1.410696
20
-28.715369
10
-2.114981
20
-28.672101
10
-2.817993
20
-28.611561
10
-3.519307
20
-28.533787
10
-4.218501
20
-28.438825
10
-4.915154
20
-28.326732
10
-5.608847
20
-28.197577
10
-6.299161
20
-28.051436
10
-6.985680
20
-27.888399
10
-7.667992
20
-27.708562
10
-8.345684
20
-27.512035
10
-9.018350
20
-27.298935
10
-9.685583
20
-27.069392
10
-10.346982
20
-26.823543
10
-11.002149
20
-26.561537
10
-11.650688
20
-26.283530
10
-12.292209
20
-25.989692
10
-12.926326
20
-25.680199
10
-13.552656
20
-25.355236
10
-14.170823
20
-25.015001
10
-14.780454
20
-24.659698
10
-15.381182
20
-24.289540
10
-15.972644
20
-23.904751
10
-16.554486
20
-23.505563
10
-17.126355
20
-23.092217
10
-17.687908
20
-22.664960
10
-18.238807
20
-22.224051
10
-18.778719
20
-21.769754
10
-19.307320
20
-21.302345
10
-19.824291
20
-20.822104
10
-20.329320
20
-20.329320
10
-20.822104
20
-19.824291
10
-21.302345
20
-19.307320
10
-21.769754
20
-18.778719
10
-22.224051
20
-18.238807
10
-22.664960
20
-17.687908
10
-23.092217
20
-17.126355
10
-23.505563
20
-16.554486
10
-23.904751
20
-15.972644
10
-24.289540
20
-15.381182
10
-24.659698
20
-14.780454
10
-25.015001
20
-14.170823
10
-25.355236
20
-13.552656
10
-25.680199
20
-12.926326
10
-25.989692
20
-12.292209
10
-26.283530
20
-11.650688
10
-26.561537
20
-11.002149
10
-26.823543
20
-10.346982
10
-27.069392
20
-9.685583
10
-27.298935
20
-9.018350
10
-27.512035
20
-8.345684
10
-27.708562
20
-7.667992
10
-27.888399
20
-6.985680
10
-28.051436
20
-6.299161
10
-28.197577
20
-5.608847
10
-28.326732
20
-4.915154
10
-28.438825
20
-4.218501
10
-28.533787
20
-3.519307
10
-28.611561
20
-2.817993
10
-28.672101
20
-2.114981
10
-28.715369
20
-1.410696
10
-28.741341
20
-0.705560
10
-28.750000
20
0.000000
10
-28.741341
20
0.705560
10
-28.715369
20
1.410696
10
-28.672101
20
2.114981
10
-28.611561
20
2.817993
10
-28.535805
20
3.501107
10
-28.540031
20
3.502240
10
-28.530432
20
3.560381
10
-28.537167
20
3.766107
10
-28.583907
20
3.966566
10
-28.668857
20
4.154054
10
-28.788752
20
4.321367
10
-28.938984
20
4.462075
10
-29.113781
20
4.570771
10
-29.306424
20
4.643276
10
-32.098336
20
5.391367
10
-32.097486
20
5.394538
10
-32.195882
20
5.419185
10
-32.482319
20
5.521673
10
-32.757330
20
5.651744
10
-33.018268
20
5.808144
10
-33.262619
20
5.989368
10
-33.488031
20
6.193669
10
-33.692332
20
6.419081
10
-33.873556
20
6.663432
10
-34.029956
20
6.924370
10
-34.160027
20
7.199381
10
-34.262515
20
7.485818
10
-34.336434
20
7.780920
10
-34.381073
20
8.081847
10
-34.396000
20
8.385700
10
-34.381073
20
8.689553
10
-34.336434
20
8.990480
10
-34.262515
20
9.285582
10
-34.160027
20
9.572019
10
-34.029956
20
9.847030
10
-33.873556
20
10.107968
10
-33.692332
20
10.352319
10
-33.488031
20
10.577731
10
-33.262619
20
10.782032
10
-33.018268
20
10.963256
10
-32.757330
20
11.119656
10
-32.482319
20
11.249727
10
-32.195882
20
11.352215
10
-31.900780
20
11.426134
10
-31.599853
20
11.470773
10
-31.296000
20
11.485700
10
-30.992147
20
11.470773
10
-30.691220
20
11.426134
10
-30.494526
20
11.376865
10
-30.493658
20
11.380107
10
-27.701746
20
10.632017
10
-27.498659
20
10.598487
10
-27.292933
20
10.605222
10
-27.092474
20
10.651962
10
-26.904986
20
10.736912
10
-26.737673
20
10.856807
10
-26.596965
20
11.007039
10
-26.488269
20
11.181836
10
-26.467512
20
11.236987
10
-26.461554
20
11.235391
10
-26.283530
20
11.650688
10
-25.989692
20
12.292209
10
-25.680199
20
12.926326
10
-25.355236
20
13.552656
10
-25.015001
20
14.170823
10
-24.659698
20
14.780454
10
-24.289540
20
15.381182
10
-23.904751
20
15.972644
10
-23.505563
20
16.554486
10
-23.092217
20
17.126355
10
-22.664960
20
17.687908
10
-22.224051
20
18.238807
10
-21.769754
20
18.778719
10
-21.302345
20
19.307320
10
-20.822104
20
19.824291
10
-20.329320
20
20.329320
10
-19.824291
20
20.822104
10
-19.307320
20
21.302345
10
-18.778719
20
21.769754
10
-18.238807
20
22.224051
10
-17.687908
20
22.664960
10
-17.126355
20
23.092217
10
-16.554486
20
23.505563
10
-15.972644
20
23.904751
10
-15.381182
20
24.289540
10
-14.780454
20
24.659698
10
-14.170823
20
25.015001
10
-13.552656
20
25.355236
10
-12.926326
20
25.680199
10
-12.292209
20
25.989692
10
-11.650688
20
26.283530
10
-11.002149
20
26.561537
10
-10.346982
20
26.823543
10
-9.685583
20
27.069392
10
-9.354311
20
27.183357
10
-9.127021
20
26.335100
10
-9.127021
20
26.335100
10
-9.054515
20
26.142457
10
-8.945820
20
25.967660
10
-8.805112
20
25.817428
10
-8.637799
20
25.697533
10
-8.450310
20
25.612583
10
-8.249851
20
25.565843
10
-8.044126
20
25.559108
10
-7.841039
20
25.592638
10
-6.005780
20
26.084394
10
-5.813137
20
26.156900
10
-5.638340
20
26.265595
10
-5.488108
20
26.406303
10
-5.368213
20
26.573616
10
-5.283263
20
26.761105
10
-5.236523
20
26.961564
10
-5.229788
20
27.167289
10
-5.263318
20
27.370376
10
-5.263318
20
27.370376
10
-5.490852
20
28.219546
10
-4.915154
20
28.326732
10
-4.218501
20
28.438825
10
-3.519307
20
28.533787
10
-2.817993
20
28.611561
10
-2.114981
20
28.672101
10
-1.410696
20
28.715369
10
-0.705560
20
28.741341
10
0.000000
20
28.750000
10
0.705560
20
28.741341
10
1.410696
20
28.715369
10
2.114981
20
28.672101
10
2.817993
20
28.611561
10
3.519307
20
28.533787
10
4.218501
20
28.438825
10
4.915154
20
28.326732
10
5.608847
20
28.197577
10
6.299161
20
28.051436
10
6.985680
20
27.888399
10
7.667992
20
27.708562
10
8.345684
20
27.512035
10
9.018350
20
27.298935
10
9.685583
20
27.069392
10
10.346982
20
26.823543
10
11.002149
20
26.561537
10
11.650688
20
26.283530
10
12.292209
20
25.989692
10
12.926326
20
25.680199
10
13.552656
20
25.355236
10
14.170823
20
25.015001
10
14.780454
20
24.659698
10
15.381182
20
24.289540
10
15.972644
20
23.904751
10
16.554486
20
23.505563
10
17.126355
20
23.092217
10
17.298791
20
22.961019
10
17.303044
20
22.965272
10
17.348596
20
22.927888
10
17.530128
20
22.830858
10
17.727100
20
22.771107
10
17.931945
20
22.750931
10
18.136790
20
22.771107
10
18.333763
20
22.830858
10
18.515294
20
22.927888
10
18.674407
20
23.058469
10
20.718229
20
25.102291
10
20.718231
20
25.102289
10
20.718269
20
25.102331
10
20.943681
20
25.306632
10
21.188032
20
25.487856
10
21.448970
20
25.644256
10
21.723981
20
25.774327
10
22.010418
20
25.876815
10
22.305520
20
25.950734
10
22.606447
20
25.995373
10
22.910300
20
26.010300
10
23.214153
20
25.995373
10
23.515080
20
25.950734
10
23.810182
20
25.876815
10
24.096619
20
25.774327
10
24.371630
20
25.644256
10
24.632568
20
25.487856
10
24.876919
20
25.306632
10
25.102331
20
25.102331
10
25.306632
20
24.876919
10
25.487856
20
24.632568
10
25.644256
20
24.371630
10
25.774327
20
24.096619
10
25.876815
20
23.810182
10
25.950734
20
23.515080
10
25.995373
20
23.214153
10
26.010300
20
22.910300
10
25.995373
20
22.606447
10
25.950734
20
22.305520
10
25.876815
20
22.010418
10
25.774327
20
21.723981
10
25.644256
20
21.448970
10
25.487856
20
21.188032
10
25.306632
20
20.943681
10
25.102331
20
20.718269
10
25.102289
20
20.718231
10
25.102291
20
20.718229
10
23.058469
20
18.674407
10
22.927888
20
18.515294
10
22.830858
20
18.333763
10
22.771107
20
18.136790
10
22.750931
20
17.931945
10
22.771107
20
17.727100
10
22.830858
20
17.530128
10
22.927888
20
17.348596
10
22.965272
20
17.303044
10
22.961019
20
17.298791
10
23.092217
20
17.126355
10
23.505563
20
16.554486
10
23.904751
20
15.972644
10
24.289540
20
15.381182
10
24.659698
20
14.780454
10
25.015001
20
14.170823
10
25.355236
20
13.552656
10
25.680199
20
12.926326
10
25.989692
20
12.292209
10
26.283530
20
11.650688
10
26.561537
20
11.002149
10
26.823543
20
10.346982
10
27.069392
20
9.685583
10
27.298935
20
9.018350
10
27.512035
20
8.345684
10
27.708562
20
7.667992
10
27.888399
20
6.985680
10
28.051436
20
6.299161
10
28.197577
20
5.608847
10
28.326732
20
4.915154
10
28.438825
20
4.218501
10
28.533787
20
3.519307
10
28.611561
20
2.817993
10
28.672101
20
2.114981
10
28.715369
20
1.410696
10
28.741341
20
0.705560
10
28.750000
20
0.000000
10
28.741341
20
-0.705560
10
28.715369
20
-1.410696
10
28.672101
20
-2.114981
10
28.611561
20
-2.817993
10
28.533787
20
-3.519307
10
28.438825
20
-4.218501
10
28.326732
20
-4.915154
10
28.197577
20
-5.608847
10
28.051436
20
-6.299161
10
27.888399
20
-6.985680
10
27.708562
20
-7.667992
10
27.512035
20
-8.345684
10
27.298935
20
-9.018350
10
27.069392
20
-9.685583
10
26.823543
20
-10.346982
10
26.561537
20
-11.002149
10
26.283530
20
-11.650688
10
25.989692
20
-12.292209
10
25.680199
20
-12.926326
10
25.355236
20
-13.552656
10
25.015001
20
-14.170823
10
24.659698
20
-14.780454
10
24.289540
20
-15.381182
10
23.904751
20
-15.972644
10
23.505563
20
-16.554486
10
23.092217
20
-17.126355
10
22.664960
20
-17.687908
10
22.224051
20
-18.238807
10
21.769754
20
-18.778719
10
21.302345
20
-19.307320
10
20.822104
20
-19.824291
10
20.329320
20
-20.329320
10
19.824291
20
-20.822104
10
19.307320
20
-21.302345
10
18.778719
20
-21.769754
10
18.238807
20
-22.224051
10
17.687908
20
-22.664960
10
17.126355
20
-23.092217
10
16.554486
20
-23.505563
10
15.972644
20
-23.904751
10
15.381182
20
-24.289540
10
14.780454
20
-24.659698
10
14.170823
20
-25.015001
10
13.552656
20
-25.355236
10
12.926326
20
-25.680199
10
12.292209
20
-25.989692
10
11.650688
20
-26.283530
10
11.235391
20
-26.461554
10
11.236987
20
-26.467512
10
11.181836
20
-26.488269
10
11.007039
20
-26.596965
10
10.856807
20
-26.737673
10
10.736912
20
-26.904986
10
10.651962
20
-27.092474
10
10.605222
20
-27.292933
10
10.598487
20
-27.498659
0
LWPOLYLINE
8
0
90
48
70
1
10
24.065149
20
23.388654
10
23.992832
20
23.535300
10
23.901992
20
23.671252
10
23.794183
20
23.794183
10
23.671252
20
23.901992
10
23.535300
20
23.992832
10
23.388654
20
24.065149
10
23.233824
20
24.117707
10
23.073458
20
24.149606
10
22.910300
20
24.160300
10
22.747142
20
24.149606
10
22.586776
20
24.117707
10
22.431946
20
24.065149
10
22.285300
20
23.992832
10
22.149348
20
23.901992
10
22.026417
20
23.794183
10
21.918608
20
23.671252
10
21.827768
20
23.535300
10
21.755451
20
23.388654
10
21.702893
20
23.233824
10
21.670994
20
23.073458
10
21.660300
20
22.910300
10
21.670994
20
22.747142
10
21.702893
20
22.586776
10
21.755451
20
22.431946
10
21.827768
20
22.285300
10
21.918608
20
22.149348
10
22.026417
20
22.026417
10
22.149348
20
21.918608
10
22.285300
20
21.827768
10
22.431946
20
21.755451
10
22.586776
20
21.702893
10
22.747142
20
21.670994
10
22.910300
20
21.660300
10
23.073458
20
21.670994
10
23.233824
20
21.702893
10
23.388654
20
21.755451
10
23.535300
20
21.827768
10
23.671252
20
21.918608
10
23.794183
20
22.026417
10
23.901992
20
22.149348
10
23.992832
20
22.285300
10
24.065149
20
22.431946
10
24.117707
20
22.586776
10
24.149606
20
22.747142
10
24.160300
20
22.910300
10
24.149606
20
23.073458
10
24.117707
20
23.233824
0
LWPOLYLINE
8
0
90
504
70
1
10
8.500000
20
14.722432
10
7.981017
20
15.010109
10
7.452309
20
15.279499
10
6.914523
20
15.530273
10
6.368312
20
15.762126
10
6.241599
20
15.810766
10
9.171836
20
20.886087
10
9.256786
20
21.073575
10
9.303527
20
21.274034
10
9.310262
20
21.479760
10
9.276732
20
21.682847
10
9.204226
20
21.875490
10
9.095531
20
22.050286
10
8.954823
20
22.200519
10
8.787510
20
22.320413
10
8.638870
20
22.387761
10
8.640516
20
22.390613
10
8.637481
20
22.391827
10
8.085356
20
22.597058
10
7.528362
20
22.788676
10
6.966832
20
22.966568
10
6.401106
20
23.130626
10
5.831524
20
23.280750
10
5.258430
20
23.416851
10
4.682168
20
23.538847
10
4.103085
20
23.646663
10
3.712400
20
23.709525
10
3.712400
20
23.707805
10
3.550000
20
23.723800
10
3.345155
20
23.703625
10
3.148182
20
23.643874
10
2.966651
20
23.546843
10
2.807538
20
23.416262
10
2.676957
20
23.257149
10
2.579926
20
23.075618
10
2.520175
20
22.878645
10
2.500000
20
22.673800
10
2.500000
20
16.813325
10
2.365943
20
16.834557
10
1.776984
20
16.906872
10
1.185860
20
16.958589
10
0.593291
20
16.989644
10
0.000000
20
17.000000
10
-0.593291
20
16.989644
10
-1.185860
20
16.958589
10
-1.776984
20
16.906872
10
-2.365943
20
16.834557
10
-2.500000
20
16.813325
10
-2.500000
20
22.673800
10
-2.520175
20
22.878645
10
-2.579926
20
23.075618
10
-2.676957
20
23.257149
10
-2.807538
20
23.416262
10
-2.966651
20
23.546843
10
-3.148182
20
23.643874
10
-3.345155
20
23.703625
10
-3.550000
20
23.723800
10
-3.712400
20
23.707805
10
-3.712400
20
23.709525
10
-4.103085
20
23.646663
10
-4.682168
20
23.538847
10
-5.258430
20
23.416851
10
-5.831524
20
23.280750
10
-6.401106
20
23.130626
10
-6.966832
20
22.966568
10
-7.528362
20
22.788676
10
-8.085356
20
22.597058
10
-8.637481
20
22.391827
10
-8.640516
20
22.390613
10
-8.638870
20
22.387761
10
-8.787510
20
22.320413
10
-8.954823
20
22.200519
10
-9.095531
20
22.050286
10
-9.204226
20
21.875490
10
-9.276732
20
21.682847
10
-9.310262
20
21.479760
10
-9.303527
20
21.274034
10
-9.256786
20
21.073575
10
-9.171836
20
20.886087
10
-6.241599
20
15.810766
10
-6.368312
20
15.762126
10
-6.914523
20
15.530273
10
-7.452309
20
15.279499
10
-7.981017
20
15.010109
10
-8.500000
20
14.722432
10
-9.008627
20
14.416818
10
-9.506279
20
14.093639
10
-9.992349
20
13.753289
10
-10.466245
20
13.396183
10
-10.571726
20
13.310766
10
-13.501964
20
18.386087
10
-13.621858
20
18.553400
10
-13.772091
20
18.694108
10
-13.946887
20
18.802803
10
-14.139530
20
18.875309
10
-14.342617
20
18.908839
10
-14.548343
20
18.902104
10
-14.748802
20
18.855363
10
-14.936290
20
18.770413
10
-15.068935
20
18.675361
10
-15.069783
20
18.676829
10
-15.225439
20
18.552251
10
-15.676148
20
18.173012
10
-16.117415
20
17.782827
10
-16.548973
20
17.381930
10
-16.970563
20
16.970563
10
-17.381930
20
16.548973
10
-17.782827
20
16.117415
10
-18.173012
20
15.676148
10
-18.552251
20
15.225439
10
-18.676829
20
15.069783
10
-18.675361
20
15.068935
10
-18.770413
20
14.936290
10
-18.855363
20
14.748802
10
-18.902104
20
14.548343
10
-18.908839
20
14.342617
10
-18.875309
20
14.139530
10
-18.802803
20
13.946887
10
-18.694108
20
13.772091
10
-18.553400
20
13.621858
10
-18.386087
20
13.501964
10
-13.310766
20
10.571726
10
-13.396183
20
10.466245
10
-13.753289
20
9.992349
10
-14.093639
20
9.506279
10
-14.416818
20
9.008627
10
-14.722432
20
8.500000
10
-15.010109
20
7.981017
10
-15.279499
20
7.452309
10
-15.530273
20
6.914523
10
-15.762126
20
6.368312
10
-15.810766
20
6.241599
10
-20.886087
20
9.171836
10
-21.073575
20
9.256786
10
-21.274034
20
9.303527
10
-21.479760
20
9.310262
10
-21.682847
20
9.276732
10
-21.875490
20
9.204226
10
-22.050286
20
9.095531
10
-22.200519
20
8.954823
10
-22.320413
20
8.787510
10
-22.387761
20
8.638870
10
-22.390613
20
8.640516
10
-22.391827
20
8.637481
10
-22.597058
20
8.085356
10
-22.788676
20
7.528362
10
-22.966568
20
6.966832
10
-23.130626
20
6.401106
10
-23.280750
20
5.831524
10
-23.416851
20
5.258430
10
-23.538847
20
4.682168
10
-23.646663
20
4.103085
10
-23.709525
20
3.712400
10
-23.707805
20
3.712400
10
-23.723800
20
3.550000
10
-23.703625
20
3.345155
10
-23.643874
20
3.148182
10
-23.546843
20
2.966651
10
-23.416262
20
2.807538
10
-23.257149
20
2.676957
10
-23.075618
20
2.579926
10
-22.878645
20
2.520175
10
-22.673800
20
2.500000
10
-16.813325
20
2.500000
10
-16.834557
20
2.365943
10
-16.906872
20
1.776984
10
-16.958589
20
1.185860
10
-16.989644
20
0.593291
10
-17.000000
20
0.000000
10
-16.989644
20
-0.593291
10
-16.958589
20
-1.185860
10
-16.906872
20
-1.776984
10
-16.834557
20
-2.365943
10
-16.813325
20
-2.500000
10
-22.673800
20
-2.500000
10
-22.878645
20
-2.520175
10
-23.075618
20
-2.579926
10
-23.257149
20
-2.676957
10
-23.416262
20
-2.807538
10
-23.546843
20
-2.966651
10
-23.643874
20
-3.148182
10
-23.703625
20
-3.345155
10
-23.723800
20
-3.550000
10
-23.707805
20
-3.712400
10
-23.709525
20
-3.712400
10
-23.646663
20
-4.103085
10
-23.538847
20
-4.682168
10
-23.416851
20
-5.258430
10
-23.280750
20
-5.831524
10
-23.130626
20
-6.401106
10
-22.966568
20
-6.966832
10
-22.788676
20
-7.528362
10
-22.597058
20
-8.085356
10
-22.391827
20
-8.637481
10
-22.390613
20
-8.640516
10
-22.387761
20
-8.638870
10
-22.320413
20
-8.787510
10
-22.200519
20
-8.954823
10
-22.050286
20
-9.095531
10
-21.875490
20
-9.204226
10
-21.682847
20
-9.276732
10
-21.479760
20
-9.310262
10
-21.274034
20
-9.303527
10
-21.073575
20
-9.256786
10
-20.886087
20
-9.171836
10
-15.810766
20
-6.241599
10
-15.762126
20
-6.368312
10
-15.530273
20
-6.914523
10
-15.279499
20
-7.452309
10
-15.010109
20
-7.981017
10
-14.722432
20
-8.500000
10
-14.416818
20
-9.008627
10
-14.093639
20
-9.506279
10
-13.753289
20
-9.992349
10
-13.396183
20
-10.466245
10
-13.310766
20
-10.571726
10
-18.386087
20
-13.501964
10
-18.553400
20
-13.621858
10
-18.694108
20
-13.772091
10
-18.802803
20
-13.946887
10
-18.875309
20
-14.139530
10
-18.908839
20
-14.342617
10
-18.902104
20
-14.548343
10
-18.855363
20
-14.748802
10
-18.770413
20
-14.936290
10
-18.675361
20
-15.068935
10
-18.676829
20
-15.069783
10
-18.552251
20
-15.225439
10
-18.173012
20
-15.676148
10
-17.782827
20
-16.117415
10
-17.381930
20
-16.548973
10
-16.970563
20
-16.970563
10
-16.548973
20
-17.381930
10
-16.117415
20
-17.782827
10
-15.676148
20
-18.173012
10
-15.225439
20
-18.552251
10
-15.069783
20
-18.676829
10
-15.068935
20
-18.675361
10
-14.936290
20
-18.770413
10
-14.748802
20
-18.855363
10
-14.548343
20
-18.902104
10
-14.342617
20
-18.908839
10
-14.139530
20
-18.875309
10
-13.946887
20
-18.802803
10
-13.772091
20
-18.694108
10
-13.621858
20
-18.553400
10
-13.501964
20
-18.386087
10
-10.571726
20
-13.310766
10
-10.466245
20
-13.396183
10
-9.992349
20
-13.753289
10
-9.506279
20
-14.093639
10
-9.008627
20
-14.416818
10
-8.500000
20
-14.722432
10
-7.981017
20
-15.010109
10
-7.452309
20
-15.279499
10
-6.914523
20
-15.530273
10
-6.368312
20
-15.762126
10
-6.241599
20
-15.810766
10
-9.171836
20
-20.886087
10
-9.256786
20
-21.073575
10
-9.303527
20
-21.274034
10
-9.310262
20
-21.479760
10
-9.276732
20
-21.682847
10
-9.204226
20
-21.875490
10
-9.095531
20
-22.050286
10
-8.954823
20
-22.200519
10
-8.787510
20
-22.320413
10
-8.638870
20
-22.387761
10
-8.640516
20
-22.390613
10
-8.637481
20
-22.391827
10
-8.085356
20
-22.597058
10
-7.528362
20
-22.788676
10
-6.966832
20
-22.966568
10
-6.401106
20
-23.130626
10
-5.831524
20
-23.280750
10
-5.258430
20
-23.416851
10
-4.682168
20
-23.538847
10
-4.103085
20
-23.646663
10
-3.712400
20
-23.709525
10
-3.712400
20
-23.707805
10
-3.550000
20
-23.723800
10
-3.345155
20
-23.703625
10
-3.148182
20
-23.643874
10
-2.966651
20
-23.546843
10
-2.807538
20
-23.416262
10
-2.676957
20
-23.257149
10
-2.579926
20
-23.075618
10
-2.520175
20
-22.878645
10
-2.500000
20
-22.673800
10
-2.500000
20
-16.813325
10
-2.365943
20
-16.834557
10
-1.776984
20
-16.906872
10
-1.185860
20
-16.958589
10
-0.593291
20
-16.989644
10
-0.000000
20
-17.000000
10
0.593291
20
-16.989644
10
1.185860
20
-16.958589
10
1.776984
20
-16.906872
10
2.365943
20
-16.834557
10
2.500000
20
-16.813325
10
2.500000
20
-22.673800
10
2.520175
20
-22.878645
10
2.579926
20
-23.075618
10
2.676957
20
-23.257149
10
2.807538
20
-23.416262
10
2.966651
20
-23.546843
10
3.148182
20
-23.643874
10
3.345155
20
-23.703625
10
3.550000
20
-23.723800
10
3.712400
20
-23.707805
10
3.712400
20
-23.709525
10
4.103085
20
-23.646663
10
4.682168
20
-23.538847
10
5.258430
20
-23.416851
10
5.831524
20
-23.280750
10
6.401106
20
-23.130626
10
6.966832
20
-22.966568
10
7.528362
20
-22.788676
10
8.085356
20
-22.597058
10
8.637481
20
-22.391827
10
8.640516
20
-22.390613
10
8.638870
20
-22.387761
10
8.787510
20
-22.320413
10
8.954823
20
-22.200519
10
9.095531
20
-22.050286
10
9.204226
20
-21.875490
10
9.276732
20
-21.682847
10
9.310262
20
-21.479760
10
9.303527
20
-21.274034
10
9.256786
20
-21.073575
10
9.171836
20
-20.886087
10
6.241599
20
-15.810766
10
6.368312
20
-15.762126
10
6.914523
20
-15.530273
10
7.452309
20
-15.279499
10
7.981017
20
-15.010109
10
8.500000
20
-14.722432
10
9.008627
20
-14.416818
10
9.506279
20
-14.093639
10
9.992349
20
-13.753289
10
10.466245
20
-13.396183
10
10.571726
20
-13.310766
10
13.501964
20
-18.386087
10
13.621858
20
-18.553400
10
13.772091
20
-18.694108
10
13.946887
20
-18.802803
10
14.139530
20
-18.875309
10
14.342617
20
-18.908839
10
14.548343
20
-18.902104
10
14.748802
20
-18.855363
10
14.936290
20
-18.770413
10
15.068935
20
-18.675361
10
15.069783
20
-18.676829
10
15.225439
20
-18.552251
10
15.676148
20
-18.173012
10
16.117415
20
-17.782827
10
16.548973
20
-17.381930
10
16.970563
20
-16.970563
10
17.381930
20
-16.548973
10
17.782827
20
-16.117415
10
18.173012
20
-15.676148
10
18.552251
20
-15.225439
10
18.676829
20
-15.069783
10
18.675361
20
-15.068935
10
18.770413
20
-14.936290
10
18.855363
20
-14.748802
10
18.902104
20
-14.548343
10
18.908839
20
-14.342617
10
18.875309
20
-14.139530
10
18.802803
20
-13.946887
10
18.694108
20
-13.772091
10
18.553400
20
-13.621858
10
18.386087
20
-13.501964
10
13.310766
20
-10.571726
10
13.396183
20
-10.466245
10
13.753289
20
-9.992349
10
14.093639
20
-9.506279
10
14.416818
20
-9.008627
10
14.722432
20
-8.500000
10
15.010109
20
-7.981017
10
15.279499
20
-7.452309
10
15.530273
20
-6.914523
10
15.762126
20
-6.368312
10
15.810766
20
-6.241599
10
20.886087
20
-9.171836
10
21.073575
20
-9.256786
10
21.274034
20
-9.303527
10
21.479760
20
-9.310262
10
21.682847
20
-9.276732
10
21.875490
20
-9.204226
10
22.050286
20
-9.095531
10
22.200519
20
-8.954823
10
22.320413
20
-8.787510
10
22.387761
20
-8.638870
10
22.390613
20
-8.640516
10
22.391827
20
-8.637481
10
22.597058
20
-8.085356
10
22.788676
20
-7.528362
10
22.966568
20
-6.966832
10
23.130626
20
-6.401106
10
23.280750
20
-5.831524
10
23.416851
20
-5.258430
10
23.538847
20
-4.682168
10
23.646663
20
-4.103085
10
23.709525
20
-3.712400
10
23.707805
20
-3.712400
10
23.723800
20
-3.550000
10
23.703625
20
-3.345155
10
23.643874
20
-3.148182
10
23.546843
20
-2.966651
10
23.416262
20
-2.807538
10
23.257149
20
-2.676957
10
23.075618
20
-2.579926
10
22.878645
20
-2.520175
10
22.673800
20
-2.500000
10
16.813325
20
-2.500000
10
16.834557
20
-2.365943
10
16.906872
20
-1.776984
10
16.958589
20
-1.185860
10
16.989644
20
-0.593291
10
17.000000
20
0.000000
10
16.989644
20
0.593291
10
16.958589
20
1.185860
10
16.906872
20
1.776984
10
16.834557
20
2.365943
10
16.813325
20
2.500000
10
22.673800
20
2.500000
10
22.878645
20
2.520175
10
23.075618
20
2.579926
10
23.257149
20
2.676957
10
23.416262
20
2.807538
10
23.546843
20
2.966651
10
23.643874
20
3.148182
10
23.703625
20
3.345155
10
23.723800
20
3.550000
10
23.707805
20
3.712400
10
23.709525
20
3.712400
10
23.646663
20
4.103085
10
23.538847
20
4.682168
10
23.416851
20
5.258430
10
23.280750
20
5.831524
10
23.130626
20
6.401106
10
22.966568
20
6.966832
10
22.788676
20
7.528362
10
22.597058
20
8.085356
10
22.391827
20
8.637481
10
22.390613
20
8.640516
10
22.387761
20
8.638870
10
22.320413
20
8.787510
10
22.200519
20
8.954823
10
22.050286
20
9.095531
10
21.875490
20
9.204226
10
21.682847
20
9.276732
10
21.479760
20
9.310262
10
21.274034
20
9.303527
10
21.073575
20
9.256786
10
20.886087
20
9.171836
10
15.810766
20
6.241599
10
15.762126
20
6.368312
10
15.530273
20
6.914523
10
15.279499
20
7.452309
10
15.010109
20
7.981017
10
14.722432
20
8.500000
10
14.416818
20
9.008627
10
14.093639
20
9.506279
10
13.753289
20
9.992349
10
13.396183
20
10.466245
10
13.310766
20
10.571726
10
18.386087
20
13.501964
10
18.553400
20
13.621858
10
18.694108
20
13.772091
10
18.802803
20
13.946887
10
18.875309
20
14.139530
10
18.908839
20
14.342617
10
18.902104
20
14.548343
10
18.855363
20
14.748802
10
18.770413
20
14.936290
10
18.675361
20
15.068935
10
18.676829
20
15.069783
10
18.552251
20
15.225439
10
18.173012
20
15.676148
10
17.782827
20
16.117415
10
17.381930
20
16.548973
10
16.970563
20
16.970563
10
16.548973
20
17.381930
10
16.117415
20
17.782827
10
15.676148
20
18.173012
10
15.225439
20
18.552251
10
15.069783
20
18.676829
10
15.068935
20
18.675361
10
14.936290
20
18.770413
10
14.748802
20
18.855363
10
14.548343
20
18.902104
10
14.342617
20
18.908839
10
14.139530
20
18.875309
10
13.946887
20
18.802803
10
13.772091
20
18.694108
10
13.621858
20
18.553400
10
13.501964
20
18.386087
10
10.571726
20
13.310766
10
10.466245
20
13.396183
10
9.992349
20
13.753289
10
9.506279
20
14.093639
10
9.008627
20
14.416818
0
LWPOLYLINE
8
0
90
48
70
1
10
9.625006
20
-31.132842
10
9.593107
20
-30.972476
10
9.540549
20
-30.817646
10
9.468232
20
-30.671000
10
9.377392
20
-30.535048
10
9.269583
20
-30.412117
10
9.146652
20
-30.304308
10
9.010700
20
-30.213468
10
8.864054
20
-30.141151
10
8.709224
20
-30.088593
10
8.548858
20
-30.056694
10
8.385700
20
-30.046000
10
8.222542
20
-30.056694
10
8.062176
20
-30.088593
10
7.907346
20
-30.141151
10
7.760700
20
-30.213468
10
7.624748
20
-30.304308
10
7.501817
20
-30.412117
10
7.394008
20
-30.535048
10
7.303168
20
-30.671000
10
7.230851
20
-30.817646
10
7.178293
20
-30.972476
10
7.146394
20
-31.132842
10
7.135700
20
-31.296000
10
7.146394
20
-31.459158
10
7.178293
20
-31.619524
10
7.230851
20
-31.774354
10
7.303168
20
-31.921000
10
7.394008
20
-32.056952
10
7.501817
20
-32.179883
10
7.624748
20
-32.287692
10
7.760700
20
-32.378532
10
7.907346
20
-32.450849
10
8.062176
20
-32.503407
10
8.222542
20
-32.535306
10
8.385700
20
-32.546000
10
8.548858
20
-32.535306
10
8.709224
20
-32.503407
10
8.864054
20
-32.450849
10
9.010700
20
-32.378532
10
9.146652
20
-32.287692
10
9.269583
20
-32.179883
10
9.377392
20
-32.056952
10
9.468232
20
-31.921000
10
9.540549
20
-31.774354
10
9.593107
20
-31.619524
10
9.625006
20
-31.459158
10
9.635700
20
-31.296000
0
LWPOLYLINE
8
0
90
48
70
1
10
-30.088593
20
8.709224
10
-30.141151
20
8.864054
10
-30.213468
20
9.010700
10
-30.304308
20
9.146652
10
-30.412117
20
9.269583
10
-30.535048
20
9.377392
10
-30.671000
20
9.468232
10
-30.817646
20
9.540549
10
-30.972476
20
9.593107
10
-31.132842
20
9.625006
10
-31.296000
20
9.635700
10
-31.459158
20
9.625006
10
-31.619524
20
9.593107
10
-31.774354
20
9.540549
10
-31.921000
20
9.468232
10
-32.056952
20
9.377392
10
-32.179883
20
9.269583
10
-32.287692
20
9.146652
10
-32.378532
20
9.010700
10
-32.450849
20
8.864054
10
-32.503407
20
8.709224
10
-32.535306
20
8.548858
10
-32.546000
20
8.385700
10
-32.535306
20
8.222542
10
-32.503407
20
8.062176
10
-32.450849
20
7.907346
10
-32.378532
20
7.760700
10
-32.287692
20
7.624748
10
-32.179883
20
7.501817
10
-32.056952
20
7.394008
10
-31.921000
20
7.303168
10
-31.774354
20
7.230851
10
-31.619524
20
7.178293
10
-31.459158
20
7.146394
10
-31.296000
20
7.135700
10
-31.132842
20
7.146394
10
-30.972476
20
7.178293
10
-30.817646
20
7.230851
10
-30.671000
20
7.303168
10
-30.535048
20
7.394008
10
-30.412117
20
7.501817
10
-30.304308
20
7.624748
10
-30.213468
20
7.760700
10
-30.141151
20
7.907346
10
-30.088593
20
8.062176
10
-30.056694
20
8.222542
10
-30.046000
20
8.385700
10
-30.056694
20
8.548858
0
ENDSEC
0
EOF
