<svg xmlns="http://www.w3.org/2000/svg" width="309.94" height="766.00" viewBox="0 0 309.94 766.00" role="img" aria-label="vcad render"><defs><filter id="sh" x="-50%" y="-50%" width="200%" height="200%"><feGaussianBlur stdDeviation="8.61"/></filter><linearGradient id="g0" gradientUnits="userSpaceOnUse" x1="248.21" y1="723.59" x2="258.79" y2="723.79"><stop offset="0" stop-color="#235a85"/><stop offset="1" stop-color="#2b608a"/></linearGradient><linearGradient id="g1" gradientUnits="userSpaceOnUse" x1="248.21" y1="523.59" x2="258.79" y2="523.77"><stop offset="0" stop-color="#215884"/><stop offset="1" stop-color="#285e89"/></linearGradient><linearGradient id="g2" gradientUnits="userSpaceOnUse" x1="236.62" y1="728.55" x2="248.10" y2="728.78"><stop offset="0" stop-color="#1e5581"/><stop offset="1" stop-color="#235a85"/></linearGradient><linearGradient id="g3" gradientUnits="userSpaceOnUse" x1="236.62" y1="528.55" x2="248.11" y2="528.76"><stop offset="0" stop-color="#1d5480"/><stop offset="1" stop-color="#215884"/></linearGradient><linearGradient id="g4" gradientUnits="userSpaceOnUse" x1="224.25" y1="732.83" x2="236.52" y2="733.10"><stop offset="0" stop-color="#1d537d"/><stop offset="1" stop-color="#1e5581"/></linearGradient><linearGradient id="g5" gradientUnits="userSpaceOnUse" x1="224.25" y1="532.83" x2="236.53" y2="533.07"><stop offset="0" stop-color="#1c527c"/><stop offset="1" stop-color="#1d5480"/></linearGradient><linearGradient id="g6" gradientUnits="userSpaceOnUse" x1="211.21" y1="736.39" x2="224.16" y2="736.69"><stop offset="0" stop-color="#1c507a"/><stop offset="1" stop-color="#1d537d"/></linearGradient><linearGradient id="g7" gradientUnits="userSpaceOnUse" x1="211.21" y1="536.39" x2="224.17" y2="536.66"><stop offset="0" stop-color="#1b5079"/><stop offset="1" stop-color="#1c527c"/></linearGradient><linearGradient id="g8" gradientUnits="userSpaceOnUse" x1="197.63" y1="739.20" x2="211.14" y2="739.52"><stop offset="0" stop-color="#1b4e78"/><stop offset="1" stop-color="#1c507a"/></linearGradient><linearGradient id="g9" gradientUnits="userSpaceOnUse" x1="197.63" y1="539.20" x2="211.15" y2="539.48"><stop offset="0" stop-color="#1b4e77"/><stop offset="1" stop-color="#1b5079"/></linearGradient><linearGradient id="g10" gradientUnits="userSpaceOnUse" x1="183.64" y1="741.22" x2="197.57" y2="741.58"><stop offset="0" stop-color="#1a4d76"/><stop offset="1" stop-color="#1b4e78"/></linearGradient><linearGradient id="g11" gradientUnits="userSpaceOnUse" x1="126.30" y1="741.22" x2="140.61" y2="741.22"><stop offset="0" stop-color="#154064"/><stop offset="1" stop-color="#194b73"/></linearGradient><linearGradient id="g12" gradientUnits="userSpaceOnUse" x1="126.30" y1="541.22" x2="140.57" y2="541.30"><stop offset="0" stop-color="#153f63"/><stop offset="1" stop-color="#194b73"/></linearGradient><linearGradient id="g13" gradientUnits="userSpaceOnUse" x1="112.31" y1="539.20" x2="97.17" y2="539.32"><stop offset="0" stop-color="#143e61"/><stop offset="1" stop-color="#18466d"/></linearGradient><linearGradient id="g14" gradientUnits="userSpaceOnUse" x1="112.31" y1="539.20" x2="98.72" y2="539.16"><stop offset="0" stop-color="#143e61"/><stop offset="1" stop-color="#18476e"/></linearGradient><linearGradient id="g15" gradientUnits="userSpaceOnUse" x1="98.73" y1="736.39" x2="85.68" y2="736.35"><stop offset="0" stop-color="#18466d"/><stop offset="1" stop-color="#1b4e78"/></linearGradient><linearGradient id="g16" gradientUnits="userSpaceOnUse" x1="98.73" y1="536.39" x2="84.56" y2="536.48"><stop offset="0" stop-color="#18476e"/><stop offset="1" stop-color="#1b4e78"/></linearGradient><linearGradient id="g17" gradientUnits="userSpaceOnUse" x1="85.69" y1="532.83" x2="70.27" y2="533.07"><stop offset="0" stop-color="#1b4e77"/><stop offset="1" stop-color="#1c517b"/></linearGradient><linearGradient id="g18" gradientUnits="userSpaceOnUse" x1="85.69" y1="532.83" x2="73.27" y2="532.68"><stop offset="0" stop-color="#1b4e77"/><stop offset="1" stop-color="#1c517c"/></linearGradient><linearGradient id="g19" gradientUnits="userSpaceOnUse" x1="73.32" y1="728.55" x2="61.65" y2="728.34"><stop offset="0" stop-color="#1c517b"/><stop offset="1" stop-color="#1d537e"/></linearGradient><linearGradient id="g20" gradientUnits="userSpaceOnUse" x1="73.32" y1="528.55" x2="61.64" y2="528.31"><stop offset="0" stop-color="#1c517c"/><stop offset="1" stop-color="#1d547f"/></linearGradient><linearGradient id="g21" gradientUnits="userSpaceOnUse" x1="61.73" y1="723.59" x2="50.95" y2="723.41"><stop offset="0" stop-color="#1d537e"/><stop offset="1" stop-color="#1e5682"/></linearGradient><linearGradient id="g22" gradientUnits="userSpaceOnUse" x1="61.73" y1="523.59" x2="50.94" y2="523.39"><stop offset="0" stop-color="#1d547f"/><stop offset="1" stop-color="#205783"/></linearGradient><linearGradient id="g23" gradientUnits="userSpaceOnUse" x1="51.05" y1="718.00" x2="41.27" y2="717.85"><stop offset="0" stop-color="#1e5682"/><stop offset="1" stop-color="#255b86"/></linearGradient><linearGradient id="g24" gradientUnits="userSpaceOnUse" x1="51.05" y1="518.00" x2="41.26" y2="517.83"><stop offset="0" stop-color="#205783"/><stop offset="1" stop-color="#275d88"/></linearGradient><linearGradient id="g25" gradientUnits="userSpaceOnUse" x1="41.36" y1="711.83" x2="32.68" y2="711.71"><stop offset="0" stop-color="#255b86"/><stop offset="1" stop-color="#2d628c"/></linearGradient><linearGradient id="g26" gradientUnits="userSpaceOnUse" x1="41.36" y1="511.83" x2="32.67" y2="511.70"><stop offset="0" stop-color="#275d88"/><stop offset="1" stop-color="#30648e"/></linearGradient><linearGradient id="g27" gradientUnits="userSpaceOnUse" x1="32.77" y1="705.14" x2="25.27" y2="705.05"><stop offset="0" stop-color="#2d628c"/><stop offset="1" stop-color="#366992"/></linearGradient><linearGradient id="g28" gradientUnits="userSpaceOnUse" x1="32.77" y1="505.14" x2="25.26" y2="505.04"><stop offset="0" stop-color="#30648e"/><stop offset="1" stop-color="#396c94"/></linearGradient><linearGradient id="g29" gradientUnits="userSpaceOnUse" x1="25.35" y1="698.00" x2="19.11" y2="697.94"><stop offset="0" stop-color="#366992"/><stop offset="1" stop-color="#407199"/></linearGradient><linearGradient id="g30" gradientUnits="userSpaceOnUse" x1="25.35" y1="498.00" x2="19.11" y2="497.93"><stop offset="0" stop-color="#396c94"/><stop offset="1" stop-color="#44749b"/></linearGradient><linearGradient id="g31" gradientUnits="userSpaceOnUse" x1="19.19" y1="690.47" x2="14.27" y2="690.43"><stop offset="0" stop-color="#407199"/><stop offset="1" stop-color="#4c7aa1"/></linearGradient><linearGradient id="g32" gradientUnits="userSpaceOnUse" x1="19.19" y1="490.47" x2="14.26" y2="490.43"><stop offset="0" stop-color="#44749b"/><stop offset="1" stop-color="#507ea3"/></linearGradient><linearGradient id="g33" gradientUnits="userSpaceOnUse" x1="14.33" y1="682.63" x2="10.76" y2="682.60"><stop offset="0" stop-color="#4c7aa1"/><stop offset="1" stop-color="#5582a7"/></linearGradient><linearGradient id="g34" gradientUnits="userSpaceOnUse" x1="14.33" y1="482.63" x2="10.73" y2="482.59"><stop offset="0" stop-color="#507ea3"/><stop offset="1" stop-color="#5e89ad"/></linearGradient><linearGradient id="g35" gradientUnits="userSpaceOnUse" x1="10.82" y1="674.55" x2="8.64" y2="674.54"><stop offset="0" stop-color="#5582a7"/><stop offset="1" stop-color="#628caf"/></linearGradient><linearGradient id="g36" gradientUnits="userSpaceOnUse" x1="10.82" y1="474.55" x2="8.64" y2="474.54"><stop offset="0" stop-color="#5e89ad"/><stop offset="1" stop-color="#6e96b8"/></linearGradient><linearGradient id="g37" gradientUnits="userSpaceOnUse" x1="8.71" y1="666.32" x2="7.98" y2="666.32"><stop offset="0" stop-color="#628caf"/><stop offset="1" stop-color="#789dbe"/></linearGradient><linearGradient id="g38" gradientUnits="userSpaceOnUse" x1="8.71" y1="466.32" x2="7.99" y2="466.32"><stop offset="0" stop-color="#6e96b8"/><stop offset="1" stop-color="#7ea2c2"/></linearGradient><linearGradient id="g39" gradientUnits="userSpaceOnUse" x1="301.23" y1="666.32" x2="301.94" y2="666.32"><stop offset="0" stop-color="#779dbd"/><stop offset="1" stop-color="#8aacc9"/></linearGradient><linearGradient id="g40" gradientUnits="userSpaceOnUse" x1="301.23" y1="666.32" x2="302.03" y2="666.32"><stop offset="0" stop-color="#779dbd"/><stop offset="1" stop-color="#8aabc8"/></linearGradient><linearGradient id="g41" gradientUnits="userSpaceOnUse" x1="299.11" y1="674.55" x2="301.59" y2="674.55"><stop offset="0" stop-color="#6992b4"/><stop offset="1" stop-color="#799ebf"/></linearGradient><linearGradient id="g42" gradientUnits="userSpaceOnUse" x1="299.11" y1="474.55" x2="301.23" y2="474.55"><stop offset="0" stop-color="#6992b4"/><stop offset="1" stop-color="#799ebf"/></linearGradient><linearGradient id="g43" gradientUnits="userSpaceOnUse" x1="295.61" y1="682.63" x2="299.11" y2="682.63"><stop offset="0" stop-color="#5f8aad"/><stop offset="1" stop-color="#6992b4"/></linearGradient><linearGradient id="g44" gradientUnits="userSpaceOnUse" x1="295.61" y1="482.63" x2="299.07" y2="482.65"><stop offset="0" stop-color="#5b86aa"/><stop offset="1" stop-color="#6992b4"/></linearGradient><linearGradient id="g45" gradientUnits="userSpaceOnUse" x1="290.75" y1="690.47" x2="295.54" y2="690.51"><stop offset="0" stop-color="#527fa5"/><stop offset="1" stop-color="#5f8aad"/></linearGradient><linearGradient id="g46" gradientUnits="userSpaceOnUse" x1="290.75" y1="490.47" x2="295.55" y2="490.51"><stop offset="0" stop-color="#4e7ca2"/><stop offset="1" stop-color="#5b86aa"/></linearGradient><linearGradient id="g47" gradientUnits="userSpaceOnUse" x1="284.58" y1="698.00" x2="290.67" y2="698.06"><stop offset="0" stop-color="#46769d"/><stop offset="1" stop-color="#527fa5"/></linearGradient><linearGradient id="g48" gradientUnits="userSpaceOnUse" x1="284.58" y1="498.00" x2="290.68" y2="498.06"><stop offset="0" stop-color="#43739b"/><stop offset="1" stop-color="#4e7ca2"/></linearGradient><linearGradient id="g49" gradientUnits="userSpaceOnUse" x1="277.17" y1="705.14" x2="284.49" y2="705.23"><stop offset="0" stop-color="#3c6e96"/><stop offset="1" stop-color="#46769d"/></linearGradient><linearGradient id="g50" gradientUnits="userSpaceOnUse" x1="277.17" y1="505.14" x2="284.50" y2="505.23"><stop offset="0" stop-color="#396b94"/><stop offset="1" stop-color="#43739b"/></linearGradient><linearGradient id="g51" gradientUnits="userSpaceOnUse" x1="268.58" y1="711.83" x2="277.07" y2="711.95"><stop offset="0" stop-color="#336790"/><stop offset="1" stop-color="#3c6e96"/></linearGradient><linearGradient id="g52" gradientUnits="userSpaceOnUse" x1="268.58" y1="511.83" x2="277.08" y2="511.95"><stop offset="0" stop-color="#30648e"/><stop offset="1" stop-color="#396b94"/></linearGradient><linearGradient id="g53" gradientUnits="userSpaceOnUse" x1="258.89" y1="718.00" x2="268.47" y2="718.16"><stop offset="0" stop-color="#2b608a"/><stop offset="1" stop-color="#336790"/></linearGradient><linearGradient id="g54" gradientUnits="userSpaceOnUse" x1="258.89" y1="518.00" x2="268.48" y2="518.15"><stop offset="0" stop-color="#285e89"/><stop offset="1" stop-color="#30648e"/></linearGradient><linearGradient id="g55" gradientUnits="userSpaceOnUse" x1="126.30" y1="541.22" x2="140.36" y2="543.62"><stop offset="0" stop-color="#507ea3"/><stop offset="1" stop-color="#a8c3d9"/></linearGradient><linearGradient id="g56" gradientUnits="userSpaceOnUse" x1="112.31" y1="539.20" x2="179.03" y2="492.07"><stop offset="0" stop-color="#43739a"/><stop offset="1" stop-color="#a8c3d9"/></linearGradient><linearGradient id="g57" gradientUnits="userSpaceOnUse" x1="112.31" y1="539.20" x2="96.06" y2="524.89"><stop offset="0" stop-color="#43739a"/><stop offset="1" stop-color="#a8c3d9"/></linearGradient><linearGradient id="g58" gradientUnits="userSpaceOnUse" x1="98.73" y1="536.39" x2="87.91" y2="525.68"><stop offset="0" stop-color="#7ea2c2"/><stop offset="1" stop-color="#a8c3d9"/></linearGradient><linearGradient id="g59" gradientUnits="userSpaceOnUse" x1="85.69" y1="532.83" x2="78.28" y2="524.26"><stop offset="0" stop-color="#9ebbd4"/><stop offset="1" stop-color="#a8c3d9"/></linearGradient><linearGradient id="g60" gradientUnits="userSpaceOnUse" x1="224.25" y1="698.00" x2="120.33" y2="698.00"><stop offset="0" stop-color="#1a4b74"/><stop offset="1" stop-color="#295f89"/></linearGradient><linearGradient id="g61" gradientUnits="userSpaceOnUse" x1="224.25" y1="698.00" x2="-35.56" y2="248.00"><stop offset="0" stop-color="#1a4b74"/><stop offset="1" stop-color="#295f89"/></linearGradient><linearGradient id="g62" gradientUnits="userSpaceOnUse" x1="137.65" y1="708.00" x2="43.30" y2="704.28"><stop offset="0" stop-color="#194b73"/><stop offset="1" stop-color="#1f5682"/></linearGradient><linearGradient id="g63" gradientUnits="userSpaceOnUse" x1="137.65" y1="708.00" x2="397.46" y2="258.00"><stop offset="0" stop-color="#194b73"/><stop offset="1" stop-color="#1f5682"/></linearGradient><linearGradient id="g64" gradientUnits="userSpaceOnUse" x1="137.65" y1="708.00" x2="248.99" y2="686.57"><stop offset="0" stop-color="#1b4e77"/><stop offset="1" stop-color="#295f89"/></linearGradient></defs><ellipse cx="154.97" cy="758.00" rx="138.15" ry="17.96" fill="#1a2b3a" opacity="0.20" filter="url(#sh)"/><g shape-rendering="geometricPrecision" stroke-linejoin="round"><polygon points="301.94,658.00 301.23,666.32 301.94,458.00" fill="url(#g39)" stroke="#84a7c5" stroke-width="0.75"/><polygon points="8.71,666.32 8.00,658.00 8.71,466.32" fill="url(#g37)" stroke="#6d95b7" stroke-width="0.75"/><polygon points="154.97,458.00 154.97,373.15 169.37,373.56" fill="#a8c3d9" stroke="#a8c3d9" stroke-width="0.75"/><polygon points="154.97,458.00 140.56,373.56 154.97,373.15" fill="#a8c3d9" stroke="#a8c3d9" stroke-width="0.75"/><polygon points="154.97,458.00 126.30,374.78 140.56,373.56" fill="#a8c3d9" stroke="#a8c3d9" stroke-width="0.75"/><polygon points="154.97,458.00 169.37,373.56 183.64,374.78" fill="#a8c3d9" stroke="#a8c3d9" stroke-width="0.75"/><polygon points="301.23,666.32 299.11,674.55 301.23,466.32" fill="url(#g41)" stroke="#739abb" stroke-width="0.75"/><polygon points="154.97,458.00 112.31,376.80 126.30,374.78" fill="#a8c3d9" stroke="#a8c3d9" stroke-width="0.75"/><polygon points="154.97,458.00 183.64,374.78 197.63,376.80" fill="#a8c3d9" stroke="#a8c3d9" stroke-width="0.75"/><polygon points="154.97,458.00 98.73,379.61 112.31,376.80" fill="#a8c3d9" stroke="#a8c3d9" stroke-width="0.75"/><polygon points="154.97,458.00 197.63,376.80 211.21,379.61" fill="#a8c3d9" stroke="#a8c3d9" stroke-width="0.75"/><polygon points="10.82,674.55 8.71,666.32 10.82,474.55" fill="url(#g35)" stroke="#5c88ac" stroke-width="0.75"/><polygon points="154.97,458.00 85.69,383.17 98.73,379.61" fill="#a8c3d9" stroke="#a8c3d9" stroke-width="0.75"/><polygon points="154.97,458.00 211.21,379.61 224.25,383.17" fill="#a8c3d9" stroke="#a8c3d9" stroke-width="0.75"/><polygon points="154.97,458.00 73.32,387.45 85.69,383.17" fill="#a8c3d9" stroke="#a8c3d9" stroke-width="0.75"/><polygon points="154.97,458.00 224.25,383.17 236.62,387.45" fill="#a8c3d9" stroke="#a8c3d9" stroke-width="0.75"/><polygon points="299.11,674.55 295.61,682.63 299.11,474.55" fill="url(#g43)" stroke="#668fb2" stroke-width="0.75"/><polygon points="154.97,458.00 61.73,392.41 73.32,387.45" fill="#a8c3d9" stroke="#a8c3d9" stroke-width="0.75"/><polygon points="154.97,458.00 236.62,387.45 248.21,392.41" fill="#a8c3d9" stroke="#a8c3d9" stroke-width="0.75"/><polygon points="14.33,682.63 10.82,674.55 14.33,482.63" fill="url(#g33)" stroke="#507ea4" stroke-width="0.75"/><polygon points="154.97,458.00 51.05,398.00 61.73,392.41" fill="#a8c3d9" stroke="#a8c3d9" stroke-width="0.75"/><polygon points="154.97,458.00 248.21,392.41 258.89,398.00" fill="#a8c3d9" stroke="#a8c3d9" stroke-width="0.75"/><polygon points="295.61,682.63 290.75,690.47 295.61,482.63" fill="url(#g45)" stroke="#5985a9" stroke-width="0.75"/><polygon points="154.97,458.00 258.89,398.00 268.58,404.17" fill="#a8c3d9" stroke="#a8c3d9" stroke-width="0.75"/><polygon points="154.97,458.00 41.36,404.17 51.05,398.00" fill="#a8c3d9" stroke="#a8c3d9" stroke-width="0.75"/><polygon points="19.19,690.47 14.33,682.63 19.19,490.47" fill="url(#g31)" stroke="#45759c" stroke-width="0.75"/><polygon points="154.97,458.00 32.77,410.86 41.36,404.17" fill="#a8c3d9" stroke="#a8c3d9" stroke-width="0.75"/><polygon points="154.97,458.00 268.58,404.17 277.17,410.86" fill="#a8c3d9" stroke="#a8c3d9" stroke-width="0.75"/><polygon points="290.75,690.47 284.58,698.00 290.75,490.47" fill="url(#g47)" stroke="#4d7ba1" stroke-width="0.75"/><polygon points="8.00,658.00 8.00,458.00 8.71,466.32" fill="url(#g38)" stroke="#779dbd" stroke-width="0.75"/><polygon points="25.35,698.00 19.19,690.47 25.35,498.00" fill="url(#g29)" stroke="#3a6d95" stroke-width="0.75"/><polygon points="154.97,458.00 25.35,418.00 32.77,410.86" fill="#a8c3d9" stroke="#a8c3d9" stroke-width="0.75"/><polygon points="154.97,458.00 277.17,410.86 284.58,418.00" fill="#a8c3d9" stroke="#a8c3d9" stroke-width="0.75"/><polygon points="301.23,666.32 301.23,466.32 301.94,458.00" fill="url(#g40)" stroke="#7ea2c2" stroke-width="0.75"/><polygon points="284.58,698.00 277.17,705.14 284.58,498.00" fill="url(#g49)" stroke="#42729a" stroke-width="0.75"/><polygon points="154.97,458.00 19.19,425.53 25.35,418.00" fill="#a8c3d9" stroke="#a8c3d9" stroke-width="0.75"/><polygon points="154.97,458.00 284.58,418.00 290.75,425.53" fill="#a8c3d9" stroke="#a8c3d9" stroke-width="0.75"/><polygon points="8.71,666.32 8.71,466.32 10.82,474.55" fill="url(#g36)" stroke="#658eb1" stroke-width="0.75"/><polygon points="32.77,705.14 25.35,698.00 32.77,505.14" fill="url(#g27)" stroke="#31658e" stroke-width="0.75"/><polygon points="299.11,674.55 299.11,474.55 301.23,466.32" fill="url(#g42)" stroke="#6e96b8" stroke-width="0.75"/><polygon points="154.97,458.00 14.33,433.37 19.19,425.53" fill="#a8c3d9" stroke="#a8c3d9" stroke-width="0.75"/><polygon points="154.97,458.00 290.75,425.53 295.61,433.37" fill="#a8c3d9" stroke="#a8c3d9" stroke-width="0.75"/><polygon points="277.17,705.14 268.58,711.83 277.17,505.14" fill="url(#g51)" stroke="#386b93" stroke-width="0.75"/><polygon points="41.36,711.83 32.77,705.14 41.36,511.83" fill="url(#g25)" stroke="#285e89" stroke-width="0.75"/><polygon points="10.82,674.55 10.82,474.55 14.33,482.63" fill="url(#g34)" stroke="#5783a8" stroke-width="0.75"/><polygon points="154.97,458.00 10.82,441.45 14.33,433.37" fill="#a8c3d9" stroke="#a8c3d9" stroke-width="0.75"/><polygon points="154.97,458.00 295.61,433.37 299.11,441.45" fill="#a8c3d9" stroke="#a8c3d9" stroke-width="0.75"/><polygon points="295.61,682.63 295.61,482.63 299.11,474.55" fill="url(#g44)" stroke="#618baf" stroke-width="0.75"/><polygon points="268.58,711.83 258.89,718.00 268.58,511.83" fill="url(#g53)" stroke="#2f648d" stroke-width="0.75"/><polygon points="51.05,718.00 41.36,711.83 51.05,518.00" fill="url(#g23)" stroke="#215884" stroke-width="0.75"/><polygon points="154.97,458.00 8.71,449.68 10.82,441.45" fill="#a8c3d9" stroke="#a8c3d9" stroke-width="0.75"/><polygon points="154.97,458.00 299.11,441.45 301.23,449.68" fill="#a8c3d9" stroke="#a8c3d9" stroke-width="0.75"/><polygon points="14.33,682.63 14.33,482.63 19.19,490.47" fill="url(#g32)" stroke="#4b7aa0" stroke-width="0.75"/><polygon points="258.89,718.00 248.21,723.59 258.89,518.00" fill="url(#g0)" stroke="#275d88" stroke-width="0.75"/><polygon points="290.75,690.47 290.75,490.47 295.61,482.63" fill="url(#g46)" stroke="#5481a6" stroke-width="0.75"/><polygon points="61.73,723.59 51.05,718.00 61.73,523.59" fill="url(#g21)" stroke="#1d5480" stroke-width="0.75"/><polygon points="154.97,458.00 8.00,458.00 8.71,449.68" fill="#a8c3d9" stroke="#a8c3d9" stroke-width="0.75"/><polygon points="154.97,458.00 301.23,449.68 301.94,458.00" fill="#a8c3d9" stroke="#a8c3d9" stroke-width="0.75"/><polygon points="248.21,723.59 236.62,728.55 248.21,523.59" fill="url(#g2)" stroke="#205883" stroke-width="0.75"/><polygon points="19.19,690.47 19.19,490.47 25.35,498.00" fill="url(#g30)" stroke="#3f7098" stroke-width="0.75"/><polygon points="73.32,728.55 61.73,723.59 73.32,528.55" fill="url(#g19)" stroke="#1c527c" stroke-width="0.75"/><polygon points="154.97,458.00 8.71,466.32 8.00,458.00" fill="#a8c3d9" stroke="#a8c3d9" stroke-width="0.75"/><polygon points="154.97,458.00 301.94,458.00 301.23,466.32" fill="#a8c3d9" stroke="#a8c3d9" stroke-width="0.75"/><polygon points="284.58,698.00 284.58,498.00 290.75,490.47" fill="url(#g48)" stroke="#48779e" stroke-width="0.75"/><polygon points="236.62,728.55 224.25,732.83 236.62,528.55" fill="url(#g4)" stroke="#1d547f" stroke-width="0.75"/><polygon points="85.69,732.83 73.32,728.55 85.69,532.83" fill="url(#g17)" stroke="#1b4f78" stroke-width="0.75"/><polygon points="154.97,458.00 10.82,474.55 8.71,466.32" fill="#a8c3d9" stroke="#a8c3d9" stroke-width="0.75"/><polygon points="154.97,458.00 301.23,466.32 299.11,474.55" fill="#a8c3d9" stroke="#a8c3d9" stroke-width="0.75"/><polygon points="25.35,698.00 25.35,498.00 32.77,505.14" fill="url(#g28)" stroke="#356891" stroke-width="0.75"/><polygon points="224.25,732.83 211.21,736.39 224.25,532.83" fill="url(#g6)" stroke="#1c527c" stroke-width="0.75"/><polygon points="98.73,736.39 85.69,732.83 98.73,536.39" fill="url(#g15)" stroke="#194971" stroke-width="0.75"/><polygon points="277.17,705.14 277.17,505.14 284.58,498.00" fill="url(#g50)" stroke="#3d6f97" stroke-width="0.75"/><polygon points="211.21,736.39 197.63,739.20 211.21,536.39" fill="url(#g8)" stroke="#1b4f79" stroke-width="0.75"/><polygon points="112.31,739.20 98.73,736.39 112.31,539.20" fill="url(#g13)" stroke="#154166" stroke-width="0.75"/><polygon points="154.97,458.00 14.33,482.63 10.82,474.55" fill="#a8c3d9" stroke="#a8c3d9" stroke-width="0.75"/><polygon points="154.97,458.00 299.11,474.55 295.61,482.63" fill="#a8c3d9" stroke="#a8c3d9" stroke-width="0.75"/><polygon points="197.63,739.20 183.64,741.22 197.63,539.20" fill="url(#g10)" stroke="#1b4e77" stroke-width="0.75"/><polygon points="126.30,741.22 112.31,739.20 126.30,541.22" fill="#153f63" stroke="#153f63" stroke-width="0.75"/><polygon points="32.77,705.14 32.77,505.14 41.36,511.83" fill="url(#g26)" stroke="#2c618b" stroke-width="0.75"/><polygon points="183.64,741.22 169.37,742.44 183.64,541.22" fill="#1a4c75" stroke="#1a4c75" stroke-width="0.75"/><polygon points="140.56,742.44 126.30,741.22 140.56,542.44" fill="url(#g11)" stroke="#18476e" stroke-width="0.75"/><polygon points="169.37,742.44 154.97,742.85 169.37,542.44" fill="#1a4b74" stroke="#1a4b74" stroke-width="0.75"/><polygon points="154.97,742.85 140.56,742.44 154.97,542.85" fill="#1a4b73" stroke="#1a4b73" stroke-width="0.75"/><polygon points="268.58,711.83 268.58,511.83 277.17,505.14" fill="url(#g52)" stroke="#346791" stroke-width="0.75"/><polygon points="154.97,458.00 19.19,490.47 14.33,482.63" fill="#a8c3d9" stroke="#a8c3d9" stroke-width="0.75"/><polygon points="154.97,458.00 295.61,482.63 290.75,490.47" fill="#a8c3d9" stroke="#a8c3d9" stroke-width="0.75"/><polygon points="41.36,711.83 41.36,511.83 51.05,518.00" fill="url(#g24)" stroke="#245b86" stroke-width="0.75"/><polygon points="137.65,708.00 68.37,668.00 68.37,68.00" fill="url(#g62)" stroke="#1c517c" stroke-width="0.75"/><polygon points="154.97,458.00 25.35,498.00 19.19,490.47" fill="#a8c3d9" stroke="#a8c3d9" stroke-width="0.75"/><polygon points="154.97,458.00 290.75,490.47 284.58,498.00" fill="#a8c3d9" stroke="#a8c3d9" stroke-width="0.75"/><polygon points="258.89,718.00 258.89,518.00 268.58,511.83" fill="url(#g54)" stroke="#2b618b" stroke-width="0.75"/><polygon points="51.05,718.00 51.05,518.00 61.73,523.59" fill="url(#g22)" stroke="#1e5581" stroke-width="0.75"/><polygon points="154.97,458.00 32.77,505.14 25.35,498.00" fill="#a8c3d9" stroke="#a8c3d9" stroke-width="0.75"/><polygon points="154.97,458.00 284.58,498.00 277.17,505.14" fill="#a8c3d9" stroke="#a8c3d9" stroke-width="0.75"/><polygon points="241.57,648.00 137.65,708.00 137.65,108.00" fill="url(#g64)" stroke="#205783" stroke-width="0.75"/><polygon points="248.21,723.59 248.21,523.59 258.89,518.00" fill="url(#g1)" stroke="#245b86" stroke-width="0.75"/><polygon points="154.97,458.00 41.36,511.83 32.77,505.14" fill="#a8c3d9" stroke="#a8c3d9" stroke-width="0.75"/><polygon points="154.97,458.00 277.17,505.14 268.58,511.83" fill="#a8c3d9" stroke="#a8c3d9" stroke-width="0.75"/><polygon points="61.73,723.59 61.73,523.59 73.32,528.55" fill="url(#g20)" stroke="#1d537e" stroke-width="0.75"/><polygon points="236.62,728.55 236.62,528.55 248.21,523.59" fill="url(#g3)" stroke="#1e5681" stroke-width="0.75"/><polygon points="154.97,458.00 51.05,518.00 41.36,511.83" fill="#a8c3d9" stroke="#a8c3d9" stroke-width="0.75"/><polygon points="154.97,458.00 268.58,511.83 258.89,518.00" fill="#a8c3d9" stroke="#a8c3d9" stroke-width="0.75"/><polygon points="73.32,728.55 73.32,528.55 85.69,532.83" fill="url(#g18)" stroke="#1b507a" stroke-width="0.75"/><polygon points="224.25,732.83 224.25,532.83 236.62,528.55" fill="url(#g5)" stroke="#1d537e" stroke-width="0.75"/><polygon points="154.97,458.00 258.89,518.00 248.21,523.59" fill="#a8c3d9" stroke="#a8c3d9" stroke-width="0.75"/><polygon points="154.97,458.00 61.73,523.59 51.05,518.00" fill="#a8c3d9" stroke="#a8c3d9" stroke-width="0.75"/><polygon points="85.69,732.83 85.69,532.83 98.73,536.39" fill="url(#g16)" stroke="#1a4b74" stroke-width="0.75"/><polygon points="211.21,736.39 211.21,536.39 224.25,532.83" fill="url(#g7)" stroke="#1c517b" stroke-width="0.75"/><polygon points="154.97,458.00 248.21,523.59 236.62,528.55" fill="#a8c3d9" stroke="#a8c3d9" stroke-width="0.75"/><polygon points="154.97,458.00 73.32,528.55 61.73,523.59" fill="#a8c3d9" stroke="#a8c3d9" stroke-width="0.75"/><polygon points="98.73,736.39 98.73,536.39 112.31,539.20" fill="url(#g14)" stroke="#174469" stroke-width="0.75"/><polygon points="197.63,739.20 197.63,539.20 211.21,536.39" fill="url(#g9)" stroke="#1b4f78" stroke-width="0.75"/><polygon points="154.97,458.00 236.62,528.55 224.25,532.83" fill="#a8c3d9" stroke="#a8c3d9" stroke-width="0.75"/><polygon points="154.97,458.00 85.69,532.83 73.32,528.55" fill="url(#g59)" stroke="#a5c0d7" stroke-width="0.75"/><polygon points="112.31,739.20 112.31,539.20 126.30,541.22" fill="#143e62" stroke="#143e62" stroke-width="0.75"/><polygon points="183.64,741.22 183.64,541.22 197.63,539.20" fill="#1a4d76" stroke="#1a4d76" stroke-width="0.75"/><polygon points="126.30,741.22 126.30,541.22 140.56,542.44" fill="url(#g12)" stroke="#164369" stroke-width="0.75"/><polygon points="169.37,742.44 169.37,542.44 183.64,541.22" fill="#1a4c74" stroke="#1a4c74" stroke-width="0.75"/><polygon points="154.97,458.00 224.25,532.83 211.21,536.39" fill="#a8c3d9" stroke="#a8c3d9" stroke-width="0.75"/><polygon points="154.97,458.00 98.73,536.39 85.69,532.83" fill="url(#g58)" stroke="#97b6cf" stroke-width="0.75"/><polygon points="140.56,742.44 140.56,542.44 154.97,542.85" fill="#194b73" stroke="#194b73" stroke-width="0.75"/><polygon points="154.97,742.85 154.97,542.85 169.37,542.44" fill="#1a4b73" stroke="#1a4b73" stroke-width="0.75"/><polygon points="154.97,458.00 211.21,536.39 197.63,539.20" fill="#a8c3d9" stroke="#a8c3d9" stroke-width="0.75"/><polygon points="154.97,458.00 112.31,539.20 98.73,536.39" fill="url(#g57)" stroke="#7a9fbf" stroke-width="0.75"/><polygon points="154.97,458.00 197.63,539.20 183.64,541.22" fill="#a8c3d9" stroke="#a8c3d9" stroke-width="0.75"/><polygon points="154.97,458.00 126.30,541.22 112.31,539.20" fill="url(#g56)" stroke="#6b93b5" stroke-width="0.75"/><polygon points="154.97,458.00 183.64,541.22 169.37,542.44" fill="#a8c3d9" stroke="#a8c3d9" stroke-width="0.75"/><polygon points="154.97,458.00 140.56,542.44 126.30,541.22" fill="url(#g55)" stroke="#8cadca" stroke-width="0.75"/><polygon points="154.97,458.00 169.37,542.44 154.97,542.85" fill="#a8c3d9" stroke="#a8c3d9" stroke-width="0.75"/><polygon points="154.97,458.00 154.97,542.85 140.56,542.44" fill="#a8c3d9" stroke="#a8c3d9" stroke-width="0.75"/><polygon points="120.33,758.00 51.05,718.00 51.05,118.00" fill="#1f5682" stroke="#1f5682" stroke-width="0.75"/><polygon points="224.25,698.00 120.33,758.00 120.33,158.00" fill="url(#g60)" stroke="#1e5682" stroke-width="0.75"/><polygon points="241.57,648.00 137.65,108.00 241.57,48.00" fill="#295f89" stroke="#295f89" stroke-width="0.75"/><polygon points="137.65,708.00 68.37,68.00 137.65,108.00" fill="url(#g63)" stroke="#1d527d" stroke-width="0.75"/><polygon points="224.25,698.00 120.33,158.00 224.25,98.00" fill="url(#g61)" stroke="#1e5682" stroke-width="0.75"/><polygon points="120.33,758.00 51.05,118.00 120.33,158.00" fill="#1f5682" stroke="#1f5682" stroke-width="0.75"/><polygon points="172.29,8.00 241.57,48.00 137.65,108.00" fill="#a8c3d9" stroke="#a8c3d9" stroke-width="0.75"/><polygon points="172.29,8.00 137.65,108.00 68.37,68.00" fill="#a8c3d9" stroke="#a8c3d9" stroke-width="0.75"/><polygon points="154.97,58.00 224.25,98.00 120.33,158.00" fill="#a8c3d9" stroke="#a8c3d9" stroke-width="0.75"/><polygon points="154.97,58.00 120.33,158.00 51.05,118.00" fill="#a8c3d9" stroke="#a8c3d9" stroke-width="0.75"/></g><g stroke="#0b2742" stroke-width="0.45" stroke-linecap="round" fill="none" opacity="0.5" stroke-dasharray="5.16 3.10"><line x1="224.25" y1="583.17" x2="236.62" y2="587.45"/><line x1="169.37" y1="573.56" x2="183.64" y2="574.78"/><line x1="112.31" y1="739.20" x2="98.73" y2="736.39"/><line x1="25.35" y1="618.00" x2="32.77" y2="610.86"/><line x1="126.30" y1="741.22" x2="112.31" y2="739.20"/><line x1="98.73" y1="536.39" x2="86.99" y2="533.19"/><line x1="126.30" y1="374.78" x2="140.56" y2="373.56"/><line x1="73.32" y1="587.45" x2="85.69" y2="583.17"/><line x1="112.31" y1="576.80" x2="126.30" y2="574.78"/><line x1="236.62" y1="587.45" x2="248.21" y2="592.41"/><line x1="211.21" y1="379.61" x2="224.25" y2="383.17"/><line x1="277.17" y1="610.86" x2="284.58" y2="618.00"/><line x1="98.73" y1="379.61" x2="112.31" y2="376.80"/><line x1="224.25" y1="383.17" x2="236.62" y2="387.45"/><line x1="85.69" y1="583.17" x2="98.73" y2="579.61"/><line x1="112.31" y1="539.20" x2="98.73" y2="536.39"/><line x1="211.21" y1="579.61" x2="224.25" y2="583.17"/><line x1="268.58" y1="604.17" x2="277.17" y2="610.86"/><line x1="19.19" y1="625.53" x2="25.35" y2="618.00"/><line x1="295.61" y1="633.37" x2="299.11" y2="641.45"/><line x1="137.85" y1="742.21" x2="126.30" y2="741.22"/><line x1="61.73" y1="392.41" x2="73.32" y2="387.45"/><line x1="51.64" y1="397.69" x2="61.73" y2="392.41"/><line x1="10.82" y1="641.45" x2="14.33" y2="633.37"/><line x1="248.21" y1="592.41" x2="258.89" y2="598.00"/><line x1="41.36" y1="604.17" x2="51.05" y2="598.00"/><line x1="126.30" y1="574.78" x2="140.56" y2="573.56"/><line x1="73.32" y1="387.45" x2="85.69" y2="383.17"/><line x1="299.11" y1="641.45" x2="301.23" y2="649.68"/><line x1="137.85" y1="542.21" x2="126.30" y2="541.22"/><line x1="14.33" y1="633.37" x2="19.19" y2="625.53"/><line x1="51.05" y1="598.00" x2="61.73" y2="592.41"/><line x1="8.71" y1="649.68" x2="10.82" y2="641.45"/><line x1="290.75" y1="625.53" x2="295.61" y2="633.37"/><line x1="98.73" y1="736.39" x2="87.64" y2="733.37"/><line x1="183.64" y1="374.78" x2="197.63" y2="376.80"/><line x1="154.97" y1="573.15" x2="169.37" y2="573.56"/><line x1="154.97" y1="373.15" x2="169.37" y2="373.56"/><line x1="98.73" y1="579.61" x2="112.31" y2="576.80"/><line x1="169.37" y1="373.56" x2="183.64" y2="374.78"/><line x1="236.62" y1="387.45" x2="241.50" y2="389.54"/><line x1="197.63" y1="576.80" x2="211.21" y2="579.61"/><line x1="197.63" y1="376.80" x2="211.21" y2="379.61"/><line x1="126.30" y1="541.22" x2="112.31" y2="539.20"/><line x1="112.31" y1="376.80" x2="126.30" y2="374.78"/><line x1="284.58" y1="618.00" x2="290.75" y2="625.53"/><line x1="140.56" y1="373.56" x2="154.97" y2="373.15"/><line x1="183.64" y1="574.78" x2="197.63" y2="576.80"/><line x1="140.56" y1="573.56" x2="154.97" y2="573.15"/><line x1="85.69" y1="383.17" x2="98.73" y2="379.61"/><line x1="32.77" y1="610.86" x2="41.36" y2="604.17"/><line x1="61.73" y1="592.41" x2="73.32" y2="587.45"/><line x1="258.89" y1="598.00" x2="268.58" y2="604.17"/><line x1="224.25" y1="698.00" x2="224.25" y2="503.10"/><line x1="154.97" y1="658.00" x2="55.25" y2="715.57"/><line x1="156.37" y1="737.19" x2="224.25" y2="698.00"/><line x1="154.97" y1="658.00" x2="154.97" y2="62.87"/><line x1="154.97" y1="658.00" x2="224.25" y2="698.00"/><line x1="172.29" y1="608.00" x2="241.57" y2="648.00"/><line x1="241.57" y1="648.00" x2="241.57" y2="453.10"/><line x1="172.29" y1="608.00" x2="172.29" y2="13.57"/><line x1="68.37" y1="668.00" x2="68.37" y2="108.37"/><line x1="137.65" y1="708.00" x2="137.65" y2="112.87"/><line x1="137.65" y1="708.00" x2="241.57" y2="648.00"/><line x1="68.37" y1="668.00" x2="137.65" y2="708.00"/><line x1="172.29" y1="608.00" x2="68.37" y2="668.00"/></g><g stroke="#0b2742" stroke-width="0.5" stroke-linecap="round" fill="none" opacity="1"><line x1="8.71" y1="466.32" x2="8.00" y2="458.00"/><line x1="85.69" y1="532.83" x2="73.32" y2="528.55"/><line x1="41.36" y1="511.83" x2="32.77" y2="505.14"/><line x1="295.61" y1="482.63" x2="290.75" y2="490.47"/><line x1="86.99" y1="533.19" x2="85.69" y2="532.83"/><line x1="197.63" y1="539.20" x2="183.64" y2="541.22"/><line x1="10.82" y1="474.55" x2="8.71" y2="466.32"/><line x1="61.73" y1="523.59" x2="51.05" y2="518.00"/><line x1="154.97" y1="542.85" x2="140.56" y2="542.44"/><line x1="290.75" y1="490.47" x2="284.58" y2="498.00"/><line x1="301.23" y1="466.32" x2="299.11" y2="474.55"/><line x1="236.62" y1="528.55" x2="224.25" y2="532.83"/><line x1="8.00" y1="658.00" x2="8.47" y2="652.46"/><line x1="277.17" y1="505.14" x2="268.58" y2="511.83"/><line x1="25.35" y1="498.00" x2="19.19" y2="490.47"/><line x1="140.56" y1="542.44" x2="137.85" y2="542.21"/><line x1="258.89" y1="518.00" x2="268.58" y2="511.83"/><line x1="169.37" y1="542.44" x2="154.97" y2="542.85"/><line x1="248.21" y1="523.59" x2="236.62" y2="528.55"/><line x1="284.58" y1="498.00" x2="277.17" y2="505.14"/><line x1="73.32" y1="528.55" x2="61.73" y2="523.59"/><line x1="224.25" y1="532.83" x2="211.21" y2="536.39"/><line x1="299.11" y1="474.55" x2="295.61" y2="482.63"/><line x1="32.77" y1="505.14" x2="25.35" y2="498.00"/><line x1="14.33" y1="482.63" x2="10.82" y2="474.55"/><line x1="301.53" y1="653.15" x2="301.94" y2="658.00"/><line x1="258.89" y1="518.00" x2="248.21" y2="523.59"/><line x1="19.19" y1="490.47" x2="14.33" y2="482.63"/><line x1="301.94" y1="458.00" x2="301.23" y2="466.32"/><line x1="51.05" y1="518.00" x2="41.36" y2="511.83"/><line x1="211.21" y1="536.39" x2="197.63" y2="539.20"/><line x1="183.64" y1="541.22" x2="169.37" y2="542.44"/><line x1="55.25" y1="715.57" x2="51.05" y2="718.00"/><line x1="224.25" y1="98.00" x2="120.33" y2="158.00"/><line x1="120.33" y1="758.00" x2="120.33" y2="158.00"/><line x1="120.33" y1="158.00" x2="51.05" y2="118.00"/><line x1="154.97" y1="62.87" x2="154.97" y2="58.00"/><line x1="137.65" y1="108.00" x2="68.37" y2="68.00"/><line x1="172.29" y1="13.57" x2="172.29" y2="8.00"/><line x1="241.57" y1="48.00" x2="137.65" y2="108.00"/><line x1="137.65" y1="112.87" x2="137.65" y2="108.00"/></g><g stroke="#0b2742" stroke-width="1.2" stroke-linecap="round" fill="none" opacity="1"><line x1="25.35" y1="418.00" x2="32.77" y2="410.86"/><line x1="8.71" y1="449.68" x2="10.82" y2="441.45"/><line x1="8.00" y1="458.00" x2="8.71" y2="449.68"/><line x1="301.94" y1="658.00" x2="301.94" y2="458.00"/><line x1="301.94" y1="658.00" x2="301.23" y2="666.32"/><line x1="19.19" y1="425.53" x2="25.35" y2="418.00"/><line x1="85.69" y1="732.83" x2="73.32" y2="728.55"/><line x1="258.89" y1="718.00" x2="248.21" y2="723.59"/><line x1="32.77" y1="705.14" x2="25.35" y2="698.00"/><line x1="236.62" y1="728.55" x2="224.25" y2="732.83"/><line x1="41.36" y1="711.83" x2="32.77" y2="705.14"/><line x1="258.89" y1="398.00" x2="268.58" y2="404.17"/><line x1="224.25" y1="732.83" x2="211.21" y2="736.39"/><line x1="25.35" y1="698.00" x2="19.19" y2="690.47"/><line x1="277.17" y1="410.86" x2="284.58" y2="418.00"/><line x1="295.61" y1="433.37" x2="299.11" y2="441.45"/><line x1="154.97" y1="742.85" x2="140.56" y2="742.44"/><line x1="61.73" y1="723.59" x2="51.05" y2="718.00"/><line x1="290.75" y1="425.53" x2="295.61" y2="433.37"/><line x1="290.75" y1="690.47" x2="284.58" y2="698.00"/><line x1="73.32" y1="728.55" x2="61.73" y2="723.59"/><line x1="10.82" y1="441.45" x2="14.33" y2="433.37"/><line x1="41.36" y1="404.17" x2="51.05" y2="398.00"/><line x1="8.00" y1="658.00" x2="8.00" y2="458.00"/><line x1="140.56" y1="742.44" x2="137.85" y2="742.21"/><line x1="51.05" y1="398.00" x2="51.64" y2="397.69"/><line x1="248.21" y1="723.59" x2="236.62" y2="728.55"/><line x1="301.23" y1="449.68" x2="301.94" y2="458.00"/><line x1="299.11" y1="441.45" x2="301.23" y2="449.68"/><line x1="301.23" y1="666.32" x2="299.11" y2="674.55"/><line x1="14.33" y1="682.63" x2="10.82" y2="674.55"/><line x1="284.58" y1="698.00" x2="277.17" y2="705.14"/><line x1="258.89" y1="718.00" x2="268.58" y2="711.83"/><line x1="87.64" y1="733.37" x2="85.69" y2="732.83"/><line x1="268.58" y1="404.17" x2="277.17" y2="410.86"/><line x1="51.05" y1="718.00" x2="41.36" y2="711.83"/><line x1="169.37" y1="742.44" x2="154.97" y2="742.85"/><line x1="295.61" y1="682.63" x2="290.75" y2="690.47"/><line x1="241.50" y1="389.54" x2="248.21" y2="392.41"/><line x1="211.21" y1="736.39" x2="197.63" y2="739.20"/><line x1="284.58" y1="418.00" x2="290.75" y2="425.53"/><line x1="10.82" y1="674.55" x2="8.71" y2="666.32"/><line x1="277.17" y1="705.14" x2="268.58" y2="711.83"/><line x1="197.63" y1="739.20" x2="183.64" y2="741.22"/><line x1="19.19" y1="690.47" x2="14.33" y2="682.63"/><line x1="14.33" y1="433.37" x2="19.19" y2="425.53"/><line x1="8.71" y1="666.32" x2="8.00" y2="658.00"/><line x1="248.21" y1="392.41" x2="258.89" y2="398.00"/><line x1="299.11" y1="674.55" x2="295.61" y2="682.63"/><line x1="32.77" y1="410.86" x2="41.36" y2="404.17"/><line x1="183.64" y1="741.22" x2="169.37" y2="742.44"/><line x1="154.97" y1="58.00" x2="224.25" y2="98.00"/><line x1="224.25" y1="503.10" x2="224.25" y2="98.00"/><line x1="154.97" y1="58.00" x2="51.05" y2="118.00"/><line x1="51.05" y1="718.00" x2="120.33" y2="758.00"/><line x1="120.33" y1="758.00" x2="156.37" y2="737.19"/><line x1="51.05" y1="718.00" x2="51.05" y2="118.00"/><line x1="241.57" y1="453.10" x2="241.57" y2="48.00"/><line x1="68.37" y1="108.37" x2="68.37" y2="68.00"/><line x1="172.29" y1="8.00" x2="68.37" y2="68.00"/><line x1="172.29" y1="8.00" x2="241.57" y2="48.00"/></g></svg>
