ISO-10303-21;
HEADER;
FILE_DESCRIPTION(('STEP file generated by vcad'), '2;1');
FILE_NAME('model.step', '2024-01-01T00:00:00', ('vcad'), ('vcad'), 'vcad-kernel-step', 'vcad', '');
FILE_SCHEMA(('AUTOMOTIVE_DESIGN'));
ENDSEC;
DATA;
#1 = CARTESIAN_POINT('', (5.000000000000000E0, 0.000000000000000E0, -3.175000000000000E0));
#2 = CARTESIAN_POINT('', (5.000000000000000E0, 0.000000000000000E0, 3.175000000000000E0));
#3 = CARTESIAN_POINT('', (1.500000000000000E1, 0.000000000000000E0, -3.175000000000000E0));
#4 = CARTESIAN_POINT('', (1.500000000000000E1, 0.000000000000000E0, 3.175000000000000E0));
#5 = CARTESIAN_POINT('', (1.500000000000000E1, 6.000000000000000E1, -3.175000000000000E0));
#6 = CARTESIAN_POINT('', (1.500000000000000E1, 6.000000000000000E1, 3.175000000000000E0));
#7 = CARTESIAN_POINT('', (2.000000000000000E1, 6.000000000000000E1, -3.175000000000000E0));
#8 = CARTESIAN_POINT('', (2.000000000000000E1, 6.000000000000000E1, 3.175000000000000E0));
#9 = CARTESIAN_POINT('', (2.000000000000000E1, 1.780000000000000E2, -3.175000000000000E0));
#10 = CARTESIAN_POINT('', (2.000000000000000E1, 1.780000000000000E2, 3.175000000000000E0));
#11 = CARTESIAN_POINT('', (1.400000000000000E1, 1.780000000000000E2, -3.175000000000000E0));
#12 = CARTESIAN_POINT('', (1.400000000000000E1, 1.780000000000000E2, 3.175000000000000E0));
#13 = CARTESIAN_POINT('', (1.400000000000000E1, 7.400000000000000E1, -3.175000000000000E0));
#14 = CARTESIAN_POINT('', (1.400000000000000E1, 7.400000000000000E1, 3.175000000000000E0));
#15 = CARTESIAN_POINT('', (6.000000000000000E0, 7.400000000000000E1, -3.175000000000000E0));
#16 = CARTESIAN_POINT('', (6.000000000000000E0, 7.400000000000000E1, 3.175000000000000E0));
#17 = CARTESIAN_POINT('', (6.000000000000000E0, 1.780000000000000E2, -3.175000000000000E0));
#18 = CARTESIAN_POINT('', (6.000000000000000E0, 1.780000000000000E2, 3.175000000000000E0));
#19 = CARTESIAN_POINT('', (0.000000000000000E0, 1.780000000000000E2, -3.175000000000000E0));
#20 = CARTESIAN_POINT('', (0.000000000000000E0, 1.780000000000000E2, 3.175000000000000E0));
#21 = CARTESIAN_POINT('', (0.000000000000000E0, 6.000000000000000E1, -3.175000000000000E0));
#22 = CARTESIAN_POINT('', (0.000000000000000E0, 6.000000000000000E1, 3.175000000000000E0));
#23 = CARTESIAN_POINT('', (5.000000000000000E0, 6.000000000000000E1, -3.175000000000000E0));
#24 = CARTESIAN_POINT('', (5.000000000000000E0, 6.000000000000000E1, 3.175000000000000E0));
#26 = CARTESIAN_POINT('', (5.000000000000000E0, 0.000000000000000E0, -3.175000000000000E0));
#27 = DIRECTION('', (0.000000000000000E0, -1.000000000000000E0, 0.000000000000000E0));
#28 = DIRECTION('', (1.000000000000000E0, 0.000000000000000E0, 0.000000000000000E0));
#29 = AXIS2_PLACEMENT_3D('', #26, #27, #28);
#25 = PLANE('', #29);
#31 = CARTESIAN_POINT('', (1.500000000000000E1, 0.000000000000000E0, -3.175000000000000E0));
#32 = DIRECTION('', (1.000000000000000E0, 0.000000000000000E0, 0.000000000000000E0));
#33 = DIRECTION('', (0.000000000000000E0, 1.000000000000000E0, 0.000000000000000E0));
#34 = AXIS2_PLACEMENT_3D('', #31, #32, #33);
#30 = PLANE('', #34);
#36 = CARTESIAN_POINT('', (1.500000000000000E1, 6.000000000000000E1, -3.175000000000000E0));
#37 = DIRECTION('', (0.000000000000000E0, -1.000000000000000E0, 0.000000000000000E0));
#38 = DIRECTION('', (1.000000000000000E0, 0.000000000000000E0, 0.000000000000000E0));
#39 = AXIS2_PLACEMENT_3D('', #36, #37, #38);
#35 = PLANE('', #39);
#41 = CARTESIAN_POINT('', (2.000000000000000E1, 6.000000000000000E1, -3.175000000000000E0));
#42 = DIRECTION('', (1.000000000000000E0, 0.000000000000000E0, 0.000000000000000E0));
#43 = DIRECTION('', (0.000000000000000E0, 1.000000000000000E0, 0.000000000000000E0));
#44 = AXIS2_PLACEMENT_3D('', #41, #42, #43);
#40 = PLANE('', #44);
#46 = CARTESIAN_POINT('', (2.000000000000000E1, 1.780000000000000E2, -3.175000000000000E0));
#47 = DIRECTION('', (0.000000000000000E0, 1.000000000000000E0, -0.000000000000000E0));
#48 = DIRECTION('', (-1.000000000000000E0, 0.000000000000000E0, 0.000000000000000E0));
#49 = AXIS2_PLACEMENT_3D('', #46, #47, #48);
#45 = PLANE('', #49);
#51 = CARTESIAN_POINT('', (1.400000000000000E1, 1.780000000000000E2, -3.175000000000000E0));
#52 = DIRECTION('', (-1.000000000000000E0, 0.000000000000000E0, 0.000000000000000E0));
#53 = DIRECTION('', (0.000000000000000E0, -1.000000000000000E0, 0.000000000000000E0));
#54 = AXIS2_PLACEMENT_3D('', #51, #52, #53);
#50 = PLANE('', #54);
#56 = CARTESIAN_POINT('', (1.400000000000000E1, 7.400000000000000E1, -3.175000000000000E0));
#57 = DIRECTION('', (0.000000000000000E0, 1.000000000000000E0, -0.000000000000000E0));
#58 = DIRECTION('', (-1.000000000000000E0, 0.000000000000000E0, 0.000000000000000E0));
#59 = AXIS2_PLACEMENT_3D('', #56, #57, #58);
#55 = PLANE('', #59);
#61 = CARTESIAN_POINT('', (6.000000000000000E0, 7.400000000000000E1, -3.175000000000000E0));
#62 = DIRECTION('', (1.000000000000000E0, 0.000000000000000E0, 0.000000000000000E0));
#63 = DIRECTION('', (0.000000000000000E0, 1.000000000000000E0, 0.000000000000000E0));
#64 = AXIS2_PLACEMENT_3D('', #61, #62, #63);
#60 = PLANE('', #64);
#66 = CARTESIAN_POINT('', (6.000000000000000E0, 1.780000000000000E2, -3.175000000000000E0));
#67 = DIRECTION('', (0.000000000000000E0, 1.000000000000000E0, -0.000000000000000E0));
#68 = DIRECTION('', (-1.000000000000000E0, 0.000000000000000E0, 0.000000000000000E0));
#69 = AXIS2_PLACEMENT_3D('', #66, #67, #68);
#65 = PLANE('', #69);
#71 = CARTESIAN_POINT('', (0.000000000000000E0, 1.780000000000000E2, -3.175000000000000E0));
#72 = DIRECTION('', (-1.000000000000000E0, 0.000000000000000E0, 0.000000000000000E0));
#73 = DIRECTION('', (0.000000000000000E0, -1.000000000000000E0, 0.000000000000000E0));
#74 = AXIS2_PLACEMENT_3D('', #71, #72, #73);
#70 = PLANE('', #74);
#76 = CARTESIAN_POINT('', (0.000000000000000E0, 6.000000000000000E1, -3.175000000000000E0));
#77 = DIRECTION('', (0.000000000000000E0, -1.000000000000000E0, 0.000000000000000E0));
#78 = DIRECTION('', (1.000000000000000E0, 0.000000000000000E0, 0.000000000000000E0));
#79 = AXIS2_PLACEMENT_3D('', #76, #77, #78);
#75 = PLANE('', #79);
#81 = CARTESIAN_POINT('', (5.000000000000000E0, 6.000000000000000E1, -3.175000000000000E0));
#82 = DIRECTION('', (-1.000000000000000E0, 0.000000000000000E0, 0.000000000000000E0));
#83 = DIRECTION('', (0.000000000000000E0, -1.000000000000000E0, 0.000000000000000E0));
#84 = AXIS2_PLACEMENT_3D('', #81, #82, #83);
#80 = PLANE('', #84);
#86 = CARTESIAN_POINT('', (5.000000000000000E0, 0.000000000000000E0, -3.175000000000000E0));
#87 = DIRECTION('', (0.000000000000000E0, 0.000000000000000E0, -1.000000000000000E0));
#88 = DIRECTION('', (0.000000000000000E0, 1.000000000000000E0, 0.000000000000000E0));
#89 = AXIS2_PLACEMENT_3D('', #86, #87, #88);
#85 = PLANE('', #89);
#91 = CARTESIAN_POINT('', (5.000000000000000E0, 0.000000000000000E0, 3.175000000000000E0));
#92 = DIRECTION('', (-0.000000000000000E0, 0.000000000000000E0, 1.000000000000000E0));
#93 = DIRECTION('', (0.000000000000000E0, -1.000000000000000E0, 0.000000000000000E0));
#94 = AXIS2_PLACEMENT_3D('', #91, #92, #93);
#90 = PLANE('', #94);
#95 = VERTEX_POINT('', #1);
#96 = VERTEX_POINT('', #2);
#97 = VERTEX_POINT('', #3);
#98 = VERTEX_POINT('', #4);
#99 = VERTEX_POINT('', #5);
#100 = VERTEX_POINT('', #6);
#101 = VERTEX_POINT('', #7);
#102 = VERTEX_POINT('', #8);
#103 = VERTEX_POINT('', #9);
#104 = VERTEX_POINT('', #10);
#105 = VERTEX_POINT('', #11);
#106 = VERTEX_POINT('', #12);
#107 = VERTEX_POINT('', #13);
#108 = VERTEX_POINT('', #14);
#109 = VERTEX_POINT('', #15);
#110 = VERTEX_POINT('', #16);
#111 = VERTEX_POINT('', #17);
#112 = VERTEX_POINT('', #18);
#113 = VERTEX_POINT('', #19);
#114 = VERTEX_POINT('', #20);
#115 = VERTEX_POINT('', #21);
#116 = VERTEX_POINT('', #22);
#117 = VERTEX_POINT('', #23);
#118 = VERTEX_POINT('', #24);
#119 = CARTESIAN_POINT('', (1.400000000000000E1, 1.780000000000000E2, 3.175000000000000E0));
#120 = DIRECTION('', (0.000000000000000E0, 0.000000000000000E0, -1.000000000000000E0));
#121 = VECTOR('', #120, 6.350000000000000E0);
#122 = LINE('', #119, #121);
#123 = EDGE_CURVE('', #106, #105, #122, .T.);
#124 = CARTESIAN_POINT('', (1.400000000000000E1, 7.400000000000000E1, 3.175000000000000E0));
#125 = DIRECTION('', (-1.000000000000000E0, 0.000000000000000E0, 0.000000000000000E0));
#126 = VECTOR('', #125, 8.000000000000000E0);
#127 = LINE('', #124, #126);
#128 = EDGE_CURVE('', #108, #110, #127, .T.);
#129 = CARTESIAN_POINT('', (0.000000000000000E0, 6.000000000000000E1, 3.175000000000000E0));
#130 = DIRECTION('', (0.000000000000000E0, 0.000000000000000E0, -1.000000000000000E0));
#131 = VECTOR('', #130, 6.350000000000000E0);
#132 = LINE('', #129, #131);
#133 = EDGE_CURVE('', #116, #115, #132, .T.);
#134 = CARTESIAN_POINT('', (5.000000000000000E0, 6.000000000000000E1, -3.175000000000000E0));
#135 = DIRECTION('', (0.000000000000000E0, -1.000000000000000E0, 0.000000000000000E0));
#136 = VECTOR('', #135, 6.000000000000000E1);
#137 = LINE('', #134, #136);
#138 = EDGE_CURVE('', #117, #95, #137, .T.);
#139 = CARTESIAN_POINT('', (2.000000000000000E1, 6.000000000000000E1, -3.175000000000000E0));
#140 = DIRECTION('', (0.000000000000000E0, 1.000000000000000E0, 0.000000000000000E0));
#141 = VECTOR('', #140, 1.180000000000000E2);
#142 = LINE('', #139, #141);
#143 = EDGE_CURVE('', #101, #103, #142, .T.);
#144 = CARTESIAN_POINT('', (1.500000000000000E1, 6.000000000000000E1, 3.175000000000000E0));
#145 = DIRECTION('', (0.000000000000000E0, -1.000000000000000E0, 0.000000000000000E0));
#146 = VECTOR('', #145, 6.000000000000000E1);
#147 = LINE('', #144, #146);
#148 = EDGE_CURVE('', #100, #98, #147, .T.);
#149 = CARTESIAN_POINT('', (1.400000000000000E1, 1.780000000000000E2, -3.175000000000000E0));
#150 = DIRECTION('', (1.000000000000000E0, 0.000000000000000E0, 0.000000000000000E0));
#151 = VECTOR('', #150, 6.000000000000000E0);
#152 = LINE('', #149, #151);
#153 = EDGE_CURVE('', #105, #103, #152, .T.);
#154 = CARTESIAN_POINT('', (1.400000000000000E1, 1.780000000000000E2, -3.175000000000000E0));
#155 = DIRECTION('', (0.000000000000000E0, -1.000000000000000E0, 0.000000000000000E0));
#156 = VECTOR('', #155, 1.040000000000000E2);
#157 = LINE('', #154, #156);
#158 = EDGE_CURVE('', #105, #107, #157, .T.);
#159 = CARTESIAN_POINT('', (6.000000000000000E0, 1.780000000000000E2, -3.175000000000000E0));
#160 = DIRECTION('', (-1.000000000000000E0, 0.000000000000000E0, 0.000000000000000E0));
#161 = VECTOR('', #160, 6.000000000000000E0);
#162 = LINE('', #159, #161);
#163 = EDGE_CURVE('', #111, #113, #162, .T.);
#164 = CARTESIAN_POINT('', (1.400000000000000E1, 1.780000000000000E2, 3.175000000000000E0));
#165 = DIRECTION('', (1.000000000000000E0, 0.000000000000000E0, 0.000000000000000E0));
#166 = VECTOR('', #165, 6.000000000000000E0);
#167 = LINE('', #164, #166);
#168 = EDGE_CURVE('', #106, #104, #167, .T.);
#169 = CARTESIAN_POINT('', (1.500000000000000E1, 6.000000000000000E1, -3.175000000000000E0));
#170 = DIRECTION('', (0.000000000000000E0, 0.000000000000000E0, 1.000000000000000E0));
#171 = VECTOR('', #170, 6.350000000000000E0);
#172 = LINE('', #169, #171);
#173 = EDGE_CURVE('', #99, #100, #172, .T.);
#174 = CARTESIAN_POINT('', (0.000000000000000E0, 1.780000000000000E2, -3.175000000000000E0));
#175 = DIRECTION('', (0.000000000000000E0, -1.000000000000000E0, 0.000000000000000E0));
#176 = VECTOR('', #175, 1.180000000000000E2);
#177 = LINE('', #174, #176);
#178 = EDGE_CURVE('', #113, #115, #177, .T.);
#179 = CARTESIAN_POINT('', (2.000000000000000E1, 6.000000000000000E1, 3.175000000000000E0));
#180 = DIRECTION('', (-1.000000000000000E0, 0.000000000000000E0, 0.000000000000000E0));
#181 = VECTOR('', #180, 5.000000000000000E0);
#182 = LINE('', #179, #181);
#183 = EDGE_CURVE('', #102, #100, #182, .T.);
#184 = CARTESIAN_POINT('', (6.000000000000000E0, 1.780000000000000E2, -3.175000000000000E0));
#185 = DIRECTION('', (0.000000000000000E0, -1.000000000000000E0, 0.000000000000000E0));
#186 = VECTOR('', #185, 1.040000000000000E2);
#187 = LINE('', #184, #186);
#188 = EDGE_CURVE('', #111, #109, #187, .T.);
#189 = CARTESIAN_POINT('', (5.000000000000000E0, 0.000000000000000E0, -3.175000000000000E0));
#190 = DIRECTION('', (1.000000000000000E0, 0.000000000000000E0, 0.000000000000000E0));
#191 = VECTOR('', #190, 1.000000000000000E1);
#192 = LINE('', #189, #191);
#193 = EDGE_CURVE('', #95, #97, #192, .T.);
#194 = CARTESIAN_POINT('', (2.000000000000000E1, 6.000000000000000E1, -3.175000000000000E0));
#195 = DIRECTION('', (-1.000000000000000E0, 0.000000000000000E0, 0.000000000000000E0));
#196 = VECTOR('', #195, 5.000000000000000E0);
#197 = LINE('', #194, #196);
#198 = EDGE_CURVE('', #101, #99, #197, .T.);
#199 = CARTESIAN_POINT('', (6.000000000000000E0, 7.400000000000000E1, -3.175000000000000E0));
#200 = DIRECTION('', (0.000000000000000E0, 0.000000000000000E0, 1.000000000000000E0));
#201 = VECTOR('', #200, 6.350000000000000E0);
#202 = LINE('', #199, #201);
#203 = EDGE_CURVE('', #109, #110, #202, .T.);
#204 = CARTESIAN_POINT('', (6.000000000000000E0, 1.780000000000000E2, 3.175000000000000E0));
#205 = DIRECTION('', (-1.000000000000000E0, 0.000000000000000E0, 0.000000000000000E0));
#206 = VECTOR('', #205, 6.000000000000000E0);
#207 = LINE('', #204, #206);
#208 = EDGE_CURVE('', #112, #114, #207, .T.);
#209 = CARTESIAN_POINT('', (1.500000000000000E1, 0.000000000000000E0, -3.175000000000000E0));
#210 = DIRECTION('', (0.000000000000000E0, 0.000000000000000E0, 1.000000000000000E0));
#211 = VECTOR('', #210, 6.350000000000000E0);
#212 = LINE('', #209, #211);
#213 = EDGE_CURVE('', #97, #98, #212, .T.);
#214 = CARTESIAN_POINT('', (6.000000000000000E0, 1.780000000000000E2, 3.175000000000000E0));
#215 = DIRECTION('', (0.000000000000000E0, -1.000000000000000E0, 0.000000000000000E0));
#216 = VECTOR('', #215, 1.040000000000000E2);
#217 = LINE('', #214, #216);
#218 = EDGE_CURVE('', #112, #110, #217, .T.);
#219 = CARTESIAN_POINT('', (5.000000000000000E0, 6.000000000000000E1, 3.175000000000000E0));
#220 = DIRECTION('', (0.000000000000000E0, -1.000000000000000E0, 0.000000000000000E0));
#221 = VECTOR('', #220, 6.000000000000000E1);
#222 = LINE('', #219, #221);
#223 = EDGE_CURVE('', #118, #96, #222, .T.);
#224 = CARTESIAN_POINT('', (1.500000000000000E1, 0.000000000000000E0, 3.175000000000000E0));
#225 = DIRECTION('', (-1.000000000000000E0, 0.000000000000000E0, 0.000000000000000E0));
#226 = VECTOR('', #225, 1.000000000000000E1);
#227 = LINE('', #224, #226);
#228 = EDGE_CURVE('', #98, #96, #227, .T.);
#229 = CARTESIAN_POINT('', (0.000000000000000E0, 6.000000000000000E1, 3.175000000000000E0));
#230 = DIRECTION('', (1.000000000000000E0, 0.000000000000000E0, 0.000000000000000E0));
#231 = VECTOR('', #230, 5.000000000000000E0);
#232 = LINE('', #229, #231);
#233 = EDGE_CURVE('', #116, #118, #232, .T.);
#234 = CARTESIAN_POINT('', (5.000000000000000E0, 6.000000000000000E1, -3.175000000000000E0));
#235 = DIRECTION('', (0.000000000000000E0, 0.000000000000000E0, 1.000000000000000E0));
#236 = VECTOR('', #235, 6.350000000000000E0);
#237 = LINE('', #234, #236);
#238 = EDGE_CURVE('', #117, #118, #237, .T.);
#239 = CARTESIAN_POINT('', (0.000000000000000E0, 1.780000000000000E2, 3.175000000000000E0));
#240 = DIRECTION('', (0.000000000000000E0, 0.000000000000000E0, -1.000000000000000E0));
#241 = VECTOR('', #240, 6.350000000000000E0);
#242 = LINE('', #239, #241);
#243 = EDGE_CURVE('', #114, #113, #242, .T.);
#244 = CARTESIAN_POINT('', (0.000000000000000E0, 6.000000000000000E1, 3.175000000000000E0));
#245 = DIRECTION('', (0.000000000000000E0, 1.000000000000000E0, 0.000000000000000E0));
#246 = VECTOR('', #245, 1.180000000000000E2);
#247 = LINE('', #244, #246);
#248 = EDGE_CURVE('', #116, #114, #247, .T.);
#249 = CARTESIAN_POINT('', (2.000000000000000E1, 1.780000000000000E2, -3.175000000000000E0));
#250 = DIRECTION('', (0.000000000000000E0, 0.000000000000000E0, 1.000000000000000E0));
#251 = VECTOR('', #250, 6.350000000000000E0);
#252 = LINE('', #249, #251);
#253 = EDGE_CURVE('', #103, #104, #252, .T.);
#254 = CARTESIAN_POINT('', (5.000000000000000E0, 0.000000000000000E0, -3.175000000000000E0));
#255 = DIRECTION('', (0.000000000000000E0, 0.000000000000000E0, 1.000000000000000E0));
#256 = VECTOR('', #255, 6.350000000000000E0);
#257 = LINE('', #254, #256);
#258 = EDGE_CURVE('', #95, #96, #257, .T.);
#259 = CARTESIAN_POINT('', (0.000000000000000E0, 6.000000000000000E1, -3.175000000000000E0));
#260 = DIRECTION('', (1.000000000000000E0, 0.000000000000000E0, 0.000000000000000E0));
#261 = VECTOR('', #260, 5.000000000000000E0);
#262 = LINE('', #259, #261);
#263 = EDGE_CURVE('', #115, #117, #262, .T.);
#264 = CARTESIAN_POINT('', (1.400000000000000E1, 7.400000000000000E1, -3.175000000000000E0));
#265 = DIRECTION('', (-1.000000000000000E0, 0.000000000000000E0, 0.000000000000000E0));
#266 = VECTOR('', #265, 8.000000000000000E0);
#267 = LINE('', #264, #266);
#268 = EDGE_CURVE('', #107, #109, #267, .T.);
#269 = CARTESIAN_POINT('', (2.000000000000000E1, 1.780000000000000E2, 3.175000000000000E0));
#270 = DIRECTION('', (0.000000000000000E0, -1.000000000000000E0, 0.000000000000000E0));
#271 = VECTOR('', #270, 1.180000000000000E2);
#272 = LINE('', #269, #271);
#273 = EDGE_CURVE('', #104, #102, #272, .T.);
#274 = CARTESIAN_POINT('', (1.400000000000000E1, 7.400000000000000E1, 3.175000000000000E0));
#275 = DIRECTION('', (0.000000000000000E0, 1.000000000000000E0, 0.000000000000000E0));
#276 = VECTOR('', #275, 1.040000000000000E2);
#277 = LINE('', #274, #276);
#278 = EDGE_CURVE('', #108, #106, #277, .T.);
#279 = CARTESIAN_POINT('', (2.000000000000000E1, 6.000000000000000E1, -3.175000000000000E0));
#280 = DIRECTION('', (0.000000000000000E0, 0.000000000000000E0, 1.000000000000000E0));
#281 = VECTOR('', #280, 6.350000000000000E0);
#282 = LINE('', #279, #281);
#283 = EDGE_CURVE('', #101, #102, #282, .T.);
#284 = CARTESIAN_POINT('', (6.000000000000000E0, 1.780000000000000E2, 3.175000000000000E0));
#285 = DIRECTION('', (0.000000000000000E0, 0.000000000000000E0, -1.000000000000000E0));
#286 = VECTOR('', #285, 6.350000000000000E0);
#287 = LINE('', #284, #286);
#288 = EDGE_CURVE('', #112, #111, #287, .T.);
#289 = CARTESIAN_POINT('', (1.500000000000000E1, 0.000000000000000E0, -3.175000000000000E0));
#290 = DIRECTION('', (0.000000000000000E0, 1.000000000000000E0, 0.000000000000000E0));
#291 = VECTOR('', #290, 6.000000000000000E1);
#292 = LINE('', #289, #291);
#293 = EDGE_CURVE('', #97, #99, #292, .T.);
#294 = CARTESIAN_POINT('', (1.400000000000000E1, 7.400000000000000E1, 3.175000000000000E0));
#295 = DIRECTION('', (0.000000000000000E0, 0.000000000000000E0, -1.000000000000000E0));
#296 = VECTOR('', #295, 6.350000000000000E0);
#297 = LINE('', #294, #296);
#298 = EDGE_CURVE('', #108, #107, #297, .T.);
#299 = ORIENTED_EDGE('', *, *, #193, .T.);
#300 = ORIENTED_EDGE('', *, *, #213, .T.);
#301 = ORIENTED_EDGE('', *, *, #228, .T.);
#302 = ORIENTED_EDGE('', *, *, #258, .F.);
#303 = EDGE_LOOP('', (#299, #300, #301, #302));
#304 = ORIENTED_EDGE('', *, *, #293, .T.);
#305 = ORIENTED_EDGE('', *, *, #173, .T.);
#306 = ORIENTED_EDGE('', *, *, #148, .T.);
#307 = ORIENTED_EDGE('', *, *, #213, .F.);
#308 = EDGE_LOOP('', (#304, #305, #306, #307));
#309 = ORIENTED_EDGE('', *, *, #198, .F.);
#310 = ORIENTED_EDGE('', *, *, #283, .T.);
#311 = ORIENTED_EDGE('', *, *, #183, .T.);
#312 = ORIENTED_EDGE('', *, *, #173, .F.);
#313 = EDGE_LOOP('', (#309, #310, #311, #312));
#314 = ORIENTED_EDGE('', *, *, #143, .T.);
#315 = ORIENTED_EDGE('', *, *, #253, .T.);
#316 = ORIENTED_EDGE('', *, *, #273, .T.);
#317 = ORIENTED_EDGE('', *, *, #283, .F.);
#318 = EDGE_LOOP('', (#314, #315, #316, #317));
#319 = ORIENTED_EDGE('', *, *, #153, .F.);
#320 = ORIENTED_EDGE('', *, *, #123, .F.);
#321 = ORIENTED_EDGE('', *, *, #168, .T.);
#322 = ORIENTED_EDGE('', *, *, #253, .F.);
#323 = EDGE_LOOP('', (#319, #320, #321, #322));
#324 = ORIENTED_EDGE('', *, *, #158, .T.);
#325 = ORIENTED_EDGE('', *, *, #298, .F.);
#326 = ORIENTED_EDGE('', *, *, #278, .T.);
#327 = ORIENTED_EDGE('', *, *, #123, .T.);
#328 = EDGE_LOOP('', (#324, #325, #326, #327));
#329 = ORIENTED_EDGE('', *, *, #268, .T.);
#330 = ORIENTED_EDGE('', *, *, #203, .T.);
#331 = ORIENTED_EDGE('', *, *, #128, .F.);
#332 = ORIENTED_EDGE('', *, *, #298, .T.);
#333 = EDGE_LOOP('', (#329, #330, #331, #332));
#334 = ORIENTED_EDGE('', *, *, #188, .F.);
#335 = ORIENTED_EDGE('', *, *, #288, .F.);
#336 = ORIENTED_EDGE('', *, *, #218, .T.);
#337 = ORIENTED_EDGE('', *, *, #203, .F.);
#338 = EDGE_LOOP('', (#334, #335, #336, #337));
#339 = ORIENTED_EDGE('', *, *, #163, .T.);
#340 = ORIENTED_EDGE('', *, *, #243, .F.);
#341 = ORIENTED_EDGE('', *, *, #208, .F.);
#342 = ORIENTED_EDGE('', *, *, #288, .T.);
#343 = EDGE_LOOP('', (#339, #340, #341, #342));
#344 = ORIENTED_EDGE('', *, *, #178, .T.);
#345 = ORIENTED_EDGE('', *, *, #133, .F.);
#346 = ORIENTED_EDGE('', *, *, #248, .T.);
#347 = ORIENTED_EDGE('', *, *, #243, .T.);
#348 = EDGE_LOOP('', (#344, #345, #346, #347));
#349 = ORIENTED_EDGE('', *, *, #263, .T.);
#350 = ORIENTED_EDGE('', *, *, #238, .T.);
#351 = ORIENTED_EDGE('', *, *, #233, .F.);
#352 = ORIENTED_EDGE('', *, *, #133, .T.);
#353 = EDGE_LOOP('', (#349, #350, #351, #352));
#354 = ORIENTED_EDGE('', *, *, #138, .T.);
#355 = ORIENTED_EDGE('', *, *, #258, .T.);
#356 = ORIENTED_EDGE('', *, *, #223, .F.);
#357 = ORIENTED_EDGE('', *, *, #238, .F.);
#358 = EDGE_LOOP('', (#354, #355, #356, #357));
#359 = ORIENTED_EDGE('', *, *, #263, .F.);
#360 = ORIENTED_EDGE('', *, *, #178, .F.);
#361 = ORIENTED_EDGE('', *, *, #163, .F.);
#362 = ORIENTED_EDGE('', *, *, #188, .T.);
#363 = ORIENTED_EDGE('', *, *, #268, .F.);
#364 = ORIENTED_EDGE('', *, *, #158, .F.);
#365 = ORIENTED_EDGE('', *, *, #153, .T.);
#366 = ORIENTED_EDGE('', *, *, #143, .F.);
#367 = ORIENTED_EDGE('', *, *, #198, .T.);
#368 = ORIENTED_EDGE('', *, *, #293, .F.);
#369 = ORIENTED_EDGE('', *, *, #193, .F.);
#370 = ORIENTED_EDGE('', *, *, #138, .F.);
#371 = EDGE_LOOP('', (#359, #360, #361, #362, #363, #364, #365, #366, #367, #368, #369, #370));
#372 = ORIENTED_EDGE('', *, *, #228, .F.);
#373 = ORIENTED_EDGE('', *, *, #148, .F.);
#374 = ORIENTED_EDGE('', *, *, #183, .F.);
#375 = ORIENTED_EDGE('', *, *, #273, .F.);
#376 = ORIENTED_EDGE('', *, *, #168, .F.);
#377 = ORIENTED_EDGE('', *, *, #278, .F.);
#378 = ORIENTED_EDGE('', *, *, #128, .T.);
#379 = ORIENTED_EDGE('', *, *, #218, .F.);
#380 = ORIENTED_EDGE('', *, *, #208, .T.);
#381 = ORIENTED_EDGE('', *, *, #248, .F.);
#382 = ORIENTED_EDGE('', *, *, #233, .T.);
#383 = ORIENTED_EDGE('', *, *, #223, .T.);
#384 = EDGE_LOOP('', (#372, #373, #374, #375, #376, #377, #378, #379, #380, #381, #382, #383));
#385 = FACE_OUTER_BOUND('', #303, .T.);
#386 = ADVANCED_FACE('', (#385), #25, .T.);
#387 = FACE_OUTER_BOUND('', #308, .T.);
#388 = ADVANCED_FACE('', (#387), #30, .T.);
#389 = FACE_OUTER_BOUND('', #313, .T.);
#390 = ADVANCED_FACE('', (#389), #35, .T.);
#391 = FACE_OUTER_BOUND('', #318, .T.);
#392 = ADVANCED_FACE('', (#391), #40, .T.);
#393 = FACE_OUTER_BOUND('', #323, .T.);
#394 = ADVANCED_FACE('', (#393), #45, .T.);
#395 = FACE_OUTER_BOUND('', #328, .T.);
#396 = ADVANCED_FACE('', (#395), #50, .T.);
#397 = FACE_OUTER_BOUND('', #333, .T.);
#398 = ADVANCED_FACE('', (#397), #55, .T.);
#399 = FACE_OUTER_BOUND('', #338, .T.);
#400 = ADVANCED_FACE('', (#399), #60, .T.);
#401 = FACE_OUTER_BOUND('', #343, .T.);
#402 = ADVANCED_FACE('', (#401), #65, .T.);
#403 = FACE_OUTER_BOUND('', #348, .T.);
#404 = ADVANCED_FACE('', (#403), #70, .T.);
#405 = FACE_OUTER_BOUND('', #353, .T.);
#406 = ADVANCED_FACE('', (#405), #75, .T.);
#407 = FACE_OUTER_BOUND('', #358, .T.);
#408 = ADVANCED_FACE('', (#407), #80, .T.);
#409 = FACE_OUTER_BOUND('', #371, .T.);
#410 = ADVANCED_FACE('', (#409), #85, .T.);
#411 = FACE_OUTER_BOUND('', #384, .T.);
#412 = ADVANCED_FACE('', (#411), #90, .T.);
#413 = CLOSED_SHELL('', (#386, #388, #390, #392, #394, #396, #398, #400, #402, #404, #406, #408, #410, #412));
#414 = MANIFOLD_SOLID_BREP('Solid', #413);
ENDSEC;
END-ISO-10303-21;
