G04 Generated by vcad-ecad-export*
%FSLAX46Y46*%
%MOMM*%
%TF.FileFunction,Copper,L2,Bot*%
%TF.GenerationSoftware,vcad,vcad-ecad-export*%
%ADD10C,1.700000*%
%ADD11C,0.600000*%
%ADD12C,0.250000*%
%ADD13C,0.150000*%
D12*
X24000000Y9650000D02*
X24000000Y11650000D01*
D13*
X32750000Y48200000D02*
X34550000Y46400000D01*
X8450000Y28800000D02*
X13750000Y24300000D01*
D12*
X8450000Y27000000D02*
X8250000Y26200000D01*
X8250000Y26200000D02*
X3450000Y21400000D01*
X8450000Y27000000D02*
X7450000Y29600000D01*
D13*
X9956066Y28293934D02*
X10450000Y31700000D01*
X5556066Y29706066D02*
X5600000Y27500000D01*
X9550000Y31000000D02*
X8350000Y32500000D01*
X8350000Y32500000D02*
X7450000Y32500000D01*
X7450000Y32500000D02*
X4450000Y29600000D01*
X24600000Y17300000D02*
X23300000Y17300000D01*
X24493934Y15393934D02*
X32100000Y15500000D01*
X32100000Y15500000D02*
X33900000Y17300000D01*
X34600000Y18500000D02*
X30900000Y19100000D01*
X24250000Y50350000D02*
X20050000Y50650000D01*
X20050000Y50650000D02*
X11350000Y48250000D01*
X35050000Y38950000D02*
X35550000Y39850000D01*
X35550000Y39850000D02*
X35550000Y40750000D01*
X35550000Y40750000D02*
X29250000Y47050000D01*
X29250000Y47050000D02*
X26020711Y47120711D01*
X33050000Y38350000D02*
X17450000Y49350000D01*
X12279289Y49379289D02*
X8150000Y50050000D01*
X8150000Y50050000D02*
X6350000Y48250000D01*
X27750000Y38950000D02*
X24650000Y41650000D01*
X24650000Y41650000D02*
X24050000Y41650000D01*
X24050000Y41650000D02*
X18950000Y36550000D01*
X13850000Y32050000D02*
X13850000Y29950000D01*
X9950000Y26050000D02*
X9950000Y24250000D01*
X9950000Y24250000D02*
X20450000Y13750000D01*
X20450000Y13750000D02*
X24950000Y13600000D01*
X59750000Y37750000D02*
X60150000Y37750000D01*
X60150000Y37750000D02*
X61050000Y38650000D01*
X61050000Y38650000D02*
X63150000Y38500000D01*
X66643934Y37256066D02*
X67420711Y36479289D01*
X70050000Y33850000D02*
X70050000Y12850000D01*
X70050000Y12850000D02*
X60450000Y3250000D01*
X60450000Y3250000D02*
X41550000Y3250000D01*
X41550000Y3250000D02*
X40420711Y4379289D01*
X55250000Y40050000D02*
X64850000Y43350000D01*
X25450000Y29250000D02*
X8950000Y43950000D01*
X8950000Y43950000D02*
X3850000Y46050000D01*
X3850000Y46050000D02*
X5050000Y51150000D01*
X5050000Y51150000D02*
X41350000Y51150000D01*
X41350000Y51150000D02*
X49550000Y43050000D01*
X25450000Y28450000D02*
X13750000Y39250000D01*
X13750000Y39250000D02*
X3550000Y45850000D01*
X3550000Y45850000D02*
X3550000Y50350000D01*
X3550000Y50350000D02*
X4750000Y51550000D01*
X4750000Y51550000D02*
X34450000Y51700000D01*
X35500000Y50350000D02*
X47720711Y42920711D01*
X59050000Y32050000D02*
X60150000Y14050000D01*
X49450000Y30850000D02*
X49350000Y27550000D01*
X49350000Y27550000D02*
X48600000Y26950000D01*
X48750000Y24400000D02*
X49950000Y16450000D01*
X49950000Y16450000D02*
X53550000Y12850000D01*
X53550000Y12850000D02*
X58243934Y13856066D01*
X61543934Y16643934D02*
X64950000Y19450000D01*
D12*
X58000000Y30533333D02*
X54400000Y26800000D01*
D13*
X51150000Y33750000D02*
X50250000Y30750000D01*
X48250000Y21750000D02*
X49543934Y14443934D01*
X55879289Y11479289D02*
X59550000Y11550000D01*
X59550000Y11550000D02*
X62550000Y14550000D01*
X62550000Y14550000D02*
X62550000Y16350000D01*
X62550000Y16350000D02*
X64950000Y18750000D01*
X64950000Y18750000D02*
X66750000Y18750000D01*
X66750000Y18750000D02*
X67350000Y21750000D01*
X50750000Y40950000D02*
X57450000Y47850000D01*
X70050000Y34650000D02*
X70650000Y34050000D01*
X70650000Y34050000D02*
X70650000Y12750000D01*
X70650000Y12750000D02*
X60750000Y2850000D01*
X60750000Y2850000D02*
X37950000Y2850000D01*
X37950000Y2850000D02*
X35850000Y4950000D01*
X35850000Y4950000D02*
X35850000Y7650000D01*
X35850000Y7650000D02*
X47250000Y12750000D01*
X47250000Y12750000D02*
X55050000Y12450000D01*
X55050000Y12450000D02*
X55050000Y12600000D01*
D12*
X52000000Y26800000D02*
X47600000Y24800000D01*
X47600000Y24800000D02*
X47600000Y18400000D01*
X47600000Y18400000D02*
X48000000Y18000000D01*
X48000000Y18000000D02*
X45200000Y15200000D01*
X45200000Y15200000D02*
X42800000Y15000000D01*
D13*
X52250000Y40350000D02*
X59450000Y48150000D01*
X59450000Y48150000D02*
X66050000Y48150000D01*
X66050000Y48150000D02*
X68450000Y45750000D01*
X68450000Y45750000D02*
X68750000Y19050000D01*
X68750000Y19050000D02*
X66050000Y16350000D01*
X66050000Y16350000D02*
X63200000Y15450000D01*
X58350000Y33650000D02*
X61950000Y29950000D01*
X67350000Y28850000D02*
X68250000Y20150000D01*
X68250000Y20150000D02*
X67420711Y19320711D01*
X62850000Y18950000D02*
X60750000Y16850000D01*
X60750000Y16850000D02*
X60750000Y13550000D01*
X53620711Y5820711D02*
X53550000Y5150000D01*
X53550000Y5150000D02*
X52650000Y4250000D01*
X52650000Y4250000D02*
X49350000Y4250000D01*
X49350000Y4250000D02*
X48150000Y5450000D01*
X56779289Y34679289D02*
X58350000Y34450000D01*
X58350000Y34450000D02*
X62550000Y30250000D01*
X62550000Y30250000D02*
X62550000Y27550000D01*
X62550000Y27550000D02*
X60643934Y25643934D01*
X59250000Y20150000D02*
X59550000Y12250000D01*
X59550000Y12250000D02*
X59250000Y11950000D01*
X59250000Y11950000D02*
X47250000Y12250000D01*
X47250000Y12250000D02*
X44730000Y5500000D01*
X52450000Y33350000D02*
X54150000Y31550000D01*
X60000000Y25250000D02*
X60450000Y24950000D01*
X60450000Y24950000D02*
X64650000Y25250000D01*
X33050000Y30850000D02*
X38550000Y36550000D01*
X48050000Y45350000D02*
X54243934Y45356066D01*
X57650000Y45350000D02*
X58656066Y44243934D01*
X61250000Y47050000D02*
X66650000Y47050000D01*
X66650000Y47050000D02*
X68150000Y41350000D01*
X68150000Y41350000D02*
X66050000Y39250000D01*
X66050000Y39250000D02*
X62150000Y39250000D01*
X47850000Y32850000D02*
X47850000Y26850000D01*
X47850000Y26850000D02*
X48450000Y26250000D01*
X48450000Y26250000D02*
X49200000Y26250000D01*
X16150000Y35950000D02*
X13150000Y32950000D01*
X13150000Y32950000D02*
X13150000Y25750000D01*
X12179289Y24920711D02*
X13750000Y21550000D01*
X13750000Y21550000D02*
X19450000Y15850000D01*
X19450000Y15850000D02*
X32050000Y16250000D01*
X40150000Y16150000D02*
X47050000Y23050000D01*
X47050000Y23050000D02*
X47050000Y27250000D01*
X47050000Y27250000D02*
X47950000Y28150000D01*
X47950000Y28150000D02*
X47950000Y32650000D01*
X55350000Y38550000D02*
X58650000Y36150000D01*
X58650000Y36150000D02*
X60750000Y36150000D01*
X60750000Y36150000D02*
X62320711Y37579289D01*
X48750000Y32950000D02*
X42043934Y40556066D01*
X47850000Y46150000D02*
X57150000Y48550000D01*
X57150000Y48550000D02*
X66150000Y48550000D01*
X66150000Y48550000D02*
X68850000Y45850000D01*
X68850000Y45850000D02*
X69000000Y43750000D01*
X68020711Y37079289D02*
X68250000Y30850000D01*
X68250000Y30850000D02*
X65850000Y28450000D01*
X51179289Y39220711D02*
X48250000Y35250000D01*
X47050000Y34050000D02*
X45250000Y30450000D01*
X43000000Y30450000D02*
X42850000Y26250000D01*
X42850000Y26250000D02*
X44050000Y21750000D01*
X44050000Y21750000D02*
X41950000Y19650000D01*
X41950000Y19650000D02*
X41950000Y18750000D01*
X53350000Y8950000D02*
X54179289Y8179289D01*
X55450000Y8400000D02*
X62950000Y8250000D01*
X46775000Y18205000D02*
X39575000Y13705000D01*
X39575000Y13705000D02*
X39575000Y9905000D01*
X35875000Y4105000D02*
X37775000Y2305000D01*
X37775000Y2305000D02*
X60875000Y2305000D01*
X60875000Y2305000D02*
X71375000Y12805000D01*
X71375000Y12805000D02*
X71375000Y44605000D01*
X71375000Y44605000D02*
X66275000Y49705000D01*
X66275000Y49705000D02*
X56375000Y49805000D01*
X51150000Y36250000D02*
X60750000Y35650000D01*
X60750000Y35650000D02*
X65550000Y33550000D01*
X26679289Y36020711D02*
X28250000Y38350000D01*
X30650000Y38850000D02*
X32750000Y37750000D01*
X32750000Y37750000D02*
X33350000Y37750000D01*
X33350000Y37750000D02*
X35450000Y38350000D01*
X35450000Y38350000D02*
X36050000Y38950000D01*
X36050000Y38950000D02*
X36050000Y41050000D01*
X38650000Y41050000D02*
X42543934Y39143934D01*
X44150000Y39550000D02*
X47150000Y38650000D01*
D12*
X50016667Y36750000D02*
X50550000Y35950000D01*
X50550000Y35950000D02*
X55750000Y31150000D01*
X55750000Y31150000D02*
X55750000Y29950000D01*
X55750000Y29950000D02*
X56550000Y29150000D01*
X56550000Y29150000D02*
X58055719Y30444281D01*
D13*
X57450000Y38850000D02*
X55050000Y39350000D01*
X55050000Y39350000D02*
X54150000Y40250000D01*
X54150000Y40250000D02*
X54220711Y41679289D01*
X52879289Y43920711D02*
X51000000Y44750000D01*
X37050000Y2150000D02*
X34650000Y4550000D01*
X34650000Y4550000D02*
X34570000Y5500000D01*
X31750000Y24750000D02*
X31750000Y19500000D01*
X29720711Y16720711D02*
X19150000Y16650000D01*
X19150000Y16650000D02*
X16150000Y19650000D01*
X16150000Y19650000D02*
X16150000Y23550000D01*
X27150000Y22950000D02*
X22250000Y17250000D01*
X20556066Y15343934D02*
X19250000Y15450000D01*
X19250000Y15450000D02*
X11450000Y23250000D01*
X11450000Y23250000D02*
X11379289Y25579289D01*
X11600000Y26850000D02*
X11450000Y38550000D01*
X11450000Y38550000D02*
X6543934Y43243934D01*
X24950000Y48750000D02*
X27720711Y48520711D01*
X27350000Y23050000D02*
X28850000Y17850000D01*
X28850000Y17850000D02*
X33050000Y17850000D01*
X31179289Y27379289D02*
X31179289Y20920711D01*
X27950000Y13950000D02*
X25250000Y13050000D01*
X25250000Y13050000D02*
X20150000Y13350000D01*
X20150000Y13350000D02*
X9350000Y24150000D01*
X9350000Y24150000D02*
X9243934Y26356066D01*
X12120711Y29020711D02*
X12579289Y27820711D01*
X27950000Y24150000D02*
X29450000Y22650000D01*
X36950000Y22650000D02*
X38750000Y20850000D01*
D12*
X29750000Y27516667D02*
X31350000Y28050000D01*
X31350000Y28050000D02*
X32283333Y27250000D01*
D13*
X29479289Y26779289D02*
X30750000Y25650000D01*
X30750000Y25650000D02*
X30650000Y22050000D01*
X36450000Y22050000D02*
X38250000Y20250000D01*
X43650000Y20550000D02*
X46350000Y24750000D01*
X26950000Y29150000D02*
X25900000Y25550000D01*
X25900000Y24050000D02*
X27250000Y24050000D01*
X27250000Y24050000D02*
X29950000Y21350000D01*
X33850000Y21500000D02*
X40150000Y15350000D01*
X40150000Y15350000D02*
X47050000Y18050000D01*
D12*
X30750000Y35350000D02*
X32350000Y29550000D01*
X32350000Y29550000D02*
X30150000Y27150000D01*
D13*
X28350000Y28950000D02*
X30679289Y29320711D01*
X33150000Y29250000D02*
X42150000Y23850000D01*
X27250000Y29850000D02*
X24250000Y32550000D01*
X24250000Y32550000D02*
X23650000Y33450000D01*
X23650000Y33450000D02*
X22820711Y36520711D01*
X10450000Y37350000D02*
X8650000Y37350000D01*
X8650000Y37350000D02*
X2950000Y31650000D01*
X2950000Y31650000D02*
X2950000Y27150000D01*
X2950000Y27150000D02*
X5650000Y24450000D01*
X17950000Y12150000D02*
X21250000Y12150000D01*
X21250000Y12150000D02*
X23350000Y10050000D01*
X23350000Y10050000D02*
X23350000Y9450000D01*
X23350000Y9450000D02*
X27250000Y5550000D01*
X27250000Y5550000D02*
X30850000Y5550000D01*
X30850000Y5550000D02*
X37979289Y16720711D01*
X40650000Y19350000D02*
X41350000Y19350000D01*
X41350000Y19350000D02*
X43379289Y22120711D01*
X27320711Y27379289D02*
X27850000Y30150000D01*
X27850000Y30150000D02*
X27250000Y30750000D01*
X26950000Y34950000D02*
X23950000Y37950000D01*
X23950000Y37950000D02*
X23950000Y39750000D01*
X23450000Y41850000D02*
X20350000Y38850000D01*
X10150000Y38850000D02*
X9550000Y38850000D01*
X9550000Y38850000D02*
X2650000Y31950000D01*
X2650000Y31950000D02*
X2650000Y21150000D01*
X2650000Y21150000D02*
X18550000Y5250000D01*
X18550000Y5250000D02*
X31150000Y5250000D01*
X31150000Y5250000D02*
X32050000Y6150000D01*
X31150000Y7050000D02*
X37379289Y17320711D01*
X56850000Y33750000D02*
X58650000Y30750000D01*
X58650000Y30750000D02*
X58650000Y19350000D01*
X58650000Y19350000D02*
X53250000Y13950000D01*
X53350000Y11550000D02*
X49810000Y5500000D01*
X56150000Y33450000D02*
X56400000Y30150000D01*
X57300000Y28950000D02*
X55156066Y26743934D01*
X48450000Y17550000D02*
X41550000Y10800000D01*
D12*
X25602860Y35402860D02*
X24602860Y36497140D01*
X28050000Y39650000D02*
X30250000Y37450000D01*
X25250000Y35250000D02*
X22850000Y37650000D01*
X8650000Y25633333D02*
X7850000Y24700000D01*
X26750000Y37950000D02*
X24750000Y37950000D01*
X54825000Y16635000D02*
X53625000Y15435000D01*
X53625000Y15435000D02*
X52025000Y15435000D01*
X32000000Y40000000D02*
X34800000Y40000000D01*
X54375000Y10895000D02*
X54775000Y8495000D01*
X54775000Y8495000D02*
X54775000Y6095000D01*
X54800000Y11000000D02*
X55600000Y10600000D01*
X55600000Y10600000D02*
X60800000Y10600000D01*
X60800000Y10600000D02*
X64800000Y14600000D01*
X8650000Y25633333D02*
X7850000Y24566667D01*
X28350000Y36750000D02*
X30750000Y36750000D01*
X30750000Y36750000D02*
X31150000Y37950000D01*
X56800000Y27600000D02*
X58000000Y28400000D01*
X60000000Y26400000D02*
X60000000Y28800000D01*
X60400000Y36800000D02*
X59600000Y36800000D01*
X59600000Y36800000D02*
X58800000Y37600000D01*
X58800000Y37600000D02*
X58800000Y39600000D01*
X5400000Y14800000D02*
X7800000Y12000000D01*
X55850000Y40850000D02*
X55050000Y42450000D01*
X54250000Y43650000D02*
X48250000Y37250000D01*
X48250000Y37250000D02*
X48250000Y36450000D01*
X49450000Y35250000D02*
X51850000Y34050000D01*
X51850000Y34050000D02*
X51850000Y28050000D01*
X51850000Y28050000D02*
X57850000Y22050000D01*
X61450000Y19650000D02*
X65050000Y24050000D01*
X65050000Y24050000D02*
X66250000Y24050000D01*
X66250000Y24050000D02*
X66650000Y24450000D01*
X66650000Y24450000D02*
X66650000Y25650000D01*
X66650000Y25650000D02*
X65850000Y26450000D01*
X65850000Y26450000D02*
X64650000Y26450000D01*
X64650000Y26450000D02*
X63450000Y27650000D01*
X63450000Y27650000D02*
X63450000Y28450000D01*
X63450000Y28450000D02*
X65500000Y30270000D01*
X51600000Y15600000D02*
X51600000Y19200000D01*
X50150000Y39150000D02*
X54150000Y43550000D01*
X55350000Y42750000D02*
X57350000Y41550000D01*
X55200000Y22400000D02*
X54800000Y21200000D01*
X36750000Y37250000D02*
X38750000Y37250000D01*
X38750000Y37250000D02*
X39150000Y36850000D01*
X39150000Y36850000D02*
X39150000Y35250000D01*
X29850000Y37950000D02*
X28250000Y39550000D01*
X29850000Y41950000D02*
X33450000Y41950000D01*
X34650000Y42750000D02*
X36650000Y41550000D01*
X36650000Y41550000D02*
X36650000Y37950000D01*
X33050000Y28450000D02*
X33050000Y23250000D01*
X48800000Y30000000D02*
X48800000Y28400000D01*
X24300000Y18350000D02*
X26700000Y17550000D01*
X22700000Y12550000D02*
X19500000Y12950000D01*
X25000000Y25600000D02*
X25800000Y24800000D01*
X25800000Y24800000D02*
X30200000Y24800000D01*
X45200000Y28500000D02*
X47200000Y28500000D01*
X24850000Y34450000D02*
X24450000Y34050000D01*
X24450000Y34050000D02*
X24450000Y33250000D01*
X24450000Y33250000D02*
X25250000Y32450000D01*
X25200000Y25200000D02*
X26200000Y24800000D01*
X26200000Y24800000D02*
X29800000Y28400000D01*
X29800000Y28400000D02*
X30600000Y28400000D01*
X30600000Y28400000D02*
X31400000Y29200000D01*
X31400000Y29200000D02*
X29400000Y36000000D01*
X29400000Y36000000D02*
X28400000Y36800000D01*
X7850000Y24700000D02*
X7000000Y24100000D01*
X54800000Y11000000D02*
X54375000Y10895000D01*
X25250000Y35250000D02*
X25603000Y35403000D01*
D13*
X25343934Y30143934D02*
X22150000Y34150000D01*
X22150000Y34150000D02*
X22150000Y37750000D01*
X22150000Y37750000D02*
X23350000Y38950000D01*
X29650000Y42700000D02*
X32950000Y42550000D01*
X33850000Y43450000D02*
X47350000Y42250000D01*
X47350000Y42250000D02*
X51250000Y42250000D01*
X51250000Y42250000D02*
X52150000Y43150000D01*
X56850000Y44550000D02*
X58350000Y43050000D01*
X58350000Y43050000D02*
X62250000Y43050000D01*
X64350000Y38550000D02*
X62550000Y35550000D01*
X62550000Y31050000D02*
X62850000Y30450000D01*
X62850000Y30450000D02*
X62850000Y25650000D01*
X62250000Y22050000D02*
X60450000Y19050000D01*
X57750000Y16950000D02*
X55050000Y14850000D01*
X54150000Y17250000D02*
X52650000Y17250000D01*
X31553033Y34653033D02*
X32400000Y30700000D01*
X32400000Y30700000D02*
X33300000Y29800000D01*
X33300000Y29800000D02*
X35453033Y28503033D01*
X34650000Y27700000D02*
X34685355Y21435355D01*
X32064645Y17314645D02*
X27750000Y17350000D01*
X27750000Y17350000D02*
X25250000Y19900000D01*
X24300000Y20500000D02*
X21600000Y19450000D01*
X20000000Y18250000D02*
X18500000Y18250000D01*
D10*
X7900000Y23800000D03*
X7900000Y31200000D03*
X4100000Y23800000D03*
X4100000Y31200000D03*
X65500000Y12490000D03*
X65500000Y15030000D03*
X65500000Y17570000D03*
X65500000Y20110000D03*
X65500000Y22650000D03*
X65500000Y25190000D03*
X65500000Y27730000D03*
X65500000Y30270000D03*
X65500000Y32810000D03*
X65500000Y35350000D03*
X65500000Y37890000D03*
X65500000Y40430000D03*
X65500000Y42970000D03*
X65500000Y45510000D03*
X10540000Y48000000D03*
X8000000Y48000000D03*
X5460000Y48000000D03*
X57430000Y5500000D03*
X54890000Y5500000D03*
X52350000Y5500000D03*
X49810000Y5500000D03*
X47270000Y5500000D03*
X44730000Y5500000D03*
X42190000Y5500000D03*
X39650000Y5500000D03*
X37110000Y5500000D03*
X34570000Y5500000D03*
D11*
X24000000Y9650000D03*
X24000000Y11650000D03*
X32750000Y48200000D03*
X34550000Y46400000D03*
X8450000Y28800000D03*
X13750000Y24300000D03*
X8450000Y27000000D03*
X3450000Y21400000D03*
X7450000Y29600000D03*
X9956066Y28293934D03*
X10450000Y31700000D03*
X5556066Y29706066D03*
X5600000Y27500000D03*
X9550000Y31000000D03*
X4450000Y29600000D03*
X24600000Y17300000D03*
X23300000Y17300000D03*
X24493934Y15393934D03*
X33900000Y17300000D03*
X34600000Y18500000D03*
X30900000Y19100000D03*
X24250000Y50350000D03*
X35050000Y38950000D03*
X26020711Y47120711D03*
X33050000Y38350000D03*
X17450000Y49350000D03*
X12279289Y49379289D03*
X27750000Y38950000D03*
X18950000Y36550000D03*
X13850000Y32050000D03*
X13850000Y29950000D03*
X9950000Y26050000D03*
X24950000Y13600000D03*
X59750000Y37750000D03*
X63150000Y38500000D03*
X66643934Y37256066D03*
X67420711Y36479289D03*
X70050000Y33850000D03*
X40420711Y4379289D03*
X55250000Y40050000D03*
X25450000Y29250000D03*
X49550000Y43050000D03*
X25450000Y28450000D03*
X34450000Y51700000D03*
X35500000Y50350000D03*
X47720711Y42920711D03*
X59050000Y32050000D03*
X60150000Y14050000D03*
X49450000Y30850000D03*
X48600000Y26950000D03*
X48750000Y24400000D03*
X58243934Y13856066D03*
X61543934Y16643934D03*
X58000000Y30533333D03*
X54400000Y26800000D03*
X51150000Y33750000D03*
X50250000Y30750000D03*
X48250000Y21750000D03*
X49543934Y14443934D03*
X55879289Y11479289D03*
X67350000Y21750000D03*
X50750000Y40950000D03*
X57450000Y47850000D03*
X70050000Y34650000D03*
X55050000Y12600000D03*
X52000000Y26800000D03*
X42800000Y15000000D03*
X52250000Y40350000D03*
X63200000Y15450000D03*
X58350000Y33650000D03*
X61950000Y29950000D03*
X67350000Y28850000D03*
X67420711Y19320711D03*
X62850000Y18950000D03*
X60750000Y13550000D03*
X53620711Y5820711D03*
X56779289Y34679289D03*
X60643934Y25643934D03*
X59250000Y20150000D03*
X52450000Y33350000D03*
X54150000Y31550000D03*
X60000000Y25250000D03*
X33050000Y30850000D03*
X38550000Y36550000D03*
X48050000Y45350000D03*
X54243934Y45356066D03*
X57650000Y45350000D03*
X58656066Y44243934D03*
X61250000Y47050000D03*
X62150000Y39250000D03*
X47850000Y32850000D03*
X49200000Y26250000D03*
X16150000Y35950000D03*
X13150000Y25750000D03*
X12179289Y24920711D03*
X32050000Y16250000D03*
X40150000Y16150000D03*
X55350000Y38550000D03*
X62320711Y37579289D03*
X48750000Y32950000D03*
X42043934Y40556066D03*
X47850000Y46150000D03*
X69000000Y43750000D03*
X68020711Y37079289D03*
X51179289Y39220711D03*
X48250000Y35250000D03*
X47050000Y34050000D03*
X45250000Y30450000D03*
X43000000Y30450000D03*
X41950000Y18750000D03*
X53350000Y8950000D03*
X54179289Y8179289D03*
X55450000Y8400000D03*
X62950000Y8250000D03*
X46775000Y18205000D03*
X39575000Y9905000D03*
X35875000Y4105000D03*
X56375000Y49805000D03*
X51150000Y36250000D03*
X26679289Y36020711D03*
X28250000Y38350000D03*
X30650000Y38850000D03*
X36050000Y41050000D03*
X38650000Y41050000D03*
X42543934Y39143934D03*
X44150000Y39550000D03*
X47150000Y38650000D03*
X50016667Y36750000D03*
X57450000Y38850000D03*
X54220711Y41679289D03*
X52879289Y43920711D03*
X51000000Y44750000D03*
X37050000Y2150000D03*
X31750000Y24750000D03*
X31750000Y19500000D03*
X29720711Y16720711D03*
X16150000Y23550000D03*
X27150000Y22950000D03*
X22250000Y17250000D03*
X20556066Y15343934D03*
X11379289Y25579289D03*
X11600000Y26850000D03*
X6543934Y43243934D03*
X24950000Y48750000D03*
X27720711Y48520711D03*
X33050000Y17850000D03*
X31179289Y27379289D03*
X31179289Y20920711D03*
X27950000Y13950000D03*
X9243934Y26356066D03*
X12120711Y29020711D03*
X12579289Y27820711D03*
X27950000Y24150000D03*
X29450000Y22650000D03*
X36950000Y22650000D03*
X38750000Y20850000D03*
X29750000Y27516667D03*
X32283333Y27250000D03*
X29479289Y26779289D03*
X30650000Y22050000D03*
X36450000Y22050000D03*
X38250000Y20250000D03*
X43650000Y20550000D03*
X46350000Y24750000D03*
X26950000Y29150000D03*
X25900000Y25550000D03*
X25900000Y24050000D03*
X29950000Y21350000D03*
X33850000Y21500000D03*
X30750000Y35350000D03*
X28350000Y28950000D03*
X30679289Y29320711D03*
X33150000Y29250000D03*
X42150000Y23850000D03*
X27250000Y29850000D03*
X22820711Y36520711D03*
X10450000Y37350000D03*
X5650000Y24450000D03*
X17950000Y12150000D03*
X37979289Y16720711D03*
X40650000Y19350000D03*
X43379289Y22120711D03*
X27320711Y27379289D03*
X27250000Y30750000D03*
X26950000Y34950000D03*
X23950000Y39750000D03*
X23450000Y41850000D03*
X20350000Y38850000D03*
X10150000Y38850000D03*
X32050000Y6150000D03*
X31150000Y7050000D03*
X37379289Y17320711D03*
X56850000Y33750000D03*
X53250000Y13950000D03*
X53350000Y11550000D03*
X56150000Y33450000D03*
X56400000Y30150000D03*
X57300000Y28950000D03*
X55156066Y26743934D03*
X48450000Y17550000D03*
X41550000Y10800000D03*
X25602860Y35402860D03*
X24602860Y36497140D03*
X28050000Y39650000D03*
X30250000Y37450000D03*
X22850000Y37650000D03*
X8650000Y25633333D03*
X26750000Y37950000D03*
X24750000Y37950000D03*
X54825000Y16635000D03*
X52025000Y15435000D03*
X32000000Y40000000D03*
X34800000Y40000000D03*
X54375000Y10895000D03*
X28350000Y36750000D03*
X31150000Y37950000D03*
X56800000Y27600000D03*
X58000000Y28400000D03*
X60000000Y26400000D03*
X60000000Y28800000D03*
X60400000Y36800000D03*
X58800000Y39600000D03*
X5400000Y14800000D03*
X7800000Y12000000D03*
X55850000Y40850000D03*
X55050000Y42450000D03*
X54250000Y43650000D03*
X48250000Y36450000D03*
X49450000Y35250000D03*
X57850000Y22050000D03*
X61450000Y19650000D03*
X51600000Y19200000D03*
X50150000Y39150000D03*
X57350000Y41550000D03*
X55200000Y22400000D03*
X54800000Y21200000D03*
X36750000Y37250000D03*
X39150000Y35250000D03*
X29850000Y37950000D03*
X29850000Y41950000D03*
X33450000Y41950000D03*
X34650000Y42750000D03*
X36650000Y37950000D03*
X33050000Y28450000D03*
X33050000Y23250000D03*
X48800000Y30000000D03*
X48800000Y28400000D03*
X24300000Y18350000D03*
X26700000Y17550000D03*
X22700000Y12550000D03*
X19500000Y12950000D03*
X25000000Y25600000D03*
X30200000Y24800000D03*
X45200000Y28500000D03*
X47200000Y28500000D03*
X24850000Y34450000D03*
X25250000Y32450000D03*
X7000000Y24100000D03*
X25343934Y30143934D03*
X23350000Y38950000D03*
X29650000Y42700000D03*
X32950000Y42550000D03*
X33850000Y43450000D03*
X52150000Y43150000D03*
X56850000Y44550000D03*
X62250000Y43050000D03*
X64350000Y38550000D03*
X62550000Y35550000D03*
X62550000Y31050000D03*
X62850000Y25650000D03*
X62250000Y22050000D03*
X60450000Y19050000D03*
X57750000Y16950000D03*
X55050000Y14850000D03*
X54150000Y17250000D03*
X52650000Y17250000D03*
X31553033Y34653033D03*
X35453033Y28503033D03*
X34650000Y27700000D03*
X34685355Y21435355D03*
X32064645Y17314645D03*
X25250000Y19900000D03*
X24300000Y20500000D03*
X21600000Y19450000D03*
X20000000Y18250000D03*
X18500000Y18250000D03*
X25250000Y34850000D03*
G36*
X23700000Y9650000D02*
X23710222Y9572354D01*
X23740192Y9500000D01*
X23787868Y9437868D01*
X23850000Y9390192D01*
X23922354Y9360222D01*
X24000000Y9350000D01*
X24077646Y9360222D01*
X24150000Y9390192D01*
X24212132Y9437868D01*
X24259808Y9500000D01*
X24289778Y9572354D01*
X24300000Y9650000D01*
X24289778Y9727646D01*
X24125000Y10250000D01*
X23875000Y10250000D01*
X23710222Y9727646D01*
X23700000Y9650000D01*
G37*
G36*
X23700000Y11650000D02*
X23710222Y11572354D01*
X23875000Y11050000D01*
X24125000Y11050000D01*
X24289778Y11572354D01*
X24300000Y11650000D01*
X24289778Y11727646D01*
X24259808Y11800000D01*
X24212132Y11862132D01*
X24150000Y11909808D01*
X24077646Y11939778D01*
X24000000Y11950000D01*
X23922354Y11939778D01*
X23850000Y11909808D01*
X23787868Y11862132D01*
X23740192Y11800000D01*
X23710222Y11727646D01*
X23700000Y11650000D01*
G37*
G36*
X32450000Y48200000D02*
X32460222Y48122354D01*
X32490192Y48050000D01*
X32537868Y47987868D01*
X32600000Y47940192D01*
X33121231Y47722703D01*
X33227297Y47828769D01*
X33009808Y48350000D01*
X32962132Y48412132D01*
X32900000Y48459808D01*
X32827646Y48489778D01*
X32750000Y48500000D01*
X32672354Y48489778D01*
X32600000Y48459808D01*
X32537868Y48412132D01*
X32490192Y48350000D01*
X32460222Y48277646D01*
X32450000Y48200000D01*
G37*
G36*
X34072703Y46771231D02*
X34290192Y46250000D01*
X34337868Y46187868D01*
X34400000Y46140192D01*
X34472354Y46110222D01*
X34550000Y46100000D01*
X34627646Y46110222D01*
X34700000Y46140192D01*
X34762132Y46187868D01*
X34809808Y46250000D01*
X34839778Y46322354D01*
X34850000Y46400000D01*
X34839778Y46477646D01*
X34809808Y46550000D01*
X34762132Y46612132D01*
X34700000Y46659808D01*
X34178769Y46877297D01*
X34072703Y46771231D01*
G37*
G36*
X8150000Y28800000D02*
X8160222Y28722354D01*
X8190192Y28650000D01*
X8237868Y28587868D01*
X8300000Y28540192D01*
X8372354Y28510222D01*
X8858834Y28354489D01*
X8955919Y28468834D01*
X8709808Y28950000D01*
X8662132Y29012132D01*
X8600000Y29059808D01*
X8527646Y29089778D01*
X8450000Y29100000D01*
X8372354Y29089778D01*
X8300000Y29059808D01*
X8237868Y29012132D01*
X8190192Y28950000D01*
X8160222Y28877646D01*
X8150000Y28800000D01*
G37*
G36*
X13244081Y24631166D02*
X13490192Y24150000D01*
X13537868Y24087868D01*
X13600000Y24040192D01*
X13672354Y24010222D01*
X13750000Y24000000D01*
X13827646Y24010222D01*
X13900000Y24040192D01*
X13962132Y24087868D01*
X14009808Y24150000D01*
X14039778Y24222354D01*
X14050000Y24300000D01*
X14039778Y24377646D01*
X14009808Y24450000D01*
X13962132Y24512132D01*
X13900000Y24559808D01*
X13827646Y24589778D01*
X13341166Y24745511D01*
X13244081Y24631166D01*
G37*
G36*
X8150000Y27000000D02*
X8183211Y26448231D01*
X8425746Y26387598D01*
X8709808Y26850000D01*
X8739778Y26922354D01*
X8750000Y27000000D01*
X8739778Y27077646D01*
X8709808Y27150000D01*
X8662132Y27212132D01*
X8600000Y27259808D01*
X8527646Y27289778D01*
X8450000Y27300000D01*
X8372354Y27289778D01*
X8300000Y27259808D01*
X8237868Y27212132D01*
X8190192Y27150000D01*
X8160222Y27077646D01*
X8150000Y27000000D01*
G37*
G36*
X3150000Y21400000D02*
X3160222Y21322354D01*
X3190192Y21250000D01*
X3237868Y21187868D01*
X3300000Y21140192D01*
X3372354Y21110222D01*
X3450000Y21100000D01*
X3527646Y21110222D01*
X3600000Y21140192D01*
X3662132Y21187868D01*
X3709808Y21250000D01*
X3962652Y21735876D01*
X3785876Y21912652D01*
X3300000Y21659808D01*
X3237868Y21612132D01*
X3190192Y21550000D01*
X3160222Y21477646D01*
X3150000Y21400000D01*
G37*
G36*
X8117944Y27515135D02*
X8150000Y27000000D01*
X8160222Y26922354D01*
X8190192Y26850000D01*
X8237868Y26787868D01*
X8300000Y26740192D01*
X8372354Y26710222D01*
X8450000Y26700000D01*
X8527646Y26710222D01*
X8600000Y26740192D01*
X8662132Y26787868D01*
X8709808Y26850000D01*
X8739778Y26922354D01*
X8750000Y27000000D01*
X8739778Y27077646D01*
X8709808Y27150000D01*
X8662132Y27212132D01*
X8351281Y27604880D01*
X8117944Y27515135D01*
G37*
G36*
X7150000Y29600000D02*
X7160222Y29522354D01*
X7190192Y29450000D01*
X7237868Y29387868D01*
X7548719Y28995120D01*
X7782056Y29084865D01*
X7750000Y29600000D01*
X7739778Y29677646D01*
X7709808Y29750000D01*
X7662132Y29812132D01*
X7600000Y29859808D01*
X7527646Y29889778D01*
X7450000Y29900000D01*
X7372354Y29889778D01*
X7300000Y29859808D01*
X7237868Y29812132D01*
X7190192Y29750000D01*
X7160222Y29677646D01*
X7150000Y29600000D01*
G37*
G36*
X9656066Y28293934D02*
X9666288Y28216288D01*
X9696258Y28143934D01*
X9743934Y28081802D01*
X9806066Y28034126D01*
X9878420Y28004156D01*
X9956066Y27993934D01*
X10033712Y28004156D01*
X10106066Y28034126D01*
X10168198Y28081802D01*
X10215874Y28143934D01*
X10245844Y28216288D01*
X10256066Y28293934D01*
X10245844Y28371580D01*
X10116399Y28876959D01*
X9967951Y28898486D01*
X9696258Y28443934D01*
X9666288Y28371580D01*
X9656066Y28293934D01*
G37*
G36*
X10150000Y31700000D02*
X10160222Y31622354D01*
X10289668Y31116975D01*
X10438115Y31095447D01*
X10709808Y31550000D01*
X10739778Y31622354D01*
X10750000Y31700000D01*
X10739778Y31777646D01*
X10709808Y31850000D01*
X10662132Y31912132D01*
X10600000Y31959808D01*
X10527646Y31989778D01*
X10450000Y32000000D01*
X10372354Y31989778D01*
X10300000Y31959808D01*
X10237868Y31912132D01*
X10190192Y31850000D01*
X10160222Y31777646D01*
X10150000Y31700000D01*
G37*
G36*
X5256066Y29706066D02*
X5266288Y29628420D01*
X5296258Y29556066D01*
X5493028Y29104692D01*
X5642998Y29107678D01*
X5845844Y29628420D01*
X5856066Y29706066D01*
X5845844Y29783712D01*
X5815874Y29856066D01*
X5768198Y29918198D01*
X5706066Y29965874D01*
X5633712Y29995844D01*
X5556066Y30006066D01*
X5478420Y29995844D01*
X5406066Y29965874D01*
X5343934Y29918198D01*
X5296258Y29856066D01*
X5266288Y29783712D01*
X5256066Y29706066D01*
G37*
G36*
X5300000Y27500000D02*
X5310222Y27422354D01*
X5340192Y27350000D01*
X5387868Y27287868D01*
X5450000Y27240192D01*
X5522354Y27210222D01*
X5600000Y27200000D01*
X5677646Y27210222D01*
X5750000Y27240192D01*
X5812132Y27287868D01*
X5859808Y27350000D01*
X5889778Y27422354D01*
X5900000Y27500000D01*
X5889778Y27577646D01*
X5859808Y27650000D01*
X5663038Y28101374D01*
X5513068Y28098388D01*
X5310222Y27577646D01*
X5300000Y27500000D01*
G37*
G36*
X9116618Y31421669D02*
X9260222Y30922354D01*
X9290192Y30850000D01*
X9337868Y30787868D01*
X9400000Y30740192D01*
X9472354Y30710222D01*
X9550000Y30700000D01*
X9627646Y30710222D01*
X9700000Y30740192D01*
X9762132Y30787868D01*
X9809808Y30850000D01*
X9839778Y30922354D01*
X9850000Y31000000D01*
X9839778Y31077646D01*
X9809808Y31150000D01*
X9762132Y31212132D01*
X9700000Y31259808D01*
X9233748Y31515373D01*
X9116618Y31421669D01*
G37*
G36*
X4150000Y29600000D02*
X4160222Y29522354D01*
X4190192Y29450000D01*
X4237868Y29387868D01*
X4300000Y29340192D01*
X4372354Y29310222D01*
X4450000Y29300000D01*
X4527646Y29310222D01*
X4600000Y29340192D01*
X4662132Y29387868D01*
X4709808Y29450000D01*
X4933520Y29963089D01*
X4829266Y30070937D01*
X4372354Y29889778D01*
X4300000Y29859808D01*
X4237868Y29812132D01*
X4190192Y29750000D01*
X4160222Y29677646D01*
X4150000Y29600000D01*
G37*
G36*
X24000000Y17225000D02*
X24522354Y17010222D01*
X24600000Y17000000D01*
X24677646Y17010222D01*
X24750000Y17040192D01*
X24812132Y17087868D01*
X24859808Y17150000D01*
X24889778Y17222354D01*
X24900000Y17300000D01*
X24889778Y17377646D01*
X24859808Y17450000D01*
X24812132Y17512132D01*
X24750000Y17559808D01*
X24677646Y17589778D01*
X24600000Y17600000D01*
X24522354Y17589778D01*
X24000000Y17375000D01*
X24000000Y17225000D01*
G37*
G36*
X23000000Y17300000D02*
X23010222Y17222354D01*
X23040192Y17150000D01*
X23087868Y17087868D01*
X23150000Y17040192D01*
X23222354Y17010222D01*
X23300000Y17000000D01*
X23377646Y17010222D01*
X23900000Y17225000D01*
X23900000Y17375000D01*
X23377646Y17589778D01*
X23300000Y17600000D01*
X23222354Y17589778D01*
X23150000Y17559808D01*
X23087868Y17512132D01*
X23040192Y17450000D01*
X23010222Y17377646D01*
X23000000Y17300000D01*
G37*
G36*
X24193934Y15393934D02*
X24204156Y15316288D01*
X24234126Y15243934D01*
X24281802Y15181802D01*
X24343934Y15134126D01*
X24416288Y15104156D01*
X24493934Y15093934D01*
X24571580Y15104156D01*
X24643934Y15134126D01*
X25094921Y15327307D01*
X25092830Y15477293D01*
X24571580Y15683712D01*
X24493934Y15693934D01*
X24416288Y15683712D01*
X24343934Y15653742D01*
X24281802Y15606066D01*
X24234126Y15543934D01*
X24204156Y15471580D01*
X24193934Y15393934D01*
G37*
G36*
X33422703Y16928769D02*
X33528769Y16822703D01*
X34050000Y17040192D01*
X34112132Y17087868D01*
X34159808Y17150000D01*
X34189778Y17222354D01*
X34200000Y17300000D01*
X34189778Y17377646D01*
X34159808Y17450000D01*
X34112132Y17512132D01*
X34050000Y17559808D01*
X33977646Y17589778D01*
X33900000Y17600000D01*
X33822354Y17589778D01*
X33750000Y17559808D01*
X33687868Y17512132D01*
X33640192Y17450000D01*
X33422703Y16928769D01*
G37*
G36*
X33995731Y18522010D02*
X34450000Y18240192D01*
X34522354Y18210222D01*
X34600000Y18200000D01*
X34677646Y18210222D01*
X34750000Y18240192D01*
X34812132Y18287868D01*
X34859808Y18350000D01*
X34889778Y18422354D01*
X34900000Y18500000D01*
X34889778Y18577646D01*
X34859808Y18650000D01*
X34812132Y18712132D01*
X34750000Y18759808D01*
X34677646Y18789778D01*
X34600000Y18800000D01*
X34522354Y18789778D01*
X34019742Y18670076D01*
X33995731Y18522010D01*
G37*
G36*
X30600000Y19100000D02*
X30610222Y19022354D01*
X30640192Y18950000D01*
X30687868Y18887868D01*
X30750000Y18840192D01*
X30822354Y18810222D01*
X30900000Y18800000D01*
X30977646Y18810222D01*
X31480258Y18929924D01*
X31504269Y19077990D01*
X31050000Y19359808D01*
X30977646Y19389778D01*
X30900000Y19400000D01*
X30822354Y19389778D01*
X30750000Y19359808D01*
X30687868Y19312132D01*
X30640192Y19250000D01*
X30610222Y19177646D01*
X30600000Y19100000D01*
G37*
G36*
X23646181Y50317939D02*
X24100000Y50090192D01*
X24172354Y50060222D01*
X24250000Y50050000D01*
X24327646Y50060222D01*
X24400000Y50090192D01*
X24462132Y50137868D01*
X24509808Y50200000D01*
X24539778Y50272354D01*
X24550000Y50350000D01*
X24539778Y50427646D01*
X24509808Y50500000D01*
X24462132Y50562132D01*
X24400000Y50609808D01*
X24327646Y50639778D01*
X24250000Y50650000D01*
X24172354Y50639778D01*
X23656868Y50467558D01*
X23646181Y50317939D01*
G37*
G36*
X9690000Y48000000D02*
X9718963Y47780004D01*
X9803878Y47575000D01*
X9938959Y47398959D01*
X10115000Y47263878D01*
X10320004Y47178963D01*
X10540000Y47150000D01*
X10759996Y47178963D01*
X10965000Y47263878D01*
X11141041Y47398959D01*
X12198732Y48379780D01*
X12158843Y48524379D01*
X10759996Y48821037D01*
X10540000Y48850000D01*
X10320004Y48821037D01*
X10115000Y48736122D01*
X9938959Y48601041D01*
X9803878Y48425000D01*
X9718963Y48219996D01*
X9690000Y48000000D01*
G37*
G36*
X34750000Y38950000D02*
X34760222Y38872354D01*
X34790192Y38800000D01*
X34837868Y38737868D01*
X34900000Y38690192D01*
X34972354Y38660222D01*
X35050000Y38650000D01*
X35127646Y38660222D01*
X35200000Y38690192D01*
X35262132Y38737868D01*
X35309808Y38800000D01*
X35339778Y38872354D01*
X35350000Y38950000D01*
X35406948Y39438071D01*
X35275824Y39510918D01*
X34837868Y39162132D01*
X34790192Y39100000D01*
X34760222Y39027646D01*
X34750000Y38950000D01*
G37*
G36*
X25720711Y47120711D02*
X25730933Y47043065D01*
X25760903Y46970711D01*
X25808579Y46908579D01*
X25870711Y46860903D01*
X25943065Y46830933D01*
X26020711Y46820711D01*
X26098356Y46830933D01*
X26618925Y47032594D01*
X26622209Y47182558D01*
X26170711Y47380518D01*
X26098356Y47410488D01*
X26020711Y47420711D01*
X25943065Y47410488D01*
X25870711Y47380518D01*
X25808579Y47332843D01*
X25760903Y47270711D01*
X25730933Y47198356D01*
X25720711Y47120711D01*
G37*
G36*
X32516425Y38634469D02*
X32790192Y38200000D01*
X32837868Y38137868D01*
X32900000Y38090192D01*
X32972354Y38060222D01*
X33050000Y38050000D01*
X33127646Y38060222D01*
X33200000Y38090192D01*
X33262132Y38137868D01*
X33309808Y38200000D01*
X33339778Y38272354D01*
X33350000Y38350000D01*
X33339778Y38427646D01*
X33309808Y38500000D01*
X33262132Y38562132D01*
X33200000Y38609808D01*
X33127646Y38639778D01*
X32602866Y38757057D01*
X32516425Y38634469D01*
G37*
G36*
X17150000Y49350000D02*
X17160222Y49272354D01*
X17190192Y49200000D01*
X17237868Y49137868D01*
X17300000Y49090192D01*
X17372354Y49060222D01*
X17897134Y48942943D01*
X17983575Y49065531D01*
X17709808Y49500000D01*
X17662132Y49562132D01*
X17600000Y49609808D01*
X17527646Y49639778D01*
X17450000Y49650000D01*
X17372354Y49639778D01*
X17300000Y49609808D01*
X17237868Y49562132D01*
X17190192Y49500000D01*
X17160222Y49427646D01*
X17150000Y49350000D01*
G37*
G36*
X11675026Y49401455D02*
X12129289Y49119482D01*
X12201644Y49089512D01*
X12279289Y49079289D01*
X12356935Y49089512D01*
X12429289Y49119482D01*
X12491421Y49167157D01*
X12539097Y49229289D01*
X12569067Y49301644D01*
X12579289Y49379289D01*
X12569067Y49456935D01*
X12539097Y49529289D01*
X12491421Y49591421D01*
X12429289Y49639097D01*
X12356935Y49669067D01*
X12279289Y49679289D01*
X12201644Y49669067D01*
X11699075Y49549515D01*
X11675026Y49401455D01*
G37*
G36*
X4610000Y48000000D02*
X4638963Y47780004D01*
X4723878Y47575000D01*
X4858959Y47398959D01*
X5035000Y47263878D01*
X5240004Y47178963D01*
X5460000Y47150000D01*
X5679996Y47178963D01*
X5885000Y47263878D01*
X6061041Y47398959D01*
X6196122Y47575000D01*
X6281037Y47780004D01*
X6715115Y49149049D01*
X6609049Y49255115D01*
X5240004Y48821037D01*
X5035000Y48736122D01*
X4858959Y48601041D01*
X4723878Y48425000D01*
X4638963Y48219996D01*
X4610000Y48000000D01*
G37*
G36*
X27248292Y39287512D02*
X27490192Y38800000D01*
X27537868Y38737868D01*
X27600000Y38690192D01*
X27672354Y38660222D01*
X27750000Y38650000D01*
X27827646Y38660222D01*
X27900000Y38690192D01*
X27962132Y38737868D01*
X28009808Y38800000D01*
X28039778Y38872354D01*
X28050000Y38950000D01*
X28039778Y39027646D01*
X28009808Y39100000D01*
X27962132Y39162132D01*
X27900000Y39209808D01*
X27827646Y39239778D01*
X27346810Y39400625D01*
X27248292Y39287512D01*
G37*
G36*
X18650000Y36550000D02*
X18660222Y36472354D01*
X18690192Y36400000D01*
X18737868Y36337868D01*
X18800000Y36290192D01*
X18872354Y36260222D01*
X18950000Y36250000D01*
X19027646Y36260222D01*
X19100000Y36290192D01*
X19162132Y36337868D01*
X19209808Y36400000D01*
X19427297Y36921231D01*
X19321231Y37027297D01*
X18800000Y36809808D01*
X18737868Y36762132D01*
X18690192Y36700000D01*
X18660222Y36627646D01*
X18650000Y36550000D01*
G37*
G36*
X13550000Y32050000D02*
X13560222Y31972354D01*
X13775000Y31450000D01*
X13925000Y31450000D01*
X14139778Y31972354D01*
X14150000Y32050000D01*
X14139778Y32127646D01*
X14109808Y32200000D01*
X14062132Y32262132D01*
X14000000Y32309808D01*
X13927646Y32339778D01*
X13850000Y32350000D01*
X13772354Y32339778D01*
X13700000Y32309808D01*
X13637868Y32262132D01*
X13590192Y32200000D01*
X13560222Y32127646D01*
X13550000Y32050000D01*
G37*
G36*
X13550000Y29950000D02*
X13560222Y29872354D01*
X13590192Y29800000D01*
X13637868Y29737868D01*
X13700000Y29690192D01*
X13772354Y29660222D01*
X13850000Y29650000D01*
X13927646Y29660222D01*
X14000000Y29690192D01*
X14062132Y29737868D01*
X14109808Y29800000D01*
X14139778Y29872354D01*
X14150000Y29950000D01*
X14139778Y30027646D01*
X13925000Y30550000D01*
X13775000Y30550000D01*
X13560222Y30027646D01*
X13550000Y29950000D01*
G37*
G36*
X9650000Y26050000D02*
X9660222Y25972354D01*
X9875000Y25450000D01*
X10025000Y25450000D01*
X10239778Y25972354D01*
X10250000Y26050000D01*
X10239778Y26127646D01*
X10209808Y26200000D01*
X10162132Y26262132D01*
X10100000Y26309808D01*
X10027646Y26339778D01*
X9950000Y26350000D01*
X9872354Y26339778D01*
X9800000Y26309808D01*
X9737868Y26262132D01*
X9690192Y26200000D01*
X9660222Y26127646D01*
X9650000Y26050000D01*
G37*
G36*
X24347834Y13545031D02*
X24800000Y13340192D01*
X24872354Y13310222D01*
X24950000Y13300000D01*
X25027646Y13310222D01*
X25100000Y13340192D01*
X25162132Y13387868D01*
X25209808Y13450000D01*
X25239778Y13522354D01*
X25250000Y13600000D01*
X25239778Y13677646D01*
X25209808Y13750000D01*
X25162132Y13812132D01*
X25100000Y13859808D01*
X25027646Y13889778D01*
X24950000Y13900000D01*
X24872354Y13889778D01*
X24352832Y13694947D01*
X24347834Y13545031D01*
G37*
G36*
X59450000Y37750000D02*
X59460222Y37672354D01*
X59490192Y37600000D01*
X59537868Y37537868D01*
X59600000Y37490192D01*
X59672354Y37460222D01*
X59750000Y37450000D01*
X59827646Y37460222D01*
X59900000Y37490192D01*
X59962132Y37537868D01*
X60110000Y37675000D01*
X60110000Y37825000D01*
X59962132Y37962132D01*
X59900000Y38009808D01*
X59827646Y38039778D01*
X59750000Y38050000D01*
X59672354Y38039778D01*
X59600000Y38009808D01*
X59537868Y37962132D01*
X59490192Y37900000D01*
X59460222Y37827646D01*
X59450000Y37750000D01*
G37*
G36*
X62546181Y38467939D02*
X63000000Y38240192D01*
X63072354Y38210222D01*
X63150000Y38200000D01*
X63227646Y38210222D01*
X63300000Y38240192D01*
X63362132Y38287868D01*
X63409808Y38350000D01*
X63439778Y38422354D01*
X63450000Y38500000D01*
X63439778Y38577646D01*
X63409808Y38650000D01*
X63362132Y38712132D01*
X63300000Y38759808D01*
X63227646Y38789778D01*
X63150000Y38800000D01*
X63072354Y38789778D01*
X62556868Y38617558D01*
X62546181Y38467939D01*
G37*
G36*
X66343934Y37256066D02*
X66354156Y37178420D01*
X66384126Y37106066D01*
X66431802Y37043934D01*
X66493934Y36996258D01*
X67015165Y36778769D01*
X67121231Y36884835D01*
X66903742Y37406066D01*
X66856066Y37468198D01*
X66793934Y37515874D01*
X66721580Y37545844D01*
X66643934Y37556066D01*
X66566288Y37545844D01*
X66493934Y37515874D01*
X66431802Y37468198D01*
X66384126Y37406066D01*
X66354156Y37333712D01*
X66343934Y37256066D01*
G37*
G36*
X66943414Y36850520D02*
X67160903Y36329289D01*
X67208579Y36267157D01*
X67270711Y36219482D01*
X67343065Y36189512D01*
X67420711Y36179289D01*
X67498356Y36189512D01*
X67570711Y36219482D01*
X67632843Y36267157D01*
X67680518Y36329289D01*
X67710488Y36401644D01*
X67720711Y36479289D01*
X67710488Y36556935D01*
X67680518Y36629289D01*
X67632843Y36691421D01*
X67570711Y36739097D01*
X67049480Y36956586D01*
X66943414Y36850520D01*
G37*
G36*
X69750000Y33850000D02*
X69760222Y33772354D01*
X69975000Y33250000D01*
X70125000Y33250000D01*
X70339778Y33772354D01*
X70350000Y33850000D01*
X70339778Y33927646D01*
X70309808Y34000000D01*
X70262132Y34062132D01*
X70200000Y34109808D01*
X70127646Y34139778D01*
X70050000Y34150000D01*
X69972354Y34139778D01*
X69900000Y34109808D01*
X69837868Y34062132D01*
X69790192Y34000000D01*
X69760222Y33927646D01*
X69750000Y33850000D01*
G37*
G36*
X40120711Y4379289D02*
X40130933Y4301644D01*
X40160903Y4229289D01*
X40208579Y4167157D01*
X40270711Y4119482D01*
X40791942Y3901992D01*
X40898008Y4008058D01*
X40680518Y4529289D01*
X40632843Y4591421D01*
X40570711Y4639097D01*
X40498356Y4669067D01*
X40420711Y4679289D01*
X40343065Y4669067D01*
X40270711Y4639097D01*
X40208579Y4591421D01*
X40160903Y4529289D01*
X40130933Y4456935D01*
X40120711Y4379289D01*
G37*
G36*
X54950000Y40050000D02*
X54960222Y39972354D01*
X54990192Y39900000D01*
X55037868Y39837868D01*
X55100000Y39790192D01*
X55172354Y39760222D01*
X55250000Y39750000D01*
X55327646Y39760222D01*
X55400000Y39790192D01*
X55462132Y39837868D01*
X55841793Y40174121D01*
X55793031Y40315974D01*
X55250000Y40350000D01*
X55172354Y40339778D01*
X55100000Y40309808D01*
X55037868Y40262132D01*
X54990192Y40200000D01*
X54960222Y40127646D01*
X54950000Y40050000D01*
G37*
G36*
X63867952Y42488291D02*
X63916714Y42346438D01*
X65280004Y42148963D01*
X65500000Y42120000D01*
X65719996Y42148963D01*
X65925000Y42233878D01*
X66101041Y42368959D01*
X66236122Y42545000D01*
X66321037Y42750004D01*
X66350000Y42970000D01*
X66321037Y43189996D01*
X66236122Y43395000D01*
X66101041Y43571041D01*
X65925000Y43706122D01*
X65719996Y43791037D01*
X65500000Y43820000D01*
X65280004Y43791037D01*
X65075000Y43706122D01*
X64898959Y43571041D01*
X63867952Y42488291D01*
G37*
G36*
X24952114Y29593124D02*
X25190192Y29100000D01*
X25237868Y29037868D01*
X25300000Y28990192D01*
X25372354Y28960222D01*
X25450000Y28950000D01*
X25527646Y28960222D01*
X25600000Y28990192D01*
X25662132Y29037868D01*
X25709808Y29100000D01*
X25739778Y29172354D01*
X25750000Y29250000D01*
X25739778Y29327646D01*
X25709808Y29400000D01*
X25662132Y29462132D01*
X25600000Y29509808D01*
X25527646Y29539778D01*
X25051895Y29705123D01*
X24952114Y29593124D01*
G37*
G36*
X49070434Y43418296D02*
X49290192Y42900000D01*
X49337868Y42837868D01*
X49400000Y42790192D01*
X49472354Y42760222D01*
X49550000Y42750000D01*
X49627646Y42760222D01*
X49700000Y42790192D01*
X49762132Y42837868D01*
X49809808Y42900000D01*
X49839778Y42972354D01*
X49850000Y43050000D01*
X49839778Y43127646D01*
X49809808Y43200000D01*
X49762132Y43262132D01*
X49700000Y43309808D01*
X49627646Y43339778D01*
X49175848Y43525011D01*
X49070434Y43418296D01*
G37*
G36*
X24958247Y28801858D02*
X25190192Y28300000D01*
X25237868Y28237868D01*
X25300000Y28190192D01*
X25372354Y28160222D01*
X25450000Y28150000D01*
X25527646Y28160222D01*
X25600000Y28190192D01*
X25662132Y28237868D01*
X25709808Y28300000D01*
X25739778Y28372354D01*
X25750000Y28450000D01*
X25739778Y28527646D01*
X25709808Y28600000D01*
X25662132Y28662132D01*
X25600000Y28709808D01*
X25527646Y28739778D01*
X25059989Y28912078D01*
X24958247Y28801858D01*
G37*
G36*
X33849629Y51771969D02*
X33850386Y51621971D01*
X34372354Y51410222D01*
X34450000Y51400000D01*
X34527646Y51410222D01*
X34600000Y51440192D01*
X34662132Y51487868D01*
X34709808Y51550000D01*
X34739778Y51622354D01*
X34750000Y51700000D01*
X34739778Y51777646D01*
X34709808Y51850000D01*
X34662132Y51912132D01*
X34600000Y51959808D01*
X34527646Y51989778D01*
X34450000Y52000000D01*
X34372354Y51989778D01*
X34300000Y51959808D01*
X33849629Y51771969D01*
G37*
G36*
X35200000Y50350000D02*
X35210222Y50272354D01*
X35240192Y50200000D01*
X35287868Y50137868D01*
X35350000Y50090192D01*
X35422354Y50060222D01*
X35973734Y49974233D01*
X36051654Y50102407D01*
X35759808Y50500000D01*
X35712132Y50562132D01*
X35650000Y50609808D01*
X35577646Y50639778D01*
X35500000Y50650000D01*
X35422354Y50639778D01*
X35350000Y50609808D01*
X35287868Y50562132D01*
X35240192Y50500000D01*
X35210222Y50427646D01*
X35200000Y50350000D01*
G37*
G36*
X47169056Y43168304D02*
X47460903Y42770711D01*
X47508579Y42708579D01*
X47570711Y42660903D01*
X47643065Y42630933D01*
X47720711Y42620711D01*
X47798356Y42630933D01*
X47870711Y42660903D01*
X47932843Y42708579D01*
X47980518Y42770711D01*
X48010488Y42843065D01*
X48020711Y42920711D01*
X48010488Y42998356D01*
X47980518Y43070711D01*
X47932843Y43132843D01*
X47870711Y43180518D01*
X47798356Y43210488D01*
X47246976Y43296478D01*
X47169056Y43168304D01*
G37*
G36*
X58750000Y32050000D02*
X58760222Y31972354D01*
X58790192Y31900000D01*
X59011738Y31446542D01*
X59161459Y31455692D01*
X59339778Y31972354D01*
X59350000Y32050000D01*
X59339778Y32127646D01*
X59309808Y32200000D01*
X59262132Y32262132D01*
X59200000Y32309808D01*
X59127646Y32339778D01*
X59050000Y32350000D01*
X58972354Y32339778D01*
X58900000Y32309808D01*
X58837868Y32262132D01*
X58790192Y32200000D01*
X58760222Y32127646D01*
X58750000Y32050000D01*
G37*
G36*
X59850000Y14050000D02*
X59860222Y13972354D01*
X59890192Y13900000D01*
X59937868Y13837868D01*
X60000000Y13790192D01*
X60072354Y13760222D01*
X60150000Y13750000D01*
X60227646Y13760222D01*
X60300000Y13790192D01*
X60362132Y13837868D01*
X60409808Y13900000D01*
X60439778Y13972354D01*
X60450000Y14050000D01*
X60439778Y14127646D01*
X60409808Y14200000D01*
X60188262Y14653458D01*
X60038541Y14644308D01*
X59860222Y14127646D01*
X59850000Y14050000D01*
G37*
G36*
X49150000Y30850000D02*
X49160222Y30772354D01*
X49356861Y30252547D01*
X49506792Y30248004D01*
X49709808Y30700000D01*
X49739778Y30772354D01*
X49750000Y30850000D01*
X49739778Y30927646D01*
X49709808Y31000000D01*
X49662132Y31062132D01*
X49600000Y31109808D01*
X49527646Y31139778D01*
X49450000Y31150000D01*
X49372354Y31139778D01*
X49300000Y31109808D01*
X49237868Y31062132D01*
X49190192Y31000000D01*
X49160222Y30927646D01*
X49150000Y30850000D01*
G37*
G36*
X48300000Y26950000D02*
X48310222Y26872354D01*
X48340192Y26800000D01*
X48387868Y26737868D01*
X48450000Y26690192D01*
X48522354Y26660222D01*
X48600000Y26650000D01*
X48677646Y26660222D01*
X48750000Y26690192D01*
X48812132Y26737868D01*
X48859808Y26800000D01*
X49115373Y27266252D01*
X49021669Y27383382D01*
X48522354Y27239778D01*
X48450000Y27209808D01*
X48387868Y27162132D01*
X48340192Y27100000D01*
X48310222Y27027646D01*
X48300000Y26950000D01*
G37*
G36*
X48450000Y24400000D02*
X48460222Y24322354D01*
X48490192Y24250000D01*
X48765392Y23795527D01*
X48913712Y23817914D01*
X49039778Y24322354D01*
X49050000Y24400000D01*
X49039778Y24477646D01*
X49009808Y24550000D01*
X48962132Y24612132D01*
X48900000Y24659808D01*
X48827646Y24689778D01*
X48750000Y24700000D01*
X48672354Y24689778D01*
X48600000Y24659808D01*
X48537868Y24612132D01*
X48490192Y24550000D01*
X48460222Y24477646D01*
X48450000Y24400000D01*
G37*
G36*
X57641540Y13803656D02*
X57672976Y13656987D01*
X58166288Y13566288D01*
X58243934Y13556066D01*
X58321580Y13566288D01*
X58393934Y13596258D01*
X58456066Y13643934D01*
X58503742Y13706066D01*
X58533712Y13778420D01*
X58543934Y13856066D01*
X58533712Y13933712D01*
X58503742Y14006066D01*
X58456066Y14068198D01*
X58393934Y14115874D01*
X58321580Y14145844D01*
X58243934Y14156066D01*
X58166288Y14145844D01*
X58093934Y14115874D01*
X57641540Y13803656D01*
G37*
G36*
X61243934Y16643934D02*
X61254156Y16566288D01*
X61284126Y16493934D01*
X61331802Y16431802D01*
X61393934Y16384126D01*
X61466288Y16354156D01*
X61543934Y16343934D01*
X61621580Y16354156D01*
X61693934Y16384126D01*
X61756066Y16431802D01*
X61803742Y16493934D01*
X62054710Y16967559D01*
X61959332Y17083331D01*
X61466288Y16933712D01*
X61393934Y16903742D01*
X61331802Y16856066D01*
X61284126Y16793934D01*
X61254156Y16721580D01*
X61243934Y16643934D01*
G37*
G36*
X64140232Y19086938D02*
X64235610Y18971166D01*
X65719996Y19288963D01*
X65925000Y19373878D01*
X66101041Y19508959D01*
X66236122Y19685000D01*
X66321037Y19890004D01*
X66350000Y20110000D01*
X66321037Y20329996D01*
X66236122Y20535000D01*
X66101041Y20711041D01*
X65925000Y20846122D01*
X65719996Y20931037D01*
X65500000Y20960000D01*
X65280004Y20931037D01*
X65075000Y20846122D01*
X64898959Y20711041D01*
X64763878Y20535000D01*
X64140232Y19086938D01*
G37*
G36*
X57493538Y30188194D02*
X57673499Y30014660D01*
X58150000Y30273526D01*
X58212132Y30321201D01*
X58259808Y30383333D01*
X58289778Y30455688D01*
X58300000Y30533333D01*
X58289778Y30610979D01*
X58259808Y30683333D01*
X58212132Y30745465D01*
X58150000Y30793141D01*
X58077646Y30823111D01*
X58000000Y30833333D01*
X57922354Y30823111D01*
X57850000Y30793141D01*
X57787868Y30745465D01*
X57740192Y30683333D01*
X57493538Y30188194D01*
G37*
G36*
X54100000Y26800000D02*
X54110222Y26722354D01*
X54140192Y26650000D01*
X54187868Y26587868D01*
X54250000Y26540192D01*
X54322354Y26510222D01*
X54400000Y26500000D01*
X54477646Y26510222D01*
X54550000Y26540192D01*
X54612132Y26587868D01*
X54659808Y26650000D01*
X54906462Y27145140D01*
X54726501Y27318674D01*
X54250000Y27059808D01*
X54187868Y27012132D01*
X54140192Y26950000D01*
X54110222Y26877646D01*
X54100000Y26800000D01*
G37*
G36*
X50850000Y33750000D02*
X50905754Y33196855D01*
X51049428Y33153753D01*
X51362132Y33537868D01*
X51409808Y33600000D01*
X51439778Y33672354D01*
X51450000Y33750000D01*
X51439778Y33827646D01*
X51409808Y33900000D01*
X51362132Y33962132D01*
X51300000Y34009808D01*
X51227646Y34039778D01*
X51150000Y34050000D01*
X51072354Y34039778D01*
X51000000Y34009808D01*
X50937868Y33962132D01*
X50890192Y33900000D01*
X50860222Y33827646D01*
X50850000Y33750000D01*
G37*
G36*
X49950000Y30750000D02*
X49960222Y30672354D01*
X49990192Y30600000D01*
X50037868Y30537868D01*
X50100000Y30490192D01*
X50172354Y30460222D01*
X50250000Y30450000D01*
X50327646Y30460222D01*
X50400000Y30490192D01*
X50462132Y30537868D01*
X50509808Y30600000D01*
X50539778Y30672354D01*
X50550000Y30750000D01*
X50494246Y31303145D01*
X50350572Y31346247D01*
X50037868Y30962132D01*
X49990192Y30900000D01*
X49960222Y30827646D01*
X49950000Y30750000D01*
G37*
G36*
X47950000Y21750000D02*
X47960222Y21672354D01*
X47990192Y21600000D01*
X48280783Y21146115D01*
X48428485Y21172273D01*
X48539778Y21672354D01*
X48550000Y21750000D01*
X48539778Y21827646D01*
X48509808Y21900000D01*
X48462132Y21962132D01*
X48400000Y22009808D01*
X48327646Y22039778D01*
X48250000Y22050000D01*
X48172354Y22039778D01*
X48100000Y22009808D01*
X48037868Y21962132D01*
X47990192Y21900000D01*
X47960222Y21827646D01*
X47950000Y21750000D01*
G37*
G36*
X49243934Y14443934D02*
X49254156Y14366288D01*
X49284126Y14293934D01*
X49331802Y14231802D01*
X49393934Y14184126D01*
X49466288Y14154156D01*
X49543934Y14143934D01*
X49621580Y14154156D01*
X49693934Y14184126D01*
X49756066Y14231802D01*
X49803742Y14293934D01*
X49833712Y14366288D01*
X49843934Y14443934D01*
X49833712Y14521580D01*
X49803742Y14593934D01*
X49513151Y15047819D01*
X49365449Y15021661D01*
X49254156Y14521580D01*
X49243934Y14443934D01*
G37*
G36*
X55579289Y11479289D02*
X55589512Y11401644D01*
X55619482Y11329289D01*
X55667157Y11267157D01*
X55729289Y11219482D01*
X55801644Y11189512D01*
X55879289Y11179289D01*
X55956935Y11189512D01*
X56029289Y11219482D01*
X56480623Y11415859D01*
X56477734Y11565831D01*
X55956935Y11769067D01*
X55879289Y11779289D01*
X55801644Y11769067D01*
X55729289Y11739097D01*
X55667157Y11691421D01*
X55619482Y11629289D01*
X55589512Y11556935D01*
X55579289Y11479289D01*
G37*
G36*
X67050000Y21750000D02*
X67060222Y21672354D01*
X67158787Y21176360D01*
X67305874Y21146943D01*
X67609808Y21600000D01*
X67639778Y21672354D01*
X67650000Y21750000D01*
X67639778Y21827646D01*
X67609808Y21900000D01*
X67562132Y21962132D01*
X67500000Y22009808D01*
X67427646Y22039778D01*
X67350000Y22050000D01*
X67272354Y22039778D01*
X67200000Y22009808D01*
X67137868Y21962132D01*
X67090192Y21900000D01*
X67060222Y21827646D01*
X67050000Y21750000D01*
G37*
G36*
X50450000Y40950000D02*
X50460222Y40872354D01*
X50490192Y40800000D01*
X50537868Y40737868D01*
X50600000Y40690192D01*
X50672354Y40660222D01*
X50750000Y40650000D01*
X50827646Y40660222D01*
X50900000Y40690192D01*
X50962132Y40737868D01*
X51009808Y40800000D01*
X51039778Y40872354D01*
X51221787Y41328209D01*
X51114173Y41432704D01*
X50600000Y41209808D01*
X50537868Y41162132D01*
X50490192Y41100000D01*
X50460222Y41027646D01*
X50450000Y40950000D01*
G37*
G36*
X56978213Y47471791D02*
X57085827Y47367296D01*
X57600000Y47590192D01*
X57662132Y47637868D01*
X57709808Y47700000D01*
X57739778Y47772354D01*
X57750000Y47850000D01*
X57739778Y47927646D01*
X57709808Y48000000D01*
X57662132Y48062132D01*
X57600000Y48109808D01*
X57527646Y48139778D01*
X57450000Y48150000D01*
X57372354Y48139778D01*
X57300000Y48109808D01*
X57237868Y48062132D01*
X57190192Y48000000D01*
X57160222Y47927646D01*
X56978213Y47471791D01*
G37*
G36*
X69750000Y34650000D02*
X69760222Y34572354D01*
X69790192Y34500000D01*
X69837868Y34437868D01*
X69900000Y34390192D01*
X70421231Y34172703D01*
X70527297Y34278769D01*
X70309808Y34800000D01*
X70262132Y34862132D01*
X70200000Y34909808D01*
X70127646Y34939778D01*
X70050000Y34950000D01*
X69972354Y34939778D01*
X69900000Y34909808D01*
X69837868Y34862132D01*
X69790192Y34800000D01*
X69760222Y34727646D01*
X69750000Y34650000D01*
G37*
G36*
X54447561Y12548115D02*
X54900000Y12340192D01*
X54972354Y12310222D01*
X55050000Y12300000D01*
X55127646Y12310222D01*
X55200000Y12340192D01*
X55262132Y12387868D01*
X55309808Y12450000D01*
X55339778Y12522354D01*
X55350000Y12600000D01*
X55339778Y12677646D01*
X55309808Y12750000D01*
X55262132Y12812132D01*
X55200000Y12859808D01*
X55127646Y12889778D01*
X55050000Y12900000D01*
X54972354Y12889778D01*
X54453326Y12698004D01*
X54447561Y12548115D01*
G37*
G36*
X54750000Y12600000D02*
X54760222Y12522354D01*
X54790192Y12450000D01*
X54837868Y12387868D01*
X54900000Y12340192D01*
X54972354Y12310222D01*
X55050000Y12300000D01*
X55127646Y12310222D01*
X55200000Y12340192D01*
X55262132Y12387868D01*
X55309808Y12450000D01*
X55339778Y12522354D01*
X55350000Y12600000D01*
X55339778Y12677646D01*
X55309808Y12750000D01*
X55262132Y12812132D01*
X55200000Y12859808D01*
X55127646Y12889778D01*
X55050000Y12900000D01*
X54972354Y12889778D01*
X54900000Y12859808D01*
X54837868Y12812132D01*
X54790192Y12750000D01*
X54760222Y12677646D01*
X54750000Y12600000D01*
G37*
G36*
X54750000Y12600000D02*
X54760222Y12522354D01*
X54790192Y12450000D01*
X54837868Y12387868D01*
X54900000Y12340192D01*
X54972354Y12310222D01*
X55050000Y12300000D01*
X55127646Y12310222D01*
X55200000Y12340192D01*
X55262132Y12387868D01*
X55309808Y12450000D01*
X55339778Y12522354D01*
X55350000Y12600000D01*
X55339778Y12677646D01*
X55309808Y12750000D01*
X55262132Y12812132D01*
X55200000Y12859808D01*
X55127646Y12889778D01*
X55050000Y12900000D01*
X54972354Y12889778D01*
X54900000Y12859808D01*
X54837868Y12812132D01*
X54790192Y12750000D01*
X54760222Y12677646D01*
X54750000Y12600000D01*
G37*
G36*
X51402055Y26665514D02*
X51505505Y26437922D01*
X52000000Y26500000D01*
X52077646Y26510222D01*
X52150000Y26540192D01*
X52212132Y26587868D01*
X52259808Y26650000D01*
X52289778Y26722354D01*
X52300000Y26800000D01*
X52289778Y26877646D01*
X52259808Y26950000D01*
X52212132Y27012132D01*
X52150000Y27059808D01*
X52077646Y27089778D01*
X52000000Y27100000D01*
X51922354Y27089778D01*
X51850000Y27059808D01*
X51787868Y27012132D01*
X51402055Y26665514D01*
G37*
G36*
X42500000Y15000000D02*
X42510222Y14922354D01*
X42540192Y14850000D01*
X42587868Y14787868D01*
X42650000Y14740192D01*
X42722354Y14710222D01*
X42800000Y14700000D01*
X42877646Y14710222D01*
X43408308Y14925259D01*
X43387547Y15174396D01*
X42877646Y15289778D01*
X42800000Y15300000D01*
X42722354Y15289778D01*
X42650000Y15259808D01*
X42587868Y15212132D01*
X42540192Y15150000D01*
X42510222Y15077646D01*
X42500000Y15000000D01*
G37*
G36*
X51950000Y40350000D02*
X51960222Y40272354D01*
X51990192Y40200000D01*
X52037868Y40137868D01*
X52100000Y40090192D01*
X52172354Y40060222D01*
X52250000Y40050000D01*
X52327646Y40060222D01*
X52400000Y40090192D01*
X52462132Y40137868D01*
X52509808Y40200000D01*
X52539778Y40272354D01*
X52712078Y40740011D01*
X52601858Y40841753D01*
X52100000Y40609808D01*
X52037868Y40562132D01*
X51990192Y40500000D01*
X51960222Y40427646D01*
X51950000Y40350000D01*
G37*
G36*
X62900000Y15450000D02*
X62910222Y15372354D01*
X62940192Y15300000D01*
X62987868Y15237868D01*
X63050000Y15190192D01*
X63122354Y15160222D01*
X63200000Y15150000D01*
X63277646Y15160222D01*
X63350000Y15190192D01*
X63412132Y15237868D01*
X63794734Y15559160D01*
X63749565Y15702198D01*
X63200000Y15750000D01*
X63122354Y15739778D01*
X63050000Y15709808D01*
X62987868Y15662132D01*
X62940192Y15600000D01*
X62910222Y15527646D01*
X62900000Y15450000D01*
G37*
G36*
X58050000Y33650000D02*
X58060222Y33572354D01*
X58090192Y33500000D01*
X58137868Y33437868D01*
X58200000Y33390192D01*
X58714659Y33167663D01*
X58822167Y33272266D01*
X58639778Y33727646D01*
X58609808Y33800000D01*
X58562132Y33862132D01*
X58500000Y33909808D01*
X58427646Y33939778D01*
X58350000Y33950000D01*
X58272354Y33939778D01*
X58200000Y33909808D01*
X58137868Y33862132D01*
X58090192Y33800000D01*
X58060222Y33727646D01*
X58050000Y33650000D01*
G37*
G36*
X61477833Y30327734D02*
X61660222Y29872354D01*
X61690192Y29800000D01*
X61737868Y29737868D01*
X61800000Y29690192D01*
X61872354Y29660222D01*
X61950000Y29650000D01*
X62027646Y29660222D01*
X62100000Y29690192D01*
X62162132Y29737868D01*
X62209808Y29800000D01*
X62239778Y29872354D01*
X62250000Y29950000D01*
X62239778Y30027646D01*
X62209808Y30100000D01*
X62162132Y30162132D01*
X62100000Y30209808D01*
X61585341Y30432337D01*
X61477833Y30327734D01*
G37*
G36*
X67050000Y28850000D02*
X67060222Y28772354D01*
X67090192Y28700000D01*
X67337138Y28245467D01*
X67486341Y28260902D01*
X67639778Y28772354D01*
X67650000Y28850000D01*
X67639778Y28927646D01*
X67609808Y29000000D01*
X67562132Y29062132D01*
X67500000Y29109808D01*
X67427646Y29139778D01*
X67350000Y29150000D01*
X67272354Y29139778D01*
X67200000Y29109808D01*
X67137868Y29062132D01*
X67090192Y29000000D01*
X67060222Y28927646D01*
X67050000Y28850000D01*
G37*
G36*
X67120711Y19320711D02*
X67130933Y19243065D01*
X67160903Y19170711D01*
X67208579Y19108579D01*
X67270711Y19060903D01*
X67343065Y19030933D01*
X67420711Y19020711D01*
X67498356Y19030933D01*
X67570711Y19060903D01*
X67632843Y19108579D01*
X67680518Y19170711D01*
X67898008Y19691942D01*
X67791942Y19798008D01*
X67270711Y19580518D01*
X67208579Y19532843D01*
X67160903Y19470711D01*
X67130933Y19398356D01*
X67120711Y19320711D01*
G37*
G36*
X62372703Y18578769D02*
X62478769Y18472703D01*
X63000000Y18690192D01*
X63062132Y18737868D01*
X63109808Y18800000D01*
X63139778Y18872354D01*
X63150000Y18950000D01*
X63139778Y19027646D01*
X63109808Y19100000D01*
X63062132Y19162132D01*
X63000000Y19209808D01*
X62927646Y19239778D01*
X62850000Y19250000D01*
X62772354Y19239778D01*
X62700000Y19209808D01*
X62637868Y19162132D01*
X62590192Y19100000D01*
X62372703Y18578769D01*
G37*
G36*
X60450000Y13550000D02*
X60460222Y13472354D01*
X60490192Y13400000D01*
X60537868Y13337868D01*
X60600000Y13290192D01*
X60672354Y13260222D01*
X60750000Y13250000D01*
X60827646Y13260222D01*
X60900000Y13290192D01*
X60962132Y13337868D01*
X61009808Y13400000D01*
X61039778Y13472354D01*
X61050000Y13550000D01*
X61039778Y13627646D01*
X60825000Y14150000D01*
X60675000Y14150000D01*
X60460222Y13627646D01*
X60450000Y13550000D01*
G37*
G36*
X53320711Y5820711D02*
X53330933Y5743065D01*
X53483217Y5231881D01*
X53632390Y5216154D01*
X53880518Y5670711D01*
X53910488Y5743065D01*
X53920711Y5820711D01*
X53910488Y5898356D01*
X53880518Y5970711D01*
X53832843Y6032843D01*
X53770711Y6080518D01*
X53698356Y6110488D01*
X53620711Y6120711D01*
X53543065Y6110488D01*
X53470711Y6080518D01*
X53408579Y6032843D01*
X53360903Y5970711D01*
X53330933Y5898356D01*
X53320711Y5820711D01*
G37*
G36*
X46420000Y5500000D02*
X46448963Y5280004D01*
X46533878Y5075000D01*
X46668959Y4898959D01*
X46845000Y4763878D01*
X47050004Y4678963D01*
X48296967Y4366967D01*
X48403033Y4473033D01*
X48091037Y5719996D01*
X48006122Y5925000D01*
X47871041Y6101041D01*
X47695000Y6236122D01*
X47489996Y6321037D01*
X47270000Y6350000D01*
X47050004Y6321037D01*
X46845000Y6236122D01*
X46668959Y6101041D01*
X46533878Y5925000D01*
X46448963Y5719996D01*
X46420000Y5500000D01*
G37*
G36*
X56479289Y34679289D02*
X56489512Y34601644D01*
X56519482Y34529289D01*
X56567157Y34467157D01*
X56629289Y34419482D01*
X56701644Y34389512D01*
X56779289Y34379289D01*
X56856935Y34389512D01*
X57362163Y34518408D01*
X57383830Y34666834D01*
X56929289Y34939097D01*
X56856935Y34969067D01*
X56779289Y34979289D01*
X56701644Y34969067D01*
X56629289Y34939097D01*
X56567157Y34891421D01*
X56519482Y34829289D01*
X56489512Y34756935D01*
X56479289Y34679289D01*
G37*
G36*
X60343934Y25643934D02*
X60354156Y25566288D01*
X60384126Y25493934D01*
X60431802Y25431802D01*
X60493934Y25384126D01*
X60566288Y25354156D01*
X60643934Y25343934D01*
X60721580Y25354156D01*
X60793934Y25384126D01*
X60856066Y25431802D01*
X60903742Y25493934D01*
X61121231Y26015165D01*
X61015165Y26121231D01*
X60493934Y25903742D01*
X60431802Y25856066D01*
X60384126Y25793934D01*
X60354156Y25721580D01*
X60343934Y25643934D01*
G37*
G36*
X58950000Y20150000D02*
X58960222Y20072354D01*
X58990192Y20000000D01*
X59197822Y19547586D01*
X59347714Y19553278D01*
X59539778Y20072354D01*
X59550000Y20150000D01*
X59539778Y20227646D01*
X59509808Y20300000D01*
X59462132Y20362132D01*
X59400000Y20409808D01*
X59327646Y20439778D01*
X59250000Y20450000D01*
X59172354Y20439778D01*
X59100000Y20409808D01*
X59037868Y20362132D01*
X58990192Y20300000D01*
X58960222Y20227646D01*
X58950000Y20150000D01*
G37*
G36*
X43880000Y5500000D02*
X43908963Y5280004D01*
X43993878Y5075000D01*
X44128959Y4898959D01*
X44305000Y4763878D01*
X44510004Y4678963D01*
X44730000Y4650000D01*
X44949996Y4678963D01*
X45155000Y4763878D01*
X45331041Y4898959D01*
X45466122Y5075000D01*
X45551037Y5280004D01*
X45580000Y5500000D01*
X45394845Y7066399D01*
X45254319Y7118862D01*
X44128959Y6101041D01*
X43993878Y5925000D01*
X43908963Y5719996D01*
X43880000Y5500000D01*
G37*
G36*
X52150000Y33350000D02*
X52160222Y33272354D01*
X52190192Y33200000D01*
X52237868Y33137868D01*
X52300000Y33090192D01*
X52807448Y32862295D01*
X52916500Y32965289D01*
X52739778Y33427646D01*
X52709808Y33500000D01*
X52662132Y33562132D01*
X52600000Y33609808D01*
X52527646Y33639778D01*
X52450000Y33650000D01*
X52372354Y33639778D01*
X52300000Y33609808D01*
X52237868Y33562132D01*
X52190192Y33500000D01*
X52160222Y33427646D01*
X52150000Y33350000D01*
G37*
G36*
X53683500Y31934711D02*
X53860222Y31472354D01*
X53890192Y31400000D01*
X53937868Y31337868D01*
X54000000Y31290192D01*
X54072354Y31260222D01*
X54150000Y31250000D01*
X54227646Y31260222D01*
X54300000Y31290192D01*
X54362132Y31337868D01*
X54409808Y31400000D01*
X54439778Y31472354D01*
X54450000Y31550000D01*
X54439778Y31627646D01*
X54409808Y31700000D01*
X54362132Y31762132D01*
X54300000Y31809808D01*
X53792552Y32037705D01*
X53683500Y31934711D01*
G37*
G36*
X59700000Y25250000D02*
X59710222Y25172354D01*
X59740192Y25100000D01*
X59787868Y25037868D01*
X59850000Y24990192D01*
X59922354Y24960222D01*
X60000000Y24950000D01*
X60363397Y24917596D01*
X60446603Y25042404D01*
X60259808Y25400000D01*
X60212132Y25462132D01*
X60150000Y25509808D01*
X60077646Y25539778D01*
X60000000Y25550000D01*
X59922354Y25539778D01*
X59850000Y25509808D01*
X59787868Y25462132D01*
X59740192Y25400000D01*
X59710222Y25327646D01*
X59700000Y25250000D01*
G37*
G36*
X63798977Y25143689D02*
X63809664Y24994071D01*
X65075000Y24453878D01*
X65280004Y24368963D01*
X65500000Y24340000D01*
X65719996Y24368963D01*
X65925000Y24453878D01*
X66101041Y24588959D01*
X66236122Y24765000D01*
X66321037Y24970004D01*
X66350000Y25190000D01*
X66321037Y25409996D01*
X66236122Y25615000D01*
X66101041Y25791041D01*
X65925000Y25926122D01*
X65719996Y26011037D01*
X65500000Y26040000D01*
X65280004Y26011037D01*
X65075000Y25926122D01*
X63798977Y25143689D01*
G37*
G36*
X32750000Y30850000D02*
X32760222Y30772354D01*
X32790192Y30700000D01*
X32837868Y30637868D01*
X32900000Y30590192D01*
X32972354Y30560222D01*
X33050000Y30550000D01*
X33127646Y30560222D01*
X33200000Y30590192D01*
X33262132Y30637868D01*
X33309808Y30700000D01*
X33339778Y30772354D01*
X33520593Y31229694D01*
X33412650Y31333849D01*
X32900000Y31109808D01*
X32837868Y31062132D01*
X32790192Y31000000D01*
X32760222Y30927646D01*
X32750000Y30850000D01*
G37*
G36*
X38079407Y36170306D02*
X38187350Y36066151D01*
X38700000Y36290192D01*
X38762132Y36337868D01*
X38809808Y36400000D01*
X38839778Y36472354D01*
X38850000Y36550000D01*
X38839778Y36627646D01*
X38809808Y36700000D01*
X38762132Y36762132D01*
X38700000Y36809808D01*
X38627646Y36839778D01*
X38550000Y36850000D01*
X38472354Y36839778D01*
X38400000Y36809808D01*
X38337868Y36762132D01*
X38290192Y36700000D01*
X38260222Y36627646D01*
X38079407Y36170306D01*
G37*
G36*
X47750000Y45350000D02*
X47760222Y45272354D01*
X47790192Y45200000D01*
X47837868Y45137868D01*
X47900000Y45090192D01*
X47972354Y45060222D01*
X48050000Y45050000D01*
X48127646Y45060222D01*
X48650073Y45275588D01*
X48649926Y45425588D01*
X48127646Y45639778D01*
X48050000Y45650000D01*
X47972354Y45639778D01*
X47900000Y45609808D01*
X47837868Y45562132D01*
X47790192Y45500000D01*
X47760222Y45427646D01*
X47750000Y45350000D01*
G37*
G36*
X53643861Y45430478D02*
X53644008Y45280478D01*
X54166288Y45066288D01*
X54243934Y45056066D01*
X54321580Y45066288D01*
X54393934Y45096258D01*
X54456066Y45143934D01*
X54503742Y45206066D01*
X54533712Y45278420D01*
X54543934Y45356066D01*
X54533712Y45433712D01*
X54503742Y45506066D01*
X54456066Y45568198D01*
X54393934Y45615874D01*
X54321580Y45645844D01*
X54243934Y45656066D01*
X54166288Y45645844D01*
X53643861Y45430478D01*
G37*
G36*
X57350000Y45350000D02*
X57360222Y45272354D01*
X57390192Y45200000D01*
X57437868Y45137868D01*
X57500000Y45090192D01*
X57998243Y44855681D01*
X58109207Y44956612D01*
X57939778Y45427646D01*
X57909808Y45500000D01*
X57862132Y45562132D01*
X57800000Y45609808D01*
X57727646Y45639778D01*
X57650000Y45650000D01*
X57572354Y45639778D01*
X57500000Y45609808D01*
X57437868Y45562132D01*
X57390192Y45500000D01*
X57360222Y45427646D01*
X57350000Y45350000D01*
G37*
G36*
X58196859Y44637322D02*
X58366288Y44166288D01*
X58396258Y44093934D01*
X58443934Y44031802D01*
X58506066Y43984126D01*
X58578420Y43954156D01*
X58656066Y43943934D01*
X58733712Y43954156D01*
X58806066Y43984126D01*
X58868198Y44031802D01*
X58915874Y44093934D01*
X58945844Y44166288D01*
X58956066Y44243934D01*
X58945844Y44321580D01*
X58915874Y44393934D01*
X58868198Y44456066D01*
X58806066Y44503742D01*
X58307823Y44738253D01*
X58196859Y44637322D01*
G37*
G36*
X60950000Y47050000D02*
X60960222Y46972354D01*
X60990192Y46900000D01*
X61037868Y46837868D01*
X61100000Y46790192D01*
X61172354Y46760222D01*
X61250000Y46750000D01*
X61327646Y46760222D01*
X61850000Y46975000D01*
X61850000Y47125000D01*
X61327646Y47339778D01*
X61250000Y47350000D01*
X61172354Y47339778D01*
X61100000Y47309808D01*
X61037868Y47262132D01*
X60990192Y47200000D01*
X60960222Y47127646D01*
X60950000Y47050000D01*
G37*
G36*
X61850000Y39250000D02*
X61860222Y39172354D01*
X61890192Y39100000D01*
X61937868Y39037868D01*
X62000000Y38990192D01*
X62072354Y38960222D01*
X62150000Y38950000D01*
X62227646Y38960222D01*
X62750000Y39175000D01*
X62750000Y39325000D01*
X62227646Y39539778D01*
X62150000Y39550000D01*
X62072354Y39539778D01*
X62000000Y39509808D01*
X61937868Y39462132D01*
X61890192Y39400000D01*
X61860222Y39327646D01*
X61850000Y39250000D01*
G37*
G36*
X47550000Y32850000D02*
X47560222Y32772354D01*
X47775000Y32250000D01*
X47925000Y32250000D01*
X48139778Y32772354D01*
X48150000Y32850000D01*
X48139778Y32927646D01*
X48109808Y33000000D01*
X48062132Y33062132D01*
X48000000Y33109808D01*
X47927646Y33139778D01*
X47850000Y33150000D01*
X47772354Y33139778D01*
X47700000Y33109808D01*
X47637868Y33062132D01*
X47590192Y33000000D01*
X47560222Y32927646D01*
X47550000Y32850000D01*
G37*
G36*
X48600000Y26175000D02*
X49122354Y25960222D01*
X49200000Y25950000D01*
X49277646Y25960222D01*
X49350000Y25990192D01*
X49412132Y26037868D01*
X49459808Y26100000D01*
X49489778Y26172354D01*
X49500000Y26250000D01*
X49489778Y26327646D01*
X49459808Y26400000D01*
X49412132Y26462132D01*
X49350000Y26509808D01*
X49277646Y26539778D01*
X49200000Y26550000D01*
X49122354Y26539778D01*
X48600000Y26325000D01*
X48600000Y26175000D01*
G37*
G36*
X15672703Y35578769D02*
X15778769Y35472703D01*
X16300000Y35690192D01*
X16362132Y35737868D01*
X16409808Y35800000D01*
X16439778Y35872354D01*
X16450000Y35950000D01*
X16439778Y36027646D01*
X16409808Y36100000D01*
X16362132Y36162132D01*
X16300000Y36209808D01*
X16227646Y36239778D01*
X16150000Y36250000D01*
X16072354Y36239778D01*
X16000000Y36209808D01*
X15937868Y36162132D01*
X15890192Y36100000D01*
X15672703Y35578769D01*
G37*
G36*
X12850000Y25750000D02*
X12860222Y25672354D01*
X12890192Y25600000D01*
X12937868Y25537868D01*
X13000000Y25490192D01*
X13072354Y25460222D01*
X13150000Y25450000D01*
X13227646Y25460222D01*
X13300000Y25490192D01*
X13362132Y25537868D01*
X13409808Y25600000D01*
X13439778Y25672354D01*
X13450000Y25750000D01*
X13439778Y25827646D01*
X13225000Y26350000D01*
X13075000Y26350000D01*
X12860222Y25827646D01*
X12850000Y25750000D01*
G37*
G36*
X11879289Y24920711D02*
X11889512Y24843065D01*
X11919482Y24770711D01*
X11967157Y24708579D01*
X12364736Y24345181D01*
X12500699Y24408538D01*
X12479289Y24920711D01*
X12469067Y24998356D01*
X12439097Y25070711D01*
X12391421Y25132843D01*
X12329289Y25180518D01*
X12256935Y25210488D01*
X12179289Y25220711D01*
X12101644Y25210488D01*
X12029289Y25180518D01*
X11967157Y25132843D01*
X11919482Y25070711D01*
X11889512Y24998356D01*
X11879289Y24920711D01*
G37*
G36*
X31447922Y16305924D02*
X31452682Y16156000D01*
X31972354Y15960222D01*
X32050000Y15950000D01*
X32127646Y15960222D01*
X32200000Y15990192D01*
X32262132Y16037868D01*
X32309808Y16100000D01*
X32339778Y16172354D01*
X32350000Y16250000D01*
X32339778Y16327646D01*
X32309808Y16400000D01*
X32262132Y16462132D01*
X32200000Y16509808D01*
X32127646Y16539778D01*
X32050000Y16550000D01*
X31972354Y16539778D01*
X31900000Y16509808D01*
X31447922Y16305924D01*
G37*
G36*
X39850000Y16150000D02*
X39860222Y16072354D01*
X39890192Y16000000D01*
X39937868Y15937868D01*
X40000000Y15890192D01*
X40072354Y15860222D01*
X40150000Y15850000D01*
X40227646Y15860222D01*
X40300000Y15890192D01*
X40362132Y15937868D01*
X40409808Y16000000D01*
X40627297Y16521231D01*
X40521231Y16627297D01*
X40000000Y16409808D01*
X39937868Y16362132D01*
X39890192Y16300000D01*
X39860222Y16227646D01*
X39850000Y16150000D01*
G37*
G36*
X47550000Y32850000D02*
X47560222Y32772354D01*
X47775000Y32250000D01*
X47925000Y32250000D01*
X48139778Y32772354D01*
X48150000Y32850000D01*
X48139778Y32927646D01*
X48109808Y33000000D01*
X48062132Y33062132D01*
X48000000Y33109808D01*
X47927646Y33139778D01*
X47850000Y33150000D01*
X47772354Y33139778D01*
X47700000Y33109808D01*
X47637868Y33062132D01*
X47590192Y33000000D01*
X47560222Y32927646D01*
X47550000Y32850000D01*
G37*
G36*
X55050000Y38550000D02*
X55060222Y38472354D01*
X55090192Y38400000D01*
X55137868Y38337868D01*
X55200000Y38290192D01*
X55272354Y38260222D01*
X55791129Y38136442D01*
X55879355Y38257752D01*
X55609808Y38700000D01*
X55562132Y38762132D01*
X55500000Y38809808D01*
X55427646Y38839778D01*
X55350000Y38850000D01*
X55272354Y38839778D01*
X55200000Y38809808D01*
X55137868Y38762132D01*
X55090192Y38700000D01*
X55060222Y38627646D01*
X55050000Y38550000D01*
G37*
G36*
X61826462Y37230945D02*
X61927416Y37120002D01*
X62398356Y37289512D01*
X62470711Y37319482D01*
X62532843Y37367157D01*
X62580518Y37429289D01*
X62610488Y37501644D01*
X62620711Y37579289D01*
X62610488Y37656935D01*
X62580518Y37729289D01*
X62532843Y37791421D01*
X62470711Y37839097D01*
X62398356Y37869067D01*
X62320711Y37879289D01*
X62243065Y37869067D01*
X62170711Y37839097D01*
X62108579Y37791421D01*
X62060903Y37729289D01*
X61826462Y37230945D01*
G37*
G36*
X48296942Y33350454D02*
X48460222Y32872354D01*
X48490192Y32800000D01*
X48537868Y32737868D01*
X48600000Y32690192D01*
X48672354Y32660222D01*
X48750000Y32650000D01*
X48827646Y32660222D01*
X48900000Y32690192D01*
X48962132Y32737868D01*
X49009808Y32800000D01*
X49039778Y32872354D01*
X49050000Y32950000D01*
X49039778Y33027646D01*
X49009808Y33100000D01*
X48962132Y33162132D01*
X48900000Y33209808D01*
X48409456Y33449655D01*
X48296942Y33350454D01*
G37*
G36*
X41743934Y40556066D02*
X41754156Y40478420D01*
X41784126Y40406066D01*
X41831802Y40343934D01*
X41893934Y40296258D01*
X42384478Y40056411D01*
X42496992Y40155612D01*
X42333712Y40633712D01*
X42303742Y40706066D01*
X42256066Y40768198D01*
X42193934Y40815874D01*
X42121580Y40845844D01*
X42043934Y40856066D01*
X41966288Y40845844D01*
X41893934Y40815874D01*
X41831802Y40768198D01*
X41784126Y40706066D01*
X41754156Y40633712D01*
X41743934Y40556066D01*
G37*
G36*
X47550000Y46150000D02*
X47560222Y46072354D01*
X47590192Y46000000D01*
X47637868Y45937868D01*
X47700000Y45890192D01*
X47772354Y45860222D01*
X47850000Y45850000D01*
X47927646Y45860222D01*
X48000000Y45890192D01*
X48449707Y46227306D01*
X48412226Y46372548D01*
X47927646Y46439778D01*
X47850000Y46450000D01*
X47772354Y46439778D01*
X47700000Y46409808D01*
X47637868Y46362132D01*
X47590192Y46300000D01*
X47560222Y46227646D01*
X47550000Y46150000D01*
G37*
G36*
X68700000Y43750000D02*
X68710222Y43672354D01*
X68740192Y43600000D01*
X68787868Y43537868D01*
X68850000Y43490192D01*
X68922354Y43460222D01*
X69000000Y43450000D01*
X69077646Y43460222D01*
X69150000Y43490192D01*
X69212132Y43537868D01*
X69259808Y43600000D01*
X69289778Y43672354D01*
X69300000Y43750000D01*
X69289778Y43827646D01*
X69259808Y43900000D01*
X69032061Y44353819D01*
X68882442Y44343132D01*
X68710222Y43827646D01*
X68700000Y43750000D01*
G37*
G36*
X67720711Y37079289D02*
X67730933Y37001644D01*
X67760903Y36929289D01*
X67967831Y36476937D01*
X68117730Y36482454D01*
X68310488Y37001644D01*
X68320711Y37079289D01*
X68310488Y37156935D01*
X68280518Y37229289D01*
X68232843Y37291421D01*
X68170711Y37339097D01*
X68098356Y37369067D01*
X68020711Y37379289D01*
X67943065Y37369067D01*
X67870711Y37339097D01*
X67808579Y37291421D01*
X67760903Y37229289D01*
X67730933Y37156935D01*
X67720711Y37079289D01*
G37*
G36*
X64650000Y27730000D02*
X64678963Y27510004D01*
X64763878Y27305000D01*
X64898959Y27128959D01*
X65075000Y26993878D01*
X65280004Y26908963D01*
X65500000Y26880000D01*
X65719996Y26908963D01*
X65925000Y26993878D01*
X66101041Y27128959D01*
X66236122Y27305000D01*
X66321037Y27510004D01*
X66755115Y28879049D01*
X66649049Y28985115D01*
X65280004Y28551037D01*
X65075000Y28466122D01*
X64898959Y28331041D01*
X64763878Y28155000D01*
X64678963Y27949996D01*
X64650000Y27730000D01*
G37*
G36*
X50762740Y38782405D02*
X50883448Y38693356D01*
X51329289Y38960903D01*
X51391421Y39008579D01*
X51439097Y39070711D01*
X51469067Y39143065D01*
X51479289Y39220711D01*
X51469067Y39298356D01*
X51439097Y39370711D01*
X51391421Y39432843D01*
X51329289Y39480518D01*
X51256935Y39510488D01*
X51179289Y39520711D01*
X51101644Y39510488D01*
X51029289Y39480518D01*
X50967157Y39432843D01*
X50919482Y39370711D01*
X50889512Y39298356D01*
X50762740Y38782405D01*
G37*
G36*
X47950000Y35250000D02*
X47960222Y35172354D01*
X47990192Y35100000D01*
X48037868Y35037868D01*
X48100000Y34990192D01*
X48172354Y34960222D01*
X48250000Y34950000D01*
X48327646Y34960222D01*
X48400000Y34990192D01*
X48462132Y35037868D01*
X48509808Y35100000D01*
X48539778Y35172354D01*
X48666549Y35688306D01*
X48545842Y35777354D01*
X48100000Y35509808D01*
X48037868Y35462132D01*
X47990192Y35400000D01*
X47960222Y35327646D01*
X47950000Y35250000D01*
G37*
G36*
X46714590Y33546885D02*
X46848754Y33479803D01*
X47262132Y33837868D01*
X47309808Y33900000D01*
X47339778Y33972354D01*
X47350000Y34050000D01*
X47339778Y34127646D01*
X47309808Y34200000D01*
X47262132Y34262132D01*
X47200000Y34309808D01*
X47127646Y34339778D01*
X47050000Y34350000D01*
X46972354Y34339778D01*
X46900000Y34309808D01*
X46837868Y34262132D01*
X46790192Y34200000D01*
X46760222Y34127646D01*
X46750000Y34050000D01*
X46714590Y33546885D01*
G37*
G36*
X44950000Y30450000D02*
X44960222Y30372354D01*
X44990192Y30300000D01*
X45037868Y30237868D01*
X45100000Y30190192D01*
X45172354Y30160222D01*
X45250000Y30150000D01*
X45327646Y30160222D01*
X45400000Y30190192D01*
X45462132Y30237868D01*
X45509808Y30300000D01*
X45539778Y30372354D01*
X45550000Y30450000D01*
X45585410Y30953115D01*
X45451246Y31020197D01*
X45037868Y30662132D01*
X44990192Y30600000D01*
X44960222Y30527646D01*
X44950000Y30450000D01*
G37*
G36*
X42700000Y30450000D02*
X42710222Y30372354D01*
X42903633Y29853059D01*
X43053537Y29847705D01*
X43259808Y30300000D01*
X43289778Y30372354D01*
X43300000Y30450000D01*
X43289778Y30527646D01*
X43259808Y30600000D01*
X43212132Y30662132D01*
X43150000Y30709808D01*
X43077646Y30739778D01*
X43000000Y30750000D01*
X42922354Y30739778D01*
X42850000Y30709808D01*
X42787868Y30662132D01*
X42740192Y30600000D01*
X42710222Y30527646D01*
X42700000Y30450000D01*
G37*
G36*
X41650000Y18750000D02*
X41660222Y18672354D01*
X41690192Y18600000D01*
X41737868Y18537868D01*
X41800000Y18490192D01*
X41872354Y18460222D01*
X41950000Y18450000D01*
X42027646Y18460222D01*
X42100000Y18490192D01*
X42162132Y18537868D01*
X42209808Y18600000D01*
X42239778Y18672354D01*
X42250000Y18750000D01*
X42239778Y18827646D01*
X42025000Y19350000D01*
X41875000Y19350000D01*
X41660222Y18827646D01*
X41650000Y18750000D01*
G37*
G36*
X53050000Y8950000D02*
X53060222Y8872354D01*
X53090192Y8800000D01*
X53137868Y8737868D01*
X53200000Y8690192D01*
X53272354Y8660222D01*
X53738445Y8486605D01*
X53840560Y8596480D01*
X53609808Y9100000D01*
X53562132Y9162132D01*
X53500000Y9209808D01*
X53427646Y9239778D01*
X53350000Y9250000D01*
X53272354Y9239778D01*
X53200000Y9209808D01*
X53137868Y9162132D01*
X53090192Y9100000D01*
X53060222Y9027646D01*
X53050000Y8950000D01*
G37*
G36*
X53688730Y8532809D02*
X53919482Y8029289D01*
X53967157Y7967157D01*
X54029289Y7919482D01*
X54101644Y7889512D01*
X54179289Y7879289D01*
X54256935Y7889512D01*
X54329289Y7919482D01*
X54391421Y7967157D01*
X54439097Y8029289D01*
X54469067Y8101644D01*
X54479289Y8179289D01*
X54469067Y8256935D01*
X54439097Y8329289D01*
X54391421Y8391421D01*
X54329289Y8439097D01*
X54256935Y8469067D01*
X53790844Y8642685D01*
X53688730Y8532809D01*
G37*
G36*
X55150000Y8400000D02*
X55160222Y8322354D01*
X55190192Y8250000D01*
X55237868Y8187868D01*
X55300000Y8140192D01*
X55372354Y8110222D01*
X55450000Y8100000D01*
X55527646Y8110222D01*
X56048380Y8313017D01*
X56051380Y8462987D01*
X55600000Y8659808D01*
X55527646Y8689778D01*
X55450000Y8700000D01*
X55372354Y8689778D01*
X55300000Y8659808D01*
X55237868Y8612132D01*
X55190192Y8550000D01*
X55160222Y8477646D01*
X55150000Y8400000D01*
G37*
G36*
X62348620Y8187013D02*
X62800000Y7990192D01*
X62872354Y7960222D01*
X62950000Y7950000D01*
X63027646Y7960222D01*
X63100000Y7990192D01*
X63162132Y8037868D01*
X63209808Y8100000D01*
X63239778Y8172354D01*
X63250000Y8250000D01*
X63239778Y8327646D01*
X63209808Y8400000D01*
X63162132Y8462132D01*
X63100000Y8509808D01*
X63027646Y8539778D01*
X62950000Y8550000D01*
X62872354Y8539778D01*
X62351620Y8336983D01*
X62348620Y8187013D01*
G37*
G36*
X46226451Y17950601D02*
X46305951Y17823401D01*
X46852646Y17915222D01*
X46925000Y17945192D01*
X46987132Y17992868D01*
X47034808Y18055000D01*
X47064778Y18127354D01*
X47075000Y18205000D01*
X47064778Y18282646D01*
X47034808Y18355000D01*
X46987132Y18417132D01*
X46925000Y18464808D01*
X46852646Y18494778D01*
X46775000Y18505000D01*
X46697354Y18494778D01*
X46625000Y18464808D01*
X46562868Y18417132D01*
X46515192Y18355000D01*
X46226451Y17950601D01*
G37*
G36*
X39275000Y9905000D02*
X39285222Y9827354D01*
X39315192Y9755000D01*
X39362868Y9692868D01*
X39425000Y9645192D01*
X39497354Y9615222D01*
X39575000Y9605000D01*
X39652646Y9615222D01*
X39725000Y9645192D01*
X39787132Y9692868D01*
X39834808Y9755000D01*
X39864778Y9827354D01*
X39875000Y9905000D01*
X39864778Y9982646D01*
X39650000Y10505000D01*
X39500000Y10505000D01*
X39285222Y9982646D01*
X39275000Y9905000D01*
G37*
G36*
X35575000Y4105000D02*
X35585222Y4027354D01*
X35615192Y3955000D01*
X35662868Y3892868D01*
X35725000Y3845192D01*
X35797354Y3815222D01*
X36258991Y3637907D01*
X36362152Y3746800D01*
X36134808Y4255000D01*
X36087132Y4317132D01*
X36025000Y4364808D01*
X35952646Y4394778D01*
X35875000Y4405000D01*
X35797354Y4394778D01*
X35725000Y4364808D01*
X35662868Y4317132D01*
X35615192Y4255000D01*
X35585222Y4182646D01*
X35575000Y4105000D01*
G37*
G36*
X56075000Y49805000D02*
X56085222Y49727354D01*
X56115192Y49655000D01*
X56162868Y49592868D01*
X56225000Y49545192D01*
X56297354Y49515222D01*
X56375000Y49505000D01*
X56452646Y49515222D01*
X56974212Y49723944D01*
X56975727Y49873936D01*
X56525000Y50064808D01*
X56452646Y50094778D01*
X56375000Y50105000D01*
X56297354Y50094778D01*
X56225000Y50064808D01*
X56162868Y50017132D01*
X56115192Y49955000D01*
X56085222Y49882646D01*
X56075000Y49805000D01*
G37*
G36*
X50850000Y36250000D02*
X50860222Y36172354D01*
X50890192Y36100000D01*
X50937868Y36037868D01*
X51000000Y35990192D01*
X51072354Y35960222D01*
X51150000Y35950000D01*
X51227646Y35960222D01*
X51744153Y36137719D01*
X51753510Y36287427D01*
X51300000Y36509808D01*
X51227646Y36539778D01*
X51150000Y36550000D01*
X51072354Y36539778D01*
X51000000Y36509808D01*
X50937868Y36462132D01*
X50890192Y36400000D01*
X50860222Y36327646D01*
X50850000Y36250000D01*
G37*
G36*
X63912471Y33422680D02*
X64898959Y32208959D01*
X65075000Y32073878D01*
X65280004Y31988963D01*
X65500000Y31960000D01*
X65719996Y31988963D01*
X65925000Y32073878D01*
X66101041Y32208959D01*
X66236122Y32385000D01*
X66321037Y32590004D01*
X66350000Y32810000D01*
X66321037Y33029996D01*
X66236122Y33235000D01*
X66101041Y33411041D01*
X65925000Y33546122D01*
X65719996Y33631037D01*
X65500000Y33660000D01*
X63972594Y33560104D01*
X63912471Y33422680D01*
G37*
G36*
X26379289Y36020711D02*
X26389512Y35943065D01*
X26419482Y35870711D01*
X26467157Y35808579D01*
X26529289Y35760903D01*
X26601644Y35730933D01*
X26679289Y35720711D01*
X26756935Y35730933D01*
X26829289Y35760903D01*
X26891421Y35808579D01*
X26939097Y35870711D01*
X26969067Y35943065D01*
X27076927Y36476242D01*
X26952561Y36560106D01*
X26529289Y36280518D01*
X26467157Y36232843D01*
X26419482Y36170711D01*
X26389512Y36098356D01*
X26379289Y36020711D01*
G37*
G36*
X27852362Y37894468D02*
X27976728Y37810605D01*
X28400000Y38090192D01*
X28462132Y38137868D01*
X28509808Y38200000D01*
X28539778Y38272354D01*
X28550000Y38350000D01*
X28539778Y38427646D01*
X28509808Y38500000D01*
X28462132Y38562132D01*
X28400000Y38609808D01*
X28327646Y38639778D01*
X28250000Y38650000D01*
X28172354Y38639778D01*
X28100000Y38609808D01*
X28037868Y38562132D01*
X27990192Y38500000D01*
X27960222Y38427646D01*
X27852362Y37894468D01*
G37*
G36*
X30350000Y38850000D02*
X30360222Y38772354D01*
X30390192Y38700000D01*
X30437868Y38637868D01*
X30500000Y38590192D01*
X30572354Y38560222D01*
X30650000Y38550000D01*
X31146698Y38505158D01*
X31216299Y38638033D01*
X30862132Y39062132D01*
X30800000Y39109808D01*
X30727646Y39139778D01*
X30650000Y39150000D01*
X30572354Y39139778D01*
X30500000Y39109808D01*
X30437868Y39062132D01*
X30390192Y39000000D01*
X30360222Y38927646D01*
X30350000Y38850000D01*
G37*
G36*
X35750000Y41050000D02*
X35760222Y40972354D01*
X35975000Y40450000D01*
X36125000Y40450000D01*
X36339778Y40972354D01*
X36350000Y41050000D01*
X36339778Y41127646D01*
X36309808Y41200000D01*
X36262132Y41262132D01*
X36200000Y41309808D01*
X36127646Y41339778D01*
X36050000Y41350000D01*
X35972354Y41339778D01*
X35900000Y41309808D01*
X35837868Y41262132D01*
X35790192Y41200000D01*
X35760222Y41127646D01*
X35750000Y41050000D01*
G37*
G36*
X38350000Y41050000D02*
X38360222Y40972354D01*
X38390192Y40900000D01*
X38437868Y40837868D01*
X38500000Y40790192D01*
X38572354Y40760222D01*
X38650000Y40750000D01*
X39155928Y40718847D01*
X39221875Y40853572D01*
X38862132Y41262132D01*
X38800000Y41309808D01*
X38727646Y41339778D01*
X38650000Y41350000D01*
X38572354Y41339778D01*
X38500000Y41309808D01*
X38437868Y41262132D01*
X38390192Y41200000D01*
X38360222Y41127646D01*
X38350000Y41050000D01*
G37*
G36*
X41972059Y39340362D02*
X42331802Y38931802D01*
X42393934Y38884126D01*
X42466288Y38854156D01*
X42543934Y38843934D01*
X42621580Y38854156D01*
X42693934Y38884126D01*
X42756066Y38931802D01*
X42803742Y38993934D01*
X42833712Y39066288D01*
X42843934Y39143934D01*
X42833712Y39221580D01*
X42803742Y39293934D01*
X42756066Y39356066D01*
X42693934Y39403742D01*
X42621580Y39433712D01*
X42543934Y39443934D01*
X42038006Y39475087D01*
X41972059Y39340362D01*
G37*
G36*
X43850000Y39550000D02*
X43860222Y39472354D01*
X43890192Y39400000D01*
X43937868Y39337868D01*
X44000000Y39290192D01*
X44072354Y39260222D01*
X44150000Y39250000D01*
X44703145Y39305754D01*
X44746247Y39449428D01*
X44362132Y39762132D01*
X44300000Y39809808D01*
X44227646Y39839778D01*
X44150000Y39850000D01*
X44072354Y39839778D01*
X44000000Y39809808D01*
X43937868Y39762132D01*
X43890192Y39700000D01*
X43860222Y39627646D01*
X43850000Y39550000D01*
G37*
G36*
X46553753Y38750572D02*
X46937868Y38437868D01*
X47000000Y38390192D01*
X47072354Y38360222D01*
X47150000Y38350000D01*
X47227646Y38360222D01*
X47300000Y38390192D01*
X47362132Y38437868D01*
X47409808Y38500000D01*
X47439778Y38572354D01*
X47450000Y38650000D01*
X47439778Y38727646D01*
X47409808Y38800000D01*
X47362132Y38862132D01*
X47300000Y38909808D01*
X47227646Y38939778D01*
X47150000Y38950000D01*
X46596855Y38894246D01*
X46553753Y38750572D01*
G37*
G36*
X49716667Y36750000D02*
X49726889Y36672354D01*
X49756859Y36600000D01*
X49804535Y36537868D01*
X50245480Y36181432D01*
X50453493Y36320107D01*
X50306444Y36827646D01*
X50276474Y36900000D01*
X50228799Y36962132D01*
X50166667Y37009808D01*
X50094312Y37039778D01*
X50016667Y37050000D01*
X49939021Y37039778D01*
X49866667Y37009808D01*
X49804535Y36962132D01*
X49756859Y36900000D01*
X49726889Y36827646D01*
X49716667Y36750000D01*
G37*
G36*
X57463512Y30237014D02*
X57626475Y30047428D01*
X58150000Y30273526D01*
X58212132Y30321201D01*
X58259808Y30383333D01*
X58289778Y30455688D01*
X58300000Y30533333D01*
X58289778Y30610979D01*
X58259808Y30683333D01*
X58212132Y30745465D01*
X58150000Y30793141D01*
X58077646Y30823111D01*
X58000000Y30833333D01*
X57922354Y30823111D01*
X57850000Y30793141D01*
X57787868Y30745465D01*
X57740192Y30683333D01*
X57463512Y30237014D01*
G37*
G36*
X56847315Y38898949D02*
X57300000Y38590192D01*
X57372354Y38560222D01*
X57450000Y38550000D01*
X57527646Y38560222D01*
X57600000Y38590192D01*
X57662132Y38637868D01*
X57709808Y38700000D01*
X57739778Y38772354D01*
X57750000Y38850000D01*
X57739778Y38927646D01*
X57709808Y39000000D01*
X57662132Y39062132D01*
X57600000Y39109808D01*
X57527646Y39139778D01*
X57450000Y39150000D01*
X57372354Y39139778D01*
X56877908Y39045796D01*
X56847315Y38898949D01*
G37*
G36*
X53920711Y41679289D02*
X53930933Y41601644D01*
X54116155Y41083728D01*
X54265972Y41076316D01*
X54480518Y41529289D01*
X54510488Y41601644D01*
X54520711Y41679289D01*
X54510488Y41756935D01*
X54480518Y41829289D01*
X54432843Y41891421D01*
X54370711Y41939097D01*
X54298356Y41969067D01*
X54220711Y41979289D01*
X54143065Y41969067D01*
X54070711Y41939097D01*
X54008579Y41891421D01*
X53960903Y41829289D01*
X53930933Y41756935D01*
X53920711Y41679289D01*
G37*
G36*
X52300080Y44094325D02*
X52667157Y43708579D01*
X52729289Y43660903D01*
X52801644Y43630933D01*
X52879289Y43620711D01*
X52956935Y43630933D01*
X53029289Y43660903D01*
X53091421Y43708579D01*
X53139097Y43770711D01*
X53169067Y43843065D01*
X53179289Y43920711D01*
X53169067Y43998356D01*
X53139097Y44070711D01*
X53091421Y44132843D01*
X53029289Y44180518D01*
X52956935Y44210488D01*
X52879289Y44220711D01*
X52360638Y44231558D01*
X52300080Y44094325D01*
G37*
G36*
X50700000Y44750000D02*
X50710222Y44672354D01*
X50740192Y44600000D01*
X50787868Y44537868D01*
X50850000Y44490192D01*
X50922354Y44460222D01*
X51000000Y44450000D01*
X51518651Y44439153D01*
X51579209Y44576385D01*
X51212132Y44962132D01*
X51150000Y45009808D01*
X51077646Y45039778D01*
X51000000Y45050000D01*
X50922354Y45039778D01*
X50850000Y45009808D01*
X50787868Y44962132D01*
X50740192Y44900000D01*
X50710222Y44827646D01*
X50700000Y44750000D01*
G37*
G36*
X36572703Y2521231D02*
X36790192Y2000000D01*
X36837868Y1937868D01*
X36900000Y1890192D01*
X36972354Y1860222D01*
X37050000Y1850000D01*
X37127646Y1860222D01*
X37200000Y1890192D01*
X37262132Y1937868D01*
X37309808Y2000000D01*
X37339778Y2072354D01*
X37350000Y2150000D01*
X37339778Y2227646D01*
X37309808Y2300000D01*
X37262132Y2362132D01*
X37200000Y2409808D01*
X36678769Y2627297D01*
X36572703Y2521231D01*
G37*
G36*
X33720000Y5500000D02*
X33748963Y5280004D01*
X33833878Y5075000D01*
X33968959Y4898959D01*
X34145000Y4763878D01*
X34350004Y4678963D01*
X34567265Y4638706D01*
X34716735Y4651294D01*
X34789996Y4678963D01*
X34995000Y4763878D01*
X35171041Y4898959D01*
X35306122Y5075000D01*
X35391037Y5280004D01*
X35420000Y5500000D01*
X35391037Y5719996D01*
X35306122Y5925000D01*
X35171041Y6101041D01*
X34995000Y6236122D01*
X34789996Y6321037D01*
X34570000Y6350000D01*
X34350004Y6321037D01*
X34145000Y6236122D01*
X33968959Y6101041D01*
X33833878Y5925000D01*
X33748963Y5719996D01*
X33720000Y5500000D01*
G37*
G36*
X31450000Y24750000D02*
X31460222Y24672354D01*
X31675000Y24150000D01*
X31825000Y24150000D01*
X32039778Y24672354D01*
X32050000Y24750000D01*
X32039778Y24827646D01*
X32009808Y24900000D01*
X31962132Y24962132D01*
X31900000Y25009808D01*
X31827646Y25039778D01*
X31750000Y25050000D01*
X31672354Y25039778D01*
X31600000Y25009808D01*
X31537868Y24962132D01*
X31490192Y24900000D01*
X31460222Y24827646D01*
X31450000Y24750000D01*
G37*
G36*
X31450000Y19500000D02*
X31460222Y19422354D01*
X31490192Y19350000D01*
X31537868Y19287868D01*
X31600000Y19240192D01*
X31672354Y19210222D01*
X31750000Y19200000D01*
X31827646Y19210222D01*
X31900000Y19240192D01*
X31962132Y19287868D01*
X32009808Y19350000D01*
X32039778Y19422354D01*
X32050000Y19500000D01*
X32039778Y19577646D01*
X31825000Y20100000D01*
X31675000Y20100000D01*
X31460222Y19577646D01*
X31450000Y19500000D01*
G37*
G36*
X29120222Y16791696D02*
X29121226Y16641699D01*
X29643065Y16430933D01*
X29720711Y16420711D01*
X29798356Y16430933D01*
X29870711Y16460903D01*
X29932843Y16508579D01*
X29980518Y16570711D01*
X30010488Y16643065D01*
X30020711Y16720711D01*
X30010488Y16798356D01*
X29980518Y16870711D01*
X29932843Y16932843D01*
X29870711Y16980518D01*
X29798356Y17010488D01*
X29720711Y17020711D01*
X29643065Y17010488D01*
X29570711Y16980518D01*
X29120222Y16791696D01*
G37*
G36*
X15850000Y23550000D02*
X15860222Y23472354D01*
X16075000Y22950000D01*
X16225000Y22950000D01*
X16439778Y23472354D01*
X16450000Y23550000D01*
X16439778Y23627646D01*
X16409808Y23700000D01*
X16362132Y23762132D01*
X16300000Y23809808D01*
X16227646Y23839778D01*
X16150000Y23850000D01*
X16072354Y23839778D01*
X16000000Y23809808D01*
X15937868Y23762132D01*
X15890192Y23700000D01*
X15860222Y23627646D01*
X15850000Y23550000D01*
G37*
G36*
X26701994Y22543901D02*
X26815742Y22446118D01*
X27300000Y22690192D01*
X27362132Y22737868D01*
X27409808Y22800000D01*
X27439778Y22872354D01*
X27450000Y22950000D01*
X27439778Y23027646D01*
X27409808Y23100000D01*
X27362132Y23162132D01*
X27300000Y23209808D01*
X27227646Y23239778D01*
X27150000Y23250000D01*
X27072354Y23239778D01*
X27000000Y23209808D01*
X26937868Y23162132D01*
X26890192Y23100000D01*
X26860222Y23027646D01*
X26701994Y22543901D01*
G37*
G36*
X21950000Y17250000D02*
X21960222Y17172354D01*
X21990192Y17100000D01*
X22037868Y17037868D01*
X22100000Y16990192D01*
X22172354Y16960222D01*
X22250000Y16950000D01*
X22327646Y16960222D01*
X22400000Y16990192D01*
X22462132Y17037868D01*
X22509808Y17100000D01*
X22539778Y17172354D01*
X22698006Y17656099D01*
X22584258Y17753882D01*
X22100000Y17509808D01*
X22037868Y17462132D01*
X21990192Y17400000D01*
X21960222Y17327646D01*
X21950000Y17250000D01*
G37*
G36*
X19951964Y15317746D02*
X20406066Y15084126D01*
X20478420Y15054156D01*
X20556066Y15043934D01*
X20633712Y15054156D01*
X20706066Y15084126D01*
X20768198Y15131802D01*
X20815874Y15193934D01*
X20845844Y15266288D01*
X20856066Y15343934D01*
X20845844Y15421580D01*
X20815874Y15493934D01*
X20768198Y15556066D01*
X20706066Y15603742D01*
X20633712Y15633712D01*
X20556066Y15643934D01*
X20478420Y15633712D01*
X19964106Y15467254D01*
X19951964Y15317746D01*
G37*
G36*
X11079289Y25579289D02*
X11089512Y25501644D01*
X11119482Y25429289D01*
X11322530Y24977290D01*
X11472461Y24981841D01*
X11669067Y25501644D01*
X11679289Y25579289D01*
X11669067Y25656935D01*
X11639097Y25729289D01*
X11591421Y25791421D01*
X11529289Y25839097D01*
X11456935Y25869067D01*
X11379289Y25879289D01*
X11301644Y25869067D01*
X11229289Y25839097D01*
X11167157Y25791421D01*
X11119482Y25729289D01*
X11089512Y25656935D01*
X11079289Y25579289D01*
G37*
G36*
X11300000Y26850000D02*
X11310222Y26772354D01*
X11340192Y26700000D01*
X11387868Y26637868D01*
X11450000Y26590192D01*
X11522354Y26560222D01*
X11600000Y26550000D01*
X11677646Y26560222D01*
X11750000Y26590192D01*
X11812132Y26637868D01*
X11859808Y26700000D01*
X11889778Y26772354D01*
X11900000Y26850000D01*
X11889778Y26927646D01*
X11859808Y27000000D01*
X11667302Y27450912D01*
X11517314Y27448989D01*
X11310222Y26927646D01*
X11300000Y26850000D01*
G37*
G36*
X6243934Y43243934D02*
X6254156Y43166288D01*
X6284126Y43093934D01*
X6331802Y43031802D01*
X6393934Y42984126D01*
X6466288Y42954156D01*
X6925619Y42774955D01*
X7029316Y42883338D01*
X6803742Y43393934D01*
X6756066Y43456066D01*
X6693934Y43503742D01*
X6621580Y43533712D01*
X6543934Y43543934D01*
X6466288Y43533712D01*
X6393934Y43503742D01*
X6331802Y43456066D01*
X6284126Y43393934D01*
X6254156Y43321580D01*
X6243934Y43243934D01*
G37*
G36*
X24650000Y48750000D02*
X24660222Y48672354D01*
X24690192Y48600000D01*
X24737868Y48537868D01*
X24800000Y48490192D01*
X24872354Y48460222D01*
X24950000Y48450000D01*
X25027646Y48460222D01*
X25541771Y48625772D01*
X25554141Y48775261D01*
X25100000Y49009808D01*
X25027646Y49039778D01*
X24950000Y49050000D01*
X24872354Y49039778D01*
X24800000Y49009808D01*
X24737868Y48962132D01*
X24690192Y48900000D01*
X24660222Y48827646D01*
X24650000Y48750000D01*
G37*
G36*
X27116569Y48495450D02*
X27570711Y48260903D01*
X27643065Y48230933D01*
X27720711Y48220711D01*
X27798356Y48230933D01*
X27870711Y48260903D01*
X27932843Y48308579D01*
X27980518Y48370711D01*
X28010488Y48443065D01*
X28020711Y48520711D01*
X28010488Y48598356D01*
X27980518Y48670711D01*
X27932843Y48732843D01*
X27870711Y48780518D01*
X27798356Y48810488D01*
X27720711Y48820711D01*
X27643065Y48810488D01*
X27128940Y48644939D01*
X27116569Y48495450D01*
G37*
G36*
X26850000Y22950000D02*
X26860222Y22872354D01*
X26890192Y22800000D01*
X26937868Y22737868D01*
X27244235Y22352719D01*
X27388358Y22394293D01*
X27450000Y22950000D01*
X27439778Y23027646D01*
X27409808Y23100000D01*
X27362132Y23162132D01*
X27300000Y23209808D01*
X27227646Y23239778D01*
X27150000Y23250000D01*
X27072354Y23239778D01*
X27000000Y23209808D01*
X26937868Y23162132D01*
X26890192Y23100000D01*
X26860222Y23027646D01*
X26850000Y22950000D01*
G37*
G36*
X32450000Y17775000D02*
X32972354Y17560222D01*
X33050000Y17550000D01*
X33127646Y17560222D01*
X33200000Y17590192D01*
X33262132Y17637868D01*
X33309808Y17700000D01*
X33339778Y17772354D01*
X33350000Y17850000D01*
X33339778Y17927646D01*
X33309808Y18000000D01*
X33262132Y18062132D01*
X33200000Y18109808D01*
X33127646Y18139778D01*
X33050000Y18150000D01*
X32972354Y18139778D01*
X32450000Y17925000D01*
X32450000Y17775000D01*
G37*
G36*
X30879289Y27379289D02*
X30889512Y27301644D01*
X31104289Y26779289D01*
X31254289Y26779289D01*
X31469067Y27301644D01*
X31479289Y27379289D01*
X31469067Y27456935D01*
X31439097Y27529289D01*
X31391421Y27591421D01*
X31329289Y27639097D01*
X31256935Y27669067D01*
X31179289Y27679289D01*
X31101644Y27669067D01*
X31029289Y27639097D01*
X30967157Y27591421D01*
X30919482Y27529289D01*
X30889512Y27456935D01*
X30879289Y27379289D01*
G37*
G36*
X30879289Y20920711D02*
X30889512Y20843065D01*
X30919482Y20770711D01*
X30967157Y20708579D01*
X31029289Y20660903D01*
X31101644Y20630933D01*
X31179289Y20620711D01*
X31256935Y20630933D01*
X31329289Y20660903D01*
X31391421Y20708579D01*
X31439097Y20770711D01*
X31469067Y20843065D01*
X31479289Y20920711D01*
X31469067Y20998356D01*
X31254289Y21520711D01*
X31104289Y21520711D01*
X30889512Y20998356D01*
X30879289Y20920711D01*
G37*
G36*
X27357073Y13831415D02*
X27404507Y13689112D01*
X27950000Y13650000D01*
X28027646Y13660222D01*
X28100000Y13690192D01*
X28162132Y13737868D01*
X28209808Y13800000D01*
X28239778Y13872354D01*
X28250000Y13950000D01*
X28239778Y14027646D01*
X28209808Y14100000D01*
X28162132Y14162132D01*
X28100000Y14209808D01*
X28027646Y14239778D01*
X27950000Y14250000D01*
X27872354Y14239778D01*
X27800000Y14209808D01*
X27737868Y14162132D01*
X27357073Y13831415D01*
G37*
G36*
X8943934Y26356066D02*
X8954156Y26278420D01*
X8984126Y26206066D01*
X9197835Y25753157D01*
X9347662Y25760360D01*
X9533712Y26278420D01*
X9543934Y26356066D01*
X9533712Y26433712D01*
X9503742Y26506066D01*
X9456066Y26568198D01*
X9393934Y26615874D01*
X9321580Y26645844D01*
X9243934Y26656066D01*
X9166288Y26645844D01*
X9093934Y26615874D01*
X9031802Y26568198D01*
X8984126Y26506066D01*
X8954156Y26433712D01*
X8943934Y26356066D01*
G37*
G36*
X11820711Y29020711D02*
X11830933Y28943065D01*
X11860903Y28870711D01*
X11908579Y28808579D01*
X12264835Y28433469D01*
X12404952Y28487014D01*
X12420711Y29020711D01*
X12410488Y29098356D01*
X12380518Y29170711D01*
X12332843Y29232843D01*
X12270711Y29280518D01*
X12198356Y29310488D01*
X12120711Y29320711D01*
X12043065Y29310488D01*
X11970711Y29280518D01*
X11908579Y29232843D01*
X11860903Y29170711D01*
X11830933Y29098356D01*
X11820711Y29020711D01*
G37*
G36*
X12279289Y27820711D02*
X12289512Y27743065D01*
X12319482Y27670711D01*
X12367157Y27608579D01*
X12429289Y27560903D01*
X12501644Y27530933D01*
X12579289Y27520711D01*
X12656935Y27530933D01*
X12729289Y27560903D01*
X12791421Y27608579D01*
X12839097Y27670711D01*
X12869067Y27743065D01*
X12879289Y27820711D01*
X12869067Y27898356D01*
X12839097Y27970711D01*
X12791421Y28032843D01*
X12435165Y28407953D01*
X12295048Y28354407D01*
X12279289Y27820711D01*
G37*
G36*
X27650000Y24150000D02*
X27660222Y24072354D01*
X27690192Y24000000D01*
X27737868Y23937868D01*
X27800000Y23890192D01*
X28321231Y23672703D01*
X28427297Y23778769D01*
X28209808Y24300000D01*
X28162132Y24362132D01*
X28100000Y24409808D01*
X28027646Y24439778D01*
X27950000Y24450000D01*
X27872354Y24439778D01*
X27800000Y24409808D01*
X27737868Y24362132D01*
X27690192Y24300000D01*
X27660222Y24227646D01*
X27650000Y24150000D01*
G37*
G36*
X28972703Y23021231D02*
X29190192Y22500000D01*
X29237868Y22437868D01*
X29300000Y22390192D01*
X29372354Y22360222D01*
X29450000Y22350000D01*
X29527646Y22360222D01*
X29600000Y22390192D01*
X29662132Y22437868D01*
X29709808Y22500000D01*
X29739778Y22572354D01*
X29750000Y22650000D01*
X29739778Y22727646D01*
X29709808Y22800000D01*
X29662132Y22862132D01*
X29600000Y22909808D01*
X29078769Y23127297D01*
X28972703Y23021231D01*
G37*
G36*
X36650000Y22650000D02*
X36660222Y22572354D01*
X36690192Y22500000D01*
X36737868Y22437868D01*
X36800000Y22390192D01*
X37321231Y22172703D01*
X37427297Y22278769D01*
X37209808Y22800000D01*
X37162132Y22862132D01*
X37100000Y22909808D01*
X37027646Y22939778D01*
X36950000Y22950000D01*
X36872354Y22939778D01*
X36800000Y22909808D01*
X36737868Y22862132D01*
X36690192Y22800000D01*
X36660222Y22727646D01*
X36650000Y22650000D01*
G37*
G36*
X38272703Y21221231D02*
X38490192Y20700000D01*
X38537868Y20637868D01*
X38600000Y20590192D01*
X38672354Y20560222D01*
X38750000Y20550000D01*
X38827646Y20560222D01*
X38900000Y20590192D01*
X38962132Y20637868D01*
X39009808Y20700000D01*
X39039778Y20772354D01*
X39050000Y20850000D01*
X39039778Y20927646D01*
X39009808Y21000000D01*
X38962132Y21062132D01*
X38900000Y21109808D01*
X38378769Y21327297D01*
X38272703Y21221231D01*
G37*
G36*
X29450000Y27516667D02*
X29460222Y27439021D01*
X29490192Y27366667D01*
X29537868Y27304535D01*
X29600000Y27256859D01*
X29672354Y27226889D01*
X29750000Y27216667D01*
X29827646Y27226889D01*
X29900000Y27256859D01*
X30358738Y27587818D01*
X30279682Y27824989D01*
X29750000Y27816667D01*
X29672354Y27806444D01*
X29600000Y27776474D01*
X29537868Y27728799D01*
X29490192Y27666667D01*
X29460222Y27594312D01*
X29450000Y27516667D01*
G37*
G36*
X31746430Y27545568D02*
X32023526Y27100000D01*
X32071201Y27037868D01*
X32133333Y26990192D01*
X32205688Y26960222D01*
X32283333Y26950000D01*
X32360979Y26960222D01*
X32433333Y26990192D01*
X32495465Y27037868D01*
X32543141Y27100000D01*
X32573111Y27172354D01*
X32583333Y27250000D01*
X32573111Y27327646D01*
X32543141Y27400000D01*
X32495465Y27462132D01*
X32433333Y27509808D01*
X31909128Y27735382D01*
X31746430Y27545568D01*
G37*
G36*
X29179289Y26779289D02*
X29189512Y26701644D01*
X29219482Y26629289D01*
X29267157Y26567157D01*
X29329289Y26519482D01*
X29401644Y26489512D01*
X29877954Y26324656D01*
X29977597Y26436777D01*
X29739097Y26929289D01*
X29691421Y26991421D01*
X29629289Y27039097D01*
X29556935Y27069067D01*
X29479289Y27079289D01*
X29401644Y27069067D01*
X29329289Y27039097D01*
X29267157Y26991421D01*
X29219482Y26929289D01*
X29189512Y26856935D01*
X29179289Y26779289D01*
G37*
G36*
X30350000Y22050000D02*
X30360222Y21972354D01*
X30390192Y21900000D01*
X30437868Y21837868D01*
X30500000Y21790192D01*
X30572354Y21760222D01*
X30650000Y21750000D01*
X30727646Y21760222D01*
X30800000Y21790192D01*
X30862132Y21837868D01*
X30909808Y21900000D01*
X30939778Y21972354D01*
X30950000Y22050000D01*
X30939778Y22127646D01*
X30741631Y22647686D01*
X30591689Y22651851D01*
X30390192Y22200000D01*
X30360222Y22127646D01*
X30350000Y22050000D01*
G37*
G36*
X36150000Y22050000D02*
X36160222Y21972354D01*
X36190192Y21900000D01*
X36237868Y21837868D01*
X36300000Y21790192D01*
X36821231Y21572703D01*
X36927297Y21678769D01*
X36709808Y22200000D01*
X36662132Y22262132D01*
X36600000Y22309808D01*
X36527646Y22339778D01*
X36450000Y22350000D01*
X36372354Y22339778D01*
X36300000Y22309808D01*
X36237868Y22262132D01*
X36190192Y22200000D01*
X36160222Y22127646D01*
X36150000Y22050000D01*
G37*
G36*
X37772703Y20621231D02*
X37990192Y20100000D01*
X38037868Y20037868D01*
X38100000Y19990192D01*
X38172354Y19960222D01*
X38250000Y19950000D01*
X38327646Y19960222D01*
X38400000Y19990192D01*
X38462132Y20037868D01*
X38509808Y20100000D01*
X38539778Y20172354D01*
X38550000Y20250000D01*
X38539778Y20327646D01*
X38509808Y20400000D01*
X38462132Y20462132D01*
X38400000Y20509808D01*
X37878769Y20727297D01*
X37772703Y20621231D01*
G37*
G36*
X43350000Y20550000D02*
X43360222Y20472354D01*
X43390192Y20400000D01*
X43437868Y20337868D01*
X43500000Y20290192D01*
X43572354Y20260222D01*
X43650000Y20250000D01*
X43727646Y20260222D01*
X43800000Y20290192D01*
X43862132Y20337868D01*
X43909808Y20400000D01*
X43939778Y20472354D01*
X44037543Y21014150D01*
X43911366Y21095264D01*
X43500000Y20809808D01*
X43437868Y20762132D01*
X43390192Y20700000D01*
X43360222Y20627646D01*
X43350000Y20550000D01*
G37*
G36*
X45962457Y24285850D02*
X46088634Y24204736D01*
X46500000Y24490192D01*
X46562132Y24537868D01*
X46609808Y24600000D01*
X46639778Y24672354D01*
X46650000Y24750000D01*
X46639778Y24827646D01*
X46609808Y24900000D01*
X46562132Y24962132D01*
X46500000Y25009808D01*
X46427646Y25039778D01*
X46350000Y25050000D01*
X46272354Y25039778D01*
X46200000Y25009808D01*
X46137868Y24962132D01*
X46090192Y24900000D01*
X46060222Y24827646D01*
X45962457Y24285850D01*
G37*
G36*
X26650000Y29150000D02*
X26710000Y28595000D01*
X26854000Y28553000D01*
X27162132Y28937868D01*
X27209808Y29000000D01*
X27239778Y29072354D01*
X27250000Y29150000D01*
X27239778Y29227646D01*
X27209808Y29300000D01*
X27162132Y29362132D01*
X27100000Y29409808D01*
X27027646Y29439778D01*
X26950000Y29450000D01*
X26872354Y29439778D01*
X26800000Y29409808D01*
X26737868Y29362132D01*
X26690192Y29300000D01*
X26660222Y29227646D01*
X26650000Y29150000D01*
G37*
G36*
X25600000Y25550000D02*
X25610222Y25472354D01*
X25640192Y25400000D01*
X25687868Y25337868D01*
X25750000Y25290192D01*
X25822354Y25260222D01*
X25900000Y25250000D01*
X25977646Y25260222D01*
X26050000Y25290192D01*
X26112132Y25337868D01*
X26159808Y25400000D01*
X26189778Y25472354D01*
X26200000Y25550000D01*
X26140000Y26105000D01*
X25996000Y26147000D01*
X25687868Y25762132D01*
X25640192Y25700000D01*
X25610222Y25627646D01*
X25600000Y25550000D01*
G37*
G36*
X25600000Y24050000D02*
X25610222Y23972354D01*
X25640192Y23900000D01*
X25687868Y23837868D01*
X25750000Y23790192D01*
X25822354Y23760222D01*
X25900000Y23750000D01*
X25977646Y23760222D01*
X26500000Y23975000D01*
X26500000Y24125000D01*
X25977646Y24339778D01*
X25900000Y24350000D01*
X25822354Y24339778D01*
X25750000Y24309808D01*
X25687868Y24262132D01*
X25640192Y24200000D01*
X25610222Y24127646D01*
X25600000Y24050000D01*
G37*
G36*
X29472703Y21721231D02*
X29690192Y21200000D01*
X29737868Y21137868D01*
X29800000Y21090192D01*
X29872354Y21060222D01*
X29950000Y21050000D01*
X30027646Y21060222D01*
X30100000Y21090192D01*
X30162132Y21137868D01*
X30209808Y21200000D01*
X30239778Y21272354D01*
X30250000Y21350000D01*
X30239778Y21427646D01*
X30209808Y21500000D01*
X30162132Y21562132D01*
X30100000Y21609808D01*
X29578769Y21827297D01*
X29472703Y21721231D01*
G37*
G36*
X33550000Y21500000D02*
X33560222Y21422354D01*
X33590192Y21350000D01*
X33637868Y21287868D01*
X33700000Y21240192D01*
X33772354Y21210222D01*
X34226954Y21027210D01*
X34331735Y21134546D01*
X34109808Y21650000D01*
X34062132Y21712132D01*
X34000000Y21759808D01*
X33927646Y21789778D01*
X33850000Y21800000D01*
X33772354Y21789778D01*
X33700000Y21759808D01*
X33637868Y21712132D01*
X33590192Y21650000D01*
X33560222Y21577646D01*
X33550000Y21500000D01*
G37*
G36*
X46188924Y18056204D02*
X46243584Y17916517D01*
X46775000Y17905000D01*
X46852646Y17915222D01*
X46925000Y17945192D01*
X46987132Y17992868D01*
X47034808Y18055000D01*
X47064778Y18127354D01*
X47075000Y18205000D01*
X47064778Y18282646D01*
X47034808Y18355000D01*
X46987132Y18417132D01*
X46925000Y18464808D01*
X46852646Y18494778D01*
X46775000Y18505000D01*
X46697354Y18494778D01*
X46625000Y18464808D01*
X46562868Y18417132D01*
X46188924Y18056204D01*
G37*
G36*
X30450000Y35350000D02*
X30460222Y35272354D01*
X30490192Y35200000D01*
X30789058Y34738363D01*
X31030056Y34804846D01*
X31050000Y35350000D01*
X31039778Y35427646D01*
X31009808Y35500000D01*
X30962132Y35562132D01*
X30900000Y35609808D01*
X30827646Y35639778D01*
X30750000Y35650000D01*
X30672354Y35639778D01*
X30600000Y35609808D01*
X30537868Y35562132D01*
X30490192Y35500000D01*
X30460222Y35427646D01*
X30450000Y35350000D01*
G37*
G36*
X28050000Y28950000D02*
X28060222Y28872354D01*
X28090192Y28800000D01*
X28137868Y28737868D01*
X28200000Y28690192D01*
X28272354Y28660222D01*
X28350000Y28650000D01*
X28427646Y28660222D01*
X28500000Y28690192D01*
X28954331Y28970236D01*
X28930755Y29118372D01*
X28427646Y29239778D01*
X28350000Y29250000D01*
X28272354Y29239778D01*
X28200000Y29209808D01*
X28137868Y29162132D01*
X28090192Y29100000D01*
X28060222Y29027646D01*
X28050000Y28950000D01*
G37*
G36*
X30074959Y29300474D02*
X30098535Y29152339D01*
X30601644Y29030933D01*
X30679289Y29020711D01*
X30756935Y29030933D01*
X30829289Y29060903D01*
X30891421Y29108579D01*
X30939097Y29170711D01*
X30969067Y29243065D01*
X30979289Y29320711D01*
X30969067Y29398356D01*
X30939097Y29470711D01*
X30891421Y29532843D01*
X30829289Y29580518D01*
X30756935Y29610488D01*
X30679289Y29620711D01*
X30601644Y29610488D01*
X30529289Y29580518D01*
X30074959Y29300474D01*
G37*
G36*
X32850000Y29250000D02*
X32860222Y29172354D01*
X32890192Y29100000D01*
X32937868Y29037868D01*
X33000000Y28990192D01*
X33072354Y28960222D01*
X33625909Y28876991D01*
X33703083Y29005615D01*
X33409808Y29400000D01*
X33362132Y29462132D01*
X33300000Y29509808D01*
X33227646Y29539778D01*
X33150000Y29550000D01*
X33072354Y29539778D01*
X33000000Y29509808D01*
X32937868Y29462132D01*
X32890192Y29400000D01*
X32860222Y29327646D01*
X32850000Y29250000D01*
G37*
G36*
X41596917Y24094385D02*
X41890192Y23700000D01*
X41937868Y23637868D01*
X42000000Y23590192D01*
X42072354Y23560222D01*
X42150000Y23550000D01*
X42227646Y23560222D01*
X42300000Y23590192D01*
X42362132Y23637868D01*
X42409808Y23700000D01*
X42439778Y23772354D01*
X42450000Y23850000D01*
X42439778Y23927646D01*
X42409808Y24000000D01*
X42362132Y24062132D01*
X42300000Y24109808D01*
X42227646Y24139778D01*
X41674091Y24223009D01*
X41596917Y24094385D01*
G37*
G36*
X26753851Y30195632D02*
X26990192Y29700000D01*
X27037868Y29637868D01*
X27100000Y29590192D01*
X27172354Y29560222D01*
X27250000Y29550000D01*
X27327646Y29560222D01*
X27400000Y29590192D01*
X27462132Y29637868D01*
X27509808Y29700000D01*
X27539778Y29772354D01*
X27550000Y29850000D01*
X27539778Y29927646D01*
X27509808Y30000000D01*
X27462132Y30062132D01*
X27400000Y30109808D01*
X27327646Y30139778D01*
X26854196Y30307126D01*
X26753851Y30195632D01*
G37*
G36*
X22520711Y36520711D02*
X22530933Y36443065D01*
X22560903Y36370711D01*
X22904739Y35921908D01*
X23049551Y35961017D01*
X23120711Y36520711D01*
X23110488Y36598356D01*
X23080518Y36670711D01*
X23032843Y36732843D01*
X22970711Y36780518D01*
X22898356Y36810488D01*
X22820711Y36820711D01*
X22743065Y36810488D01*
X22670711Y36780518D01*
X22608579Y36732843D01*
X22560903Y36670711D01*
X22530933Y36598356D01*
X22520711Y36520711D01*
G37*
G36*
X9850000Y37275000D02*
X10372354Y37060222D01*
X10450000Y37050000D01*
X10527646Y37060222D01*
X10600000Y37090192D01*
X10662132Y37137868D01*
X10709808Y37200000D01*
X10739778Y37272354D01*
X10750000Y37350000D01*
X10739778Y37427646D01*
X10709808Y37500000D01*
X10662132Y37562132D01*
X10600000Y37609808D01*
X10527646Y37639778D01*
X10450000Y37650000D01*
X10372354Y37639778D01*
X9850000Y37425000D01*
X9850000Y37275000D01*
G37*
G36*
X5172703Y24821231D02*
X5390192Y24300000D01*
X5437868Y24237868D01*
X5500000Y24190192D01*
X5572354Y24160222D01*
X5650000Y24150000D01*
X5727646Y24160222D01*
X5800000Y24190192D01*
X5862132Y24237868D01*
X5909808Y24300000D01*
X5939778Y24372354D01*
X5950000Y24450000D01*
X5939778Y24527646D01*
X5909808Y24600000D01*
X5862132Y24662132D01*
X5800000Y24709808D01*
X5278769Y24927297D01*
X5172703Y24821231D01*
G37*
G36*
X17650000Y12150000D02*
X17660222Y12072354D01*
X17690192Y12000000D01*
X17737868Y11937868D01*
X17800000Y11890192D01*
X17872354Y11860222D01*
X17950000Y11850000D01*
X18027646Y11860222D01*
X18550000Y12075000D01*
X18550000Y12225000D01*
X18027646Y12439778D01*
X17950000Y12450000D01*
X17872354Y12439778D01*
X17800000Y12409808D01*
X17737868Y12362132D01*
X17690192Y12300000D01*
X17660222Y12227646D01*
X17650000Y12150000D01*
G37*
G36*
X37593277Y16255287D02*
X37719720Y16174589D01*
X38129289Y16460903D01*
X38191421Y16508579D01*
X38239097Y16570711D01*
X38269067Y16643065D01*
X38279289Y16720711D01*
X38269067Y16798356D01*
X38239097Y16870711D01*
X38191421Y16932843D01*
X38129289Y16980518D01*
X38056935Y17010488D01*
X37979289Y17020711D01*
X37901644Y17010488D01*
X37829289Y16980518D01*
X37767157Y16932843D01*
X37719482Y16870711D01*
X37689512Y16798356D01*
X37593277Y16255287D01*
G37*
G36*
X40350000Y19350000D02*
X40360222Y19272354D01*
X40390192Y19200000D01*
X40437868Y19137868D01*
X40500000Y19090192D01*
X40572354Y19060222D01*
X40650000Y19050000D01*
X40727646Y19060222D01*
X41250000Y19275000D01*
X41250000Y19425000D01*
X40727646Y19639778D01*
X40650000Y19650000D01*
X40572354Y19639778D01*
X40500000Y19609808D01*
X40437868Y19562132D01*
X40390192Y19500000D01*
X40360222Y19427646D01*
X40350000Y19350000D01*
G37*
G36*
X42964256Y21680970D02*
X43085270Y21592338D01*
X43529289Y21860903D01*
X43591421Y21908579D01*
X43639097Y21970711D01*
X43669067Y22043065D01*
X43679289Y22120711D01*
X43669067Y22198356D01*
X43639097Y22270711D01*
X43591421Y22332843D01*
X43529289Y22380518D01*
X43456935Y22410488D01*
X43379289Y22420711D01*
X43301644Y22410488D01*
X43229289Y22380518D01*
X43167157Y22332843D01*
X43119482Y22270711D01*
X43089512Y22198356D01*
X42964256Y21680970D01*
G37*
G36*
X27020711Y27379289D02*
X27030933Y27301644D01*
X27060903Y27229289D01*
X27108579Y27167157D01*
X27170711Y27119482D01*
X27243065Y27089512D01*
X27320711Y27079289D01*
X27398356Y27089512D01*
X27470711Y27119482D01*
X27532843Y27167157D01*
X27580518Y27229289D01*
X27610488Y27301644D01*
X27620711Y27379289D01*
X27610488Y27456935D01*
X27506961Y27954560D01*
X27359625Y27982705D01*
X27060903Y27529289D01*
X27030933Y27456935D01*
X27020711Y27379289D01*
G37*
G36*
X26950000Y30750000D02*
X26960222Y30672354D01*
X26990192Y30600000D01*
X27037868Y30537868D01*
X27100000Y30490192D01*
X27621231Y30272703D01*
X27727297Y30378769D01*
X27509808Y30900000D01*
X27462132Y30962132D01*
X27400000Y31009808D01*
X27327646Y31039778D01*
X27250000Y31050000D01*
X27172354Y31039778D01*
X27100000Y31009808D01*
X27037868Y30962132D01*
X26990192Y30900000D01*
X26960222Y30827646D01*
X26950000Y30750000D01*
G37*
G36*
X26472703Y35321231D02*
X26690192Y34800000D01*
X26737868Y34737868D01*
X26800000Y34690192D01*
X26872354Y34660222D01*
X26950000Y34650000D01*
X27027646Y34660222D01*
X27100000Y34690192D01*
X27162132Y34737868D01*
X27209808Y34800000D01*
X27239778Y34872354D01*
X27250000Y34950000D01*
X27239778Y35027646D01*
X27209808Y35100000D01*
X27162132Y35162132D01*
X27100000Y35209808D01*
X26578769Y35427297D01*
X26472703Y35321231D01*
G37*
G36*
X23650000Y39750000D02*
X23660222Y39672354D01*
X23875000Y39150000D01*
X24025000Y39150000D01*
X24239778Y39672354D01*
X24250000Y39750000D01*
X24239778Y39827646D01*
X24209808Y39900000D01*
X24162132Y39962132D01*
X24100000Y40009808D01*
X24027646Y40039778D01*
X23950000Y40050000D01*
X23872354Y40039778D01*
X23800000Y40009808D01*
X23737868Y39962132D01*
X23690192Y39900000D01*
X23660222Y39827646D01*
X23650000Y39750000D01*
G37*
G36*
X22966682Y41486642D02*
X23070995Y41378852D01*
X23527646Y41560222D01*
X23600000Y41590192D01*
X23662132Y41637868D01*
X23709808Y41700000D01*
X23739778Y41772354D01*
X23750000Y41850000D01*
X23739778Y41927646D01*
X23709808Y42000000D01*
X23662132Y42062132D01*
X23600000Y42109808D01*
X23527646Y42139778D01*
X23450000Y42150000D01*
X23372354Y42139778D01*
X23300000Y42109808D01*
X23237868Y42062132D01*
X23190192Y42000000D01*
X22966682Y41486642D01*
G37*
G36*
X20050000Y38850000D02*
X20060222Y38772354D01*
X20090192Y38700000D01*
X20137868Y38637868D01*
X20200000Y38590192D01*
X20272354Y38560222D01*
X20350000Y38550000D01*
X20427646Y38560222D01*
X20500000Y38590192D01*
X20562132Y38637868D01*
X20609808Y38700000D01*
X20833318Y39213358D01*
X20729005Y39321148D01*
X20272354Y39139778D01*
X20200000Y39109808D01*
X20137868Y39062132D01*
X20090192Y39000000D01*
X20060222Y38927646D01*
X20050000Y38850000D01*
G37*
G36*
X9610000Y38775000D02*
X10000000Y38590192D01*
X10072354Y38560222D01*
X10150000Y38550000D01*
X10227646Y38560222D01*
X10300000Y38590192D01*
X10362132Y38637868D01*
X10409808Y38700000D01*
X10439778Y38772354D01*
X10450000Y38850000D01*
X10439778Y38927646D01*
X10409808Y39000000D01*
X10362132Y39062132D01*
X10300000Y39109808D01*
X10227646Y39139778D01*
X10150000Y39150000D01*
X10072354Y39139778D01*
X10000000Y39109808D01*
X9610000Y38925000D01*
X9610000Y38775000D01*
G37*
G36*
X31572703Y5778769D02*
X31678769Y5672703D01*
X32200000Y5890192D01*
X32262132Y5937868D01*
X32309808Y6000000D01*
X32339778Y6072354D01*
X32350000Y6150000D01*
X32339778Y6227646D01*
X32309808Y6300000D01*
X32262132Y6362132D01*
X32200000Y6409808D01*
X32127646Y6439778D01*
X32050000Y6450000D01*
X31972354Y6439778D01*
X31900000Y6409808D01*
X31837868Y6362132D01*
X31790192Y6300000D01*
X31572703Y5778769D01*
G37*
G36*
X30850000Y7050000D02*
X30860222Y6972354D01*
X30890192Y6900000D01*
X30937868Y6837868D01*
X31000000Y6790192D01*
X31072354Y6760222D01*
X31150000Y6750000D01*
X31227646Y6760222D01*
X31300000Y6790192D01*
X31362132Y6837868D01*
X31409808Y6900000D01*
X31439778Y6972354D01*
X31525277Y7524123D01*
X31397023Y7601910D01*
X31000000Y7309808D01*
X30937868Y7262132D01*
X30890192Y7200000D01*
X30860222Y7127646D01*
X30850000Y7050000D01*
G37*
G36*
X37004013Y16846588D02*
X37132267Y16768801D01*
X37529289Y17060903D01*
X37591421Y17108579D01*
X37639097Y17170711D01*
X37669067Y17243065D01*
X37679289Y17320711D01*
X37669067Y17398356D01*
X37639097Y17470711D01*
X37591421Y17532843D01*
X37529289Y17580518D01*
X37456935Y17610488D01*
X37379289Y17620711D01*
X37301644Y17610488D01*
X37229289Y17580518D01*
X37167157Y17532843D01*
X37119482Y17470711D01*
X37089512Y17398356D01*
X37004013Y16846588D01*
G37*
G36*
X56550000Y33750000D02*
X56560222Y33672354D01*
X56590192Y33600000D01*
X56637868Y33537868D01*
X56700000Y33490192D01*
X57094385Y33196917D01*
X57223009Y33274091D01*
X57139778Y33827646D01*
X57109808Y33900000D01*
X57062132Y33962132D01*
X57000000Y34009808D01*
X56927646Y34039778D01*
X56850000Y34050000D01*
X56772354Y34039778D01*
X56700000Y34009808D01*
X56637868Y33962132D01*
X56590192Y33900000D01*
X56560222Y33827646D01*
X56550000Y33750000D01*
G37*
G36*
X52950000Y13950000D02*
X52960222Y13872354D01*
X52990192Y13800000D01*
X53037868Y13737868D01*
X53100000Y13690192D01*
X53172354Y13660222D01*
X53250000Y13650000D01*
X53327646Y13660222D01*
X53400000Y13690192D01*
X53462132Y13737868D01*
X53509808Y13800000D01*
X53727297Y14321231D01*
X53621231Y14427297D01*
X53100000Y14209808D01*
X53037868Y14162132D01*
X52990192Y14100000D01*
X52960222Y14027646D01*
X52950000Y13950000D01*
G37*
G36*
X52982253Y11070013D02*
X53111719Y10994260D01*
X53500000Y11290192D01*
X53562132Y11337868D01*
X53609808Y11400000D01*
X53639778Y11472354D01*
X53650000Y11550000D01*
X53639778Y11627646D01*
X53609808Y11700000D01*
X53562132Y11762132D01*
X53500000Y11809808D01*
X53427646Y11839778D01*
X53350000Y11850000D01*
X53272354Y11839778D01*
X53200000Y11809808D01*
X53137868Y11762132D01*
X53090192Y11700000D01*
X53060222Y11627646D01*
X52982253Y11070013D01*
G37*
G36*
X48960000Y5500000D02*
X48988963Y5280004D01*
X49073878Y5075000D01*
X49208959Y4898959D01*
X49385000Y4763878D01*
X49590004Y4678963D01*
X49810000Y4650000D01*
X50029996Y4678963D01*
X50235000Y4763878D01*
X50411041Y4898959D01*
X50546122Y5075000D01*
X50631037Y5280004D01*
X50660000Y5500000D01*
X50733273Y6929403D01*
X50603807Y7005156D01*
X49385000Y6236122D01*
X49208959Y6101041D01*
X49073878Y5925000D01*
X48988963Y5719996D01*
X48960000Y5500000D01*
G37*
G36*
X55850000Y33450000D02*
X55860222Y33372354D01*
X55890192Y33300000D01*
X56120539Y32846049D01*
X56270110Y32857380D01*
X56439778Y33372354D01*
X56450000Y33450000D01*
X56439778Y33527646D01*
X56409808Y33600000D01*
X56362132Y33662132D01*
X56300000Y33709808D01*
X56227646Y33739778D01*
X56150000Y33750000D01*
X56072354Y33739778D01*
X56000000Y33709808D01*
X55937868Y33662132D01*
X55890192Y33600000D01*
X55860222Y33527646D01*
X55850000Y33450000D01*
G37*
G36*
X56100000Y30150000D02*
X56110222Y30072354D01*
X56140192Y30000000D01*
X56187868Y29937868D01*
X56250000Y29890192D01*
X56322354Y29860222D01*
X56400000Y29850000D01*
X56477646Y29860222D01*
X56550000Y29890192D01*
X56612132Y29937868D01*
X56659808Y30000000D01*
X56689778Y30072354D01*
X56700000Y30150000D01*
X56689778Y30227646D01*
X56659808Y30300000D01*
X56429461Y30753951D01*
X56279890Y30742620D01*
X56110222Y30227646D01*
X56100000Y30150000D01*
G37*
G36*
X56828053Y28571990D02*
X56935623Y28467450D01*
X57450000Y28690192D01*
X57512132Y28737868D01*
X57559808Y28800000D01*
X57589778Y28872354D01*
X57600000Y28950000D01*
X57589778Y29027646D01*
X57559808Y29100000D01*
X57512132Y29162132D01*
X57450000Y29209808D01*
X57377646Y29239778D01*
X57300000Y29250000D01*
X57222354Y29239778D01*
X57150000Y29209808D01*
X57087868Y29162132D01*
X57040192Y29100000D01*
X57010222Y29027646D01*
X56828053Y28571990D01*
G37*
G36*
X54856066Y26743934D02*
X54866288Y26666288D01*
X54896258Y26593934D01*
X54943934Y26531802D01*
X55006066Y26484126D01*
X55078420Y26454156D01*
X55156066Y26443934D01*
X55233712Y26454156D01*
X55306066Y26484126D01*
X55368198Y26531802D01*
X55415874Y26593934D01*
X55445844Y26666288D01*
X55628013Y27121944D01*
X55520443Y27226484D01*
X55006066Y27003742D01*
X54943934Y26956066D01*
X54896258Y26893934D01*
X54866288Y26821580D01*
X54856066Y26743934D01*
G37*
G36*
X47968653Y17184036D02*
X48073547Y17076811D01*
X48527646Y17260222D01*
X48600000Y17290192D01*
X48662132Y17337868D01*
X48709808Y17400000D01*
X48739778Y17472354D01*
X48750000Y17550000D01*
X48739778Y17627646D01*
X48709808Y17700000D01*
X48662132Y17762132D01*
X48600000Y17809808D01*
X48527646Y17839778D01*
X48450000Y17850000D01*
X48372354Y17839778D01*
X48300000Y17809808D01*
X48237868Y17762132D01*
X48190192Y17700000D01*
X47968653Y17184036D01*
G37*
G36*
X41250000Y10800000D02*
X41260222Y10722354D01*
X41290192Y10650000D01*
X41337868Y10587868D01*
X41400000Y10540192D01*
X41472354Y10510222D01*
X41550000Y10500000D01*
X41627646Y10510222D01*
X41700000Y10540192D01*
X41762132Y10587868D01*
X41809808Y10650000D01*
X42031347Y11165964D01*
X41926453Y11273189D01*
X41472354Y11089778D01*
X41400000Y11059808D01*
X41337868Y11012132D01*
X41290192Y10950000D01*
X41260222Y10877646D01*
X41250000Y10800000D01*
G37*
G36*
X25105831Y35761451D02*
X25343052Y35252860D01*
X25390728Y35190728D01*
X25452860Y35143052D01*
X25525214Y35113082D01*
X25602860Y35102860D01*
X25680505Y35113082D01*
X25752860Y35143052D01*
X25814992Y35190728D01*
X25862667Y35252860D01*
X25892637Y35325214D01*
X25902860Y35402860D01*
X25892637Y35480505D01*
X25862667Y35552860D01*
X25814992Y35614992D01*
X25752860Y35662667D01*
X25290379Y35930099D01*
X25105831Y35761451D01*
G37*
G36*
X24302860Y36497140D02*
X24313082Y36419495D01*
X24343052Y36347140D01*
X24390728Y36285008D01*
X24452860Y36237333D01*
X24915340Y35969901D01*
X25099888Y36138549D01*
X24862667Y36647140D01*
X24814992Y36709272D01*
X24752860Y36756948D01*
X24680505Y36786918D01*
X24602860Y36797140D01*
X24525214Y36786918D01*
X24452860Y36756948D01*
X24390728Y36709272D01*
X24343052Y36647140D01*
X24313082Y36574786D01*
X24302860Y36497140D01*
G37*
G36*
X27750000Y39650000D02*
X27760222Y39572354D01*
X27790192Y39500000D01*
X27837868Y39437868D01*
X27900000Y39390192D01*
X28385876Y39137348D01*
X28562652Y39314124D01*
X28309808Y39800000D01*
X28262132Y39862132D01*
X28200000Y39909808D01*
X28127646Y39939778D01*
X28050000Y39950000D01*
X27972354Y39939778D01*
X27900000Y39909808D01*
X27837868Y39862132D01*
X27790192Y39800000D01*
X27760222Y39727646D01*
X27750000Y39650000D01*
G37*
G36*
X29737348Y37785876D02*
X29990192Y37300000D01*
X30037868Y37237868D01*
X30100000Y37190192D01*
X30172354Y37160222D01*
X30250000Y37150000D01*
X30327646Y37160222D01*
X30400000Y37190192D01*
X30462132Y37237868D01*
X30509808Y37300000D01*
X30539778Y37372354D01*
X30550000Y37450000D01*
X30539778Y37527646D01*
X30509808Y37600000D01*
X30462132Y37662132D01*
X30400000Y37709808D01*
X29914124Y37962652D01*
X29737348Y37785876D01*
G37*
G36*
X25090207Y35738735D02*
X25343052Y35252860D01*
X25390728Y35190728D01*
X25452860Y35143052D01*
X25525214Y35113082D01*
X25602860Y35102860D01*
X25680505Y35113082D01*
X25752860Y35143052D01*
X25814992Y35190728D01*
X25862667Y35252860D01*
X25892637Y35325214D01*
X25902860Y35402860D01*
X25892637Y35480505D01*
X25862667Y35552860D01*
X25814992Y35614992D01*
X25752860Y35662667D01*
X25266984Y35915512D01*
X25090207Y35738735D01*
G37*
G36*
X22550000Y37650000D02*
X22560222Y37572354D01*
X22590192Y37500000D01*
X22637868Y37437868D01*
X22700000Y37390192D01*
X23185876Y37137348D01*
X23362652Y37314124D01*
X23109808Y37800000D01*
X23062132Y37862132D01*
X23000000Y37909808D01*
X22927646Y37939778D01*
X22850000Y37950000D01*
X22772354Y37939778D01*
X22700000Y37909808D01*
X22637868Y37862132D01*
X22590192Y37800000D01*
X22560222Y37727646D01*
X22550000Y37650000D01*
G37*
G36*
X8164618Y25259128D02*
X8354432Y25096430D01*
X8800000Y25373526D01*
X8862132Y25421201D01*
X8909808Y25483333D01*
X8939778Y25555688D01*
X8950000Y25633333D01*
X8939778Y25710979D01*
X8909808Y25783333D01*
X8862132Y25845465D01*
X8800000Y25893141D01*
X8727646Y25923111D01*
X8650000Y25933333D01*
X8572354Y25923111D01*
X8500000Y25893141D01*
X8437868Y25845465D01*
X8390192Y25783333D01*
X8164618Y25259128D01*
G37*
G36*
X7050000Y23800000D02*
X7078963Y23580004D01*
X7163878Y23375000D01*
X7298959Y23198959D01*
X7475000Y23063878D01*
X7680004Y22978963D01*
X7900000Y22950000D01*
X8119996Y22978963D01*
X8325000Y23063878D01*
X8501041Y23198959D01*
X8636122Y23375000D01*
X8721037Y23580004D01*
X8750000Y23800000D01*
X8714907Y24558651D01*
X8525093Y24721349D01*
X7900000Y24650000D01*
X7680004Y24621037D01*
X7475000Y24536122D01*
X7298959Y24401041D01*
X7163878Y24225000D01*
X7078963Y24019996D01*
X7050000Y23800000D01*
G37*
G36*
X26150000Y37825000D02*
X26672354Y37660222D01*
X26750000Y37650000D01*
X26827646Y37660222D01*
X26900000Y37690192D01*
X26962132Y37737868D01*
X27009808Y37800000D01*
X27039778Y37872354D01*
X27050000Y37950000D01*
X27039778Y38027646D01*
X27009808Y38100000D01*
X26962132Y38162132D01*
X26900000Y38209808D01*
X26827646Y38239778D01*
X26750000Y38250000D01*
X26672354Y38239778D01*
X26150000Y38075000D01*
X26150000Y37825000D01*
G37*
G36*
X24450000Y37950000D02*
X24460222Y37872354D01*
X24490192Y37800000D01*
X24537868Y37737868D01*
X24600000Y37690192D01*
X24672354Y37660222D01*
X24750000Y37650000D01*
X24827646Y37660222D01*
X25350000Y37825000D01*
X25350000Y38075000D01*
X24827646Y38239778D01*
X24750000Y38250000D01*
X24672354Y38239778D01*
X24600000Y38209808D01*
X24537868Y38162132D01*
X24490192Y38100000D01*
X24460222Y38027646D01*
X24450000Y37950000D01*
G37*
G36*
X54312348Y16299124D02*
X54489124Y16122348D01*
X54975000Y16375192D01*
X55037132Y16422868D01*
X55084808Y16485000D01*
X55114778Y16557354D01*
X55125000Y16635000D01*
X55114778Y16712646D01*
X55084808Y16785000D01*
X55037132Y16847132D01*
X54975000Y16894808D01*
X54902646Y16924778D01*
X54825000Y16935000D01*
X54747354Y16924778D01*
X54675000Y16894808D01*
X54612868Y16847132D01*
X54565192Y16785000D01*
X54312348Y16299124D01*
G37*
G36*
X51725000Y15435000D02*
X51735222Y15357354D01*
X51765192Y15285000D01*
X51812868Y15222868D01*
X51875000Y15175192D01*
X51947354Y15145222D01*
X52025000Y15135000D01*
X52102646Y15145222D01*
X52625000Y15310000D01*
X52625000Y15560000D01*
X52102646Y15724778D01*
X52025000Y15735000D01*
X51947354Y15724778D01*
X51875000Y15694808D01*
X51812868Y15647132D01*
X51765192Y15585000D01*
X51735222Y15512646D01*
X51725000Y15435000D01*
G37*
G36*
X31700000Y40000000D02*
X31710222Y39922354D01*
X31740192Y39850000D01*
X31787868Y39787868D01*
X31850000Y39740192D01*
X31922354Y39710222D01*
X32000000Y39700000D01*
X32077646Y39710222D01*
X32600000Y39875000D01*
X32600000Y40125000D01*
X32077646Y40289778D01*
X32000000Y40300000D01*
X31922354Y40289778D01*
X31850000Y40259808D01*
X31787868Y40212132D01*
X31740192Y40150000D01*
X31710222Y40077646D01*
X31700000Y40000000D01*
G37*
G36*
X34200000Y39875000D02*
X34722354Y39710222D01*
X34800000Y39700000D01*
X34877646Y39710222D01*
X34950000Y39740192D01*
X35012132Y39787868D01*
X35059808Y39850000D01*
X35089778Y39922354D01*
X35100000Y40000000D01*
X35089778Y40077646D01*
X35059808Y40150000D01*
X35012132Y40212132D01*
X34950000Y40259808D01*
X34877646Y40289778D01*
X34800000Y40300000D01*
X34722354Y40289778D01*
X34200000Y40125000D01*
X34200000Y39875000D01*
G37*
G36*
X54075000Y10895000D02*
X54085222Y10817354D01*
X54115192Y10745000D01*
X54350340Y10282614D01*
X54596939Y10323714D01*
X54664778Y10817354D01*
X54675000Y10895000D01*
X54664778Y10972646D01*
X54634808Y11045000D01*
X54587132Y11107132D01*
X54525000Y11154808D01*
X54452646Y11184778D01*
X54375000Y11195000D01*
X54297354Y11184778D01*
X54225000Y11154808D01*
X54162868Y11107132D01*
X54115192Y11045000D01*
X54085222Y10972646D01*
X54075000Y10895000D01*
G37*
G36*
X54040000Y5500000D02*
X54068963Y5280004D01*
X54153878Y5075000D01*
X54288959Y4898959D01*
X54465000Y4763878D01*
X54670004Y4678963D01*
X54890000Y4650000D01*
X55109996Y4678963D01*
X55315000Y4763878D01*
X55491041Y4898959D01*
X55626122Y5075000D01*
X55711037Y5280004D01*
X55740000Y5500000D01*
X55711037Y5719996D01*
X55626122Y5925000D01*
X55015000Y7200000D01*
X54765000Y7200000D01*
X54153878Y5925000D01*
X54068963Y5719996D01*
X54040000Y5500000D01*
G37*
G36*
X64209530Y13916307D02*
X64386307Y13739530D01*
X65719996Y14208963D01*
X65925000Y14293878D01*
X66101041Y14428959D01*
X66236122Y14605000D01*
X66321037Y14810004D01*
X66350000Y15030000D01*
X66321037Y15249996D01*
X66236122Y15455000D01*
X66101041Y15631041D01*
X65925000Y15766122D01*
X65719996Y15851037D01*
X65500000Y15880000D01*
X65280004Y15851037D01*
X65075000Y15766122D01*
X64898959Y15631041D01*
X64763878Y15455000D01*
X64678963Y15249996D01*
X64209530Y13916307D01*
G37*
G36*
X8190000Y25228333D02*
X8390000Y25078333D01*
X8800000Y25373526D01*
X8862132Y25421201D01*
X8909808Y25483333D01*
X8939778Y25555688D01*
X8950000Y25633333D01*
X8939778Y25710979D01*
X8909808Y25783333D01*
X8862132Y25845465D01*
X8800000Y25893141D01*
X8727646Y25923111D01*
X8650000Y25933333D01*
X8572354Y25923111D01*
X8500000Y25893141D01*
X8437868Y25845465D01*
X8390192Y25783333D01*
X8360222Y25710979D01*
X8190000Y25228333D01*
G37*
G36*
X7050000Y23800000D02*
X7078963Y23580004D01*
X7163878Y23375000D01*
X7298959Y23198959D01*
X7475000Y23063878D01*
X7680004Y22978963D01*
X7900000Y22950000D01*
X8119996Y22978963D01*
X8325000Y23063878D01*
X8501041Y23198959D01*
X8636122Y23375000D01*
X8721037Y23580004D01*
X8750000Y23800000D01*
X8720000Y24685000D01*
X8520000Y24835000D01*
X7680004Y24621037D01*
X7475000Y24536122D01*
X7298959Y24401041D01*
X7163878Y24225000D01*
X7078963Y24019996D01*
X7050000Y23800000D01*
G37*
G36*
X28050000Y36750000D02*
X28060222Y36672354D01*
X28090192Y36600000D01*
X28137868Y36537868D01*
X28200000Y36490192D01*
X28272354Y36460222D01*
X28350000Y36450000D01*
X28427646Y36460222D01*
X28950000Y36625000D01*
X28950000Y36875000D01*
X28427646Y37039778D01*
X28350000Y37050000D01*
X28272354Y37039778D01*
X28200000Y37009808D01*
X28137868Y36962132D01*
X28090192Y36900000D01*
X28060222Y36827646D01*
X28050000Y36750000D01*
G37*
G36*
X30841678Y37420318D02*
X31078849Y37341262D01*
X31409808Y37800000D01*
X31439778Y37872354D01*
X31450000Y37950000D01*
X31439778Y38027646D01*
X31409808Y38100000D01*
X31362132Y38162132D01*
X31300000Y38209808D01*
X31227646Y38239778D01*
X31150000Y38250000D01*
X31072354Y38239778D01*
X31000000Y38209808D01*
X30937868Y38162132D01*
X30890192Y38100000D01*
X30860222Y38027646D01*
X30850000Y37950000D01*
X30841678Y37420318D01*
G37*
G36*
X56500000Y27600000D02*
X56510222Y27522354D01*
X56540192Y27450000D01*
X56587868Y27387868D01*
X56650000Y27340192D01*
X56722354Y27310222D01*
X56800000Y27300000D01*
X56877646Y27310222D01*
X56950000Y27340192D01*
X57012132Y27387868D01*
X57368568Y27828814D01*
X57229893Y28036826D01*
X56722354Y27889778D01*
X56650000Y27859808D01*
X56587868Y27812132D01*
X56540192Y27750000D01*
X56510222Y27677646D01*
X56500000Y27600000D01*
G37*
G36*
X57431432Y28171186D02*
X57570107Y27963174D01*
X58077646Y28110222D01*
X58150000Y28140192D01*
X58212132Y28187868D01*
X58259808Y28250000D01*
X58289778Y28322354D01*
X58300000Y28400000D01*
X58289778Y28477646D01*
X58259808Y28550000D01*
X58212132Y28612132D01*
X58150000Y28659808D01*
X58077646Y28689778D01*
X58000000Y28700000D01*
X57922354Y28689778D01*
X57850000Y28659808D01*
X57787868Y28612132D01*
X57431432Y28171186D01*
G37*
G36*
X59700000Y26400000D02*
X59710222Y26322354D01*
X59740192Y26250000D01*
X59787868Y26187868D01*
X59850000Y26140192D01*
X59922354Y26110222D01*
X60000000Y26100000D01*
X60077646Y26110222D01*
X60150000Y26140192D01*
X60212132Y26187868D01*
X60259808Y26250000D01*
X60289778Y26322354D01*
X60300000Y26400000D01*
X60289778Y26477646D01*
X60125000Y27000000D01*
X59875000Y27000000D01*
X59710222Y26477646D01*
X59700000Y26400000D01*
G37*
G36*
X59700000Y28800000D02*
X59710222Y28722354D01*
X59875000Y28200000D01*
X60125000Y28200000D01*
X60289778Y28722354D01*
X60300000Y28800000D01*
X60289778Y28877646D01*
X60259808Y28950000D01*
X60212132Y29012132D01*
X60150000Y29059808D01*
X60077646Y29089778D01*
X60000000Y29100000D01*
X59922354Y29089778D01*
X59850000Y29059808D01*
X59787868Y29012132D01*
X59740192Y28950000D01*
X59710222Y28877646D01*
X59700000Y28800000D01*
G37*
G36*
X59800000Y36675000D02*
X60322354Y36510222D01*
X60400000Y36500000D01*
X60477646Y36510222D01*
X60550000Y36540192D01*
X60612132Y36587868D01*
X60659808Y36650000D01*
X60689778Y36722354D01*
X60700000Y36800000D01*
X60689778Y36877646D01*
X60659808Y36950000D01*
X60612132Y37012132D01*
X60550000Y37059808D01*
X60477646Y37089778D01*
X60400000Y37100000D01*
X60322354Y37089778D01*
X59800000Y36925000D01*
X59800000Y36675000D01*
G37*
G36*
X58500000Y39600000D02*
X58510222Y39522354D01*
X58675000Y39000000D01*
X58925000Y39000000D01*
X59089778Y39522354D01*
X59100000Y39600000D01*
X59089778Y39677646D01*
X59059808Y39750000D01*
X59012132Y39812132D01*
X58950000Y39859808D01*
X58877646Y39889778D01*
X58800000Y39900000D01*
X58722354Y39889778D01*
X58650000Y39859808D01*
X58587868Y39812132D01*
X58540192Y39750000D01*
X58510222Y39677646D01*
X58500000Y39600000D01*
G37*
G36*
X5100000Y14800000D02*
X5110222Y14722354D01*
X5140192Y14650000D01*
X5187868Y14587868D01*
X5250000Y14540192D01*
X5695568Y14263097D01*
X5885382Y14425795D01*
X5659808Y14950000D01*
X5612132Y15012132D01*
X5550000Y15059808D01*
X5477646Y15089778D01*
X5400000Y15100000D01*
X5322354Y15089778D01*
X5250000Y15059808D01*
X5187868Y15012132D01*
X5140192Y14950000D01*
X5110222Y14877646D01*
X5100000Y14800000D01*
G37*
G36*
X7314618Y12374205D02*
X7540192Y11850000D01*
X7587868Y11787868D01*
X7650000Y11740192D01*
X7722354Y11710222D01*
X7800000Y11700000D01*
X7877646Y11710222D01*
X7950000Y11740192D01*
X8012132Y11787868D01*
X8059808Y11850000D01*
X8089778Y11922354D01*
X8100000Y12000000D01*
X8089778Y12077646D01*
X8059808Y12150000D01*
X8012132Y12212132D01*
X7950000Y12259808D01*
X7504432Y12536903D01*
X7314618Y12374205D01*
G37*
G36*
X55469868Y41330755D02*
X55560222Y40772354D01*
X55590192Y40700000D01*
X55637868Y40637868D01*
X55700000Y40590192D01*
X55772354Y40560222D01*
X55850000Y40550000D01*
X55927646Y40560222D01*
X56000000Y40590192D01*
X56062132Y40637868D01*
X56109808Y40700000D01*
X56139778Y40772354D01*
X56150000Y40850000D01*
X56139778Y40927646D01*
X56109808Y41000000D01*
X56062132Y41062132D01*
X55693475Y41442558D01*
X55469868Y41330755D01*
G37*
G36*
X54750000Y42450000D02*
X54760222Y42372354D01*
X54790192Y42300000D01*
X54837868Y42237868D01*
X55206525Y41857442D01*
X55430132Y41969245D01*
X55339778Y42527646D01*
X55309808Y42600000D01*
X55262132Y42662132D01*
X55200000Y42709808D01*
X55127646Y42739778D01*
X55050000Y42750000D01*
X54972354Y42739778D01*
X54900000Y42709808D01*
X54837868Y42662132D01*
X54790192Y42600000D01*
X54760222Y42527646D01*
X54750000Y42450000D01*
G37*
G36*
X53748443Y43297770D02*
X53930827Y43126785D01*
X54400000Y43390192D01*
X54462132Y43437868D01*
X54509808Y43500000D01*
X54539778Y43572354D01*
X54550000Y43650000D01*
X54539778Y43727646D01*
X54509808Y43800000D01*
X54462132Y43862132D01*
X54400000Y43909808D01*
X54327646Y43939778D01*
X54250000Y43950000D01*
X54172354Y43939778D01*
X54100000Y43909808D01*
X54037868Y43862132D01*
X53990192Y43800000D01*
X53748443Y43297770D01*
G37*
G36*
X47950000Y36450000D02*
X47960222Y36372354D01*
X47990192Y36300000D01*
X48037868Y36237868D01*
X48100000Y36190192D01*
X48172354Y36160222D01*
X48250000Y36150000D01*
X48327646Y36160222D01*
X48400000Y36190192D01*
X48462132Y36237868D01*
X48509808Y36300000D01*
X48539778Y36372354D01*
X48550000Y36450000D01*
X48539778Y36527646D01*
X48375000Y37050000D01*
X48125000Y37050000D01*
X47960222Y36527646D01*
X47950000Y36450000D01*
G37*
G36*
X49150000Y35250000D02*
X49160222Y35172354D01*
X49190192Y35100000D01*
X49237868Y35037868D01*
X49300000Y34990192D01*
X49372354Y34960222D01*
X49930755Y34869868D01*
X50042558Y35093475D01*
X49662132Y35462132D01*
X49600000Y35509808D01*
X49527646Y35539778D01*
X49450000Y35550000D01*
X49372354Y35539778D01*
X49300000Y35509808D01*
X49237868Y35462132D01*
X49190192Y35400000D01*
X49160222Y35327646D01*
X49150000Y35250000D01*
G37*
G36*
X57337348Y22385876D02*
X57590192Y21900000D01*
X57637868Y21837868D01*
X57700000Y21790192D01*
X57772354Y21760222D01*
X57850000Y21750000D01*
X57927646Y21760222D01*
X58000000Y21790192D01*
X58062132Y21837868D01*
X58109808Y21900000D01*
X58139778Y21972354D01*
X58150000Y22050000D01*
X58139778Y22127646D01*
X58109808Y22200000D01*
X58062132Y22262132D01*
X58000000Y22309808D01*
X57514124Y22562652D01*
X57337348Y22385876D01*
G37*
G36*
X61150000Y19650000D02*
X61160222Y19572354D01*
X61190192Y19500000D01*
X61237868Y19437868D01*
X61300000Y19390192D01*
X61372354Y19360222D01*
X61450000Y19350000D01*
X61527646Y19360222D01*
X61600000Y19390192D01*
X61662132Y19437868D01*
X61709808Y19500000D01*
X61739778Y19572354D01*
X61926687Y20035220D01*
X61733198Y20193529D01*
X61300000Y19909808D01*
X61237868Y19862132D01*
X61190192Y19800000D01*
X61160222Y19727646D01*
X61150000Y19650000D01*
G37*
G36*
X64145731Y29234828D02*
X64311709Y29047875D01*
X65719996Y29448963D01*
X65925000Y29533878D01*
X66101041Y29668959D01*
X66236122Y29845000D01*
X66321037Y30050004D01*
X66350000Y30270000D01*
X66321037Y30489996D01*
X66236122Y30695000D01*
X66101041Y30871041D01*
X65925000Y31006122D01*
X65719996Y31091037D01*
X65500000Y31120000D01*
X65280004Y31091037D01*
X65075000Y31006122D01*
X64898959Y30871041D01*
X64763878Y30695000D01*
X64145731Y29234828D01*
G37*
G36*
X51300000Y19200000D02*
X51310222Y19122354D01*
X51475000Y18600000D01*
X51725000Y18600000D01*
X51889778Y19122354D01*
X51900000Y19200000D01*
X51889778Y19277646D01*
X51859808Y19350000D01*
X51812132Y19412132D01*
X51750000Y19459808D01*
X51677646Y19489778D01*
X51600000Y19500000D01*
X51522354Y19489778D01*
X51450000Y19459808D01*
X51387868Y19412132D01*
X51340192Y19350000D01*
X51310222Y19277646D01*
X51300000Y19200000D01*
G37*
G36*
X49850000Y39150000D02*
X49860222Y39072354D01*
X49890192Y39000000D01*
X49937868Y38937868D01*
X50000000Y38890192D01*
X50072354Y38860222D01*
X50150000Y38850000D01*
X50227646Y38860222D01*
X50300000Y38890192D01*
X50362132Y38937868D01*
X50409808Y39000000D01*
X50646096Y39509880D01*
X50461111Y39678048D01*
X50000000Y39409808D01*
X49937868Y39362132D01*
X49890192Y39300000D01*
X49860222Y39227646D01*
X49850000Y39150000D01*
G37*
G36*
X53753904Y43290120D02*
X53938889Y43121952D01*
X54400000Y43390192D01*
X54462132Y43437868D01*
X54509808Y43500000D01*
X54539778Y43572354D01*
X54550000Y43650000D01*
X54539778Y43727646D01*
X54509808Y43800000D01*
X54462132Y43862132D01*
X54400000Y43909808D01*
X54327646Y43939778D01*
X54250000Y43950000D01*
X54172354Y43939778D01*
X54100000Y43909808D01*
X54037868Y43862132D01*
X53990192Y43800000D01*
X53753904Y43290120D01*
G37*
G36*
X54750000Y42450000D02*
X54760222Y42372354D01*
X54790192Y42300000D01*
X54837868Y42237868D01*
X54900000Y42190192D01*
X54972354Y42160222D01*
X55500184Y42034116D01*
X55628808Y42248489D01*
X55262132Y42662132D01*
X55200000Y42709808D01*
X55127646Y42739778D01*
X55050000Y42750000D01*
X54972354Y42739778D01*
X54900000Y42709808D01*
X54837868Y42662132D01*
X54790192Y42600000D01*
X54760222Y42527646D01*
X54750000Y42450000D01*
G37*
G36*
X56771192Y41751511D02*
X57137868Y41337868D01*
X57200000Y41290192D01*
X57272354Y41260222D01*
X57350000Y41250000D01*
X57427646Y41260222D01*
X57500000Y41290192D01*
X57562132Y41337868D01*
X57609808Y41400000D01*
X57639778Y41472354D01*
X57650000Y41550000D01*
X57639778Y41627646D01*
X57609808Y41700000D01*
X57562132Y41762132D01*
X57500000Y41809808D01*
X57427646Y41839778D01*
X56899816Y41965884D01*
X56771192Y41751511D01*
G37*
G36*
X54891678Y21870318D02*
X55128849Y21791262D01*
X55459808Y22250000D01*
X55489778Y22322354D01*
X55500000Y22400000D01*
X55489778Y22477646D01*
X55459808Y22550000D01*
X55412132Y22612132D01*
X55350000Y22659808D01*
X55277646Y22689778D01*
X55200000Y22700000D01*
X55122354Y22689778D01*
X55050000Y22659808D01*
X54987868Y22612132D01*
X54940192Y22550000D01*
X54910222Y22477646D01*
X54900000Y22400000D01*
X54891678Y21870318D01*
G37*
G36*
X54500000Y21200000D02*
X54510222Y21122354D01*
X54540192Y21050000D01*
X54587868Y20987868D01*
X54650000Y20940192D01*
X54722354Y20910222D01*
X54800000Y20900000D01*
X54877646Y20910222D01*
X54950000Y20940192D01*
X55012132Y20987868D01*
X55059808Y21050000D01*
X55089778Y21122354D01*
X55100000Y21200000D01*
X55108322Y21729682D01*
X54871151Y21808738D01*
X54540192Y21350000D01*
X54510222Y21277646D01*
X54500000Y21200000D01*
G37*
G36*
X36450000Y37250000D02*
X36460222Y37172354D01*
X36490192Y37100000D01*
X36537868Y37037868D01*
X36600000Y36990192D01*
X36672354Y36960222D01*
X36750000Y36950000D01*
X36827646Y36960222D01*
X37350000Y37125000D01*
X37350000Y37375000D01*
X36827646Y37539778D01*
X36750000Y37550000D01*
X36672354Y37539778D01*
X36600000Y37509808D01*
X36537868Y37462132D01*
X36490192Y37400000D01*
X36460222Y37327646D01*
X36450000Y37250000D01*
G37*
G36*
X38850000Y35250000D02*
X38860222Y35172354D01*
X38890192Y35100000D01*
X38937868Y35037868D01*
X39000000Y34990192D01*
X39072354Y34960222D01*
X39150000Y34950000D01*
X39227646Y34960222D01*
X39300000Y34990192D01*
X39362132Y35037868D01*
X39409808Y35100000D01*
X39439778Y35172354D01*
X39450000Y35250000D01*
X39439778Y35327646D01*
X39275000Y35850000D01*
X39025000Y35850000D01*
X38860222Y35327646D01*
X38850000Y35250000D01*
G37*
G36*
X29337348Y38285876D02*
X29590192Y37800000D01*
X29637868Y37737868D01*
X29700000Y37690192D01*
X29772354Y37660222D01*
X29850000Y37650000D01*
X29927646Y37660222D01*
X30000000Y37690192D01*
X30062132Y37737868D01*
X30109808Y37800000D01*
X30139778Y37872354D01*
X30150000Y37950000D01*
X30139778Y38027646D01*
X30109808Y38100000D01*
X30062132Y38162132D01*
X30000000Y38209808D01*
X29514124Y38462652D01*
X29337348Y38285876D01*
G37*
G36*
X27750000Y39650000D02*
X27760222Y39572354D01*
X27790192Y39500000D01*
X27837868Y39437868D01*
X27900000Y39390192D01*
X28385876Y39137348D01*
X28562652Y39314124D01*
X28309808Y39800000D01*
X28262132Y39862132D01*
X28200000Y39909808D01*
X28127646Y39939778D01*
X28050000Y39950000D01*
X27972354Y39939778D01*
X27900000Y39909808D01*
X27837868Y39862132D01*
X27790192Y39800000D01*
X27760222Y39727646D01*
X27750000Y39650000D01*
G37*
G36*
X29550000Y41950000D02*
X29560222Y41872354D01*
X29590192Y41800000D01*
X29637868Y41737868D01*
X29700000Y41690192D01*
X29772354Y41660222D01*
X29850000Y41650000D01*
X29927646Y41660222D01*
X30450000Y41825000D01*
X30450000Y42075000D01*
X29927646Y42239778D01*
X29850000Y42250000D01*
X29772354Y42239778D01*
X29700000Y42209808D01*
X29637868Y42162132D01*
X29590192Y42100000D01*
X29560222Y42027646D01*
X29550000Y41950000D01*
G37*
G36*
X32850000Y41825000D02*
X33372354Y41660222D01*
X33450000Y41650000D01*
X33527646Y41660222D01*
X33600000Y41690192D01*
X33662132Y41737868D01*
X33709808Y41800000D01*
X33739778Y41872354D01*
X33750000Y41950000D01*
X33739778Y42027646D01*
X33709808Y42100000D01*
X33662132Y42162132D01*
X33600000Y42209808D01*
X33527646Y42239778D01*
X33450000Y42250000D01*
X33372354Y42239778D01*
X32850000Y42075000D01*
X32850000Y41825000D01*
G37*
G36*
X34350000Y42750000D02*
X34360222Y42672354D01*
X34390192Y42600000D01*
X34437868Y42537868D01*
X34500000Y42490192D01*
X34572354Y42460222D01*
X35100184Y42334116D01*
X35228808Y42548489D01*
X34862132Y42962132D01*
X34800000Y43009808D01*
X34727646Y43039778D01*
X34650000Y43050000D01*
X34572354Y43039778D01*
X34500000Y43009808D01*
X34437868Y42962132D01*
X34390192Y42900000D01*
X34360222Y42827646D01*
X34350000Y42750000D01*
G37*
G36*
X36350000Y37950000D02*
X36360222Y37872354D01*
X36390192Y37800000D01*
X36437868Y37737868D01*
X36500000Y37690192D01*
X36572354Y37660222D01*
X36650000Y37650000D01*
X36727646Y37660222D01*
X36800000Y37690192D01*
X36862132Y37737868D01*
X36909808Y37800000D01*
X36939778Y37872354D01*
X36950000Y37950000D01*
X36939778Y38027646D01*
X36775000Y38550000D01*
X36525000Y38550000D01*
X36360222Y38027646D01*
X36350000Y37950000D01*
G37*
G36*
X32750000Y28450000D02*
X32760222Y28372354D01*
X32925000Y27850000D01*
X33175000Y27850000D01*
X33339778Y28372354D01*
X33350000Y28450000D01*
X33339778Y28527646D01*
X33309808Y28600000D01*
X33262132Y28662132D01*
X33200000Y28709808D01*
X33127646Y28739778D01*
X33050000Y28750000D01*
X32972354Y28739778D01*
X32900000Y28709808D01*
X32837868Y28662132D01*
X32790192Y28600000D01*
X32760222Y28527646D01*
X32750000Y28450000D01*
G37*
G36*
X32750000Y23250000D02*
X32760222Y23172354D01*
X32790192Y23100000D01*
X32837868Y23037868D01*
X32900000Y22990192D01*
X32972354Y22960222D01*
X33050000Y22950000D01*
X33127646Y22960222D01*
X33200000Y22990192D01*
X33262132Y23037868D01*
X33309808Y23100000D01*
X33339778Y23172354D01*
X33350000Y23250000D01*
X33339778Y23327646D01*
X33175000Y23850000D01*
X32925000Y23850000D01*
X32760222Y23327646D01*
X32750000Y23250000D01*
G37*
G36*
X48500000Y30000000D02*
X48510222Y29922354D01*
X48675000Y29400000D01*
X48925000Y29400000D01*
X49089778Y29922354D01*
X49100000Y30000000D01*
X49089778Y30077646D01*
X49059808Y30150000D01*
X49012132Y30212132D01*
X48950000Y30259808D01*
X48877646Y30289778D01*
X48800000Y30300000D01*
X48722354Y30289778D01*
X48650000Y30259808D01*
X48587868Y30212132D01*
X48540192Y30150000D01*
X48510222Y30077646D01*
X48500000Y30000000D01*
G37*
G36*
X48500000Y28400000D02*
X48510222Y28322354D01*
X48540192Y28250000D01*
X48587868Y28187868D01*
X48650000Y28140192D01*
X48722354Y28110222D01*
X48800000Y28100000D01*
X48877646Y28110222D01*
X48950000Y28140192D01*
X49012132Y28187868D01*
X49059808Y28250000D01*
X49089778Y28322354D01*
X49100000Y28400000D01*
X49089778Y28477646D01*
X48925000Y29000000D01*
X48675000Y29000000D01*
X48510222Y28477646D01*
X48500000Y28400000D01*
G37*
G36*
X24000000Y18350000D02*
X24010222Y18272354D01*
X24040192Y18200000D01*
X24087868Y18137868D01*
X24150000Y18090192D01*
X24222354Y18060222D01*
X24300000Y18050000D01*
X24829682Y18041678D01*
X24908738Y18278849D01*
X24450000Y18609808D01*
X24377646Y18639778D01*
X24300000Y18650000D01*
X24222354Y18639778D01*
X24150000Y18609808D01*
X24087868Y18562132D01*
X24040192Y18500000D01*
X24010222Y18427646D01*
X24000000Y18350000D01*
G37*
G36*
X26091262Y17621151D02*
X26550000Y17290192D01*
X26622354Y17260222D01*
X26700000Y17250000D01*
X26777646Y17260222D01*
X26850000Y17290192D01*
X26912132Y17337868D01*
X26959808Y17400000D01*
X26989778Y17472354D01*
X27000000Y17550000D01*
X26989778Y17627646D01*
X26959808Y17700000D01*
X26912132Y17762132D01*
X26850000Y17809808D01*
X26777646Y17839778D01*
X26700000Y17850000D01*
X26170318Y17858322D01*
X26091262Y17621151D01*
G37*
G36*
X22089129Y12500386D02*
X22550000Y12290192D01*
X22622354Y12260222D01*
X22700000Y12250000D01*
X22777646Y12260222D01*
X22850000Y12290192D01*
X22912132Y12337868D01*
X22959808Y12400000D01*
X22989778Y12472354D01*
X23000000Y12550000D01*
X22989778Y12627646D01*
X22959808Y12700000D01*
X22912132Y12762132D01*
X22850000Y12809808D01*
X22777646Y12839778D01*
X22700000Y12850000D01*
X22622354Y12839778D01*
X22120138Y12748456D01*
X22089129Y12500386D01*
G37*
G36*
X19200000Y12950000D02*
X19210222Y12872354D01*
X19240192Y12800000D01*
X19287868Y12737868D01*
X19350000Y12690192D01*
X19422354Y12660222D01*
X19500000Y12650000D01*
X19577646Y12660222D01*
X20079862Y12751544D01*
X20110871Y12999614D01*
X19650000Y13209808D01*
X19577646Y13239778D01*
X19500000Y13250000D01*
X19422354Y13239778D01*
X19350000Y13209808D01*
X19287868Y13162132D01*
X19240192Y13100000D01*
X19210222Y13027646D01*
X19200000Y12950000D01*
G37*
G36*
X24700000Y25600000D02*
X24710222Y25522354D01*
X24740192Y25450000D01*
X24787868Y25387868D01*
X24850000Y25340192D01*
X25335876Y25087348D01*
X25512652Y25264124D01*
X25259808Y25750000D01*
X25212132Y25812132D01*
X25150000Y25859808D01*
X25077646Y25889778D01*
X25000000Y25900000D01*
X24922354Y25889778D01*
X24850000Y25859808D01*
X24787868Y25812132D01*
X24740192Y25750000D01*
X24710222Y25677646D01*
X24700000Y25600000D01*
G37*
G36*
X29600000Y24675000D02*
X30122354Y24510222D01*
X30200000Y24500000D01*
X30277646Y24510222D01*
X30350000Y24540192D01*
X30412132Y24587868D01*
X30459808Y24650000D01*
X30489778Y24722354D01*
X30500000Y24800000D01*
X30489778Y24877646D01*
X30459808Y24950000D01*
X30412132Y25012132D01*
X30350000Y25059808D01*
X30277646Y25089778D01*
X30200000Y25100000D01*
X30122354Y25089778D01*
X29600000Y24925000D01*
X29600000Y24675000D01*
G37*
G36*
X44900000Y28500000D02*
X44910222Y28422354D01*
X44940192Y28350000D01*
X44987868Y28287868D01*
X45050000Y28240192D01*
X45122354Y28210222D01*
X45200000Y28200000D01*
X45277646Y28210222D01*
X45800000Y28375000D01*
X45800000Y28625000D01*
X45277646Y28789778D01*
X45200000Y28800000D01*
X45122354Y28789778D01*
X45050000Y28759808D01*
X44987868Y28712132D01*
X44940192Y28650000D01*
X44910222Y28577646D01*
X44900000Y28500000D01*
G37*
G36*
X46600000Y28375000D02*
X47122354Y28210222D01*
X47200000Y28200000D01*
X47277646Y28210222D01*
X47350000Y28240192D01*
X47412132Y28287868D01*
X47459808Y28350000D01*
X47489778Y28422354D01*
X47500000Y28500000D01*
X47489778Y28577646D01*
X47459808Y28650000D01*
X47412132Y28712132D01*
X47350000Y28759808D01*
X47277646Y28789778D01*
X47200000Y28800000D01*
X47122354Y28789778D01*
X46600000Y28625000D01*
X46600000Y28375000D01*
G37*
G36*
X24401612Y34178388D02*
X24578388Y34001612D01*
X25000000Y34190192D01*
X25062132Y34237868D01*
X25109808Y34300000D01*
X25139778Y34372354D01*
X25150000Y34450000D01*
X25139778Y34527646D01*
X25109808Y34600000D01*
X25062132Y34662132D01*
X25000000Y34709808D01*
X24927646Y34739778D01*
X24850000Y34750000D01*
X24772354Y34739778D01*
X24700000Y34709808D01*
X24637868Y34662132D01*
X24590192Y34600000D01*
X24401612Y34178388D01*
G37*
G36*
X24737348Y32785876D02*
X24990192Y32300000D01*
X25037868Y32237868D01*
X25100000Y32190192D01*
X25172354Y32160222D01*
X25250000Y32150000D01*
X25327646Y32160222D01*
X25400000Y32190192D01*
X25462132Y32237868D01*
X25509808Y32300000D01*
X25539778Y32372354D01*
X25550000Y32450000D01*
X25539778Y32527646D01*
X25509808Y32600000D01*
X25462132Y32662132D01*
X25400000Y32709808D01*
X24914124Y32962652D01*
X24737348Y32785876D01*
G37*
G36*
X28050000Y36750000D02*
X28060222Y36672354D01*
X28090192Y36600000D01*
X28137868Y36537868D01*
X28200000Y36490192D01*
X28272354Y36460222D01*
X28740434Y36277574D01*
X28896608Y36472792D01*
X28609808Y36900000D01*
X28562132Y36962132D01*
X28500000Y37009808D01*
X28427646Y37039778D01*
X28350000Y37050000D01*
X28272354Y37039778D01*
X28200000Y37009808D01*
X28137868Y36962132D01*
X28090192Y36900000D01*
X28060222Y36827646D01*
X28050000Y36750000D01*
G37*
G36*
X7050000Y23800000D02*
X7062915Y23362121D01*
X7207085Y23157879D01*
X7680004Y22978963D01*
X7900000Y22950000D01*
X8119996Y22978963D01*
X8325000Y23063878D01*
X8501041Y23198959D01*
X8636122Y23375000D01*
X8721037Y23580004D01*
X8750000Y23800000D01*
X8721037Y24019996D01*
X8636122Y24225000D01*
X8501041Y24401041D01*
X8325000Y24536122D01*
X8119996Y24621037D01*
X7900000Y24650000D01*
X7680004Y24621037D01*
X7475000Y24536122D01*
X7298959Y24401041D01*
X7163878Y24225000D01*
X7078963Y24019996D01*
X7050000Y23800000D01*
G37*
G36*
X6700000Y24100000D02*
X6710222Y24022354D01*
X6740192Y23950000D01*
X6787868Y23887868D01*
X6850000Y23840192D01*
X6922354Y23810222D01*
X7000000Y23800000D01*
X7077646Y23810222D01*
X7150000Y23840192D01*
X7212132Y23887868D01*
X7562266Y24343889D01*
X7418095Y24548131D01*
X6922354Y24389778D01*
X6850000Y24359808D01*
X6787868Y24312132D01*
X6740192Y24250000D01*
X6710222Y24177646D01*
X6700000Y24100000D01*
G37*
G36*
X54075000Y10895000D02*
X54085222Y10817354D01*
X54115192Y10745000D01*
X54162868Y10682868D01*
X54225000Y10635192D01*
X54297354Y10605222D01*
X54375000Y10595000D01*
X54452646Y10605222D01*
X54525000Y10635192D01*
X54587132Y10682868D01*
X54787481Y10868149D01*
X54727519Y11110851D01*
X54452646Y11184778D01*
X54375000Y11195000D01*
X54297354Y11184778D01*
X54225000Y11154808D01*
X54162868Y11107132D01*
X54115192Y11045000D01*
X54085222Y10972646D01*
X54075000Y10895000D01*
G37*
G36*
X25302860Y35402860D02*
X25313082Y35325214D01*
X25343052Y35252860D01*
X25390728Y35190728D01*
X25452860Y35143052D01*
X25525214Y35113082D01*
X25602860Y35102860D01*
X25680505Y35113082D01*
X25752860Y35143052D01*
X25814992Y35190728D01*
X25862667Y35252860D01*
X25970270Y35425869D01*
X25870850Y35655250D01*
X25680505Y35692637D01*
X25602860Y35702860D01*
X25525214Y35692637D01*
X25452860Y35662667D01*
X25390728Y35614992D01*
X25343052Y35552860D01*
X25313082Y35480505D01*
X25302860Y35402860D01*
G37*
G36*
X25235450Y35379850D02*
X25334870Y35150469D01*
X25525214Y35113082D01*
X25602860Y35102860D01*
X25680505Y35113082D01*
X25752860Y35143052D01*
X25814992Y35190728D01*
X25862667Y35252860D01*
X25892637Y35325214D01*
X25902860Y35402860D01*
X25892637Y35480505D01*
X25862667Y35552860D01*
X25814992Y35614992D01*
X25752860Y35662667D01*
X25680505Y35692637D01*
X25602860Y35702860D01*
X25525214Y35692637D01*
X25452860Y35662667D01*
X25390728Y35614992D01*
X25343052Y35552860D01*
X25235450Y35379850D01*
G37*
G36*
X24911254Y30566324D02*
X25054156Y30066288D01*
X25084126Y29993934D01*
X25131802Y29931802D01*
X25193934Y29884126D01*
X25266288Y29854156D01*
X25343934Y29843934D01*
X25421580Y29854156D01*
X25493934Y29884126D01*
X25556066Y29931802D01*
X25603742Y29993934D01*
X25633712Y30066288D01*
X25643934Y30143934D01*
X25633712Y30221580D01*
X25603742Y30293934D01*
X25556066Y30356066D01*
X25493934Y30403742D01*
X25028540Y30659833D01*
X24911254Y30566324D01*
G37*
G36*
X22872703Y38578769D02*
X22978769Y38472703D01*
X23500000Y38690192D01*
X23562132Y38737868D01*
X23609808Y38800000D01*
X23639778Y38872354D01*
X23650000Y38950000D01*
X23639778Y39027646D01*
X23609808Y39100000D01*
X23562132Y39162132D01*
X23500000Y39209808D01*
X23427646Y39239778D01*
X23350000Y39250000D01*
X23272354Y39239778D01*
X23200000Y39209808D01*
X23137868Y39162132D01*
X23090192Y39100000D01*
X22872703Y38578769D01*
G37*
G36*
X29350000Y42700000D02*
X29360222Y42622354D01*
X29390192Y42550000D01*
X29437868Y42487868D01*
X29500000Y42440192D01*
X29572354Y42410222D01*
X29650000Y42400000D01*
X29727646Y42410222D01*
X30245976Y42597833D01*
X30252787Y42747678D01*
X29800000Y42959808D01*
X29727646Y42989778D01*
X29650000Y43000000D01*
X29572354Y42989778D01*
X29500000Y42959808D01*
X29437868Y42912132D01*
X29390192Y42850000D01*
X29360222Y42777646D01*
X29350000Y42700000D01*
G37*
G36*
X32347213Y42502322D02*
X32800000Y42290192D01*
X32872354Y42260222D01*
X32950000Y42250000D01*
X33027646Y42260222D01*
X33100000Y42290192D01*
X33162132Y42337868D01*
X33209808Y42400000D01*
X33239778Y42472354D01*
X33250000Y42550000D01*
X33239778Y42627646D01*
X33209808Y42700000D01*
X33162132Y42762132D01*
X33100000Y42809808D01*
X33027646Y42839778D01*
X32950000Y42850000D01*
X32872354Y42839778D01*
X32354024Y42652167D01*
X32347213Y42502322D01*
G37*
G36*
X33550000Y43450000D02*
X33560222Y43372354D01*
X33590192Y43300000D01*
X33637868Y43237868D01*
X33700000Y43190192D01*
X33772354Y43160222D01*
X33850000Y43150000D01*
X33927646Y43160222D01*
X34441003Y43322171D01*
X34454284Y43471582D01*
X34000000Y43709808D01*
X33927646Y43739778D01*
X33850000Y43750000D01*
X33772354Y43739778D01*
X33700000Y43709808D01*
X33637868Y43662132D01*
X33590192Y43600000D01*
X33560222Y43527646D01*
X33550000Y43450000D01*
G37*
G36*
X51672703Y42778769D02*
X51778769Y42672703D01*
X52300000Y42890192D01*
X52362132Y42937868D01*
X52409808Y43000000D01*
X52439778Y43072354D01*
X52450000Y43150000D01*
X52439778Y43227646D01*
X52409808Y43300000D01*
X52362132Y43362132D01*
X52300000Y43409808D01*
X52227646Y43439778D01*
X52150000Y43450000D01*
X52072354Y43439778D01*
X52000000Y43409808D01*
X51937868Y43362132D01*
X51890192Y43300000D01*
X51672703Y42778769D01*
G37*
G36*
X56550000Y44550000D02*
X56560222Y44472354D01*
X56590192Y44400000D01*
X56637868Y44337868D01*
X56700000Y44290192D01*
X57221231Y44072703D01*
X57327297Y44178769D01*
X57109808Y44700000D01*
X57062132Y44762132D01*
X57000000Y44809808D01*
X56927646Y44839778D01*
X56850000Y44850000D01*
X56772354Y44839778D01*
X56700000Y44809808D01*
X56637868Y44762132D01*
X56590192Y44700000D01*
X56560222Y44627646D01*
X56550000Y44550000D01*
G37*
G36*
X61650000Y42975000D02*
X62172354Y42760222D01*
X62250000Y42750000D01*
X62327646Y42760222D01*
X62400000Y42790192D01*
X62462132Y42837868D01*
X62509808Y42900000D01*
X62539778Y42972354D01*
X62550000Y43050000D01*
X62539778Y43127646D01*
X62509808Y43200000D01*
X62462132Y43262132D01*
X62400000Y43309808D01*
X62327646Y43339778D01*
X62250000Y43350000D01*
X62172354Y43339778D01*
X61650000Y43125000D01*
X61650000Y42975000D01*
G37*
G36*
X63976991Y38074091D02*
X64105615Y37996917D01*
X64500000Y38290192D01*
X64562132Y38337868D01*
X64609808Y38400000D01*
X64639778Y38472354D01*
X64650000Y38550000D01*
X64639778Y38627646D01*
X64609808Y38700000D01*
X64562132Y38762132D01*
X64500000Y38809808D01*
X64427646Y38839778D01*
X64350000Y38850000D01*
X64272354Y38839778D01*
X64200000Y38809808D01*
X64137868Y38762132D01*
X64090192Y38700000D01*
X64060222Y38627646D01*
X63976991Y38074091D01*
G37*
G36*
X62250000Y35550000D02*
X62260222Y35472354D01*
X62290192Y35400000D01*
X62337868Y35337868D01*
X62400000Y35290192D01*
X62472354Y35260222D01*
X62550000Y35250000D01*
X62627646Y35260222D01*
X62700000Y35290192D01*
X62762132Y35337868D01*
X62809808Y35400000D01*
X62839778Y35472354D01*
X62923009Y36025909D01*
X62794385Y36103083D01*
X62400000Y35809808D01*
X62337868Y35762132D01*
X62290192Y35700000D01*
X62260222Y35627646D01*
X62250000Y35550000D01*
G37*
G36*
X62250000Y31050000D02*
X62260222Y30972354D01*
X62290192Y30900000D01*
X62337868Y30837868D01*
X62751246Y30479803D01*
X62885410Y30546885D01*
X62850000Y31050000D01*
X62839778Y31127646D01*
X62809808Y31200000D01*
X62762132Y31262132D01*
X62700000Y31309808D01*
X62627646Y31339778D01*
X62550000Y31350000D01*
X62472354Y31339778D01*
X62400000Y31309808D01*
X62337868Y31262132D01*
X62290192Y31200000D01*
X62260222Y31127646D01*
X62250000Y31050000D01*
G37*
G36*
X62550000Y25650000D02*
X62560222Y25572354D01*
X62590192Y25500000D01*
X62637868Y25437868D01*
X62700000Y25390192D01*
X62772354Y25360222D01*
X62850000Y25350000D01*
X62927646Y25360222D01*
X63000000Y25390192D01*
X63062132Y25437868D01*
X63109808Y25500000D01*
X63139778Y25572354D01*
X63150000Y25650000D01*
X63139778Y25727646D01*
X62925000Y26250000D01*
X62775000Y26250000D01*
X62560222Y25727646D01*
X62550000Y25650000D01*
G37*
G36*
X61876991Y21574091D02*
X62005615Y21496917D01*
X62400000Y21790192D01*
X62462132Y21837868D01*
X62509808Y21900000D01*
X62539778Y21972354D01*
X62550000Y22050000D01*
X62539778Y22127646D01*
X62509808Y22200000D01*
X62462132Y22262132D01*
X62400000Y22309808D01*
X62327646Y22339778D01*
X62250000Y22350000D01*
X62172354Y22339778D01*
X62100000Y22309808D01*
X62037868Y22262132D01*
X61990192Y22200000D01*
X61960222Y22127646D01*
X61876991Y21574091D01*
G37*
G36*
X60150000Y19050000D02*
X60160222Y18972354D01*
X60190192Y18900000D01*
X60237868Y18837868D01*
X60300000Y18790192D01*
X60372354Y18760222D01*
X60450000Y18750000D01*
X60527646Y18760222D01*
X60600000Y18790192D01*
X60662132Y18837868D01*
X60709808Y18900000D01*
X60739778Y18972354D01*
X60823009Y19525909D01*
X60694385Y19603083D01*
X60300000Y19309808D01*
X60237868Y19262132D01*
X60190192Y19200000D01*
X60160222Y19127646D01*
X60150000Y19050000D01*
G37*
G36*
X57230343Y16640837D02*
X57322434Y16522434D01*
X57827646Y16660222D01*
X57900000Y16690192D01*
X57962132Y16737868D01*
X58009808Y16800000D01*
X58039778Y16872354D01*
X58050000Y16950000D01*
X58039778Y17027646D01*
X58009808Y17100000D01*
X57962132Y17162132D01*
X57900000Y17209808D01*
X57827646Y17239778D01*
X57750000Y17250000D01*
X57672354Y17239778D01*
X57600000Y17209808D01*
X57537868Y17162132D01*
X57490192Y17100000D01*
X57230343Y16640837D01*
G37*
G36*
X54750000Y14850000D02*
X54760222Y14772354D01*
X54790192Y14700000D01*
X54837868Y14637868D01*
X54900000Y14590192D01*
X54972354Y14560222D01*
X55050000Y14550000D01*
X55127646Y14560222D01*
X55200000Y14590192D01*
X55262132Y14637868D01*
X55309808Y14700000D01*
X55569657Y15159163D01*
X55477566Y15277566D01*
X54972354Y15139778D01*
X54900000Y15109808D01*
X54837868Y15062132D01*
X54790192Y15000000D01*
X54760222Y14927646D01*
X54750000Y14850000D01*
G37*
G36*
X53550000Y17175000D02*
X54072354Y16960222D01*
X54150000Y16950000D01*
X54227646Y16960222D01*
X54300000Y16990192D01*
X54362132Y17037868D01*
X54409808Y17100000D01*
X54439778Y17172354D01*
X54450000Y17250000D01*
X54439778Y17327646D01*
X54409808Y17400000D01*
X54362132Y17462132D01*
X54300000Y17509808D01*
X54227646Y17539778D01*
X54150000Y17550000D01*
X54072354Y17539778D01*
X53550000Y17325000D01*
X53550000Y17175000D01*
G37*
G36*
X52350000Y17250000D02*
X52360222Y17172354D01*
X52390192Y17100000D01*
X52437868Y17037868D01*
X52500000Y16990192D01*
X52572354Y16960222D01*
X52650000Y16950000D01*
X52727646Y16960222D01*
X53250000Y17175000D01*
X53250000Y17325000D01*
X52727646Y17539778D01*
X52650000Y17550000D01*
X52572354Y17539778D01*
X52500000Y17509808D01*
X52437868Y17462132D01*
X52390192Y17400000D01*
X52360222Y17327646D01*
X52350000Y17250000D01*
G37*
G36*
X31253033Y34653033D02*
X31263255Y34575387D01*
X31293225Y34503033D01*
X31605399Y34050635D01*
X31752070Y34082061D01*
X31842811Y34575387D01*
X31853033Y34653033D01*
X31842811Y34730679D01*
X31812841Y34803033D01*
X31765165Y34865165D01*
X31703033Y34912841D01*
X31630679Y34942811D01*
X31553033Y34953033D01*
X31475387Y34942811D01*
X31403033Y34912841D01*
X31340901Y34865165D01*
X31293225Y34803033D01*
X31263255Y34730679D01*
X31253033Y34653033D01*
G37*
G36*
X34900380Y28748389D02*
X35193225Y28353033D01*
X35240901Y28290901D01*
X35303033Y28243225D01*
X35375387Y28213255D01*
X35453033Y28203033D01*
X35530679Y28213255D01*
X35603033Y28243225D01*
X35665165Y28290901D01*
X35712841Y28353033D01*
X35742811Y28425387D01*
X35753033Y28503033D01*
X35742811Y28580679D01*
X35712841Y28653033D01*
X35665165Y28715165D01*
X35603033Y28762841D01*
X35530679Y28792811D01*
X34977780Y28876878D01*
X34900380Y28748389D01*
G37*
G36*
X34350000Y27700000D02*
X34360222Y27622354D01*
X34390192Y27550000D01*
X34578387Y27099586D01*
X34728385Y27100433D01*
X34939778Y27622354D01*
X34950000Y27700000D01*
X34939778Y27777646D01*
X34909808Y27850000D01*
X34862132Y27912132D01*
X34800000Y27959808D01*
X34727646Y27989778D01*
X34650000Y28000000D01*
X34572354Y27989778D01*
X34500000Y27959808D01*
X34437868Y27912132D01*
X34390192Y27850000D01*
X34360222Y27777646D01*
X34350000Y27700000D01*
G37*
G36*
X34385355Y21435355D02*
X34395578Y21357710D01*
X34425548Y21285355D01*
X34473223Y21223223D01*
X34535355Y21175548D01*
X34607710Y21145578D01*
X34685355Y21135355D01*
X34763001Y21145578D01*
X34835355Y21175548D01*
X34897487Y21223223D01*
X34945163Y21285355D01*
X34975133Y21357710D01*
X34985355Y21435355D01*
X34975133Y21513001D01*
X34945163Y21585355D01*
X34756968Y22035769D01*
X34606970Y22034923D01*
X34395578Y21513001D01*
X34385355Y21435355D01*
G37*
G36*
X31464050Y17244564D02*
X31914645Y17054837D01*
X31986999Y17024867D01*
X32064645Y17014645D01*
X32142290Y17024867D01*
X32214645Y17054837D01*
X32276777Y17102513D01*
X32324452Y17164645D01*
X32354422Y17236999D01*
X32364645Y17314645D01*
X32354422Y17392290D01*
X32324452Y17464645D01*
X32276777Y17526777D01*
X32214645Y17574452D01*
X32142290Y17604422D01*
X32064645Y17614645D01*
X31986999Y17604422D01*
X31465279Y17394559D01*
X31464050Y17244564D01*
G37*
G36*
X24950000Y19900000D02*
X24960222Y19822354D01*
X24990192Y19750000D01*
X25037868Y19687868D01*
X25100000Y19640192D01*
X25616487Y19419051D01*
X25723598Y19524062D01*
X25539778Y19977646D01*
X25509808Y20050000D01*
X25462132Y20112132D01*
X25400000Y20159808D01*
X25327646Y20189778D01*
X25250000Y20200000D01*
X25172354Y20189778D01*
X25100000Y20159808D01*
X25037868Y20112132D01*
X24990192Y20050000D01*
X24960222Y19977646D01*
X24950000Y19900000D01*
G37*
G36*
X23713614Y20352433D02*
X23767981Y20212632D01*
X24300000Y20200000D01*
X24377646Y20210222D01*
X24450000Y20240192D01*
X24512132Y20287868D01*
X24559808Y20350000D01*
X24589778Y20422354D01*
X24600000Y20500000D01*
X24589778Y20577646D01*
X24559808Y20650000D01*
X24512132Y20712132D01*
X24450000Y20759808D01*
X24377646Y20789778D01*
X24300000Y20800000D01*
X24222354Y20789778D01*
X24150000Y20759808D01*
X24087868Y20712132D01*
X23713614Y20352433D01*
G37*
G36*
X21300000Y19450000D02*
X21310222Y19372354D01*
X21340192Y19300000D01*
X21387868Y19237868D01*
X21450000Y19190192D01*
X21522354Y19160222D01*
X21600000Y19150000D01*
X21677646Y19160222D01*
X21750000Y19190192D01*
X21812132Y19237868D01*
X22186386Y19597567D01*
X22132019Y19737368D01*
X21600000Y19750000D01*
X21522354Y19739778D01*
X21450000Y19709808D01*
X21387868Y19662132D01*
X21340192Y19600000D01*
X21310222Y19527646D01*
X21300000Y19450000D01*
G37*
G36*
X19400000Y18175000D02*
X19922354Y17960222D01*
X20000000Y17950000D01*
X20077646Y17960222D01*
X20150000Y17990192D01*
X20212132Y18037868D01*
X20259808Y18100000D01*
X20289778Y18172354D01*
X20300000Y18250000D01*
X20289778Y18327646D01*
X20259808Y18400000D01*
X20212132Y18462132D01*
X20150000Y18509808D01*
X20077646Y18539778D01*
X20000000Y18550000D01*
X19922354Y18539778D01*
X19400000Y18325000D01*
X19400000Y18175000D01*
G37*
G36*
X18200000Y18250000D02*
X18210222Y18172354D01*
X18240192Y18100000D01*
X18287868Y18037868D01*
X18350000Y17990192D01*
X18422354Y17960222D01*
X18500000Y17950000D01*
X18577646Y17960222D01*
X19100000Y18175000D01*
X19100000Y18325000D01*
X18577646Y18539778D01*
X18500000Y18550000D01*
X18422354Y18539778D01*
X18350000Y18509808D01*
X18287868Y18462132D01*
X18240192Y18400000D01*
X18210222Y18327646D01*
X18200000Y18250000D01*
G37*
M02*
