M48
;Generated by vcad-ecad-export
;FORMAT={-:-/ absolute / metric / decimal}
FMAT,2
METRIC,TZ
T01C0.3000
T02C1.0000
%
G90
G05
T01
X24.0000Y9.6500
X24.0000Y11.6500
X32.7500Y48.2000
X34.5500Y46.4000
X8.4500Y28.8000
X13.7500Y24.3000
X8.4500Y27.0000
X3.4500Y21.4000
X7.4500Y29.6000
X9.9561Y28.2939
X10.4500Y31.7000
X5.5561Y29.7061
X5.6000Y27.5000
X9.5500Y31.0000
X4.4500Y29.6000
X24.6000Y17.3000
X23.3000Y17.3000
X24.4939Y15.3939
X33.9000Y17.3000
X34.6000Y18.5000
X30.9000Y19.1000
X24.2500Y50.3500
X35.0500Y38.9500
X26.0207Y47.1207
X33.0500Y38.3500
X17.4500Y49.3500
X12.2793Y49.3793
X27.7500Y38.9500
X18.9500Y36.5500
X13.8500Y32.0500
X13.8500Y29.9500
X9.9500Y26.0500
X24.9500Y13.6000
X59.7500Y37.7500
X63.1500Y38.5000
X66.6439Y37.2561
X67.4207Y36.4793
X70.0500Y33.8500
X40.4207Y4.3793
X55.2500Y40.0500
X25.4500Y29.2500
X49.5500Y43.0500
X25.4500Y28.4500
X34.4500Y51.7000
X35.5000Y50.3500
X47.7207Y42.9207
X59.0500Y32.0500
X60.1500Y14.0500
X49.4500Y30.8500
X48.6000Y26.9500
X48.7500Y24.4000
X58.2439Y13.8561
X61.5439Y16.6439
X58.0000Y30.5333
X54.4000Y26.8000
X51.1500Y33.7500
X50.2500Y30.7500
X48.2500Y21.7500
X49.5439Y14.4439
X55.8793Y11.4793
X67.3500Y21.7500
X50.7500Y40.9500
X57.4500Y47.8500
X70.0500Y34.6500
X55.0500Y12.6000
X52.0000Y26.8000
X42.8000Y15.0000
X52.2500Y40.3500
X63.2000Y15.4500
X58.3500Y33.6500
X61.9500Y29.9500
X67.3500Y28.8500
X67.4207Y19.3207
X62.8500Y18.9500
X60.7500Y13.5500
X53.6207Y5.8207
X56.7793Y34.6793
X60.6439Y25.6439
X59.2500Y20.1500
X52.4500Y33.3500
X54.1500Y31.5500
X60.0000Y25.2500
X33.0500Y30.8500
X38.5500Y36.5500
X48.0500Y45.3500
X54.2439Y45.3561
X57.6500Y45.3500
X58.6561Y44.2439
X61.2500Y47.0500
X62.1500Y39.2500
X47.8500Y32.8500
X49.2000Y26.2500
X16.1500Y35.9500
X13.1500Y25.7500
X12.1793Y24.9207
X32.0500Y16.2500
X40.1500Y16.1500
X55.3500Y38.5500
X62.3207Y37.5793
X48.7500Y32.9500
X42.0439Y40.5561
X47.8500Y46.1500
X69.0000Y43.7500
X68.0207Y37.0793
X51.1793Y39.2207
X48.2500Y35.2500
X47.0500Y34.0500
X45.2500Y30.4500
X43.0000Y30.4500
X41.9500Y18.7500
X53.3500Y8.9500
X54.1793Y8.1793
X55.4500Y8.4000
X62.9500Y8.2500
X46.7750Y18.2050
X39.5750Y9.9050
X35.8750Y4.1050
X56.3750Y49.8050
X51.1500Y36.2500
X26.6793Y36.0207
X28.2500Y38.3500
X30.6500Y38.8500
X36.0500Y41.0500
X38.6500Y41.0500
X42.5439Y39.1439
X44.1500Y39.5500
X47.1500Y38.6500
X50.0167Y36.7500
X57.4500Y38.8500
X54.2207Y41.6793
X52.8793Y43.9207
X51.0000Y44.7500
X37.0500Y2.1500
X31.7500Y24.7500
X31.7500Y19.5000
X29.7207Y16.7207
X16.1500Y23.5500
X27.1500Y22.9500
X22.2500Y17.2500
X20.5561Y15.3439
X11.3793Y25.5793
X11.6000Y26.8500
X6.5439Y43.2439
X24.9500Y48.7500
X27.7207Y48.5207
X33.0500Y17.8500
X31.1793Y27.3793
X31.1793Y20.9207
X27.9500Y13.9500
X9.2439Y26.3561
X12.1207Y29.0207
X12.5793Y27.8207
X27.9500Y24.1500
X29.4500Y22.6500
X36.9500Y22.6500
X38.7500Y20.8500
X29.7500Y27.5167
X32.2833Y27.2500
X29.4793Y26.7793
X30.6500Y22.0500
X36.4500Y22.0500
X38.2500Y20.2500
X43.6500Y20.5500
X46.3500Y24.7500
X26.9500Y29.1500
X25.9000Y25.5500
X25.9000Y24.0500
X29.9500Y21.3500
X33.8500Y21.5000
X30.7500Y35.3500
X28.3500Y28.9500
X30.6793Y29.3207
X33.1500Y29.2500
X42.1500Y23.8500
X27.2500Y29.8500
X22.8207Y36.5207
X10.4500Y37.3500
X5.6500Y24.4500
X17.9500Y12.1500
X37.9793Y16.7207
X40.6500Y19.3500
X43.3793Y22.1207
X27.3207Y27.3793
X27.2500Y30.7500
X26.9500Y34.9500
X23.9500Y39.7500
X23.4500Y41.8500
X20.3500Y38.8500
X10.1500Y38.8500
X32.0500Y6.1500
X31.1500Y7.0500
X37.3793Y17.3207
X56.8500Y33.7500
X53.2500Y13.9500
X53.3500Y11.5500
X56.1500Y33.4500
X56.4000Y30.1500
X57.3000Y28.9500
X55.1561Y26.7439
X48.4500Y17.5500
X41.5500Y10.8000
X25.6029Y35.4029
X24.6029Y36.4971
X28.0500Y39.6500
X30.2500Y37.4500
X22.8500Y37.6500
X8.6500Y25.6333
X26.7500Y37.9500
X24.7500Y37.9500
X54.8250Y16.6350
X52.0250Y15.4350
X32.0000Y40.0000
X34.8000Y40.0000
X54.3750Y10.8950
X28.3500Y36.7500
X31.1500Y37.9500
X56.8000Y27.6000
X58.0000Y28.4000
X60.0000Y26.4000
X60.0000Y28.8000
X60.4000Y36.8000
X58.8000Y39.6000
X5.4000Y14.8000
X7.8000Y12.0000
X55.8500Y40.8500
X55.0500Y42.4500
X54.2500Y43.6500
X48.2500Y36.4500
X49.4500Y35.2500
X57.8500Y22.0500
X61.4500Y19.6500
X51.6000Y19.2000
X50.1500Y39.1500
X57.3500Y41.5500
X55.2000Y22.4000
X54.8000Y21.2000
X36.7500Y37.2500
X39.1500Y35.2500
X29.8500Y37.9500
X29.8500Y41.9500
X33.4500Y41.9500
X34.6500Y42.7500
X36.6500Y37.9500
X33.0500Y28.4500
X33.0500Y23.2500
X48.8000Y30.0000
X48.8000Y28.4000
X24.3000Y18.3500
X26.7000Y17.5500
X22.7000Y12.5500
X19.5000Y12.9500
X25.0000Y25.6000
X30.2000Y24.8000
X45.2000Y28.5000
X47.2000Y28.5000
X24.8500Y34.4500
X25.2500Y32.4500
X7.0000Y24.1000
X25.3439Y30.1439
X23.3500Y38.9500
X29.6500Y42.7000
X32.9500Y42.5500
X33.8500Y43.4500
X52.1500Y43.1500
X56.8500Y44.5500
X62.2500Y43.0500
X64.3500Y38.5500
X62.5500Y35.5500
X62.5500Y31.0500
X62.8500Y25.6500
X62.2500Y22.0500
X60.4500Y19.0500
X57.7500Y16.9500
X55.0500Y14.8500
X54.1500Y17.2500
X52.6500Y17.2500
X31.5530Y34.6530
X35.4530Y28.5030
X34.6500Y27.7000
X34.6854Y21.4354
X32.0646Y17.3146
X25.2500Y19.9000
X24.3000Y20.5000
X21.6000Y19.4500
X20.0000Y18.2500
X18.5000Y18.2500
X25.2500Y34.8500
T02
X7.9000Y23.8000
X7.9000Y31.2000
X4.1000Y23.8000
X4.1000Y31.2000
X65.5000Y12.4900
X65.5000Y15.0300
X65.5000Y17.5700
X65.5000Y20.1100
X65.5000Y22.6500
X65.5000Y25.1900
X65.5000Y27.7300
X65.5000Y30.2700
X65.5000Y32.8100
X65.5000Y35.3500
X65.5000Y37.8900
X65.5000Y40.4300
X65.5000Y42.9700
X65.5000Y45.5100
X10.5400Y48.0000
X8.0000Y48.0000
X5.4600Y48.0000
X57.4300Y5.5000
X54.8900Y5.5000
X52.3500Y5.5000
X49.8100Y5.5000
X47.2700Y5.5000
X44.7300Y5.5000
X42.1900Y5.5000
X39.6500Y5.5000
X37.1100Y5.5000
X34.5700Y5.5000
T0
M30
