G04 Generated by vcad-ecad-export*
%FSLAX46Y46*%
%MOMM*%
%TF.FileFunction,Other,FCrtYd*%
%TF.GenerationSoftware,vcad,vcad-ecad-export*%
%ADD10C,0.050000*%
D10*
X9150000Y22550000D02*
X9150000Y32450000D01*
X9150000Y32450000D02*
X2850000Y32450000D01*
X2850000Y32450000D02*
X2850000Y22550000D01*
X2850000Y22550000D02*
X9150000Y22550000D01*
X25500000Y27500000D02*
X34500000Y27500000D01*
X34500000Y27500000D02*
X34500000Y36500000D01*
X34500000Y36500000D02*
X25500000Y36500000D01*
X25500000Y36500000D02*
X25500000Y27500000D01*
X41800000Y20892500D02*
X46200000Y20892500D01*
X46200000Y20892500D02*
X46200000Y27107500D01*
X46200000Y27107500D02*
X41800000Y27107500D01*
X41800000Y27107500D02*
X41800000Y20892500D01*
X50000000Y32000000D02*
X58000000Y32000000D01*
X58000000Y32000000D02*
X58000000Y40000000D01*
X58000000Y40000000D02*
X50000000Y40000000D01*
X50000000Y40000000D02*
X50000000Y32000000D01*
X51800000Y12892500D02*
X56200000Y12892500D01*
X56200000Y12892500D02*
X56200000Y19107500D01*
X56200000Y19107500D02*
X51800000Y19107500D01*
X51800000Y19107500D02*
X51800000Y12892500D01*
X6050000Y7000000D02*
X13950000Y7000000D01*
X13950000Y7000000D02*
X13950000Y13000000D01*
X13950000Y13000000D02*
X6050000Y13000000D01*
X6050000Y13000000D02*
X6050000Y7000000D01*
X20050000Y7000000D02*
X27950000Y7000000D01*
X27950000Y7000000D02*
X27950000Y13000000D01*
X27950000Y13000000D02*
X20050000Y13000000D01*
X20050000Y13000000D02*
X20050000Y7000000D01*
M02*
