G04 Generated by vcad-ecad-export*
%FSLAX46Y46*%
%MOMM*%
%TF.FileFunction,Paste,Top*%
%TF.GenerationSoftware,vcad,vcad-ecad-export*%
%ADD10R,0.300000X1.100000*%
%ADD11R,0.700000X0.160000*%
%ADD12R,0.160000X0.700000*%
%ADD13R,4.400000X4.400000*%
%ADD14R,1.550000X0.600000*%
%ADD15R,3.850000X3.850000*%
%ADD16R,1.000000X1.500000*%
%ADD17R,3.500000X1.500000*%
%ADD18R,1.400000X1.150000*%
%ADD19R,1.600000X2.000000*%
%ADD20R,0.800000X0.900000*%
%ADD21R,1.000000X1.200000*%
D10*
X7450000Y25500000D03*
X7450000Y26000000D03*
X7450000Y26500000D03*
X7450000Y27000000D03*
X7450000Y27500000D03*
X7450000Y28000000D03*
X7450000Y28500000D03*
X7450000Y29000000D03*
X7450000Y29500000D03*
X4550000Y25500000D03*
X4550000Y26000000D03*
X4550000Y26500000D03*
X4550000Y27000000D03*
X4550000Y27500000D03*
X4550000Y28000000D03*
X4550000Y28500000D03*
X4550000Y29000000D03*
X4550000Y29500000D03*
D11*
X26050000Y35250000D03*
X26050000Y34750000D03*
X26050000Y34250000D03*
X26050000Y33750000D03*
X26050000Y33250000D03*
X26050000Y32750000D03*
X26050000Y32250000D03*
X26050000Y31750000D03*
X26050000Y31250000D03*
X26050000Y30750000D03*
X26050000Y30250000D03*
X26050000Y29750000D03*
X26050000Y29250000D03*
X26050000Y28750000D03*
D12*
X26750000Y35950000D03*
X27250000Y35950000D03*
X27750000Y35950000D03*
X28250000Y35950000D03*
X28750000Y35950000D03*
X29250000Y35950000D03*
X29750000Y35950000D03*
X30250000Y35950000D03*
X30750000Y35950000D03*
X31250000Y35950000D03*
X31750000Y35950000D03*
X32250000Y35950000D03*
X32750000Y35950000D03*
X33250000Y35950000D03*
D11*
X33950000Y28750000D03*
X33950000Y29250000D03*
X33950000Y29750000D03*
X33950000Y30250000D03*
X33950000Y30750000D03*
X33950000Y31250000D03*
X33950000Y31750000D03*
X33950000Y32250000D03*
X33950000Y32750000D03*
X33950000Y33250000D03*
X33950000Y33750000D03*
X33950000Y34250000D03*
X33950000Y34750000D03*
X33950000Y35250000D03*
D12*
X33250000Y28050000D03*
X32750000Y28050000D03*
X32250000Y28050000D03*
X31750000Y28050000D03*
X31250000Y28050000D03*
X30750000Y28050000D03*
X30250000Y28050000D03*
X29750000Y28050000D03*
X29250000Y28050000D03*
X28750000Y28050000D03*
X28250000Y28050000D03*
X27750000Y28050000D03*
X27250000Y28050000D03*
X26750000Y28050000D03*
D13*
X30000000Y32000000D03*
D14*
X41575000Y25905000D03*
X41575000Y24635000D03*
X41575000Y23365000D03*
X41575000Y22095000D03*
X46425000Y22095000D03*
X46425000Y23365000D03*
X46425000Y24635000D03*
X46425000Y25905000D03*
D11*
X50550000Y38750000D03*
X50550000Y38250000D03*
X50550000Y37750000D03*
X50550000Y37250000D03*
X50550000Y36750000D03*
X50550000Y36250000D03*
X50550000Y35750000D03*
X50550000Y35250000D03*
X50550000Y34750000D03*
X50550000Y34250000D03*
X50550000Y33750000D03*
X50550000Y33250000D03*
D12*
X51250000Y39450000D03*
X51750000Y39450000D03*
X52250000Y39450000D03*
X52750000Y39450000D03*
X53250000Y39450000D03*
X53750000Y39450000D03*
X54250000Y39450000D03*
X54750000Y39450000D03*
X55250000Y39450000D03*
X55750000Y39450000D03*
X56250000Y39450000D03*
X56750000Y39450000D03*
D11*
X57450000Y33250000D03*
X57450000Y33750000D03*
X57450000Y34250000D03*
X57450000Y34750000D03*
X57450000Y35250000D03*
X57450000Y35750000D03*
X57450000Y36250000D03*
X57450000Y36750000D03*
X57450000Y37250000D03*
X57450000Y37750000D03*
X57450000Y38250000D03*
X57450000Y38750000D03*
D12*
X56750000Y32550000D03*
X56250000Y32550000D03*
X55750000Y32550000D03*
X55250000Y32550000D03*
X54750000Y32550000D03*
X54250000Y32550000D03*
X53750000Y32550000D03*
X53250000Y32550000D03*
X52750000Y32550000D03*
X52250000Y32550000D03*
X51750000Y32550000D03*
X51250000Y32550000D03*
D15*
X54000000Y36000000D03*
D14*
X51575000Y17905000D03*
X51575000Y16635000D03*
X51575000Y15365000D03*
X51575000Y14095000D03*
X56425000Y14095000D03*
X56425000Y15365000D03*
X56425000Y16635000D03*
X56425000Y17905000D03*
D16*
X7700000Y11750000D03*
X10000000Y11750000D03*
X12300000Y11750000D03*
D17*
X10000000Y9250000D03*
D16*
X21700000Y11750000D03*
X24000000Y11750000D03*
X26300000Y11750000D03*
D17*
X24000000Y9250000D03*
D18*
X20900000Y19150000D03*
X23100000Y19150000D03*
X23100000Y20850000D03*
X20900000Y20850000D03*
D19*
X21250000Y50000000D03*
X26750000Y50000000D03*
X31250000Y50000000D03*
X36750000Y50000000D03*
D20*
X11200000Y33000000D03*
X12800000Y33000000D03*
X11200000Y24000000D03*
X12800000Y24000000D03*
X14200000Y31000000D03*
X15800000Y31000000D03*
X14200000Y24000000D03*
X15800000Y24000000D03*
X29200000Y20000000D03*
X30800000Y20000000D03*
X23200000Y46000000D03*
X24800000Y46000000D03*
X33200000Y46000000D03*
X34800000Y46000000D03*
X41200000Y50000000D03*
X42800000Y50000000D03*
X61200000Y20000000D03*
X62800000Y20000000D03*
X47200000Y20000000D03*
X48800000Y20000000D03*
X46200000Y50000000D03*
X47800000Y50000000D03*
X61200000Y24000000D03*
X62800000Y24000000D03*
X22200000Y26000000D03*
X23800000Y26000000D03*
X22200000Y38000000D03*
X23800000Y38000000D03*
X36200000Y26000000D03*
X37800000Y26000000D03*
X36200000Y38000000D03*
X37800000Y38000000D03*
X29200000Y24000000D03*
X30800000Y24000000D03*
X29200000Y40000000D03*
X30800000Y40000000D03*
X33200000Y40000000D03*
X34800000Y40000000D03*
D21*
X15000000Y6000000D03*
X17000000Y6000000D03*
X3000000Y16000000D03*
X5000000Y16000000D03*
X29000000Y6000000D03*
X31000000Y6000000D03*
D20*
X47200000Y30000000D03*
X48800000Y30000000D03*
X47200000Y42000000D03*
X48800000Y42000000D03*
X59200000Y42000000D03*
X60800000Y42000000D03*
X59200000Y30000000D03*
X60800000Y30000000D03*
X17200000Y17000000D03*
X18800000Y17000000D03*
X25200000Y17000000D03*
X26800000Y17000000D03*
X43200000Y28500000D03*
X44800000Y28500000D03*
X53200000Y21000000D03*
X54800000Y21000000D03*
X53200000Y28000000D03*
X54800000Y28000000D03*
M02*
