G04 Generated by vcad-ecad-export*
%FSLAX46Y46*%
%MOMM*%
%TF.FileFunction,Legend,Top*%
%TF.GenerationSoftware,vcad,vcad-ecad-export*%
%ADD10C,0.120000*%
D10*
X8900000Y22800000D02*
X8900000Y32200000D01*
X8900000Y32200000D02*
X3100000Y32200000D01*
X3100000Y32200000D02*
X3100000Y22800000D01*
X3100000Y22800000D02*
X8900000Y22800000D01*
X8150000Y25150000D02*
X8117368Y25147861D01*
X8117368Y25147861D02*
X8085295Y25141481D01*
X8085295Y25141481D02*
X8054329Y25130970D01*
X8054329Y25130970D02*
X8025000Y25116506D01*
X8025000Y25116506D02*
X7997810Y25098338D01*
X7997810Y25098338D02*
X7973223Y25076777D01*
X7973223Y25076777D02*
X7951662Y25052190D01*
X7951662Y25052190D02*
X7933494Y25025000D01*
X7933494Y25025000D02*
X7919030Y24995671D01*
X7919030Y24995671D02*
X7908519Y24964705D01*
X7908519Y24964705D02*
X7902139Y24932632D01*
X7902139Y24932632D02*
X7900000Y24900000D01*
X7900000Y24900000D02*
X7902139Y24867368D01*
X7902139Y24867368D02*
X7908519Y24835295D01*
X7908519Y24835295D02*
X7919030Y24804329D01*
X7919030Y24804329D02*
X7933494Y24775000D01*
X7933494Y24775000D02*
X7951662Y24747810D01*
X7951662Y24747810D02*
X7973223Y24723223D01*
X7973223Y24723223D02*
X7997810Y24701662D01*
X7997810Y24701662D02*
X8025000Y24683494D01*
X8025000Y24683494D02*
X8054329Y24669030D01*
X8054329Y24669030D02*
X8085295Y24658519D01*
X8085295Y24658519D02*
X8117368Y24652139D01*
X8117368Y24652139D02*
X8150000Y24650000D01*
X8150000Y24650000D02*
X8182632Y24652139D01*
X8182632Y24652139D02*
X8214705Y24658519D01*
X8214705Y24658519D02*
X8245671Y24669030D01*
X8245671Y24669030D02*
X8275000Y24683494D01*
X8275000Y24683494D02*
X8302190Y24701662D01*
X8302190Y24701662D02*
X8326777Y24723223D01*
X8326777Y24723223D02*
X8348338Y24747810D01*
X8348338Y24747810D02*
X8366506Y24775000D01*
X8366506Y24775000D02*
X8380970Y24804329D01*
X8380970Y24804329D02*
X8391481Y24835295D01*
X8391481Y24835295D02*
X8397861Y24867368D01*
X8397861Y24867368D02*
X8400000Y24900000D01*
X8400000Y24900000D02*
X8397861Y24932632D01*
X8397861Y24932632D02*
X8391481Y24964705D01*
X8391481Y24964705D02*
X8380970Y24995671D01*
X8380970Y24995671D02*
X8366506Y25025000D01*
X8366506Y25025000D02*
X8348338Y25052190D01*
X8348338Y25052190D02*
X8326777Y25076777D01*
X8326777Y25076777D02*
X8302190Y25098338D01*
X8302190Y25098338D02*
X8275000Y25116506D01*
X8275000Y25116506D02*
X8245671Y25130970D01*
X8245671Y25130970D02*
X8214705Y25141481D01*
X8214705Y25141481D02*
X8182632Y25147861D01*
X8182632Y25147861D02*
X8150000Y25150000D01*
X26000000Y28000000D02*
X34000000Y28000000D01*
X34000000Y28000000D02*
X34000000Y36000000D01*
X34000000Y36000000D02*
X26000000Y36000000D01*
X26000000Y36000000D02*
X26000000Y28000000D01*
X25800000Y36300000D02*
X25799144Y36313053D01*
X25799144Y36313053D02*
X25796593Y36325882D01*
X25796593Y36325882D02*
X25792388Y36338268D01*
X25792388Y36338268D02*
X25786603Y36350000D01*
X25786603Y36350000D02*
X25779335Y36360876D01*
X25779335Y36360876D02*
X25770711Y36370711D01*
X25770711Y36370711D02*
X25760876Y36379335D01*
X25760876Y36379335D02*
X25750000Y36386603D01*
X25750000Y36386603D02*
X25738268Y36392388D01*
X25738268Y36392388D02*
X25725882Y36396593D01*
X25725882Y36396593D02*
X25713053Y36399144D01*
X25713053Y36399144D02*
X25700000Y36400000D01*
X25700000Y36400000D02*
X25686947Y36399144D01*
X25686947Y36399144D02*
X25674118Y36396593D01*
X25674118Y36396593D02*
X25661732Y36392388D01*
X25661732Y36392388D02*
X25650000Y36386603D01*
X25650000Y36386603D02*
X25639124Y36379335D01*
X25639124Y36379335D02*
X25629289Y36370711D01*
X25629289Y36370711D02*
X25620665Y36360876D01*
X25620665Y36360876D02*
X25613397Y36350000D01*
X25613397Y36350000D02*
X25607612Y36338268D01*
X25607612Y36338268D02*
X25603407Y36325882D01*
X25603407Y36325882D02*
X25600856Y36313053D01*
X25600856Y36313053D02*
X25600000Y36300000D01*
X25600000Y36300000D02*
X25600856Y36286947D01*
X25600856Y36286947D02*
X25603407Y36274118D01*
X25603407Y36274118D02*
X25607612Y36261732D01*
X25607612Y36261732D02*
X25613397Y36250000D01*
X25613397Y36250000D02*
X25620665Y36239124D01*
X25620665Y36239124D02*
X25629289Y36229289D01*
X25629289Y36229289D02*
X25639124Y36220665D01*
X25639124Y36220665D02*
X25650000Y36213397D01*
X25650000Y36213397D02*
X25661732Y36207612D01*
X25661732Y36207612D02*
X25674118Y36203407D01*
X25674118Y36203407D02*
X25686947Y36200856D01*
X25686947Y36200856D02*
X25700000Y36200000D01*
X25700000Y36200000D02*
X25713053Y36200856D01*
X25713053Y36200856D02*
X25725882Y36203407D01*
X25725882Y36203407D02*
X25738268Y36207612D01*
X25738268Y36207612D02*
X25750000Y36213397D01*
X25750000Y36213397D02*
X25760876Y36220665D01*
X25760876Y36220665D02*
X25770711Y36229289D01*
X25770711Y36229289D02*
X25779335Y36239124D01*
X25779335Y36239124D02*
X25786603Y36250000D01*
X25786603Y36250000D02*
X25792388Y36261732D01*
X25792388Y36261732D02*
X25796593Y36274118D01*
X25796593Y36274118D02*
X25799144Y36286947D01*
X25799144Y36286947D02*
X25800000Y36300000D01*
X42050000Y21142500D02*
X45950000Y21142500D01*
X45950000Y21142500D02*
X45950000Y26857500D01*
X45950000Y26857500D02*
X42050000Y26857500D01*
X42050000Y26857500D02*
X42050000Y21142500D01*
X41900000Y20742500D02*
X41897861Y20775132D01*
X41897861Y20775132D02*
X41891481Y20807205D01*
X41891481Y20807205D02*
X41880970Y20838171D01*
X41880970Y20838171D02*
X41866506Y20867500D01*
X41866506Y20867500D02*
X41848338Y20894690D01*
X41848338Y20894690D02*
X41826777Y20919277D01*
X41826777Y20919277D02*
X41802190Y20940838D01*
X41802190Y20940838D02*
X41775000Y20959006D01*
X41775000Y20959006D02*
X41745671Y20973470D01*
X41745671Y20973470D02*
X41714705Y20983981D01*
X41714705Y20983981D02*
X41682632Y20990361D01*
X41682632Y20990361D02*
X41650000Y20992500D01*
X41650000Y20992500D02*
X41617368Y20990361D01*
X41617368Y20990361D02*
X41585295Y20983981D01*
X41585295Y20983981D02*
X41554329Y20973470D01*
X41554329Y20973470D02*
X41525000Y20959006D01*
X41525000Y20959006D02*
X41497810Y20940838D01*
X41497810Y20940838D02*
X41473223Y20919277D01*
X41473223Y20919277D02*
X41451662Y20894690D01*
X41451662Y20894690D02*
X41433494Y20867500D01*
X41433494Y20867500D02*
X41419030Y20838171D01*
X41419030Y20838171D02*
X41408519Y20807205D01*
X41408519Y20807205D02*
X41402139Y20775132D01*
X41402139Y20775132D02*
X41400000Y20742500D01*
X41400000Y20742500D02*
X41402139Y20709868D01*
X41402139Y20709868D02*
X41408519Y20677795D01*
X41408519Y20677795D02*
X41419030Y20646829D01*
X41419030Y20646829D02*
X41433494Y20617500D01*
X41433494Y20617500D02*
X41451662Y20590310D01*
X41451662Y20590310D02*
X41473223Y20565723D01*
X41473223Y20565723D02*
X41497810Y20544162D01*
X41497810Y20544162D02*
X41525000Y20525994D01*
X41525000Y20525994D02*
X41554329Y20511530D01*
X41554329Y20511530D02*
X41585295Y20501019D01*
X41585295Y20501019D02*
X41617368Y20494639D01*
X41617368Y20494639D02*
X41650000Y20492500D01*
X41650000Y20492500D02*
X41682632Y20494639D01*
X41682632Y20494639D02*
X41714705Y20501019D01*
X41714705Y20501019D02*
X41745671Y20511530D01*
X41745671Y20511530D02*
X41775000Y20525994D01*
X41775000Y20525994D02*
X41802190Y20544162D01*
X41802190Y20544162D02*
X41826777Y20565723D01*
X41826777Y20565723D02*
X41848338Y20590310D01*
X41848338Y20590310D02*
X41866506Y20617500D01*
X41866506Y20617500D02*
X41880970Y20646829D01*
X41880970Y20646829D02*
X41891481Y20677795D01*
X41891481Y20677795D02*
X41897861Y20709868D01*
X41897861Y20709868D02*
X41900000Y20742500D01*
X50500000Y32500000D02*
X57500000Y32500000D01*
X57500000Y32500000D02*
X57500000Y39500000D01*
X57500000Y39500000D02*
X50500000Y39500000D01*
X50500000Y39500000D02*
X50500000Y32500000D01*
X50300000Y39800000D02*
X50299144Y39813053D01*
X50299144Y39813053D02*
X50296593Y39825882D01*
X50296593Y39825882D02*
X50292388Y39838268D01*
X50292388Y39838268D02*
X50286603Y39850000D01*
X50286603Y39850000D02*
X50279335Y39860876D01*
X50279335Y39860876D02*
X50270711Y39870711D01*
X50270711Y39870711D02*
X50260876Y39879335D01*
X50260876Y39879335D02*
X50250000Y39886603D01*
X50250000Y39886603D02*
X50238268Y39892388D01*
X50238268Y39892388D02*
X50225882Y39896593D01*
X50225882Y39896593D02*
X50213053Y39899144D01*
X50213053Y39899144D02*
X50200000Y39900000D01*
X50200000Y39900000D02*
X50186947Y39899144D01*
X50186947Y39899144D02*
X50174118Y39896593D01*
X50174118Y39896593D02*
X50161732Y39892388D01*
X50161732Y39892388D02*
X50150000Y39886603D01*
X50150000Y39886603D02*
X50139124Y39879335D01*
X50139124Y39879335D02*
X50129289Y39870711D01*
X50129289Y39870711D02*
X50120665Y39860876D01*
X50120665Y39860876D02*
X50113397Y39850000D01*
X50113397Y39850000D02*
X50107612Y39838268D01*
X50107612Y39838268D02*
X50103407Y39825882D01*
X50103407Y39825882D02*
X50100856Y39813053D01*
X50100856Y39813053D02*
X50100000Y39800000D01*
X50100000Y39800000D02*
X50100856Y39786947D01*
X50100856Y39786947D02*
X50103407Y39774118D01*
X50103407Y39774118D02*
X50107612Y39761732D01*
X50107612Y39761732D02*
X50113397Y39750000D01*
X50113397Y39750000D02*
X50120665Y39739124D01*
X50120665Y39739124D02*
X50129289Y39729289D01*
X50129289Y39729289D02*
X50139124Y39720665D01*
X50139124Y39720665D02*
X50150000Y39713397D01*
X50150000Y39713397D02*
X50161732Y39707612D01*
X50161732Y39707612D02*
X50174118Y39703407D01*
X50174118Y39703407D02*
X50186947Y39700856D01*
X50186947Y39700856D02*
X50200000Y39700000D01*
X50200000Y39700000D02*
X50213053Y39700856D01*
X50213053Y39700856D02*
X50225882Y39703407D01*
X50225882Y39703407D02*
X50238268Y39707612D01*
X50238268Y39707612D02*
X50250000Y39713397D01*
X50250000Y39713397D02*
X50260876Y39720665D01*
X50260876Y39720665D02*
X50270711Y39729289D01*
X50270711Y39729289D02*
X50279335Y39739124D01*
X50279335Y39739124D02*
X50286603Y39750000D01*
X50286603Y39750000D02*
X50292388Y39761732D01*
X50292388Y39761732D02*
X50296593Y39774118D01*
X50296593Y39774118D02*
X50299144Y39786947D01*
X50299144Y39786947D02*
X50300000Y39800000D01*
X52050000Y13142500D02*
X55950000Y13142500D01*
X55950000Y13142500D02*
X55950000Y18857500D01*
X55950000Y18857500D02*
X52050000Y18857500D01*
X52050000Y18857500D02*
X52050000Y13142500D01*
X51900000Y12742500D02*
X51897861Y12775132D01*
X51897861Y12775132D02*
X51891481Y12807205D01*
X51891481Y12807205D02*
X51880970Y12838171D01*
X51880970Y12838171D02*
X51866506Y12867500D01*
X51866506Y12867500D02*
X51848338Y12894690D01*
X51848338Y12894690D02*
X51826777Y12919277D01*
X51826777Y12919277D02*
X51802190Y12940838D01*
X51802190Y12940838D02*
X51775000Y12959006D01*
X51775000Y12959006D02*
X51745671Y12973470D01*
X51745671Y12973470D02*
X51714705Y12983981D01*
X51714705Y12983981D02*
X51682632Y12990361D01*
X51682632Y12990361D02*
X51650000Y12992500D01*
X51650000Y12992500D02*
X51617368Y12990361D01*
X51617368Y12990361D02*
X51585295Y12983981D01*
X51585295Y12983981D02*
X51554329Y12973470D01*
X51554329Y12973470D02*
X51525000Y12959006D01*
X51525000Y12959006D02*
X51497810Y12940838D01*
X51497810Y12940838D02*
X51473223Y12919277D01*
X51473223Y12919277D02*
X51451662Y12894690D01*
X51451662Y12894690D02*
X51433494Y12867500D01*
X51433494Y12867500D02*
X51419030Y12838171D01*
X51419030Y12838171D02*
X51408519Y12807205D01*
X51408519Y12807205D02*
X51402139Y12775132D01*
X51402139Y12775132D02*
X51400000Y12742500D01*
X51400000Y12742500D02*
X51402139Y12709868D01*
X51402139Y12709868D02*
X51408519Y12677795D01*
X51408519Y12677795D02*
X51419030Y12646829D01*
X51419030Y12646829D02*
X51433494Y12617500D01*
X51433494Y12617500D02*
X51451662Y12590310D01*
X51451662Y12590310D02*
X51473223Y12565723D01*
X51473223Y12565723D02*
X51497810Y12544162D01*
X51497810Y12544162D02*
X51525000Y12525994D01*
X51525000Y12525994D02*
X51554329Y12511530D01*
X51554329Y12511530D02*
X51585295Y12501019D01*
X51585295Y12501019D02*
X51617368Y12494639D01*
X51617368Y12494639D02*
X51650000Y12492500D01*
X51650000Y12492500D02*
X51682632Y12494639D01*
X51682632Y12494639D02*
X51714705Y12501019D01*
X51714705Y12501019D02*
X51745671Y12511530D01*
X51745671Y12511530D02*
X51775000Y12525994D01*
X51775000Y12525994D02*
X51802190Y12544162D01*
X51802190Y12544162D02*
X51826777Y12565723D01*
X51826777Y12565723D02*
X51848338Y12590310D01*
X51848338Y12590310D02*
X51866506Y12617500D01*
X51866506Y12617500D02*
X51880970Y12646829D01*
X51880970Y12646829D02*
X51891481Y12677795D01*
X51891481Y12677795D02*
X51897861Y12709868D01*
X51897861Y12709868D02*
X51900000Y12742500D01*
X6300000Y7250000D02*
X13700000Y7250000D01*
X13700000Y7250000D02*
X13700000Y12750000D01*
X13700000Y12750000D02*
X6300000Y12750000D01*
X6300000Y12750000D02*
X6300000Y7250000D01*
X6150000Y6850000D02*
X6147861Y6882632D01*
X6147861Y6882632D02*
X6141481Y6914705D01*
X6141481Y6914705D02*
X6130970Y6945671D01*
X6130970Y6945671D02*
X6116506Y6975000D01*
X6116506Y6975000D02*
X6098338Y7002190D01*
X6098338Y7002190D02*
X6076777Y7026777D01*
X6076777Y7026777D02*
X6052190Y7048338D01*
X6052190Y7048338D02*
X6025000Y7066506D01*
X6025000Y7066506D02*
X5995671Y7080970D01*
X5995671Y7080970D02*
X5964705Y7091481D01*
X5964705Y7091481D02*
X5932632Y7097861D01*
X5932632Y7097861D02*
X5900000Y7100000D01*
X5900000Y7100000D02*
X5867368Y7097861D01*
X5867368Y7097861D02*
X5835295Y7091481D01*
X5835295Y7091481D02*
X5804329Y7080970D01*
X5804329Y7080970D02*
X5775000Y7066506D01*
X5775000Y7066506D02*
X5747810Y7048338D01*
X5747810Y7048338D02*
X5723223Y7026777D01*
X5723223Y7026777D02*
X5701662Y7002190D01*
X5701662Y7002190D02*
X5683494Y6975000D01*
X5683494Y6975000D02*
X5669030Y6945671D01*
X5669030Y6945671D02*
X5658519Y6914705D01*
X5658519Y6914705D02*
X5652139Y6882632D01*
X5652139Y6882632D02*
X5650000Y6850000D01*
X5650000Y6850000D02*
X5652139Y6817368D01*
X5652139Y6817368D02*
X5658519Y6785295D01*
X5658519Y6785295D02*
X5669030Y6754329D01*
X5669030Y6754329D02*
X5683494Y6725000D01*
X5683494Y6725000D02*
X5701662Y6697810D01*
X5701662Y6697810D02*
X5723223Y6673223D01*
X5723223Y6673223D02*
X5747810Y6651662D01*
X5747810Y6651662D02*
X5775000Y6633494D01*
X5775000Y6633494D02*
X5804329Y6619030D01*
X5804329Y6619030D02*
X5835295Y6608519D01*
X5835295Y6608519D02*
X5867368Y6602139D01*
X5867368Y6602139D02*
X5900000Y6600000D01*
X5900000Y6600000D02*
X5932632Y6602139D01*
X5932632Y6602139D02*
X5964705Y6608519D01*
X5964705Y6608519D02*
X5995671Y6619030D01*
X5995671Y6619030D02*
X6025000Y6633494D01*
X6025000Y6633494D02*
X6052190Y6651662D01*
X6052190Y6651662D02*
X6076777Y6673223D01*
X6076777Y6673223D02*
X6098338Y6697810D01*
X6098338Y6697810D02*
X6116506Y6725000D01*
X6116506Y6725000D02*
X6130970Y6754329D01*
X6130970Y6754329D02*
X6141481Y6785295D01*
X6141481Y6785295D02*
X6147861Y6817368D01*
X6147861Y6817368D02*
X6150000Y6850000D01*
X20300000Y7250000D02*
X27700000Y7250000D01*
X27700000Y7250000D02*
X27700000Y12750000D01*
X27700000Y12750000D02*
X20300000Y12750000D01*
X20300000Y12750000D02*
X20300000Y7250000D01*
X20150000Y6850000D02*
X20147861Y6882632D01*
X20147861Y6882632D02*
X20141481Y6914705D01*
X20141481Y6914705D02*
X20130970Y6945671D01*
X20130970Y6945671D02*
X20116506Y6975000D01*
X20116506Y6975000D02*
X20098338Y7002190D01*
X20098338Y7002190D02*
X20076777Y7026777D01*
X20076777Y7026777D02*
X20052190Y7048338D01*
X20052190Y7048338D02*
X20025000Y7066506D01*
X20025000Y7066506D02*
X19995671Y7080970D01*
X19995671Y7080970D02*
X19964705Y7091481D01*
X19964705Y7091481D02*
X19932632Y7097861D01*
X19932632Y7097861D02*
X19900000Y7100000D01*
X19900000Y7100000D02*
X19867368Y7097861D01*
X19867368Y7097861D02*
X19835295Y7091481D01*
X19835295Y7091481D02*
X19804329Y7080970D01*
X19804329Y7080970D02*
X19775000Y7066506D01*
X19775000Y7066506D02*
X19747810Y7048338D01*
X19747810Y7048338D02*
X19723223Y7026777D01*
X19723223Y7026777D02*
X19701662Y7002190D01*
X19701662Y7002190D02*
X19683494Y6975000D01*
X19683494Y6975000D02*
X19669030Y6945671D01*
X19669030Y6945671D02*
X19658519Y6914705D01*
X19658519Y6914705D02*
X19652139Y6882632D01*
X19652139Y6882632D02*
X19650000Y6850000D01*
X19650000Y6850000D02*
X19652139Y6817368D01*
X19652139Y6817368D02*
X19658519Y6785295D01*
X19658519Y6785295D02*
X19669030Y6754329D01*
X19669030Y6754329D02*
X19683494Y6725000D01*
X19683494Y6725000D02*
X19701662Y6697810D01*
X19701662Y6697810D02*
X19723223Y6673223D01*
X19723223Y6673223D02*
X19747810Y6651662D01*
X19747810Y6651662D02*
X19775000Y6633494D01*
X19775000Y6633494D02*
X19804329Y6619030D01*
X19804329Y6619030D02*
X19835295Y6608519D01*
X19835295Y6608519D02*
X19867368Y6602139D01*
X19867368Y6602139D02*
X19900000Y6600000D01*
X19900000Y6600000D02*
X19932632Y6602139D01*
X19932632Y6602139D02*
X19964705Y6608519D01*
X19964705Y6608519D02*
X19995671Y6619030D01*
X19995671Y6619030D02*
X20025000Y6633494D01*
X20025000Y6633494D02*
X20052190Y6651662D01*
X20052190Y6651662D02*
X20076777Y6673223D01*
X20076777Y6673223D02*
X20098338Y6697810D01*
X20098338Y6697810D02*
X20116506Y6725000D01*
X20116506Y6725000D02*
X20130970Y6754329D01*
X20130970Y6754329D02*
X20141481Y6785295D01*
X20141481Y6785295D02*
X20147861Y6817368D01*
X20147861Y6817368D02*
X20150000Y6850000D01*
X64230000Y11490000D02*
X66770000Y11490000D01*
X66770000Y11490000D02*
X66770000Y46510000D01*
X66770000Y46510000D02*
X64230000Y46510000D01*
X64230000Y46510000D02*
X64230000Y11490000D01*
X11540000Y46730000D02*
X11540000Y49270000D01*
X11540000Y49270000D02*
X4460000Y49270000D01*
X4460000Y49270000D02*
X4460000Y46730000D01*
X4460000Y46730000D02*
X11540000Y46730000D01*
X58430000Y4230000D02*
X58430000Y6770000D01*
X58430000Y6770000D02*
X33570000Y6770000D01*
X33570000Y6770000D02*
X33570000Y4230000D01*
X33570000Y4230000D02*
X58430000Y4230000D01*
X11600000Y32450000D02*
X12400000Y32450000D01*
X11600000Y33550000D02*
X12400000Y33550000D01*
X11600000Y23450000D02*
X12400000Y23450000D01*
X11600000Y24550000D02*
X12400000Y24550000D01*
X14600000Y30450000D02*
X15400000Y30450000D01*
X14600000Y31550000D02*
X15400000Y31550000D01*
X14600000Y23450000D02*
X15400000Y23450000D01*
X14600000Y24550000D02*
X15400000Y24550000D01*
X29600000Y19450000D02*
X30400000Y19450000D01*
X29600000Y20550000D02*
X30400000Y20550000D01*
X23600000Y45450000D02*
X24400000Y45450000D01*
X23600000Y46550000D02*
X24400000Y46550000D01*
X33600000Y45450000D02*
X34400000Y45450000D01*
X33600000Y46550000D02*
X34400000Y46550000D01*
X41600000Y49450000D02*
X42400000Y49450000D01*
X41600000Y50550000D02*
X42400000Y50550000D01*
X61600000Y19450000D02*
X62400000Y19450000D01*
X61600000Y20550000D02*
X62400000Y20550000D01*
X47600000Y19450000D02*
X48400000Y19450000D01*
X47600000Y20550000D02*
X48400000Y20550000D01*
X46600000Y49450000D02*
X47400000Y49450000D01*
X46600000Y50550000D02*
X47400000Y50550000D01*
X61600000Y23450000D02*
X62400000Y23450000D01*
X61600000Y24550000D02*
X62400000Y24550000D01*
X22600000Y25450000D02*
X23400000Y25450000D01*
X22600000Y26550000D02*
X23400000Y26550000D01*
X22600000Y37450000D02*
X23400000Y37450000D01*
X22600000Y38550000D02*
X23400000Y38550000D01*
X36600000Y25450000D02*
X37400000Y25450000D01*
X36600000Y26550000D02*
X37400000Y26550000D01*
X36600000Y37450000D02*
X37400000Y37450000D01*
X36600000Y38550000D02*
X37400000Y38550000D01*
X29600000Y23450000D02*
X30400000Y23450000D01*
X29600000Y24550000D02*
X30400000Y24550000D01*
X29600000Y39450000D02*
X30400000Y39450000D01*
X29600000Y40550000D02*
X30400000Y40550000D01*
X33600000Y39450000D02*
X34400000Y39450000D01*
X33600000Y40550000D02*
X34400000Y40550000D01*
X15500000Y5300000D02*
X16500000Y5300000D01*
X15500000Y6700000D02*
X16500000Y6700000D01*
X3500000Y15300000D02*
X4500000Y15300000D01*
X3500000Y16700000D02*
X4500000Y16700000D01*
X29500000Y5300000D02*
X30500000Y5300000D01*
X29500000Y6700000D02*
X30500000Y6700000D01*
X47600000Y29450000D02*
X48400000Y29450000D01*
X47600000Y30550000D02*
X48400000Y30550000D01*
X47600000Y41450000D02*
X48400000Y41450000D01*
X47600000Y42550000D02*
X48400000Y42550000D01*
X59600000Y41450000D02*
X60400000Y41450000D01*
X59600000Y42550000D02*
X60400000Y42550000D01*
X59600000Y29450000D02*
X60400000Y29450000D01*
X59600000Y30550000D02*
X60400000Y30550000D01*
X17600000Y16450000D02*
X18400000Y16450000D01*
X17600000Y17550000D02*
X18400000Y17550000D01*
X25600000Y16450000D02*
X26400000Y16450000D01*
X25600000Y17550000D02*
X26400000Y17550000D01*
X43600000Y27950000D02*
X44400000Y27950000D01*
X43600000Y29050000D02*
X44400000Y29050000D01*
X53600000Y20450000D02*
X54400000Y20450000D01*
X53600000Y21550000D02*
X54400000Y21550000D01*
X53600000Y27450000D02*
X54400000Y27450000D01*
X53600000Y28550000D02*
X54400000Y28550000D01*
M02*
