<svg xmlns="http://www.w3.org/2000/svg" width="113.98" height="192.57" viewBox="0 0 113.98 192.57" role="img" aria-label="vcad render"><defs><linearGradient id="g0" gradientUnits="userSpaceOnUse" x1="88.07" y1="178.15" x2="91.61" y2="178.18"><stop offset="0" stop-color="#235a85"/><stop offset="1" stop-color="#2b608a"/></linearGradient><linearGradient id="g1" gradientUnits="userSpaceOnUse" x1="88.07" y1="58.15" x2="91.61" y2="58.18"><stop offset="0" stop-color="#215884"/><stop offset="1" stop-color="#285e89"/></linearGradient><linearGradient id="g2" gradientUnits="userSpaceOnUse" x1="84.21" y1="179.80" x2="88.05" y2="179.84"><stop offset="0" stop-color="#1e5581"/><stop offset="1" stop-color="#235a85"/></linearGradient><linearGradient id="g3" gradientUnits="userSpaceOnUse" x1="84.21" y1="59.80" x2="88.05" y2="59.84"><stop offset="0" stop-color="#1d5480"/><stop offset="1" stop-color="#215884"/></linearGradient><linearGradient id="g4" gradientUnits="userSpaceOnUse" x1="80.08" y1="181.23" x2="84.19" y2="181.28"><stop offset="0" stop-color="#1d537d"/><stop offset="1" stop-color="#1e5581"/></linearGradient><linearGradient id="g5" gradientUnits="userSpaceOnUse" x1="80.08" y1="61.23" x2="84.19" y2="61.27"><stop offset="0" stop-color="#1c527c"/><stop offset="1" stop-color="#1d5480"/></linearGradient><linearGradient id="g6" gradientUnits="userSpaceOnUse" x1="75.74" y1="182.42" x2="80.07" y2="182.47"><stop offset="0" stop-color="#1c507a"/><stop offset="1" stop-color="#1d537d"/></linearGradient><linearGradient id="g7" gradientUnits="userSpaceOnUse" x1="75.74" y1="62.42" x2="80.07" y2="62.46"><stop offset="0" stop-color="#1b5079"/><stop offset="1" stop-color="#1c527c"/></linearGradient><linearGradient id="g8" gradientUnits="userSpaceOnUse" x1="71.21" y1="183.35" x2="75.72" y2="183.41"><stop offset="0" stop-color="#1b4e78"/><stop offset="1" stop-color="#1c507a"/></linearGradient><linearGradient id="g9" gradientUnits="userSpaceOnUse" x1="71.21" y1="63.35" x2="75.73" y2="63.40"><stop offset="0" stop-color="#1b4e77"/><stop offset="1" stop-color="#1b5079"/></linearGradient><linearGradient id="g10" gradientUnits="userSpaceOnUse" x1="66.55" y1="184.03" x2="71.20" y2="184.09"><stop offset="0" stop-color="#1a4d76"/><stop offset="1" stop-color="#1b4e78"/></linearGradient><linearGradient id="g11" gradientUnits="userSpaceOnUse" x1="38.24" y1="182.42" x2="33.88" y2="182.37"><stop offset="0" stop-color="#1a4d76"/><stop offset="1" stop-color="#1b4f78"/></linearGradient><linearGradient id="g12" gradientUnits="userSpaceOnUse" x1="38.24" y1="62.42" x2="33.88" y2="62.36"><stop offset="0" stop-color="#1b4d77"/><stop offset="1" stop-color="#1b4f79"/></linearGradient><linearGradient id="g13" gradientUnits="userSpaceOnUse" x1="33.90" y1="181.23" x2="29.76" y2="181.18"><stop offset="0" stop-color="#1b4f78"/><stop offset="1" stop-color="#1c517b"/></linearGradient><linearGradient id="g14" gradientUnits="userSpaceOnUse" x1="33.90" y1="61.23" x2="29.76" y2="61.18"><stop offset="0" stop-color="#1b4f79"/><stop offset="1" stop-color="#1c517c"/></linearGradient><linearGradient id="g15" gradientUnits="userSpaceOnUse" x1="29.77" y1="179.80" x2="25.89" y2="179.76"><stop offset="0" stop-color="#1c517b"/><stop offset="1" stop-color="#1d537e"/></linearGradient><linearGradient id="g16" gradientUnits="userSpaceOnUse" x1="29.77" y1="59.80" x2="25.89" y2="59.76"><stop offset="0" stop-color="#1c517c"/><stop offset="1" stop-color="#1d547f"/></linearGradient><linearGradient id="g17" gradientUnits="userSpaceOnUse" x1="25.91" y1="178.15" x2="22.33" y2="178.11"><stop offset="0" stop-color="#1d537e"/><stop offset="1" stop-color="#1e5682"/></linearGradient><linearGradient id="g18" gradientUnits="userSpaceOnUse" x1="25.91" y1="58.15" x2="22.33" y2="58.11"><stop offset="0" stop-color="#1d547f"/><stop offset="1" stop-color="#205783"/></linearGradient><linearGradient id="g19" gradientUnits="userSpaceOnUse" x1="22.35" y1="176.28" x2="19.10" y2="176.26"><stop offset="0" stop-color="#1e5682"/><stop offset="1" stop-color="#255b86"/></linearGradient><linearGradient id="g20" gradientUnits="userSpaceOnUse" x1="22.35" y1="56.28" x2="19.10" y2="56.25"><stop offset="0" stop-color="#205783"/><stop offset="1" stop-color="#275d88"/></linearGradient><linearGradient id="g21" gradientUnits="userSpaceOnUse" x1="19.12" y1="174.23" x2="16.24" y2="174.21"><stop offset="0" stop-color="#255b86"/><stop offset="1" stop-color="#2d628c"/></linearGradient><linearGradient id="g22" gradientUnits="userSpaceOnUse" x1="19.12" y1="54.23" x2="16.24" y2="54.20"><stop offset="0" stop-color="#275d88"/><stop offset="1" stop-color="#30648e"/></linearGradient><linearGradient id="g23" gradientUnits="userSpaceOnUse" x1="16.26" y1="172.00" x2="13.77" y2="171.98"><stop offset="0" stop-color="#2d628c"/><stop offset="1" stop-color="#366992"/></linearGradient><linearGradient id="g24" gradientUnits="userSpaceOnUse" x1="16.26" y1="52.00" x2="13.77" y2="51.98"><stop offset="0" stop-color="#30648e"/><stop offset="1" stop-color="#396c94"/></linearGradient><linearGradient id="g25" gradientUnits="userSpaceOnUse" x1="13.78" y1="169.62" x2="11.72" y2="169.61"><stop offset="0" stop-color="#366992"/><stop offset="1" stop-color="#407199"/></linearGradient><linearGradient id="g26" gradientUnits="userSpaceOnUse" x1="13.78" y1="49.62" x2="11.71" y2="49.60"><stop offset="0" stop-color="#396c94"/><stop offset="1" stop-color="#44749b"/></linearGradient><linearGradient id="g27" gradientUnits="userSpaceOnUse" x1="11.73" y1="167.11" x2="10.10" y2="167.10"><stop offset="0" stop-color="#407199"/><stop offset="1" stop-color="#4c7aa1"/></linearGradient><linearGradient id="g28" gradientUnits="userSpaceOnUse" x1="11.73" y1="47.11" x2="10.10" y2="47.10"><stop offset="0" stop-color="#44749b"/><stop offset="1" stop-color="#507ea3"/></linearGradient><linearGradient id="g29" gradientUnits="userSpaceOnUse" x1="10.11" y1="164.49" x2="8.93" y2="164.49"><stop offset="0" stop-color="#4c7aa1"/><stop offset="1" stop-color="#5683a8"/></linearGradient><linearGradient id="g30" gradientUnits="userSpaceOnUse" x1="10.11" y1="44.49" x2="8.93" y2="44.49"><stop offset="0" stop-color="#507ea3"/><stop offset="1" stop-color="#5e89ad"/></linearGradient><linearGradient id="g31" gradientUnits="userSpaceOnUse" x1="8.94" y1="161.80" x2="8.23" y2="161.80"><stop offset="0" stop-color="#5683a8"/><stop offset="1" stop-color="#648db0"/></linearGradient><linearGradient id="g32" gradientUnits="userSpaceOnUse" x1="8.94" y1="41.80" x2="8.23" y2="41.80"><stop offset="0" stop-color="#5e89ad"/><stop offset="1" stop-color="#6e96b8"/></linearGradient><linearGradient id="g33" gradientUnits="userSpaceOnUse" x1="8.24" y1="159.06" x2="8.00" y2="159.06"><stop offset="0" stop-color="#648db0"/><stop offset="1" stop-color="#7aa0c0"/></linearGradient><linearGradient id="g34" gradientUnits="userSpaceOnUse" x1="8.24" y1="39.06" x2="8.00" y2="39.06"><stop offset="0" stop-color="#6e96b8"/><stop offset="1" stop-color="#7ea2c2"/></linearGradient><linearGradient id="g35" gradientUnits="userSpaceOnUse" x1="105.74" y1="159.06" x2="105.98" y2="159.06"><stop offset="0" stop-color="#799fbf"/><stop offset="1" stop-color="#8daeca"/></linearGradient><linearGradient id="g36" gradientUnits="userSpaceOnUse" x1="105.74" y1="39.06" x2="105.98" y2="39.06"><stop offset="0" stop-color="#799ebf"/><stop offset="1" stop-color="#8aabc8"/></linearGradient><linearGradient id="g37" gradientUnits="userSpaceOnUse" x1="105.04" y1="161.80" x2="105.74" y2="161.80"><stop offset="0" stop-color="#6b93b5"/><stop offset="1" stop-color="#799fbf"/></linearGradient><linearGradient id="g38" gradientUnits="userSpaceOnUse" x1="105.04" y1="41.80" x2="105.74" y2="41.80"><stop offset="0" stop-color="#6992b4"/><stop offset="1" stop-color="#799ebf"/></linearGradient><linearGradient id="g39" gradientUnits="userSpaceOnUse" x1="103.87" y1="164.49" x2="105.03" y2="164.50"><stop offset="0" stop-color="#5f8aad"/><stop offset="1" stop-color="#6b93b5"/></linearGradient><linearGradient id="g40" gradientUnits="userSpaceOnUse" x1="103.87" y1="44.49" x2="105.03" y2="44.50"><stop offset="0" stop-color="#5b86aa"/><stop offset="1" stop-color="#6992b4"/></linearGradient><linearGradient id="g41" gradientUnits="userSpaceOnUse" x1="102.25" y1="167.11" x2="103.86" y2="167.12"><stop offset="0" stop-color="#527fa5"/><stop offset="1" stop-color="#5f8aad"/></linearGradient><linearGradient id="g42" gradientUnits="userSpaceOnUse" x1="102.25" y1="47.11" x2="103.86" y2="47.12"><stop offset="0" stop-color="#4e7ca2"/><stop offset="1" stop-color="#5b86aa"/></linearGradient><linearGradient id="g43" gradientUnits="userSpaceOnUse" x1="100.19" y1="169.62" x2="102.24" y2="169.63"><stop offset="0" stop-color="#46769d"/><stop offset="1" stop-color="#527fa5"/></linearGradient><linearGradient id="g44" gradientUnits="userSpaceOnUse" x1="100.19" y1="49.62" x2="102.24" y2="49.63"><stop offset="0" stop-color="#43739b"/><stop offset="1" stop-color="#4e7ca2"/></linearGradient><linearGradient id="g45" gradientUnits="userSpaceOnUse" x1="97.72" y1="172.00" x2="100.18" y2="172.02"><stop offset="0" stop-color="#3c6e96"/><stop offset="1" stop-color="#46769d"/></linearGradient><linearGradient id="g46" gradientUnits="userSpaceOnUse" x1="97.72" y1="52.00" x2="100.18" y2="52.01"><stop offset="0" stop-color="#396b94"/><stop offset="1" stop-color="#43739b"/></linearGradient><linearGradient id="g47" gradientUnits="userSpaceOnUse" x1="94.86" y1="174.23" x2="97.70" y2="174.25"><stop offset="0" stop-color="#336790"/><stop offset="1" stop-color="#3c6e96"/></linearGradient><linearGradient id="g48" gradientUnits="userSpaceOnUse" x1="94.86" y1="54.23" x2="97.71" y2="54.25"><stop offset="0" stop-color="#30648e"/><stop offset="1" stop-color="#396b94"/></linearGradient><linearGradient id="g49" gradientUnits="userSpaceOnUse" x1="91.63" y1="176.28" x2="94.84" y2="176.31"><stop offset="0" stop-color="#2b608a"/><stop offset="1" stop-color="#336790"/></linearGradient><linearGradient id="g50" gradientUnits="userSpaceOnUse" x1="91.63" y1="56.28" x2="94.84" y2="56.31"><stop offset="0" stop-color="#285e89"/><stop offset="1" stop-color="#30648e"/></linearGradient></defs><g shape-rendering="geometricPrecision" stroke-linejoin="round"><polygon points="105.98,156.28 105.74,159.06 105.98,36.28" fill="url(#g35)" stroke="#85a8c6" stroke-width="0.75"/><polygon points="8.24,159.06 8.00,156.28 8.24,39.06" fill="url(#g33)" stroke="#6f96b8" stroke-width="0.75"/><polygon points="105.74,159.06 105.04,161.80 105.74,39.06" fill="url(#g37)" stroke="#749bbc" stroke-width="0.75"/><polygon points="8.94,161.80 8.24,159.06 8.94,41.80" fill="url(#g31)" stroke="#5d88ac" stroke-width="0.75"/><polygon points="105.04,161.80 103.87,164.49 105.04,41.80" fill="url(#g39)" stroke="#668fb2" stroke-width="0.75"/><polygon points="10.11,164.49 8.94,161.80 10.11,44.49" fill="url(#g29)" stroke="#517ea4" stroke-width="0.75"/><polygon points="103.87,164.49 102.25,167.11 103.87,44.49" fill="url(#g41)" stroke="#5985a9" stroke-width="0.75"/><polygon points="56.50,184.57 105.98,36.00 105.98,156.00" fill="#295f89" stroke="#295f89" stroke-width="0.75"/><polygon points="11.73,167.11 10.11,164.49 11.73,47.11" fill="url(#g27)" stroke="#45759c" stroke-width="0.75"/><polygon points="102.25,167.11 100.19,169.62 102.25,47.11" fill="url(#g43)" stroke="#4d7ba1" stroke-width="0.75"/><polygon points="13.78,169.62 11.73,167.11 13.78,49.62" fill="url(#g25)" stroke="#3a6d95" stroke-width="0.75"/><polygon points="100.19,169.62 97.72,172.00 100.19,49.62" fill="url(#g45)" stroke="#42729a" stroke-width="0.75"/><polygon points="16.26,172.00 13.78,169.62 16.26,52.00" fill="url(#g23)" stroke="#31658e" stroke-width="0.75"/><polygon points="97.72,172.00 94.86,174.23 97.72,52.00" fill="url(#g47)" stroke="#386b93" stroke-width="0.75"/><polygon points="19.12,174.23 16.26,172.00 19.12,54.23" fill="url(#g21)" stroke="#285e89" stroke-width="0.75"/><polygon points="94.86,174.23 91.63,176.28 94.86,54.23" fill="url(#g49)" stroke="#2f648d" stroke-width="0.75"/><polygon points="22.35,176.28 19.12,174.23 22.35,56.28" fill="url(#g19)" stroke="#215884" stroke-width="0.75"/><polygon points="91.63,176.28 88.07,178.15 91.63,56.28" fill="url(#g0)" stroke="#275d88" stroke-width="0.75"/><polygon points="8.00,156.28 8.00,36.28 8.24,39.06" fill="url(#g34)" stroke="#789dbe" stroke-width="0.75"/><polygon points="25.91,178.15 22.35,176.28 25.91,58.15" fill="url(#g17)" stroke="#1d5480" stroke-width="0.75"/><polygon points="105.74,159.06 105.74,39.06 105.98,36.28" fill="url(#g36)" stroke="#7fa3c2" stroke-width="0.75"/><polygon points="88.07,178.15 84.21,179.80 88.07,58.15" fill="url(#g2)" stroke="#205883" stroke-width="0.75"/><polygon points="29.77,179.80 25.91,178.15 29.77,59.80" fill="url(#g15)" stroke="#1c527c" stroke-width="0.75"/><polygon points="8.24,159.06 8.24,39.06 8.94,41.80" fill="url(#g32)" stroke="#658fb2" stroke-width="0.75"/><polygon points="84.21,179.80 80.08,181.23 84.21,59.80" fill="url(#g4)" stroke="#1d547f" stroke-width="0.75"/><polygon points="33.90,181.23 29.77,179.80 33.90,61.23" fill="url(#g13)" stroke="#1b4f79" stroke-width="0.75"/><polygon points="105.04,161.80 105.04,41.80 105.74,39.06" fill="url(#g38)" stroke="#6f96b8" stroke-width="0.75"/><polygon points="80.08,181.23 75.74,182.42 80.08,61.23" fill="url(#g6)" stroke="#1c527c" stroke-width="0.75"/><polygon points="38.24,182.42 33.90,181.23 38.24,62.42" fill="url(#g11)" stroke="#1b4e77" stroke-width="0.75"/><polygon points="8.94,161.80 8.94,41.80 10.11,44.49" fill="url(#g30)" stroke="#5783a8" stroke-width="0.75"/><polygon points="75.74,182.42 71.21,183.35 75.74,62.42" fill="url(#g8)" stroke="#1b4f79" stroke-width="0.75"/><polygon points="42.77,183.35 38.24,182.42 42.77,63.35" fill="#1a4c75" stroke="#1a4c75" stroke-width="0.75"/><polygon points="71.21,183.35 66.55,184.03 71.21,63.35" fill="url(#g10)" stroke="#1b4e77" stroke-width="0.75"/><polygon points="103.87,164.49 103.87,44.49 105.04,41.80" fill="url(#g40)" stroke="#618baf" stroke-width="0.75"/><polygon points="47.43,184.03 42.77,183.35 47.43,64.03" fill="#1a4b74" stroke="#1a4b74" stroke-width="0.75"/><polygon points="66.55,184.03 61.79,184.43 66.55,64.03" fill="#1a4c75" stroke="#1a4c75" stroke-width="0.75"/><polygon points="52.19,184.43 47.43,184.03 52.19,64.43" fill="#1a4b73" stroke="#1a4b73" stroke-width="0.75"/><polygon points="61.79,184.43 56.99,184.57 61.79,64.43" fill="#1a4b74" stroke="#1a4b74" stroke-width="0.75"/><polygon points="56.99,184.57 52.19,184.43 56.99,64.57" fill="#1a4b73" stroke="#1a4b73" stroke-width="0.75"/><polygon points="10.11,164.49 10.11,44.49 11.73,47.11" fill="url(#g28)" stroke="#4b7aa0" stroke-width="0.75"/><polygon points="102.25,167.11 102.25,47.11 103.87,44.49" fill="url(#g42)" stroke="#5481a6" stroke-width="0.75"/><polygon points="56.50,64.57 55.20,8.02 60.09,8.06" fill="#a8c3d9" stroke="#a8c3d9" stroke-width="0.75"/><polygon points="56.50,64.57 50.33,8.26 55.20,8.02" fill="#a8c3d9" stroke="#a8c3d9" stroke-width="0.75"/><polygon points="56.50,64.57 60.09,8.06 64.94,8.38" fill="#a8c3d9" stroke="#a8c3d9" stroke-width="0.75"/><polygon points="56.50,64.57 45.52,8.79 50.33,8.26" fill="#a8c3d9" stroke="#a8c3d9" stroke-width="0.75"/><polygon points="56.50,64.57 64.94,8.38 69.72,8.97" fill="#a8c3d9" stroke="#a8c3d9" stroke-width="0.75"/><polygon points="56.50,64.57 40.83,9.58 45.52,8.79" fill="#a8c3d9" stroke="#a8c3d9" stroke-width="0.75"/><polygon points="56.50,64.57 69.72,8.97 74.37,9.84" fill="#a8c3d9" stroke="#a8c3d9" stroke-width="0.75"/><polygon points="11.73,167.11 11.73,47.11 13.78,49.62" fill="url(#g26)" stroke="#3f7098" stroke-width="0.75"/><polygon points="56.50,64.57 36.30,10.65 40.83,9.58" fill="#a8c3d9" stroke="#a8c3d9" stroke-width="0.75"/><polygon points="56.50,64.57 74.37,9.84 78.85,10.97" fill="#a8c3d9" stroke="#a8c3d9" stroke-width="0.75"/><polygon points="100.19,169.62 100.19,49.62 102.25,47.11" fill="url(#g44)" stroke="#48779e" stroke-width="0.75"/><polygon points="56.50,64.57 31.98,11.96 36.30,10.65" fill="#a8c3d9" stroke="#a8c3d9" stroke-width="0.75"/><polygon points="56.50,64.57 78.85,10.97 83.11,12.36" fill="#a8c3d9" stroke="#a8c3d9" stroke-width="0.75"/><polygon points="56.50,64.57 27.90,13.52 31.98,11.96" fill="#a8c3d9" stroke="#a8c3d9" stroke-width="0.75"/><polygon points="56.50,64.57 83.11,12.36 87.11,13.98" fill="#a8c3d9" stroke="#a8c3d9" stroke-width="0.75"/><polygon points="13.78,169.62 13.78,49.62 16.26,52.00" fill="url(#g24)" stroke="#356891" stroke-width="0.75"/><polygon points="56.50,64.57 24.12,15.31 27.90,13.52" fill="#a8c3d9" stroke="#a8c3d9" stroke-width="0.75"/><polygon points="97.72,172.00 97.72,52.00 100.19,49.62" fill="url(#g46)" stroke="#3d6f97" stroke-width="0.75"/><polygon points="56.50,64.57 87.11,13.98 90.81,15.82" fill="#a8c3d9" stroke="#a8c3d9" stroke-width="0.75"/><polygon points="56.50,64.57 20.66,17.31 24.12,15.31" fill="#a8c3d9" stroke="#a8c3d9" stroke-width="0.75"/><polygon points="16.26,172.00 16.26,52.00 19.12,54.23" fill="url(#g22)" stroke="#2c618b" stroke-width="0.75"/><polygon points="56.50,64.57 90.81,15.82 94.18,17.87" fill="#a8c3d9" stroke="#a8c3d9" stroke-width="0.75"/><polygon points="94.86,174.23 94.86,54.23 97.72,52.00" fill="url(#g48)" stroke="#346791" stroke-width="0.75"/><polygon points="56.50,64.57 17.57,19.49 20.66,17.31" fill="#a8c3d9" stroke="#a8c3d9" stroke-width="0.75"/><polygon points="56.50,64.57 94.18,17.87 97.17,20.10" fill="#a8c3d9" stroke="#a8c3d9" stroke-width="0.75"/><polygon points="19.12,174.23 19.12,54.23 22.35,56.28" fill="url(#g20)" stroke="#245b86" stroke-width="0.75"/><polygon points="56.50,184.57 56.50,64.57 105.98,36.00" fill="#295f89" stroke="#295f89" stroke-width="0.75"/><polygon points="56.50,64.57 14.87,21.84 17.57,19.49" fill="#a8c3d9" stroke="#a8c3d9" stroke-width="0.75"/><polygon points="91.63,176.28 91.63,56.28 94.86,54.23" fill="url(#g50)" stroke="#2b618b" stroke-width="0.75"/><polygon points="56.50,64.57 97.17,20.10 99.76,22.50" fill="#a8c3d9" stroke="#a8c3d9" stroke-width="0.75"/><polygon points="22.35,176.28 22.35,56.28 25.91,58.15" fill="url(#g18)" stroke="#1e5581" stroke-width="0.75"/><polygon points="56.50,64.57 12.58,24.34 14.87,21.84" fill="#a8c3d9" stroke="#a8c3d9" stroke-width="0.75"/><polygon points="56.50,64.57 99.76,22.50 101.93,25.03" fill="#a8c3d9" stroke="#a8c3d9" stroke-width="0.75"/><polygon points="88.07,178.15 88.07,58.15 91.63,56.28" fill="url(#g1)" stroke="#245b86" stroke-width="0.75"/><polygon points="56.50,64.57 10.74,26.96 12.58,24.34" fill="#a8c3d9" stroke="#a8c3d9" stroke-width="0.75"/><polygon points="25.91,178.15 25.91,58.15 29.77,59.80" fill="url(#g16)" stroke="#1d537e" stroke-width="0.75"/><polygon points="56.50,64.57 101.93,25.03 103.65,27.67" fill="#a8c3d9" stroke="#a8c3d9" stroke-width="0.75"/><polygon points="84.21,179.80 84.21,59.80 88.07,58.15" fill="url(#g3)" stroke="#1e5681" stroke-width="0.75"/><polygon points="29.77,179.80 29.77,59.80 33.90,61.23" fill="url(#g14)" stroke="#1c507a" stroke-width="0.75"/><polygon points="56.50,64.57 9.36,29.66 10.74,26.96" fill="#a8c3d9" stroke="#a8c3d9" stroke-width="0.75"/><polygon points="80.08,181.23 80.08,61.23 84.21,59.80" fill="url(#g5)" stroke="#1d537e" stroke-width="0.75"/><polygon points="56.50,64.57 103.65,27.67 104.91,30.40" fill="#a8c3d9" stroke="#a8c3d9" stroke-width="0.75"/><polygon points="33.90,181.23 33.90,61.23 38.24,62.42" fill="url(#g12)" stroke="#1b4e78" stroke-width="0.75"/><polygon points="75.74,182.42 75.74,62.42 80.08,61.23" fill="url(#g7)" stroke="#1c517b" stroke-width="0.75"/><polygon points="56.50,64.57 8.46,32.44 9.36,29.66" fill="#a8c3d9" stroke="#a8c3d9" stroke-width="0.75"/><polygon points="56.50,64.57 104.91,30.40 105.68,33.18" fill="#a8c3d9" stroke="#a8c3d9" stroke-width="0.75"/><polygon points="38.24,182.42 38.24,62.42 42.77,63.35" fill="#1a4d76" stroke="#1a4d76" stroke-width="0.75"/><polygon points="71.21,183.35 71.21,63.35 75.74,62.42" fill="url(#g9)" stroke="#1b4f78" stroke-width="0.75"/><polygon points="42.77,183.35 42.77,63.35 47.43,64.03" fill="#1a4c74" stroke="#1a4c74" stroke-width="0.75"/><polygon points="66.55,184.03 66.55,64.03 71.21,63.35" fill="#1a4d76" stroke="#1a4d76" stroke-width="0.75"/><polygon points="56.50,64.57 8.03,35.25 8.46,32.44" fill="#a8c3d9" stroke="#a8c3d9" stroke-width="0.75"/><polygon points="47.43,184.03 47.43,64.03 52.19,64.43" fill="#1a4b73" stroke="#1a4b73" stroke-width="0.75"/><polygon points="61.79,184.43 61.79,64.43 66.55,64.03" fill="#1a4c74" stroke="#1a4c74" stroke-width="0.75"/><polygon points="52.19,184.43 52.19,64.43 56.99,64.57" fill="#194b73" stroke="#194b73" stroke-width="0.75"/><polygon points="56.99,184.57 56.99,64.57 61.79,64.43" fill="#1a4b73" stroke="#1a4b73" stroke-width="0.75"/><polygon points="56.50,64.57 105.68,33.18 105.98,36.00" fill="#a8c3d9" stroke="#a8c3d9" stroke-width="0.75"/><polygon points="56.50,64.57 8.10,38.07 8.03,35.25" fill="#a8c3d9" stroke="#a8c3d9" stroke-width="0.75"/><polygon points="56.50,64.57 8.65,40.88 8.10,38.07" fill="#a8c3d9" stroke="#a8c3d9" stroke-width="0.75"/><polygon points="56.50,64.57 9.68,43.63 8.65,40.88" fill="#a8c3d9" stroke="#a8c3d9" stroke-width="0.75"/><polygon points="56.50,64.57 11.19,46.32 9.68,43.63" fill="#a8c3d9" stroke="#a8c3d9" stroke-width="0.75"/><polygon points="56.50,64.57 13.15,48.91 11.19,46.32" fill="#a8c3d9" stroke="#a8c3d9" stroke-width="0.75"/><polygon points="56.50,64.57 15.55,51.37 13.15,48.91" fill="#a8c3d9" stroke="#a8c3d9" stroke-width="0.75"/><polygon points="56.50,64.57 18.36,53.68 15.55,51.37" fill="#a8c3d9" stroke="#a8c3d9" stroke-width="0.75"/><polygon points="56.50,64.57 21.55,55.81 18.36,53.68" fill="#a8c3d9" stroke="#a8c3d9" stroke-width="0.75"/><polygon points="56.50,64.57 25.10,57.75 21.55,55.81" fill="#a8c3d9" stroke="#a8c3d9" stroke-width="0.75"/><polygon points="56.50,64.57 28.96,59.48 25.10,57.75" fill="#a8c3d9" stroke="#a8c3d9" stroke-width="0.75"/><polygon points="56.50,64.57 33.11,60.98 28.96,59.48" fill="#a8c3d9" stroke="#a8c3d9" stroke-width="0.75"/><polygon points="56.50,64.57 37.49,62.23 33.11,60.98" fill="#a8c3d9" stroke="#a8c3d9" stroke-width="0.75"/><polygon points="56.50,64.57 42.07,63.22 37.49,62.23" fill="#a8c3d9" stroke="#a8c3d9" stroke-width="0.75"/><polygon points="56.50,64.57 46.79,63.95 42.07,63.22" fill="#a8c3d9" stroke="#a8c3d9" stroke-width="0.75"/><polygon points="56.50,64.57 51.62,64.40 46.79,63.95" fill="#a8c3d9" stroke="#a8c3d9" stroke-width="0.75"/></g><g stroke="#0b2742" stroke-width="0.45" stroke-linecap="round" fill="none" opacity="0.5" stroke-dasharray="2.00 1.20"><line x1="60.09" y1="128.06" x2="55.20" y2="128.02"/><line x1="71.21" y1="129.22" x2="75.74" y2="130.15"/><line x1="91.63" y1="136.28" x2="94.86" y2="138.34"/><line x1="101.93" y1="145.03" x2="99.76" y2="142.50"/><line x1="24.12" y1="135.31" x2="20.66" y2="137.31"/><line x1="66.55" y1="128.54" x2="71.21" y2="129.22"/><line x1="8.46" y1="152.44" x2="8.21" y2="154.09"/><line x1="103.65" y1="147.67" x2="101.93" y2="145.03"/><line x1="16.26" y1="140.57" x2="19.12" y2="138.34"/><line x1="11.73" y1="145.46" x2="13.78" y2="142.95"/><line x1="14.87" y1="141.84" x2="12.58" y2="144.34"/><line x1="8.94" y1="150.77" x2="10.11" y2="148.07"/><line x1="20.66" y1="137.31" x2="17.57" y2="139.49"/><line x1="88.07" y1="134.42" x2="91.63" y2="136.28"/><line x1="31.98" y1="131.96" x2="27.90" y2="133.52"/><line x1="52.19" y1="128.14" x2="56.99" y2="128.00"/><line x1="84.21" y1="132.77" x2="88.07" y2="134.42"/><line x1="102.25" y1="145.46" x2="103.87" y2="148.07"/><line x1="40.83" y1="129.58" x2="36.30" y2="130.65"/><line x1="97.17" y1="140.10" x2="94.18" y2="137.87"/><line x1="56.99" y1="128.00" x2="61.79" y2="128.14"/><line x1="74.37" y1="129.84" x2="69.72" y2="128.97"/><line x1="103.87" y1="148.07" x2="105.04" y2="150.77"/><line x1="105.68" y1="153.18" x2="104.91" y2="150.40"/><line x1="105.04" y1="150.77" x2="105.74" y2="153.51"/><line x1="12.58" y1="144.34" x2="10.74" y2="146.96"/><line x1="38.24" y1="130.15" x2="42.77" y2="129.22"/><line x1="50.33" y1="128.26" x2="45.52" y2="128.79"/><line x1="87.11" y1="133.98" x2="83.11" y2="132.36"/><line x1="25.91" y1="134.42" x2="29.77" y2="132.77"/><line x1="13.78" y1="142.95" x2="16.26" y2="140.57"/><line x1="47.43" y1="128.54" x2="52.19" y2="128.14"/><line x1="19.12" y1="138.34" x2="22.35" y2="136.28"/><line x1="69.72" y1="128.97" x2="64.94" y2="128.38"/><line x1="83.11" y1="132.36" x2="78.85" y2="130.97"/><line x1="42.77" y1="129.22" x2="47.43" y2="128.54"/><line x1="100.19" y1="142.95" x2="102.25" y2="145.46"/><line x1="94.86" y1="138.34" x2="97.72" y2="140.57"/><line x1="94.18" y1="137.87" x2="90.81" y2="135.82"/><line x1="55.20" y1="128.02" x2="50.33" y2="128.26"/><line x1="8.24" y1="153.51" x2="8.94" y2="150.77"/><line x1="10.74" y1="146.96" x2="9.36" y2="149.66"/><line x1="105.67" y1="156.18" x2="59.22" y2="182.99"/><line x1="90.81" y1="135.82" x2="87.11" y2="133.98"/><line x1="99.76" y1="142.50" x2="97.17" y2="140.10"/><line x1="61.79" y1="128.14" x2="66.55" y2="128.54"/><line x1="78.85" y1="130.97" x2="74.37" y2="129.84"/><line x1="75.74" y1="130.15" x2="80.08" y2="131.34"/><line x1="29.77" y1="132.77" x2="33.90" y2="131.34"/><line x1="45.52" y1="128.79" x2="40.83" y2="129.58"/><line x1="36.30" y1="130.65" x2="31.98" y2="131.96"/><line x1="27.90" y1="133.52" x2="24.12" y2="135.31"/><line x1="9.36" y1="149.66" x2="8.46" y2="152.44"/><line x1="33.90" y1="131.34" x2="38.24" y2="130.15"/><line x1="80.08" y1="131.34" x2="84.21" y2="132.77"/><line x1="10.11" y1="148.07" x2="11.73" y2="145.46"/><line x1="22.35" y1="136.28" x2="25.91" y2="134.42"/><line x1="17.57" y1="139.49" x2="14.87" y2="141.84"/><line x1="97.72" y1="140.57" x2="100.19" y2="142.95"/><line x1="64.94" y1="128.38" x2="60.09" y2="128.06"/><line x1="104.91" y1="150.40" x2="103.65" y2="147.67"/></g><g stroke="#0b2742" stroke-width="0.5" stroke-linecap="round" fill="none" opacity="1"><line x1="56.50" y1="64.57" x2="105.98" y2="36.00"/></g><g stroke="#0b2742" stroke-width="1.2" stroke-linecap="round" fill="none" opacity="1"><line x1="84.21" y1="12.77" x2="88.07" y2="14.42"/><line x1="97.17" y1="20.10" x2="99.76" y2="22.50"/><line x1="71.21" y1="63.35" x2="66.55" y2="64.03"/><line x1="100.19" y1="49.62" x2="97.72" y2="52.00"/><line x1="104.91" y1="30.40" x2="105.68" y2="33.18"/><line x1="42.77" y1="9.22" x2="47.43" y2="8.54"/><line x1="10.74" y1="26.96" x2="12.58" y2="24.34"/><line x1="75.74" y1="62.42" x2="71.21" y2="63.35"/><line x1="100.19" y1="22.95" x2="102.25" y2="25.46"/><line x1="8.65" y1="160.88" x2="9.68" y2="163.63"/><line x1="97.72" y1="52.00" x2="94.86" y2="54.23"/><line x1="88.07" y1="58.15" x2="84.21" y2="59.80"/><line x1="18.36" y1="53.68" x2="15.55" y2="51.37"/><line x1="33.11" y1="60.98" x2="28.96" y2="59.48"/><line x1="8.65" y1="40.88" x2="8.10" y2="38.07"/><line x1="22.35" y1="16.28" x2="25.91" y2="14.42"/><line x1="20.66" y1="17.31" x2="24.12" y2="15.31"/><line x1="42.07" y1="63.22" x2="37.49" y2="62.23"/><line x1="99.76" y1="22.50" x2="101.93" y2="25.03"/><line x1="84.21" y1="59.80" x2="80.08" y2="61.23"/><line x1="38.24" y1="10.15" x2="42.77" y2="9.22"/><line x1="105.98" y1="156.28" x2="105.98" y2="36.28"/><line x1="69.72" y1="8.97" x2="74.37" y2="9.84"/><line x1="101.93" y1="25.03" x2="103.65" y2="27.67"/><line x1="31.98" y1="11.96" x2="36.30" y2="10.65"/><line x1="8.21" y1="154.09" x2="8.03" y2="155.25"/><line x1="16.26" y1="172.00" x2="13.78" y2="169.62"/><line x1="13.15" y1="168.91" x2="15.55" y2="171.37"/><line x1="66.55" y1="8.54" x2="71.21" y2="9.22"/><line x1="105.74" y1="159.06" x2="105.04" y2="161.80"/><line x1="11.73" y1="47.11" x2="10.11" y2="44.49"/><line x1="8.00" y1="156.28" x2="8.00" y2="36.28"/><line x1="88.07" y1="14.42" x2="91.63" y2="16.28"/><line x1="51.62" y1="64.40" x2="46.79" y2="63.95"/><line x1="66.55" y1="184.03" x2="61.79" y2="184.43"/><line x1="25.10" y1="57.75" x2="21.55" y2="55.81"/><line x1="27.90" y1="13.52" x2="31.98" y2="11.96"/><line x1="22.35" y1="176.28" x2="19.12" y2="174.23"/><line x1="50.33" y1="8.26" x2="55.20" y2="8.02"/><line x1="8.03" y1="35.25" x2="8.46" y2="32.44"/><line x1="45.52" y1="8.79" x2="50.33" y2="8.26"/><line x1="80.08" y1="181.23" x2="75.74" y2="182.42"/><line x1="66.55" y1="64.03" x2="61.79" y2="64.43"/><line x1="105.98" y1="156.28" x2="105.74" y2="159.06"/><line x1="74.37" y1="9.84" x2="78.85" y2="10.97"/><line x1="64.94" y1="8.38" x2="69.72" y2="8.97"/><line x1="105.98" y1="156.00" x2="105.98" y2="36.00"/><line x1="37.49" y1="182.23" x2="42.07" y2="183.22"/><line x1="29.77" y1="179.80" x2="25.91" y2="178.15"/><line x1="94.18" y1="17.87" x2="97.17" y2="20.10"/><line x1="13.78" y1="169.62" x2="11.73" y2="167.11"/><line x1="91.63" y1="176.28" x2="94.86" y2="174.23"/><line x1="19.12" y1="18.34" x2="22.35" y2="16.28"/><line x1="80.08" y1="61.23" x2="75.74" y2="62.42"/><line x1="87.11" y1="13.98" x2="90.81" y2="15.82"/><line x1="33.11" y1="180.98" x2="37.49" y2="182.23"/><line x1="61.79" y1="64.43" x2="56.99" y2="64.57"/><line x1="15.55" y1="171.37" x2="18.36" y2="173.68"/><line x1="52.19" y1="184.43" x2="47.43" y2="184.03"/><line x1="61.79" y1="184.43" x2="56.99" y2="184.57"/><line x1="10.11" y1="164.49" x2="8.94" y2="161.80"/><line x1="105.74" y1="39.06" x2="105.04" y2="41.80"/><line x1="21.55" y1="55.81" x2="18.36" y2="53.68"/><line x1="8.46" y1="32.44" x2="9.36" y2="29.66"/><line x1="105.68" y1="33.18" x2="105.98" y2="36.00"/><line x1="80.08" y1="11.34" x2="84.21" y2="12.77"/><line x1="38.24" y1="182.42" x2="33.90" y2="181.23"/><line x1="105.74" y1="153.51" x2="105.74" y2="153.51"/><line x1="24.12" y1="15.31" x2="27.90" y2="13.52"/><line x1="102.25" y1="167.11" x2="100.19" y2="169.62"/><line x1="46.79" y1="63.95" x2="42.07" y2="63.22"/><line x1="8.10" y1="38.07" x2="8.03" y2="35.25"/><line x1="8.24" y1="33.51" x2="8.94" y2="30.77"/><line x1="25.91" y1="14.42" x2="29.77" y2="12.77"/><line x1="75.74" y1="10.15" x2="80.08" y2="11.34"/><line x1="105.04" y1="41.80" x2="103.87" y2="44.49"/><line x1="11.73" y1="25.46" x2="13.78" y2="22.95"/><line x1="8.10" y1="158.07" x2="8.65" y2="160.88"/><line x1="14.87" y1="21.84" x2="17.57" y2="19.49"/><line x1="55.20" y1="8.02" x2="60.09" y2="8.06"/><line x1="56.99" y1="8.00" x2="61.79" y2="8.14"/><line x1="47.43" y1="8.54" x2="52.19" y2="8.14"/><line x1="61.79" y1="8.14" x2="66.55" y2="8.54"/><line x1="38.24" y1="62.42" x2="33.90" y2="61.23"/><line x1="42.77" y1="63.35" x2="38.24" y2="62.42"/><line x1="8.24" y1="39.06" x2="8.00" y2="36.28"/><line x1="40.83" y1="9.58" x2="45.52" y2="8.79"/><line x1="91.63" y1="56.28" x2="88.07" y2="58.15"/><line x1="56.50" y1="184.57" x2="56.50" y2="64.57"/><line x1="8.94" y1="161.80" x2="8.24" y2="159.06"/><line x1="21.55" y1="175.81" x2="25.10" y2="177.75"/><line x1="8.24" y1="159.06" x2="8.00" y2="156.28"/><line x1="91.63" y1="16.28" x2="94.86" y2="18.34"/><line x1="15.55" y1="51.37" x2="13.15" y2="48.91"/><line x1="11.19" y1="46.32" x2="9.68" y2="43.63"/><line x1="8.00" y1="36.28" x2="8.24" y2="33.51"/><line x1="94.86" y1="18.34" x2="97.72" y2="20.57"/><line x1="105.74" y1="33.51" x2="105.98" y2="36.28"/><line x1="105.04" y1="161.80" x2="103.87" y2="164.49"/><line x1="105.04" y1="30.77" x2="105.74" y2="33.51"/><line x1="105.98" y1="156.00" x2="105.74" y2="153.68"/><line x1="16.26" y1="20.57" x2="19.12" y2="18.34"/><line x1="103.87" y1="28.07" x2="105.04" y2="30.77"/><line x1="37.49" y1="62.23" x2="33.11" y2="60.98"/><line x1="105.98" y1="156.00" x2="105.67" y2="156.18"/><line x1="59.22" y1="182.99" x2="56.50" y2="184.57"/><line x1="33.90" y1="61.23" x2="29.77" y2="59.80"/><line x1="8.94" y1="30.77" x2="10.11" y2="28.07"/><line x1="9.36" y1="29.66" x2="10.74" y2="26.96"/><line x1="103.65" y1="27.67" x2="104.91" y2="30.40"/><line x1="42.77" y1="183.35" x2="38.24" y2="182.42"/><line x1="36.30" y1="10.65" x2="40.83" y2="9.58"/><line x1="9.68" y1="163.63" x2="11.19" y2="166.32"/><line x1="88.07" y1="178.15" x2="84.21" y2="179.80"/><line x1="17.57" y1="19.49" x2="20.66" y2="17.31"/><line x1="52.19" y1="64.43" x2="47.43" y2="64.03"/><line x1="47.43" y1="64.03" x2="42.77" y2="63.35"/><line x1="42.07" y1="183.22" x2="46.79" y2="183.95"/><line x1="105.98" y1="36.28" x2="105.74" y2="39.06"/><line x1="71.21" y1="9.22" x2="75.74" y2="10.15"/><line x1="29.77" y1="12.77" x2="33.90" y2="11.34"/><line x1="103.87" y1="44.49" x2="102.25" y2="47.11"/><line x1="102.25" y1="47.11" x2="100.19" y2="49.62"/><line x1="90.81" y1="15.82" x2="94.18" y2="17.87"/><line x1="60.09" y1="8.06" x2="64.94" y2="8.38"/><line x1="8.03" y1="155.25" x2="8.10" y2="158.07"/><line x1="11.73" y1="167.11" x2="10.11" y2="164.49"/><line x1="71.21" y1="183.35" x2="66.55" y2="184.03"/><line x1="56.99" y1="184.57" x2="52.19" y2="184.43"/><line x1="25.91" y1="178.15" x2="22.35" y2="176.28"/><line x1="22.35" y1="56.28" x2="19.12" y2="54.23"/><line x1="13.78" y1="49.62" x2="11.73" y2="47.11"/><line x1="10.11" y1="44.49" x2="8.94" y2="41.80"/><line x1="105.74" y1="153.51" x2="105.98" y2="156.28"/><line x1="91.63" y1="56.28" x2="94.86" y2="54.23"/><line x1="56.50" y1="64.57" x2="51.62" y2="64.40"/><line x1="10.11" y1="28.07" x2="11.73" y2="25.46"/><line x1="91.63" y1="176.28" x2="88.07" y2="178.15"/><line x1="75.74" y1="182.42" x2="71.21" y2="183.35"/><line x1="19.12" y1="174.23" x2="16.26" y2="172.00"/><line x1="52.19" y1="8.14" x2="56.99" y2="8.00"/><line x1="100.19" y1="169.62" x2="97.72" y2="172.00"/><line x1="33.90" y1="11.34" x2="38.24" y2="10.15"/><line x1="18.36" y1="173.68" x2="21.55" y2="175.81"/><line x1="29.77" y1="59.80" x2="25.91" y2="58.15"/><line x1="97.72" y1="172.00" x2="94.86" y2="174.23"/><line x1="19.12" y1="54.23" x2="16.26" y2="52.00"/><line x1="9.68" y1="43.63" x2="8.65" y2="40.88"/><line x1="51.62" y1="184.40" x2="56.50" y2="184.57"/><line x1="8.00" y1="156.28" x2="8.24" y2="153.51"/><line x1="12.58" y1="24.34" x2="14.87" y2="21.84"/><line x1="25.10" y1="177.75" x2="28.96" y2="179.48"/><line x1="8.94" y1="41.80" x2="8.24" y2="39.06"/><line x1="103.87" y1="164.49" x2="102.25" y2="167.11"/><line x1="33.90" y1="181.23" x2="29.77" y2="179.80"/><line x1="28.96" y1="179.48" x2="33.11" y2="180.98"/><line x1="13.78" y1="22.95" x2="16.26" y2="20.57"/><line x1="84.21" y1="179.80" x2="80.08" y2="181.23"/><line x1="46.79" y1="183.95" x2="51.62" y2="184.40"/><line x1="56.99" y1="64.57" x2="52.19" y2="64.43"/><line x1="28.96" y1="59.48" x2="25.10" y2="57.75"/><line x1="102.25" y1="25.46" x2="103.87" y2="28.07"/><line x1="16.26" y1="52.00" x2="13.78" y2="49.62"/><line x1="47.43" y1="184.03" x2="42.77" y2="183.35"/><line x1="25.91" y1="58.15" x2="22.35" y2="56.28"/><line x1="11.19" y1="166.32" x2="13.15" y2="168.91"/><line x1="13.15" y1="48.91" x2="11.19" y2="46.32"/><line x1="97.72" y1="20.57" x2="100.19" y2="22.95"/><line x1="78.85" y1="10.97" x2="83.11" y2="12.36"/><line x1="83.11" y1="12.36" x2="87.11" y2="13.98"/></g></svg>
