G04 Generated by vcad-ecad-export*
%FSLAX46Y46*%
%MOMM*%
%TF.FileFunction,Copper,L2,Bot*%
%TF.GenerationSoftware,vcad,vcad-ecad-export*%
%ADD10C,0.800000*%
D10*
X42000000Y29000000D03*
X41364000Y33017000D03*
X39517000Y36641000D03*
X36641000Y39517000D03*
X33017000Y41364000D03*
X29000000Y42000000D03*
X24983000Y41364000D03*
X21359000Y39517000D03*
X18483000Y36641000D03*
X16636000Y33017000D03*
X16000000Y29000000D03*
X16636000Y24983000D03*
X18483000Y21359000D03*
X21359000Y18483000D03*
X24983000Y16636000D03*
X29000000Y16000000D03*
X33017000Y16636000D03*
X36641000Y18483000D03*
X39517000Y21359000D03*
X41364000Y24983000D03*
X49000000Y29000000D03*
X48499000Y33450000D03*
X47019000Y37678000D03*
X44637000Y41470000D03*
X41470000Y44637000D03*
X37678000Y47019000D03*
X33450000Y48499000D03*
X29000000Y49000000D03*
X24550000Y48499000D03*
X20322000Y47019000D03*
X16530000Y44637000D03*
X13363000Y41470000D03*
X10981000Y37678000D03*
X9501000Y33450000D03*
X9000000Y29000000D03*
X9501000Y24550000D03*
X10981000Y20322000D03*
X13363000Y16530000D03*
X16530000Y13363000D03*
X20322000Y10981000D03*
X24550000Y9501000D03*
X29000000Y9000000D03*
X33450000Y9501000D03*
X37678000Y10981000D03*
X41470000Y13363000D03*
X44637000Y16530000D03*
X47019000Y20322000D03*
X48499000Y24550000D03*
X56000000Y29000000D03*
X55590000Y33689000D03*
X54372000Y38235000D03*
X52383000Y42500000D03*
X49683000Y46355000D03*
X46355000Y49683000D03*
X42500000Y52383000D03*
X38235000Y54372000D03*
X33689000Y55590000D03*
X29000000Y56000000D03*
X24311000Y55590000D03*
X19765000Y54372000D03*
X15500000Y52383000D03*
X11645000Y49683000D03*
X8317000Y46355000D03*
X5617000Y42500000D03*
X3628000Y38235000D03*
X2410000Y33689000D03*
X2000000Y29000000D03*
X2410000Y24311000D03*
X3628000Y19765000D03*
X5617000Y15500000D03*
X8317000Y11645000D03*
X11645000Y8317000D03*
X15500000Y5617000D03*
X19765000Y3628000D03*
X24311000Y2410000D03*
X29000000Y2000000D03*
X33689000Y2410000D03*
X38235000Y3628000D03*
X42500000Y5617000D03*
X46355000Y8317000D03*
X49683000Y11645000D03*
X52383000Y15500000D03*
X54372000Y19765000D03*
X55590000Y24311000D03*
G36*
X0Y29000000D02*
X140000Y26158000D01*
X557000Y23342000D01*
X1249000Y20582000D01*
X2208000Y17902000D01*
X3424000Y15330000D01*
X4887000Y12889000D01*
X6583000Y10603000D01*
X8494000Y8494000D01*
X10603000Y6583000D01*
X12889000Y4887000D01*
X15330000Y3424000D01*
X17902000Y2208000D01*
X20582000Y1249000D01*
X23342000Y557000D01*
X26158000Y140000D01*
X29000000Y0D01*
X31843000Y140000D01*
X34658000Y557000D01*
X37418000Y1249000D01*
X40098000Y2208000D01*
X42671000Y3424000D01*
X45112000Y4887000D01*
X47397000Y6583000D01*
X49506000Y8494000D01*
X51417000Y10603000D01*
X53113000Y12889000D01*
X54576000Y15330000D01*
X55793000Y17902000D01*
X56751000Y20582000D01*
X57443000Y23342000D01*
X57860000Y26158000D01*
X58000000Y29000000D01*
X57860000Y31843000D01*
X57443000Y34658000D01*
X56751000Y37418000D01*
X55793000Y40098000D01*
X54576000Y42671000D01*
X53113000Y45112000D01*
X51417000Y47397000D01*
X49506000Y49506000D01*
X47397000Y51417000D01*
X45112000Y53113000D01*
X42671000Y54576000D01*
X40098000Y55793000D01*
X37418000Y56751000D01*
X34658000Y57443000D01*
X31843000Y57860000D01*
X29000000Y58000000D01*
X26158000Y57860000D01*
X23342000Y57443000D01*
X20582000Y56751000D01*
X17902000Y55793000D01*
X15330000Y54576000D01*
X12889000Y53113000D01*
X10603000Y51417000D01*
X8494000Y49506000D01*
X6583000Y47397000D01*
X4887000Y45112000D01*
X3424000Y42671000D01*
X2208000Y40098000D01*
X1249000Y37418000D01*
X557000Y34658000D01*
X140000Y31843000D01*
X0Y29000000D01*
X19429000Y28349000D02*
X19300000Y29000000D01*
X19429000Y29651000D01*
X19798000Y30202000D01*
X20349000Y30571000D01*
X21000000Y30700000D01*
X21651000Y30571000D01*
X22202000Y30202000D01*
X22571000Y29651000D01*
X22700000Y29000000D01*
X22571000Y28349000D01*
X22202000Y27798000D01*
X21651000Y27429000D01*
X21000000Y27300000D01*
X20349000Y27429000D01*
X19798000Y27798000D01*
X19429000Y28349000D01*
X25120000Y27393000D02*
X24800000Y29000000D01*
X25120000Y30607000D01*
X26030000Y31970000D01*
X27393000Y32880000D01*
X29000000Y33200000D01*
X30607000Y32880000D01*
X31970000Y31970000D01*
X32880000Y30607000D01*
X33200000Y29000000D01*
X32880000Y27393000D01*
X31970000Y26030000D01*
X30607000Y25120000D01*
X29000000Y24800000D01*
X27393000Y25120000D01*
X26030000Y26030000D01*
X25120000Y27393000D01*
X27429000Y20349000D02*
X27300000Y21000000D01*
X27429000Y21651000D01*
X27798000Y22202000D01*
X28349000Y22571000D01*
X29000000Y22700000D01*
X29651000Y22571000D01*
X30202000Y22202000D01*
X30571000Y21651000D01*
X30700000Y21000000D01*
X30571000Y20349000D01*
X30202000Y19798000D01*
X29651000Y19429000D01*
X29000000Y19300000D01*
X28349000Y19429000D01*
X27798000Y19798000D01*
X27429000Y20349000D01*
X27429000Y36349000D02*
X27300000Y37000000D01*
X27429000Y37651000D01*
X27798000Y38202000D01*
X28349000Y38571000D01*
X29000000Y38700000D01*
X29651000Y38571000D01*
X30202000Y38202000D01*
X30571000Y37651000D01*
X30700000Y37000000D01*
X30571000Y36349000D01*
X30202000Y35798000D01*
X29651000Y35429000D01*
X29000000Y35300000D01*
X28349000Y35429000D01*
X27798000Y35798000D01*
X27429000Y36349000D01*
X35429000Y28349000D02*
X35300000Y29000000D01*
X35429000Y29651000D01*
X35798000Y30202000D01*
X36349000Y30571000D01*
X37000000Y30700000D01*
X37651000Y30571000D01*
X38202000Y30202000D01*
X38571000Y29651000D01*
X38700000Y29000000D01*
X38571000Y28349000D01*
X38202000Y27798000D01*
X37651000Y27429000D01*
X37000000Y27300000D01*
X36349000Y27429000D01*
X35798000Y27798000D01*
X35429000Y28349000D01*
G37*
M02*
