M48
;Generated by vcad-ecad-export
;FORMAT={-:-/ absolute / metric / decimal}
FMAT,2
METRIC,TZ
T01C0.4000
%
G90
G05
T01
X42.0000Y29.0000
X41.3640Y33.0170
X39.5170Y36.6410
X36.6410Y39.5170
X33.0170Y41.3640
X29.0000Y42.0000
X24.9830Y41.3640
X21.3590Y39.5170
X18.4830Y36.6410
X16.6360Y33.0170
X16.0000Y29.0000
X16.6360Y24.9830
X18.4830Y21.3590
X21.3590Y18.4830
X24.9830Y16.6360
X29.0000Y16.0000
X33.0170Y16.6360
X36.6410Y18.4830
X39.5170Y21.3590
X41.3640Y24.9830
X49.0000Y29.0000
X48.4990Y33.4500
X47.0190Y37.6780
X44.6370Y41.4700
X41.4700Y44.6370
X37.6780Y47.0190
X33.4500Y48.4990
X29.0000Y49.0000
X24.5500Y48.4990
X20.3220Y47.0190
X16.5300Y44.6370
X13.3630Y41.4700
X10.9810Y37.6780
X9.5010Y33.4500
X9.0000Y29.0000
X9.5010Y24.5500
X10.9810Y20.3220
X13.3630Y16.5300
X16.5300Y13.3630
X20.3220Y10.9810
X24.5500Y9.5010
X29.0000Y9.0000
X33.4500Y9.5010
X37.6780Y10.9810
X41.4700Y13.3630
X44.6370Y16.5300
X47.0190Y20.3220
X48.4990Y24.5500
X56.0000Y29.0000
X55.5900Y33.6890
X54.3720Y38.2350
X52.3830Y42.5000
X49.6830Y46.3550
X46.3550Y49.6830
X42.5000Y52.3830
X38.2350Y54.3720
X33.6890Y55.5900
X29.0000Y56.0000
X24.3110Y55.5900
X19.7650Y54.3720
X15.5000Y52.3830
X11.6450Y49.6830
X8.3170Y46.3550
X5.6170Y42.5000
X3.6280Y38.2350
X2.4100Y33.6890
X2.0000Y29.0000
X2.4100Y24.3110
X3.6280Y19.7650
X5.6170Y15.5000
X8.3170Y11.6450
X11.6450Y8.3170
X15.5000Y5.6170
X19.7650Y3.6280
X24.3110Y2.4100
X29.0000Y2.0000
X33.6890Y2.4100
X38.2350Y3.6280
X42.5000Y5.6170
X46.3550Y8.3170
X49.6830Y11.6450
X52.3830Y15.5000
X54.3720Y19.7650
X55.5900Y24.3110
T0
M30
