G04 Generated by vcad-ecad-export*
%FSLAX46Y46*%
%MOMM*%
%TF.FileFunction,Profile,NP*%
%TF.GenerationSoftware,vcad,vcad-ecad-export*%
%ADD10C,0.050000*%
D10*
X58000000Y29000000D02*
X57860400Y31842500D01*
X57860400Y31842500D02*
X57442800Y34657600D01*
X57442800Y34657600D02*
X56751300Y37418300D01*
X56751300Y37418300D02*
X55792500Y40097800D01*
X55792500Y40097800D02*
X54575700Y42670500D01*
X54575700Y42670500D02*
X53112600Y45111500D01*
X53112600Y45111500D02*
X51417300Y47397400D01*
X51417300Y47397400D02*
X49506100Y49506100D01*
X49506100Y49506100D02*
X47397400Y51417300D01*
X47397400Y51417300D02*
X45111500Y53112600D01*
X45111500Y53112600D02*
X42670500Y54575700D01*
X42670500Y54575700D02*
X40097800Y55792500D01*
X40097800Y55792500D02*
X37418300Y56751300D01*
X37418300Y56751300D02*
X34657600Y57442800D01*
X34657600Y57442800D02*
X31842500Y57860400D01*
X31842500Y57860400D02*
X29000000Y58000000D01*
X29000000Y58000000D02*
X26157500Y57860400D01*
X26157500Y57860400D02*
X23342400Y57442800D01*
X23342400Y57442800D02*
X20581700Y56751300D01*
X20581700Y56751300D02*
X17902200Y55792500D01*
X17902200Y55792500D02*
X15329500Y54575700D01*
X15329500Y54575700D02*
X12888500Y53112600D01*
X12888500Y53112600D02*
X10602600Y51417300D01*
X10602600Y51417300D02*
X8493900Y49506100D01*
X8493900Y49506100D02*
X6582700Y47397400D01*
X6582700Y47397400D02*
X4887400Y45111500D01*
X4887400Y45111500D02*
X3424300Y42670500D01*
X3424300Y42670500D02*
X2207500Y40097800D01*
X2207500Y40097800D02*
X1248700Y37418300D01*
X1248700Y37418300D02*
X557200Y34657600D01*
X557200Y34657600D02*
X139600Y31842500D01*
X139600Y31842500D02*
X0Y29000000D01*
X0Y29000000D02*
X139600Y26157500D01*
X139600Y26157500D02*
X557200Y23342400D01*
X557200Y23342400D02*
X1248700Y20581700D01*
X1248700Y20581700D02*
X2207500Y17902200D01*
X2207500Y17902200D02*
X3424300Y15329500D01*
X3424300Y15329500D02*
X4887400Y12888500D01*
X4887400Y12888500D02*
X6582700Y10602600D01*
X6582700Y10602600D02*
X8493900Y8493900D01*
X8493900Y8493900D02*
X10602600Y6582700D01*
X10602600Y6582700D02*
X12888500Y4887400D01*
X12888500Y4887400D02*
X15329500Y3424300D01*
X15329500Y3424300D02*
X17902200Y2207500D01*
X17902200Y2207500D02*
X20581700Y1248700D01*
X20581700Y1248700D02*
X23342400Y557200D01*
X23342400Y557200D02*
X26157500Y139600D01*
X26157500Y139600D02*
X29000000Y0D01*
X29000000Y0D02*
X31842500Y139600D01*
X31842500Y139600D02*
X34657600Y557200D01*
X34657600Y557200D02*
X37418300Y1248700D01*
X37418300Y1248700D02*
X40097800Y2207500D01*
X40097800Y2207500D02*
X42670500Y3424300D01*
X42670500Y3424300D02*
X45111500Y4887400D01*
X45111500Y4887400D02*
X47397400Y6582700D01*
X47397400Y6582700D02*
X49506100Y8493900D01*
X49506100Y8493900D02*
X51417300Y10602600D01*
X51417300Y10602600D02*
X53112600Y12888500D01*
X53112600Y12888500D02*
X54575700Y15329500D01*
X54575700Y15329500D02*
X55792500Y17902200D01*
X55792500Y17902200D02*
X56751300Y20581700D01*
X56751300Y20581700D02*
X57442800Y23342400D01*
X57442800Y23342400D02*
X57860400Y26157500D01*
X57860400Y26157500D02*
X58000000Y29000000D01*
X33200000Y29000000D02*
X32880300Y30607300D01*
X32880300Y30607300D02*
X31969800Y31969800D01*
X31969800Y31969800D02*
X30607300Y32880300D01*
X30607300Y32880300D02*
X29000000Y33200000D01*
X29000000Y33200000D02*
X27392700Y32880300D01*
X27392700Y32880300D02*
X26030200Y31969800D01*
X26030200Y31969800D02*
X25119700Y30607300D01*
X25119700Y30607300D02*
X24800000Y29000000D01*
X24800000Y29000000D02*
X25119700Y27392700D01*
X25119700Y27392700D02*
X26030200Y26030200D01*
X26030200Y26030200D02*
X27392700Y25119700D01*
X27392700Y25119700D02*
X29000000Y24800000D01*
X29000000Y24800000D02*
X30607300Y25119700D01*
X30607300Y25119700D02*
X31969800Y26030200D01*
X31969800Y26030200D02*
X32880300Y27392700D01*
X32880300Y27392700D02*
X33200000Y29000000D01*
X38700000Y29000000D02*
X38570600Y29650600D01*
X38570600Y29650600D02*
X38202100Y30202100D01*
X38202100Y30202100D02*
X37650600Y30570600D01*
X37650600Y30570600D02*
X37000000Y30700000D01*
X37000000Y30700000D02*
X36349400Y30570600D01*
X36349400Y30570600D02*
X35797900Y30202100D01*
X35797900Y30202100D02*
X35429400Y29650600D01*
X35429400Y29650600D02*
X35300000Y29000000D01*
X35300000Y29000000D02*
X35429400Y28349400D01*
X35429400Y28349400D02*
X35797900Y27797900D01*
X35797900Y27797900D02*
X36349400Y27429400D01*
X36349400Y27429400D02*
X37000000Y27300000D01*
X37000000Y27300000D02*
X37650600Y27429400D01*
X37650600Y27429400D02*
X38202100Y27797900D01*
X38202100Y27797900D02*
X38570600Y28349400D01*
X38570600Y28349400D02*
X38700000Y29000000D01*
X30700000Y37000000D02*
X30570600Y37650600D01*
X30570600Y37650600D02*
X30202100Y38202100D01*
X30202100Y38202100D02*
X29650600Y38570600D01*
X29650600Y38570600D02*
X29000000Y38700000D01*
X29000000Y38700000D02*
X28349400Y38570600D01*
X28349400Y38570600D02*
X27797900Y38202100D01*
X27797900Y38202100D02*
X27429400Y37650600D01*
X27429400Y37650600D02*
X27300000Y37000000D01*
X27300000Y37000000D02*
X27429400Y36349400D01*
X27429400Y36349400D02*
X27797900Y35797900D01*
X27797900Y35797900D02*
X28349400Y35429400D01*
X28349400Y35429400D02*
X29000000Y35300000D01*
X29000000Y35300000D02*
X29650600Y35429400D01*
X29650600Y35429400D02*
X30202100Y35797900D01*
X30202100Y35797900D02*
X30570600Y36349400D01*
X30570600Y36349400D02*
X30700000Y37000000D01*
X22700000Y29000000D02*
X22570600Y29650600D01*
X22570600Y29650600D02*
X22202100Y30202100D01*
X22202100Y30202100D02*
X21650600Y30570600D01*
X21650600Y30570600D02*
X21000000Y30700000D01*
X21000000Y30700000D02*
X20349400Y30570600D01*
X20349400Y30570600D02*
X19797900Y30202100D01*
X19797900Y30202100D02*
X19429400Y29650600D01*
X19429400Y29650600D02*
X19300000Y29000000D01*
X19300000Y29000000D02*
X19429400Y28349400D01*
X19429400Y28349400D02*
X19797900Y27797900D01*
X19797900Y27797900D02*
X20349400Y27429400D01*
X20349400Y27429400D02*
X21000000Y27300000D01*
X21000000Y27300000D02*
X21650600Y27429400D01*
X21650600Y27429400D02*
X22202100Y27797900D01*
X22202100Y27797900D02*
X22570600Y28349400D01*
X22570600Y28349400D02*
X22700000Y29000000D01*
X30700000Y21000000D02*
X30570600Y21650600D01*
X30570600Y21650600D02*
X30202100Y22202100D01*
X30202100Y22202100D02*
X29650600Y22570600D01*
X29650600Y22570600D02*
X29000000Y22700000D01*
X29000000Y22700000D02*
X28349400Y22570600D01*
X28349400Y22570600D02*
X27797900Y22202100D01*
X27797900Y22202100D02*
X27429400Y21650600D01*
X27429400Y21650600D02*
X27300000Y21000000D01*
X27300000Y21000000D02*
X27429400Y20349400D01*
X27429400Y20349400D02*
X27797900Y19797900D01*
X27797900Y19797900D02*
X28349400Y19429400D01*
X28349400Y19429400D02*
X29000000Y19300000D01*
X29000000Y19300000D02*
X29650600Y19429400D01*
X29650600Y19429400D02*
X30202100Y19797900D01*
X30202100Y19797900D02*
X30570600Y20349400D01*
X30570600Y20349400D02*
X30700000Y21000000D01*
M02*
