G04 Generated by vcad-ecad-export*
%FSLAX46Y46*%
%MOMM*%
%TF.FileFunction,Copper,L2,Bot*%
%TF.GenerationSoftware,vcad,vcad-ecad-export*%
%ADD10R,1.400000X1.400000*%
%ADD11C,1.400000*%
%ADD12C,0.600000*%
%ADD13C,0.250000*%
%ADD14C,0.500000*%
D13*
X65375000Y35000000D02*
X65300000Y37138000D01*
X65300000Y37138000D02*
X49589000Y36030000D01*
X27688000Y47666000D02*
X23750000Y54486000D01*
X19812000Y61306000D02*
X17998000Y60172000D01*
X17998000Y60172000D02*
X26814000Y47119000D01*
X27688000Y22334000D02*
X23750000Y15514000D01*
X58269000Y54525000D02*
X56837000Y56115000D01*
X56837000Y56115000D02*
X44903000Y44575000D01*
X22056000Y39711000D02*
X13857000Y42695000D01*
X6457000Y45389000D02*
X5796000Y43354000D01*
X5796000Y43354000D02*
X21756000Y38789000D01*
X37392000Y21434000D02*
X38907000Y12842000D01*
X40274000Y64914000D02*
X38155000Y65211000D01*
X38155000Y65211000D02*
X36343000Y47855000D01*
X22854000Y30580000D02*
X13857000Y27305000D01*
X6457000Y24611000D02*
X7259000Y22628000D01*
X7259000Y22628000D02*
X23196000Y29735000D01*
X44901000Y26692000D02*
X52236000Y20537000D01*
X19812000Y8694000D02*
X21701000Y7690000D01*
X21701000Y7690000D02*
X28597000Y21851000D01*
X40274000Y5086000D02*
X42367000Y5531000D01*
X42367000Y5531000D02*
X38341000Y21636000D01*
X58269000Y15475000D02*
X59586000Y17161000D01*
X59586000Y17161000D02*
X45461000Y27410000D01*
X57500000Y35000000D02*
X57444000Y33416000D01*
X57444000Y33416000D02*
X65974000Y32814000D01*
X65974000Y32814000D02*
X66051000Y35011000D01*
X66051000Y35011000D02*
X65972000Y37207000D01*
X65972000Y37207000D02*
X65738000Y39393000D01*
X65738000Y39393000D02*
X65351000Y41556000D01*
X65351000Y41556000D02*
X64811000Y43687000D01*
X64811000Y43687000D02*
X64121000Y45774000D01*
X64121000Y45774000D02*
X63286000Y47807000D01*
X63286000Y47807000D02*
X62309000Y49776000D01*
X62309000Y49776000D02*
X61196000Y51671000D01*
X61196000Y51671000D02*
X59951000Y53483000D01*
X59951000Y53483000D02*
X58581000Y55201000D01*
X58581000Y55201000D02*
X57093000Y56819000D01*
X57093000Y56819000D02*
X55494000Y58327000D01*
X55494000Y58327000D02*
X53792000Y59718000D01*
X53792000Y59718000D02*
X51996000Y60986000D01*
X51996000Y60986000D02*
X50116000Y62123000D01*
X50116000Y62123000D02*
X48159000Y63124000D01*
X48159000Y63124000D02*
X46136000Y63985000D01*
X46136000Y63985000D02*
X44058000Y64700000D01*
X44058000Y64700000D02*
X41934000Y65266000D01*
X41934000Y65266000D02*
X39776000Y65681000D01*
X39776000Y65681000D02*
X37593000Y65942000D01*
X37593000Y65942000D02*
X35398000Y66048000D01*
X35398000Y66048000D02*
X33201000Y65998000D01*
X33201000Y65998000D02*
X33133000Y67161000D01*
X45248000Y28614000D02*
X61353000Y18578000D01*
X61353000Y18578000D02*
X60111000Y16736000D01*
X60111000Y16736000D02*
X58741000Y14988000D01*
X58741000Y14988000D02*
X57250000Y13342000D01*
X57250000Y13342000D02*
X55645000Y11807000D01*
X55645000Y11807000D02*
X53934000Y10390000D01*
X53934000Y10390000D02*
X52126000Y9099000D01*
X52126000Y9099000D02*
X50230000Y7941000D01*
X50230000Y7941000D02*
X48257000Y6922000D01*
X48257000Y6922000D02*
X46216000Y6046000D01*
X46216000Y6046000D02*
X44117000Y5318000D01*
X44117000Y5318000D02*
X41972000Y4742000D01*
X41972000Y4742000D02*
X39791000Y4321000D01*
X39791000Y4321000D02*
X37585000Y4057000D01*
X37585000Y4057000D02*
X35367000Y3951000D01*
X35367000Y3951000D02*
X33146000Y4005000D01*
X33146000Y4005000D02*
X30935000Y4217000D01*
X30935000Y4217000D02*
X28744000Y4586000D01*
X28744000Y4586000D02*
X26586000Y5111000D01*
X26586000Y5111000D02*
X24471000Y5789000D01*
X24471000Y5789000D02*
X22409000Y6617000D01*
X22409000Y6617000D02*
X20413000Y7589000D01*
X20413000Y7589000D02*
X18490000Y8702000D01*
X18490000Y8702000D02*
X16652000Y9950000D01*
X16652000Y9950000D02*
X14909000Y11326000D01*
X14909000Y11326000D02*
X13267000Y12823000D01*
X13267000Y12823000D02*
X11738000Y14433000D01*
X11738000Y14433000D02*
X10327000Y16149000D01*
X10327000Y16149000D02*
X9042000Y17961000D01*
X9042000Y17961000D02*
X7890000Y19860000D01*
X7890000Y19860000D02*
X6877000Y21837000D01*
X6877000Y21837000D02*
X6008000Y23881000D01*
X6008000Y23881000D02*
X5288000Y25982000D01*
X5288000Y25982000D02*
X4719000Y28130000D01*
X4719000Y28130000D02*
X4305000Y30312000D01*
X4305000Y30312000D02*
X4049000Y32518000D01*
X4049000Y32518000D02*
X3950000Y34737000D01*
X3950000Y34737000D02*
X4011000Y36958000D01*
X4011000Y36958000D02*
X4230000Y39168000D01*
X4230000Y39168000D02*
X4607000Y41357000D01*
X4607000Y41357000D02*
X5139000Y43514000D01*
X5139000Y43514000D02*
X5824000Y45627000D01*
X5824000Y45627000D02*
X6659000Y47685000D01*
X6659000Y47685000D02*
X7638000Y49679000D01*
X7638000Y49679000D02*
X8758000Y51598000D01*
X8758000Y51598000D02*
X10011000Y53431000D01*
X10011000Y53431000D02*
X11393000Y55171000D01*
X11393000Y55171000D02*
X12895000Y56807000D01*
X12895000Y56807000D02*
X14511000Y58331000D01*
X14511000Y58331000D02*
X16231000Y59736000D01*
X16231000Y59736000D02*
X18048000Y61015000D01*
X18048000Y61015000D02*
X19951000Y62160000D01*
X19951000Y62160000D02*
X21931000Y63166000D01*
X21931000Y63166000D02*
X23978000Y64029000D01*
X23978000Y64029000D02*
X26082000Y64742000D01*
X26082000Y64742000D02*
X25747000Y65859000D01*
D14*
X30671000Y66727000D02*
X32829000Y50852000D01*
X32829000Y50852000D02*
X33127000Y48672000D01*
X28209000Y66293000D02*
X31619000Y50639000D01*
X31619000Y50639000D02*
X32274000Y47609000D01*
D10*
X33133029Y67161181D03*
D11*
X30671010Y66727060D03*
X28208990Y66292940D03*
X25746971Y65858819D03*
D12*
X57500000Y35000000D03*
X65375000Y35000000D03*
X52236000Y49463000D03*
X58269000Y54525000D03*
X38907000Y57158000D03*
X40274000Y64914000D03*
X23750000Y54486000D03*
X19812000Y61306000D03*
X13857000Y42695000D03*
X6457000Y45389000D03*
X13857000Y27305000D03*
X6457000Y24611000D03*
X23750000Y15514000D03*
X19812000Y8694000D03*
X38907000Y12842000D03*
X40274000Y5086000D03*
X52236000Y20537000D03*
X58269000Y15475000D03*
X49589000Y36030000D03*
X27688000Y47666000D03*
X26814000Y47119000D03*
X27688000Y22334000D03*
X44903000Y44575000D03*
X22056000Y39711000D03*
X21756000Y38789000D03*
X37392000Y21434000D03*
X36343000Y47855000D03*
X22854000Y30580000D03*
X23196000Y29735000D03*
X44901000Y26692000D03*
X28597000Y21851000D03*
X38341000Y21636000D03*
X45461000Y27410000D03*
X45248000Y28614000D03*
X32829000Y50852000D03*
X33127000Y48672000D03*
X31619000Y50639000D03*
X32274000Y47609000D03*
G36*
X65075000Y35000000D02*
X65085222Y34922354D01*
X65115192Y34850000D01*
X65162868Y34787868D01*
X65225000Y34740192D01*
X65297354Y34710222D01*
X65375000Y34700000D01*
X65452646Y34710222D01*
X65525000Y34740192D01*
X65587132Y34787868D01*
X65634808Y34850000D01*
X65664778Y34922354D01*
X65675000Y35000000D01*
X65664778Y35077646D01*
X65478888Y35604013D01*
X65229042Y35595249D01*
X65085222Y35077646D01*
X65075000Y35000000D01*
G37*
G36*
X49289000Y36030000D02*
X49299222Y35952354D01*
X49329192Y35880000D01*
X49376868Y35817868D01*
X49439000Y35770192D01*
X49511354Y35740222D01*
X49589000Y35730000D01*
X49666646Y35740222D01*
X50196307Y35947519D01*
X50178720Y36196900D01*
X49666646Y36319778D01*
X49589000Y36330000D01*
X49511354Y36319778D01*
X49439000Y36289808D01*
X49376868Y36242132D01*
X49329192Y36180000D01*
X49299222Y36107646D01*
X49289000Y36030000D01*
G37*
G36*
X27279723Y48123094D02*
X27398222Y47588354D01*
X27428192Y47516000D01*
X27475868Y47453868D01*
X27538000Y47406192D01*
X27610354Y47376222D01*
X27688000Y47366000D01*
X27765646Y47376222D01*
X27838000Y47406192D01*
X27900132Y47453868D01*
X27947808Y47516000D01*
X27977778Y47588354D01*
X27988000Y47666000D01*
X27977778Y47743646D01*
X27947808Y47816000D01*
X27900132Y47878132D01*
X27496223Y48248105D01*
X27279723Y48123094D01*
G37*
G36*
X23450000Y54486000D02*
X23460222Y54408354D01*
X23490192Y54336000D01*
X23537868Y54273868D01*
X23941777Y53903895D01*
X24158277Y54028906D01*
X24039778Y54563646D01*
X24009808Y54636000D01*
X23962132Y54698132D01*
X23900000Y54745808D01*
X23827646Y54775778D01*
X23750000Y54786000D01*
X23672354Y54775778D01*
X23600000Y54745808D01*
X23537868Y54698132D01*
X23490192Y54636000D01*
X23460222Y54563646D01*
X23450000Y54486000D01*
G37*
G36*
X19236972Y61093943D02*
X19369493Y60881957D01*
X19889646Y61016222D01*
X19962000Y61046192D01*
X20024132Y61093868D01*
X20071808Y61156000D01*
X20101778Y61228354D01*
X20112000Y61306000D01*
X20101778Y61383646D01*
X20071808Y61456000D01*
X20024132Y61518132D01*
X19962000Y61565808D01*
X19889646Y61595778D01*
X19812000Y61606000D01*
X19734354Y61595778D01*
X19662000Y61565808D01*
X19599868Y61518132D01*
X19236972Y61093943D01*
G37*
G36*
X26374593Y47546254D02*
X26524222Y47041354D01*
X26554192Y46969000D01*
X26601868Y46906868D01*
X26664000Y46859192D01*
X26736354Y46829222D01*
X26814000Y46819000D01*
X26891646Y46829222D01*
X26964000Y46859192D01*
X27026132Y46906868D01*
X27073808Y46969000D01*
X27103778Y47041354D01*
X27114000Y47119000D01*
X27103778Y47196646D01*
X27073808Y47269000D01*
X27026132Y47331132D01*
X26581766Y47686179D01*
X26374593Y47546254D01*
G37*
G36*
X27279723Y21876906D02*
X27496223Y21751895D01*
X27900132Y22121868D01*
X27947808Y22184000D01*
X27977778Y22256354D01*
X27988000Y22334000D01*
X27977778Y22411646D01*
X27947808Y22484000D01*
X27900132Y22546132D01*
X27838000Y22593808D01*
X27765646Y22623778D01*
X27688000Y22634000D01*
X27610354Y22623778D01*
X27538000Y22593808D01*
X27475868Y22546132D01*
X27428192Y22484000D01*
X27398222Y22411646D01*
X27279723Y21876906D01*
G37*
G36*
X23450000Y15514000D02*
X23460222Y15436354D01*
X23490192Y15364000D01*
X23537868Y15301868D01*
X23600000Y15254192D01*
X23672354Y15224222D01*
X23750000Y15214000D01*
X23827646Y15224222D01*
X23900000Y15254192D01*
X23962132Y15301868D01*
X24009808Y15364000D01*
X24039778Y15436354D01*
X24158277Y15971094D01*
X23941777Y16096105D01*
X23537868Y15726132D01*
X23490192Y15664000D01*
X23460222Y15591646D01*
X23450000Y15514000D01*
G37*
G36*
X57774584Y54887184D02*
X58009192Y54375000D01*
X58056868Y54312868D01*
X58119000Y54265192D01*
X58191354Y54235222D01*
X58269000Y54225000D01*
X58346646Y54235222D01*
X58419000Y54265192D01*
X58481132Y54312868D01*
X58528808Y54375000D01*
X58558778Y54447354D01*
X58569000Y54525000D01*
X58558778Y54602646D01*
X58528808Y54675000D01*
X58481132Y54737132D01*
X58419000Y54784808D01*
X57960349Y55054490D01*
X57774584Y54887184D01*
G37*
G36*
X44603000Y44575000D02*
X44613222Y44497354D01*
X44643192Y44425000D01*
X44690868Y44362868D01*
X44753000Y44315192D01*
X44825354Y44285222D01*
X44903000Y44275000D01*
X44980646Y44285222D01*
X45053000Y44315192D01*
X45115132Y44362868D01*
X45162808Y44425000D01*
X45421217Y44902225D01*
X45247432Y45081943D01*
X44753000Y44834808D01*
X44690868Y44787132D01*
X44643192Y44725000D01*
X44613222Y44652646D01*
X44603000Y44575000D01*
G37*
G36*
X21449430Y39798738D02*
X21906000Y39451192D01*
X21978354Y39421222D01*
X22056000Y39411000D01*
X22133646Y39421222D01*
X22206000Y39451192D01*
X22268132Y39498868D01*
X22315808Y39561000D01*
X22345778Y39633354D01*
X22356000Y39711000D01*
X22345778Y39788646D01*
X22315808Y39861000D01*
X22268132Y39923132D01*
X22206000Y39970808D01*
X22133646Y40000778D01*
X22056000Y40011000D01*
X21534930Y40033663D01*
X21449430Y39798738D01*
G37*
G36*
X13557000Y42695000D02*
X13567222Y42617354D01*
X13597192Y42545000D01*
X13644868Y42482868D01*
X13707000Y42435192D01*
X13779354Y42405222D01*
X13857000Y42395000D01*
X14378070Y42372337D01*
X14463570Y42607262D01*
X14007000Y42954808D01*
X13934646Y42984778D01*
X13857000Y42995000D01*
X13779354Y42984778D01*
X13707000Y42954808D01*
X13644868Y42907132D01*
X13597192Y42845000D01*
X13567222Y42772646D01*
X13557000Y42695000D01*
G37*
G36*
X6152758Y44856965D02*
X6390529Y44779733D01*
X6716808Y45239000D01*
X6746778Y45311354D01*
X6757000Y45389000D01*
X6746778Y45466646D01*
X6716808Y45539000D01*
X6669132Y45601132D01*
X6607000Y45648808D01*
X6534646Y45678778D01*
X6457000Y45689000D01*
X6379354Y45678778D01*
X6307000Y45648808D01*
X6244868Y45601132D01*
X6197192Y45539000D01*
X6167222Y45466646D01*
X6157000Y45389000D01*
X6152758Y44856965D01*
G37*
G36*
X21144758Y38833819D02*
X21606000Y38529192D01*
X21678354Y38499222D01*
X21756000Y38489000D01*
X21833646Y38499222D01*
X21906000Y38529192D01*
X21968132Y38576868D01*
X22015808Y38639000D01*
X22045778Y38711354D01*
X22056000Y38789000D01*
X22045778Y38866646D01*
X22015808Y38939000D01*
X21968132Y39001132D01*
X21906000Y39048808D01*
X21833646Y39078778D01*
X21756000Y39089000D01*
X21213508Y39074180D01*
X21144758Y38833819D01*
G37*
G36*
X37092000Y21434000D02*
X37102222Y21356354D01*
X37132192Y21284000D01*
X37373088Y20821409D01*
X37619290Y20864821D01*
X37692000Y21434000D01*
X37681778Y21511646D01*
X37651808Y21584000D01*
X37604132Y21646132D01*
X37542000Y21693808D01*
X37469646Y21723778D01*
X37392000Y21734000D01*
X37314354Y21723778D01*
X37242000Y21693808D01*
X37179868Y21646132D01*
X37132192Y21584000D01*
X37102222Y21511646D01*
X37092000Y21434000D01*
G37*
G36*
X38607000Y12842000D02*
X38617222Y12764354D01*
X38647192Y12692000D01*
X38694868Y12629868D01*
X38757000Y12582192D01*
X38829354Y12552222D01*
X38907000Y12542000D01*
X38984646Y12552222D01*
X39057000Y12582192D01*
X39119132Y12629868D01*
X39166808Y12692000D01*
X39196778Y12764354D01*
X39207000Y12842000D01*
X39196778Y12919646D01*
X39166808Y12992000D01*
X38925912Y13454591D01*
X38679710Y13411179D01*
X38607000Y12842000D01*
G37*
G36*
X39662458Y64873492D02*
X40124000Y64654192D01*
X40196354Y64624222D01*
X40274000Y64614000D01*
X40351646Y64624222D01*
X40424000Y64654192D01*
X40486132Y64701868D01*
X40533808Y64764000D01*
X40563778Y64836354D01*
X40574000Y64914000D01*
X40563778Y64991646D01*
X40533808Y65064000D01*
X40486132Y65126132D01*
X40424000Y65173808D01*
X40351646Y65203778D01*
X40274000Y65214000D01*
X40196354Y65203778D01*
X39697159Y65121072D01*
X39662458Y64873492D01*
G37*
G36*
X36043000Y47855000D02*
X36053222Y47777354D01*
X36083192Y47705000D01*
X36130868Y47642868D01*
X36193000Y47595192D01*
X36265354Y47565222D01*
X36343000Y47555000D01*
X36420646Y47565222D01*
X36493000Y47595192D01*
X36555132Y47642868D01*
X36602808Y47705000D01*
X36632778Y47777354D01*
X36643000Y47855000D01*
X36632778Y47932646D01*
X36529627Y48438777D01*
X36280978Y48464736D01*
X36083192Y48005000D01*
X36053222Y47932646D01*
X36043000Y47855000D01*
G37*
G36*
X22247435Y30492228D02*
X22332948Y30257308D01*
X22854000Y30280000D01*
X22931646Y30290222D01*
X23004000Y30320192D01*
X23066132Y30367868D01*
X23113808Y30430000D01*
X23143778Y30502354D01*
X23154000Y30580000D01*
X23143778Y30657646D01*
X23113808Y30730000D01*
X23066132Y30792132D01*
X23004000Y30839808D01*
X22931646Y30869778D01*
X22854000Y30880000D01*
X22776354Y30869778D01*
X22704000Y30839808D01*
X22247435Y30492228D01*
G37*
G36*
X13557000Y27305000D02*
X13567222Y27227354D01*
X13597192Y27155000D01*
X13644868Y27092868D01*
X13707000Y27045192D01*
X13779354Y27015222D01*
X13857000Y27005000D01*
X13934646Y27015222D01*
X14007000Y27045192D01*
X14463565Y27392772D01*
X14378052Y27627692D01*
X13857000Y27605000D01*
X13779354Y27594778D01*
X13707000Y27564808D01*
X13644868Y27517132D01*
X13597192Y27455000D01*
X13567222Y27382646D01*
X13557000Y27305000D01*
G37*
G36*
X6157000Y24611000D02*
X6167222Y24533354D01*
X6197192Y24461000D01*
X6244868Y24398868D01*
X6566079Y24007902D01*
X6797842Y24101636D01*
X6757000Y24611000D01*
X6746778Y24688646D01*
X6716808Y24761000D01*
X6669132Y24823132D01*
X6607000Y24870808D01*
X6534646Y24900778D01*
X6457000Y24911000D01*
X6379354Y24900778D01*
X6307000Y24870808D01*
X6244868Y24823132D01*
X6197192Y24761000D01*
X6167222Y24688646D01*
X6157000Y24611000D01*
G37*
G36*
X22597108Y29604794D02*
X22698929Y29376468D01*
X23196000Y29435000D01*
X23273646Y29445222D01*
X23346000Y29475192D01*
X23408132Y29522868D01*
X23455808Y29585000D01*
X23485778Y29657354D01*
X23496000Y29735000D01*
X23485778Y29812646D01*
X23455808Y29885000D01*
X23408132Y29947132D01*
X23346000Y29994808D01*
X23273646Y30024778D01*
X23196000Y30035000D01*
X23118354Y30024778D01*
X23046000Y29994808D01*
X22983868Y29947132D01*
X22597108Y29604794D01*
G37*
G36*
X44601000Y26692000D02*
X44611222Y26614354D01*
X44641192Y26542000D01*
X44688868Y26479868D01*
X44751000Y26432192D01*
X45280270Y26210566D01*
X45440970Y26402074D01*
X45160808Y26842000D01*
X45113132Y26904132D01*
X45051000Y26951808D01*
X44978646Y26981778D01*
X44901000Y26992000D01*
X44823354Y26981778D01*
X44751000Y26951808D01*
X44688868Y26904132D01*
X44641192Y26842000D01*
X44611222Y26769646D01*
X44601000Y26692000D01*
G37*
G36*
X51696030Y20826926D02*
X51976192Y20387000D01*
X52023868Y20324868D01*
X52086000Y20277192D01*
X52158354Y20247222D01*
X52236000Y20237000D01*
X52313646Y20247222D01*
X52386000Y20277192D01*
X52448132Y20324868D01*
X52495808Y20387000D01*
X52525778Y20459354D01*
X52536000Y20537000D01*
X52525778Y20614646D01*
X52495808Y20687000D01*
X52448132Y20749132D01*
X52386000Y20796808D01*
X51856730Y21018434D01*
X51696030Y20826926D01*
G37*
G36*
X19512000Y8694000D02*
X19522222Y8616354D01*
X19552192Y8544000D01*
X19599868Y8481868D01*
X19662000Y8434192D01*
X19734354Y8404222D01*
X20283149Y8302026D01*
X20400481Y8522782D01*
X20024132Y8906132D01*
X19962000Y8953808D01*
X19889646Y8983778D01*
X19812000Y8994000D01*
X19734354Y8983778D01*
X19662000Y8953808D01*
X19599868Y8906132D01*
X19552192Y8844000D01*
X19522222Y8771646D01*
X19512000Y8694000D01*
G37*
G36*
X28221926Y21366289D02*
X28446692Y21256835D01*
X28809132Y21638868D01*
X28856808Y21701000D01*
X28886778Y21773354D01*
X28897000Y21851000D01*
X28886778Y21928646D01*
X28856808Y22001000D01*
X28809132Y22063132D01*
X28747000Y22110808D01*
X28674646Y22140778D01*
X28597000Y22151000D01*
X28519354Y22140778D01*
X28447000Y22110808D01*
X28384868Y22063132D01*
X28337192Y22001000D01*
X28307222Y21928646D01*
X28221926Y21366289D01*
G37*
G36*
X39974000Y5086000D02*
X39984222Y5008354D01*
X40014192Y4936000D01*
X40061868Y4873868D01*
X40124000Y4826192D01*
X40196354Y4796222D01*
X40274000Y4786000D01*
X40351646Y4796222D01*
X40424000Y4826192D01*
X40886877Y5088512D01*
X40834886Y5333046D01*
X40274000Y5386000D01*
X40196354Y5375778D01*
X40124000Y5345808D01*
X40061868Y5298132D01*
X40014192Y5236000D01*
X39984222Y5163646D01*
X39974000Y5086000D01*
G37*
G36*
X38041000Y21636000D02*
X38051222Y21558354D01*
X38081192Y21486000D01*
X38365245Y21023597D01*
X38607781Y21084228D01*
X38641000Y21636000D01*
X38630778Y21713646D01*
X38600808Y21786000D01*
X38553132Y21848132D01*
X38491000Y21895808D01*
X38418646Y21925778D01*
X38341000Y21936000D01*
X38263354Y21925778D01*
X38191000Y21895808D01*
X38128868Y21848132D01*
X38081192Y21786000D01*
X38051222Y21713646D01*
X38041000Y21636000D01*
G37*
G36*
X57969000Y15475000D02*
X57979222Y15397354D01*
X58009192Y15325000D01*
X58056868Y15262868D01*
X58119000Y15215192D01*
X58191354Y15185222D01*
X58269000Y15175000D01*
X58346646Y15185222D01*
X58419000Y15215192D01*
X58481132Y15262868D01*
X58528808Y15325000D01*
X58558778Y15397354D01*
X58736862Y15870891D01*
X58539845Y16024789D01*
X58119000Y15734808D01*
X58056868Y15687132D01*
X58009192Y15625000D01*
X57979222Y15552646D01*
X57969000Y15475000D01*
G37*
G36*
X45161000Y27410000D02*
X45171222Y27332354D01*
X45201192Y27260000D01*
X45248868Y27197868D01*
X45311000Y27150192D01*
X45383354Y27120222D01*
X45873219Y26956458D01*
X46020040Y27158804D01*
X45720808Y27560000D01*
X45673132Y27622132D01*
X45611000Y27669808D01*
X45538646Y27699778D01*
X45461000Y27710000D01*
X45383354Y27699778D01*
X45311000Y27669808D01*
X45248868Y27622132D01*
X45201192Y27560000D01*
X45171222Y27487646D01*
X45161000Y27410000D01*
G37*
G36*
X57200000Y35000000D02*
X57210222Y34922354D01*
X57353879Y34404791D01*
X57603723Y34395958D01*
X57789778Y34922354D01*
X57800000Y35000000D01*
X57789778Y35077646D01*
X57759808Y35150000D01*
X57712132Y35212132D01*
X57650000Y35259808D01*
X57577646Y35289778D01*
X57500000Y35300000D01*
X57422354Y35289778D01*
X57350000Y35259808D01*
X57287868Y35212132D01*
X57240192Y35150000D01*
X57210222Y35077646D01*
X57200000Y35000000D01*
G37*
G36*
X32433029Y67161181D02*
X32456881Y66980007D01*
X32526811Y66811181D01*
X32638054Y66666206D01*
X33069442Y66107184D01*
X33319016Y66121777D01*
X33739247Y66811181D01*
X33809177Y66980007D01*
X33833029Y67161181D01*
X33809177Y67342354D01*
X33739247Y67511181D01*
X33628004Y67656155D01*
X33483029Y67767398D01*
X33314202Y67837329D01*
X33133029Y67861181D01*
X32951856Y67837329D01*
X32783029Y67767398D01*
X32638054Y67656155D01*
X32526811Y67511181D01*
X32456881Y67342354D01*
X32433029Y67161181D01*
G37*
G36*
X44948000Y28614000D02*
X44958222Y28536354D01*
X44988192Y28464000D01*
X45035868Y28401868D01*
X45098000Y28354192D01*
X45170354Y28324222D01*
X45691110Y28190587D01*
X45823329Y28402762D01*
X45460132Y28826132D01*
X45398000Y28873808D01*
X45325646Y28903778D01*
X45248000Y28914000D01*
X45170354Y28903778D01*
X45098000Y28873808D01*
X45035868Y28826132D01*
X44988192Y28764000D01*
X44958222Y28691646D01*
X44948000Y28614000D01*
G37*
G36*
X25046971Y65858819D02*
X25070823Y65677646D01*
X25140753Y65508819D01*
X25251996Y65363845D01*
X25928740Y64817611D01*
X26168202Y64889428D01*
X26423119Y65677646D01*
X26446971Y65858819D01*
X26423119Y66039993D01*
X26353189Y66208819D01*
X26241946Y66353794D01*
X26096971Y66465037D01*
X25928144Y66534967D01*
X25746971Y66558819D01*
X25565798Y66534967D01*
X25396971Y66465037D01*
X25251996Y66353794D01*
X25140753Y66208819D01*
X25070823Y66039993D01*
X25046971Y65858819D01*
G37*
G36*
X29971010Y66727060D02*
X29994862Y66545887D01*
X30064792Y66377060D01*
X30611865Y65306144D01*
X31107309Y65373493D01*
X31347158Y66545887D01*
X31371010Y66727060D01*
X31347158Y66908234D01*
X31277227Y67077060D01*
X31165984Y67222035D01*
X31021010Y67333278D01*
X30852183Y67403208D01*
X30671010Y67427060D01*
X30489836Y67403208D01*
X30321010Y67333278D01*
X30176035Y67222035D01*
X30064792Y67077060D01*
X29994862Y66908234D01*
X29971010Y66727060D01*
G37*
G36*
X27508990Y66292940D02*
X27532842Y66111766D01*
X27602773Y65942940D01*
X28262701Y64871808D01*
X28751244Y64978230D01*
X28908990Y66292940D01*
X28885138Y66474113D01*
X28815208Y66642940D01*
X28703965Y66787915D01*
X28558990Y66899158D01*
X28390164Y66969088D01*
X28208990Y66992940D01*
X28027817Y66969088D01*
X27858990Y66899158D01*
X27714016Y66787915D01*
X27602773Y66642940D01*
X27532842Y66474113D01*
X27508990Y66292940D01*
G37*
M02*
