M48
;Generated by vcad-ecad-export
;FORMAT={-:-/ absolute / metric / decimal}
FMAT,2
METRIC,TZ
T01C0.3000
T02C0.8000
%
G90
G05
T01
X57.5000Y35.0000
X65.3750Y35.0000
X52.2360Y49.4630
X58.2690Y54.5250
X38.9070Y57.1580
X40.2740Y64.9140
X23.7500Y54.4860
X19.8120Y61.3060
X13.8570Y42.6950
X6.4570Y45.3890
X13.8570Y27.3050
X6.4570Y24.6110
X23.7500Y15.5140
X19.8120Y8.6940
X38.9070Y12.8420
X40.2740Y5.0860
X52.2360Y20.5370
X58.2690Y15.4750
X49.5890Y36.0300
X27.6880Y47.6660
X26.8140Y47.1190
X27.6880Y22.3340
X44.9030Y44.5750
X22.0560Y39.7110
X21.7560Y38.7890
X37.3920Y21.4340
X36.3430Y47.8550
X22.8540Y30.5800
X23.1960Y29.7350
X44.9010Y26.6920
X28.5970Y21.8510
X38.3410Y21.6360
X45.4610Y27.4100
X45.2480Y28.6140
X32.8290Y50.8520
X33.1270Y48.6720
X31.6190Y50.6390
X32.2740Y47.6090
T02
X33.1330Y67.1612
X30.6710Y66.7271
X28.2090Y66.2929
X25.7470Y65.8588
T0
M30
