G04 Generated by vcad-ecad-export*
%FSLAX46Y46*%
%MOMM*%
%TF.FileFunction,Profile,NP*%
%TF.GenerationSoftware,vcad,vcad-ecad-export*%
%ADD10C,0.050000*%
D10*
X70000000Y35000000D02*
X69831500Y38430600D01*
X69831500Y38430600D02*
X69327500Y41828200D01*
X69327500Y41828200D02*
X68492900Y45160000D01*
X68492900Y45160000D02*
X67335800Y48393900D01*
X67335800Y48393900D02*
X65867200Y51498900D01*
X65867200Y51498900D02*
X64101400Y54445000D01*
X64101400Y54445000D02*
X62055400Y57203800D01*
X62055400Y57203800D02*
X59748700Y59748700D01*
X59748700Y59748700D02*
X57203800Y62055400D01*
X57203800Y62055400D02*
X54445000Y64101400D01*
X54445000Y64101400D02*
X51498900Y65867200D01*
X51498900Y65867200D02*
X48393900Y67335800D01*
X48393900Y67335800D02*
X45160000Y68492900D01*
X45160000Y68492900D02*
X41828200Y69327500D01*
X41828200Y69327500D02*
X38430600Y69831500D01*
X38430600Y69831500D02*
X35000000Y70000000D01*
X35000000Y70000000D02*
X31569400Y69831500D01*
X31569400Y69831500D02*
X28171800Y69327500D01*
X28171800Y69327500D02*
X24840000Y68492900D01*
X24840000Y68492900D02*
X21606100Y67335800D01*
X21606100Y67335800D02*
X18501100Y65867200D01*
X18501100Y65867200D02*
X15555000Y64101400D01*
X15555000Y64101400D02*
X12796200Y62055400D01*
X12796200Y62055400D02*
X10251300Y59748700D01*
X10251300Y59748700D02*
X7944600Y57203800D01*
X7944600Y57203800D02*
X5898600Y54445000D01*
X5898600Y54445000D02*
X4132800Y51498900D01*
X4132800Y51498900D02*
X2664200Y48393900D01*
X2664200Y48393900D02*
X1507100Y45160000D01*
X1507100Y45160000D02*
X672500Y41828200D01*
X672500Y41828200D02*
X168500Y38430600D01*
X168500Y38430600D02*
X0Y35000000D01*
X0Y35000000D02*
X168500Y31569400D01*
X168500Y31569400D02*
X672500Y28171800D01*
X672500Y28171800D02*
X1507100Y24840000D01*
X1507100Y24840000D02*
X2664200Y21606100D01*
X2664200Y21606100D02*
X4132800Y18501100D01*
X4132800Y18501100D02*
X5898600Y15555000D01*
X5898600Y15555000D02*
X7944600Y12796200D01*
X7944600Y12796200D02*
X10251300Y10251300D01*
X10251300Y10251300D02*
X12796200Y7944600D01*
X12796200Y7944600D02*
X15555000Y5898600D01*
X15555000Y5898600D02*
X18501100Y4132800D01*
X18501100Y4132800D02*
X21606100Y2664200D01*
X21606100Y2664200D02*
X24840000Y1507100D01*
X24840000Y1507100D02*
X28171800Y672500D01*
X28171800Y672500D02*
X31569400Y168500D01*
X31569400Y168500D02*
X35000000Y0D01*
X35000000Y0D02*
X38430600Y168500D01*
X38430600Y168500D02*
X41828200Y672500D01*
X41828200Y672500D02*
X45160000Y1507100D01*
X45160000Y1507100D02*
X48393900Y2664200D01*
X48393900Y2664200D02*
X51498900Y4132800D01*
X51498900Y4132800D02*
X54445000Y5898600D01*
X54445000Y5898600D02*
X57203800Y7944600D01*
X57203800Y7944600D02*
X59748700Y10251300D01*
X59748700Y10251300D02*
X62055400Y12796200D01*
X62055400Y12796200D02*
X64101400Y15555000D01*
X64101400Y15555000D02*
X65867200Y18501100D01*
X65867200Y18501100D02*
X67335800Y21606100D01*
X67335800Y21606100D02*
X68492900Y24840000D01*
X68492900Y24840000D02*
X69327500Y28171800D01*
X69327500Y28171800D02*
X69831500Y31569400D01*
X69831500Y31569400D02*
X70000000Y35000000D01*
X40000000Y35000000D02*
X39903900Y35975500D01*
X39903900Y35975500D02*
X39619400Y36913400D01*
X39619400Y36913400D02*
X39157300Y37777900D01*
X39157300Y37777900D02*
X38535500Y38535500D01*
X38535500Y38535500D02*
X37777900Y39157300D01*
X37777900Y39157300D02*
X36913400Y39619400D01*
X36913400Y39619400D02*
X35975500Y39903900D01*
X35975500Y39903900D02*
X35000000Y40000000D01*
X35000000Y40000000D02*
X34024500Y39903900D01*
X34024500Y39903900D02*
X33086600Y39619400D01*
X33086600Y39619400D02*
X32222100Y39157300D01*
X32222100Y39157300D02*
X31464500Y38535500D01*
X31464500Y38535500D02*
X30842700Y37777900D01*
X30842700Y37777900D02*
X30380600Y36913400D01*
X30380600Y36913400D02*
X30096100Y35975500D01*
X30096100Y35975500D02*
X30000000Y35000000D01*
X30000000Y35000000D02*
X30096100Y34024500D01*
X30096100Y34024500D02*
X30380600Y33086600D01*
X30380600Y33086600D02*
X30842700Y32222100D01*
X30842700Y32222100D02*
X31464500Y31464500D01*
X31464500Y31464500D02*
X32222100Y30842700D01*
X32222100Y30842700D02*
X33086600Y30380600D01*
X33086600Y30380600D02*
X34024500Y30096100D01*
X34024500Y30096100D02*
X35000000Y30000000D01*
X35000000Y30000000D02*
X35975500Y30096100D01*
X35975500Y30096100D02*
X36913400Y30380600D01*
X36913400Y30380600D02*
X37777900Y30842700D01*
X37777900Y30842700D02*
X38535500Y31464500D01*
X38535500Y31464500D02*
X39157300Y32222100D01*
X39157300Y32222100D02*
X39619400Y33086600D01*
X39619400Y33086600D02*
X39903900Y34024500D01*
X39903900Y34024500D02*
X40000000Y35000000D01*
X40700000Y41928200D02*
X40570600Y42578800D01*
X40570600Y42578800D02*
X40202100Y43130300D01*
X40202100Y43130300D02*
X39650600Y43498800D01*
X39650600Y43498800D02*
X39000000Y43628200D01*
X39000000Y43628200D02*
X38349400Y43498800D01*
X38349400Y43498800D02*
X37797900Y43130300D01*
X37797900Y43130300D02*
X37429400Y42578800D01*
X37429400Y42578800D02*
X37300000Y41928200D01*
X37300000Y41928200D02*
X37429400Y41277600D01*
X37429400Y41277600D02*
X37797900Y40726100D01*
X37797900Y40726100D02*
X38349400Y40357600D01*
X38349400Y40357600D02*
X39000000Y40228200D01*
X39000000Y40228200D02*
X39650600Y40357600D01*
X39650600Y40357600D02*
X40202100Y40726100D01*
X40202100Y40726100D02*
X40570600Y41277600D01*
X40570600Y41277600D02*
X40700000Y41928200D01*
X28700000Y35000000D02*
X28570600Y35650600D01*
X28570600Y35650600D02*
X28202100Y36202100D01*
X28202100Y36202100D02*
X27650600Y36570600D01*
X27650600Y36570600D02*
X27000000Y36700000D01*
X27000000Y36700000D02*
X26349400Y36570600D01*
X26349400Y36570600D02*
X25797900Y36202100D01*
X25797900Y36202100D02*
X25429400Y35650600D01*
X25429400Y35650600D02*
X25300000Y35000000D01*
X25300000Y35000000D02*
X25429400Y34349400D01*
X25429400Y34349400D02*
X25797900Y33797900D01*
X25797900Y33797900D02*
X26349400Y33429400D01*
X26349400Y33429400D02*
X27000000Y33300000D01*
X27000000Y33300000D02*
X27650600Y33429400D01*
X27650600Y33429400D02*
X28202100Y33797900D01*
X28202100Y33797900D02*
X28570600Y34349400D01*
X28570600Y34349400D02*
X28700000Y35000000D01*
X40700000Y28071800D02*
X40570600Y28722400D01*
X40570600Y28722400D02*
X40202100Y29273900D01*
X40202100Y29273900D02*
X39650600Y29642400D01*
X39650600Y29642400D02*
X39000000Y29771800D01*
X39000000Y29771800D02*
X38349400Y29642400D01*
X38349400Y29642400D02*
X37797900Y29273900D01*
X37797900Y29273900D02*
X37429400Y28722400D01*
X37429400Y28722400D02*
X37300000Y28071800D01*
X37300000Y28071800D02*
X37429400Y27421200D01*
X37429400Y27421200D02*
X37797900Y26869700D01*
X37797900Y26869700D02*
X38349400Y26501200D01*
X38349400Y26501200D02*
X39000000Y26371800D01*
X39000000Y26371800D02*
X39650600Y26501200D01*
X39650600Y26501200D02*
X40202100Y26869700D01*
X40202100Y26869700D02*
X40570600Y27421200D01*
X40570600Y27421200D02*
X40700000Y28071800D01*
M02*
