<svg xmlns="http://www.w3.org/2000/svg" width="77.24" height="71.36" viewBox="0 0 77.24 71.36" role="img" aria-label="vcad render"><defs><linearGradient id="g0" gradientUnits="userSpaceOnUse" x1="58.04" y1="59.34" x2="60.22" y2="59.42"><stop offset="0" stop-color="#235a85"/><stop offset="1" stop-color="#2b608a"/></linearGradient><linearGradient id="g1" gradientUnits="userSpaceOnUse" x1="58.04" y1="39.34" x2="60.23" y2="39.42"><stop offset="0" stop-color="#215884"/><stop offset="1" stop-color="#285e89"/></linearGradient><linearGradient id="g2" gradientUnits="userSpaceOnUse" x1="55.63" y1="60.38" x2="58.00" y2="60.47"><stop offset="0" stop-color="#1e5581"/><stop offset="1" stop-color="#235a85"/></linearGradient><linearGradient id="g3" gradientUnits="userSpaceOnUse" x1="55.63" y1="40.38" x2="58.00" y2="40.47"><stop offset="0" stop-color="#1d5480"/><stop offset="1" stop-color="#215884"/></linearGradient><linearGradient id="g4" gradientUnits="userSpaceOnUse" x1="53.05" y1="61.27" x2="55.59" y2="61.38"><stop offset="0" stop-color="#1d537d"/><stop offset="1" stop-color="#1e5581"/></linearGradient><linearGradient id="g5" gradientUnits="userSpaceOnUse" x1="53.05" y1="41.27" x2="55.59" y2="41.37"><stop offset="0" stop-color="#1c527c"/><stop offset="1" stop-color="#1d5480"/></linearGradient><linearGradient id="g6" gradientUnits="userSpaceOnUse" x1="50.34" y1="62.01" x2="53.01" y2="62.14"><stop offset="0" stop-color="#1c507a"/><stop offset="1" stop-color="#1d537d"/></linearGradient><linearGradient id="g7" gradientUnits="userSpaceOnUse" x1="50.34" y1="42.01" x2="53.02" y2="42.12"><stop offset="0" stop-color="#1b5079"/><stop offset="1" stop-color="#1c527c"/></linearGradient><linearGradient id="g8" gradientUnits="userSpaceOnUse" x1="47.51" y1="62.59" x2="50.30" y2="62.73"><stop offset="0" stop-color="#1b4e78"/><stop offset="1" stop-color="#1c507a"/></linearGradient><linearGradient id="g9" gradientUnits="userSpaceOnUse" x1="47.51" y1="42.59" x2="50.31" y2="42.72"><stop offset="0" stop-color="#1b4e77"/><stop offset="1" stop-color="#1b5079"/></linearGradient><linearGradient id="g10" gradientUnits="userSpaceOnUse" x1="44.59" y1="63.02" x2="47.48" y2="63.17"><stop offset="0" stop-color="#1a4d76"/><stop offset="1" stop-color="#1b4e78"/></linearGradient><linearGradient id="g11" gradientUnits="userSpaceOnUse" x1="26.90" y1="62.01" x2="24.16" y2="61.90"><stop offset="0" stop-color="#1a4d76"/><stop offset="1" stop-color="#1b4f78"/></linearGradient><linearGradient id="g12" gradientUnits="userSpaceOnUse" x1="26.90" y1="42.01" x2="24.16" y2="41.87"><stop offset="0" stop-color="#1b4d77"/><stop offset="1" stop-color="#1b4f79"/></linearGradient><linearGradient id="g13" gradientUnits="userSpaceOnUse" x1="24.19" y1="61.27" x2="21.58" y2="61.16"><stop offset="0" stop-color="#1b4f78"/><stop offset="1" stop-color="#1c517b"/></linearGradient><linearGradient id="g14" gradientUnits="userSpaceOnUse" x1="24.19" y1="41.27" x2="21.57" y2="41.15"><stop offset="0" stop-color="#1b4f79"/><stop offset="1" stop-color="#1c517c"/></linearGradient><linearGradient id="g15" gradientUnits="userSpaceOnUse" x1="21.61" y1="60.38" x2="19.16" y2="60.28"><stop offset="0" stop-color="#1c517b"/><stop offset="1" stop-color="#1d537e"/></linearGradient><linearGradient id="g16" gradientUnits="userSpaceOnUse" x1="21.61" y1="40.38" x2="19.15" y2="40.27"><stop offset="0" stop-color="#1c517c"/><stop offset="1" stop-color="#1d547f"/></linearGradient><linearGradient id="g17" gradientUnits="userSpaceOnUse" x1="19.19" y1="59.34" x2="16.93" y2="59.26"><stop offset="0" stop-color="#1d537e"/><stop offset="1" stop-color="#1e5682"/></linearGradient><linearGradient id="g18" gradientUnits="userSpaceOnUse" x1="19.19" y1="39.34" x2="16.93" y2="39.25"><stop offset="0" stop-color="#1d547f"/><stop offset="1" stop-color="#205783"/></linearGradient><linearGradient id="g19" gradientUnits="userSpaceOnUse" x1="16.97" y1="58.18" x2="14.91" y2="58.11"><stop offset="0" stop-color="#1e5682"/><stop offset="1" stop-color="#255b86"/></linearGradient><linearGradient id="g20" gradientUnits="userSpaceOnUse" x1="16.97" y1="38.18" x2="14.91" y2="38.10"><stop offset="0" stop-color="#205783"/><stop offset="1" stop-color="#275d88"/></linearGradient><linearGradient id="g21" gradientUnits="userSpaceOnUse" x1="14.95" y1="56.89" x2="13.12" y2="56.84"><stop offset="0" stop-color="#255b86"/><stop offset="1" stop-color="#2d628c"/></linearGradient><linearGradient id="g22" gradientUnits="userSpaceOnUse" x1="14.95" y1="36.89" x2="13.12" y2="36.83"><stop offset="0" stop-color="#275d88"/><stop offset="1" stop-color="#30648e"/></linearGradient><linearGradient id="g23" gradientUnits="userSpaceOnUse" x1="13.16" y1="55.50" x2="11.58" y2="55.46"><stop offset="0" stop-color="#2d628c"/><stop offset="1" stop-color="#366992"/></linearGradient><linearGradient id="g24" gradientUnits="userSpaceOnUse" x1="13.16" y1="35.50" x2="11.58" y2="35.46"><stop offset="0" stop-color="#30648e"/><stop offset="1" stop-color="#396c94"/></linearGradient><linearGradient id="g25" gradientUnits="userSpaceOnUse" x1="11.62" y1="54.01" x2="10.30" y2="53.98"><stop offset="0" stop-color="#366992"/><stop offset="1" stop-color="#407199"/></linearGradient><linearGradient id="g26" gradientUnits="userSpaceOnUse" x1="11.62" y1="34.01" x2="10.30" y2="33.98"><stop offset="0" stop-color="#396c94"/><stop offset="1" stop-color="#44749b"/></linearGradient><linearGradient id="g27" gradientUnits="userSpaceOnUse" x1="10.33" y1="52.44" x2="9.29" y2="52.43"><stop offset="0" stop-color="#407199"/><stop offset="1" stop-color="#4c7aa1"/></linearGradient><linearGradient id="g28" gradientUnits="userSpaceOnUse" x1="10.33" y1="32.44" x2="9.29" y2="32.42"><stop offset="0" stop-color="#44749b"/><stop offset="1" stop-color="#507ea3"/></linearGradient><linearGradient id="g29" gradientUnits="userSpaceOnUse" x1="9.32" y1="50.81" x2="8.57" y2="50.80"><stop offset="0" stop-color="#4c7aa1"/><stop offset="1" stop-color="#5985aa"/></linearGradient><linearGradient id="g30" gradientUnits="userSpaceOnUse" x1="9.32" y1="30.81" x2="8.57" y2="30.80"><stop offset="0" stop-color="#507ea3"/><stop offset="1" stop-color="#5e89ad"/></linearGradient><linearGradient id="g31" gradientUnits="userSpaceOnUse" x1="8.59" y1="49.13" x2="8.13" y2="49.12"><stop offset="0" stop-color="#5985aa"/><stop offset="1" stop-color="#648eb1"/></linearGradient><linearGradient id="g32" gradientUnits="userSpaceOnUse" x1="8.59" y1="29.13" x2="8.12" y2="29.12"><stop offset="0" stop-color="#5e89ad"/><stop offset="1" stop-color="#6e96b8"/></linearGradient><linearGradient id="g33" gradientUnits="userSpaceOnUse" x1="8.15" y1="47.41" x2="7.99" y2="47.41"><stop offset="0" stop-color="#648eb1"/><stop offset="1" stop-color="#7aa0c0"/></linearGradient><linearGradient id="g34" gradientUnits="userSpaceOnUse" x1="8.15" y1="27.41" x2="8.00" y2="27.41"><stop offset="0" stop-color="#6e96b8"/><stop offset="1" stop-color="#7ea2c2"/></linearGradient><linearGradient id="g35" gradientUnits="userSpaceOnUse" x1="69.09" y1="47.41" x2="69.24" y2="47.41"><stop offset="0" stop-color="#7a9fbf"/><stop offset="1" stop-color="#8daeca"/></linearGradient><linearGradient id="g36" gradientUnits="userSpaceOnUse" x1="69.09" y1="27.41" x2="69.24" y2="27.41"><stop offset="0" stop-color="#799ebf"/><stop offset="1" stop-color="#8aabc8"/></linearGradient><linearGradient id="g37" gradientUnits="userSpaceOnUse" x1="68.65" y1="49.13" x2="69.09" y2="49.13"><stop offset="0" stop-color="#6e96b7"/><stop offset="1" stop-color="#7a9fbf"/></linearGradient><linearGradient id="g38" gradientUnits="userSpaceOnUse" x1="68.65" y1="29.13" x2="69.08" y2="29.13"><stop offset="0" stop-color="#6992b4"/><stop offset="1" stop-color="#799ebf"/></linearGradient><linearGradient id="g39" gradientUnits="userSpaceOnUse" x1="67.92" y1="50.81" x2="68.63" y2="50.82"><stop offset="0" stop-color="#5f8aad"/><stop offset="1" stop-color="#6e96b7"/></linearGradient><linearGradient id="g40" gradientUnits="userSpaceOnUse" x1="67.92" y1="30.81" x2="68.63" y2="30.82"><stop offset="0" stop-color="#5b86aa"/><stop offset="1" stop-color="#6992b4"/></linearGradient><linearGradient id="g41" gradientUnits="userSpaceOnUse" x1="66.91" y1="52.44" x2="67.89" y2="52.46"><stop offset="0" stop-color="#527fa5"/><stop offset="1" stop-color="#5f8aad"/></linearGradient><linearGradient id="g42" gradientUnits="userSpaceOnUse" x1="66.91" y1="32.44" x2="67.89" y2="32.46"><stop offset="0" stop-color="#4e7ca2"/><stop offset="1" stop-color="#5b86aa"/></linearGradient><linearGradient id="g43" gradientUnits="userSpaceOnUse" x1="65.62" y1="54.01" x2="66.87" y2="54.04"><stop offset="0" stop-color="#46769d"/><stop offset="1" stop-color="#527fa5"/></linearGradient><linearGradient id="g44" gradientUnits="userSpaceOnUse" x1="65.62" y1="34.01" x2="66.87" y2="34.04"><stop offset="0" stop-color="#43739b"/><stop offset="1" stop-color="#4e7ca2"/></linearGradient><linearGradient id="g45" gradientUnits="userSpaceOnUse" x1="64.08" y1="55.50" x2="65.58" y2="55.54"><stop offset="0" stop-color="#3c6e96"/><stop offset="1" stop-color="#46769d"/></linearGradient><linearGradient id="g46" gradientUnits="userSpaceOnUse" x1="64.08" y1="35.50" x2="65.58" y2="35.54"><stop offset="0" stop-color="#396b94"/><stop offset="1" stop-color="#43739b"/></linearGradient><linearGradient id="g47" gradientUnits="userSpaceOnUse" x1="62.29" y1="56.89" x2="64.03" y2="56.94"><stop offset="0" stop-color="#336790"/><stop offset="1" stop-color="#3c6e96"/></linearGradient><linearGradient id="g48" gradientUnits="userSpaceOnUse" x1="62.29" y1="36.89" x2="64.04" y2="36.94"><stop offset="0" stop-color="#30648e"/><stop offset="1" stop-color="#396b94"/></linearGradient><linearGradient id="g49" gradientUnits="userSpaceOnUse" x1="60.27" y1="58.18" x2="62.24" y2="58.24"><stop offset="0" stop-color="#2b608a"/><stop offset="1" stop-color="#336790"/></linearGradient><linearGradient id="g50" gradientUnits="userSpaceOnUse" x1="60.27" y1="38.18" x2="62.24" y2="38.24"><stop offset="0" stop-color="#285e89"/><stop offset="1" stop-color="#30648e"/></linearGradient></defs><g shape-rendering="geometricPrecision" stroke-linejoin="round"><polygon points="69.24,45.68 69.09,47.41 69.24,25.68" fill="url(#g35)" stroke="#85a8c6" stroke-width="0.75"/><polygon points="8.15,47.41 8.00,45.68 8.15,27.41" fill="url(#g33)" stroke="#6f96b8" stroke-width="0.75"/><polygon points="69.09,47.41 68.65,49.13 69.09,27.41" fill="url(#g37)" stroke="#769cbc" stroke-width="0.75"/><polygon points="8.59,49.13 8.15,47.41 8.59,29.13" fill="url(#g31)" stroke="#5f89ad" stroke-width="0.75"/><polygon points="8.00,45.68 8.00,25.68 8.15,27.41" fill="url(#g34)" stroke="#789dbe" stroke-width="0.75"/><polygon points="68.65,49.13 67.92,50.81 68.65,29.13" fill="url(#g39)" stroke="#6790b3" stroke-width="0.75"/><polygon points="69.09,47.41 69.09,27.41 69.24,25.68" fill="url(#g36)" stroke="#7fa3c2" stroke-width="0.75"/><polygon points="9.32,50.81 8.59,49.13 9.32,30.81" fill="url(#g29)" stroke="#527fa5" stroke-width="0.75"/><polygon points="8.15,47.41 8.15,27.41 8.59,29.13" fill="url(#g32)" stroke="#668fb2" stroke-width="0.75"/><polygon points="67.92,50.81 66.91,52.44 67.92,30.81" fill="url(#g41)" stroke="#5985a9" stroke-width="0.75"/><polygon points="68.65,49.13 68.65,29.13 69.09,27.41" fill="url(#g38)" stroke="#7097b9" stroke-width="0.75"/><polygon points="10.33,52.44 9.32,50.81 10.33,32.44" fill="url(#g27)" stroke="#45759c" stroke-width="0.75"/><polygon points="66.91,52.44 65.62,54.01 66.91,32.44" fill="url(#g43)" stroke="#4d7ba1" stroke-width="0.75"/><polygon points="8.59,49.13 8.59,29.13 9.32,30.81" fill="url(#g30)" stroke="#5884a9" stroke-width="0.75"/><polygon points="11.62,54.01 10.33,52.44 11.62,34.01" fill="url(#g25)" stroke="#3a6d95" stroke-width="0.75"/><polygon points="67.92,50.81 67.92,30.81 68.65,29.13" fill="url(#g40)" stroke="#618baf" stroke-width="0.75"/><polygon points="65.62,54.01 64.08,55.50 65.62,34.01" fill="url(#g45)" stroke="#42729a" stroke-width="0.75"/><polygon points="9.32,50.81 9.32,30.81 10.33,32.44" fill="url(#g28)" stroke="#4b7aa0" stroke-width="0.75"/><polygon points="13.16,55.50 11.62,54.01 13.16,35.50" fill="url(#g23)" stroke="#31658e" stroke-width="0.75"/><polygon points="66.91,52.44 66.91,32.44 67.92,30.81" fill="url(#g42)" stroke="#5481a6" stroke-width="0.75"/><polygon points="64.08,55.50 62.29,56.89 64.08,35.50" fill="url(#g47)" stroke="#386b93" stroke-width="0.75"/><polygon points="10.33,52.44 10.33,32.44 11.62,34.01" fill="url(#g26)" stroke="#3f7098" stroke-width="0.75"/><polygon points="14.95,56.89 13.16,55.50 14.95,36.89" fill="url(#g21)" stroke="#285e89" stroke-width="0.75"/><polygon points="65.62,54.01 65.62,34.01 66.91,32.44" fill="url(#g44)" stroke="#48779e" stroke-width="0.75"/><polygon points="62.29,56.89 60.27,58.18 62.29,36.89" fill="url(#g49)" stroke="#2f648d" stroke-width="0.75"/><polygon points="16.97,58.18 14.95,56.89 16.97,38.18" fill="url(#g19)" stroke="#215884" stroke-width="0.75"/><polygon points="11.62,54.01 11.62,34.01 13.16,35.50" fill="url(#g24)" stroke="#356891" stroke-width="0.75"/><polygon points="64.08,55.50 64.08,35.50 65.62,34.01" fill="url(#g46)" stroke="#3d6f97" stroke-width="0.75"/><polygon points="60.27,58.18 58.04,59.34 60.27,38.18" fill="url(#g0)" stroke="#275d88" stroke-width="0.75"/><polygon points="19.19,59.34 16.97,58.18 19.19,39.34" fill="url(#g17)" stroke="#1d5480" stroke-width="0.75"/><polygon points="13.16,55.50 13.16,35.50 14.95,36.89" fill="url(#g22)" stroke="#2c618b" stroke-width="0.75"/><polygon points="58.04,59.34 55.63,60.38 58.04,39.34" fill="url(#g2)" stroke="#205883" stroke-width="0.75"/><polygon points="62.29,56.89 62.29,36.89 64.08,35.50" fill="url(#g48)" stroke="#346791" stroke-width="0.75"/><polygon points="21.61,60.38 19.19,59.34 21.61,40.38" fill="url(#g15)" stroke="#1c527c" stroke-width="0.75"/><polygon points="14.95,56.89 14.95,36.89 16.97,38.18" fill="url(#g20)" stroke="#245b86" stroke-width="0.75"/><polygon points="55.63,60.38 53.05,61.27 55.63,40.38" fill="url(#g4)" stroke="#1d547f" stroke-width="0.75"/><polygon points="24.19,61.27 21.61,60.38 24.19,41.27" fill="url(#g13)" stroke="#1b4f79" stroke-width="0.75"/><polygon points="60.27,58.18 60.27,38.18 62.29,36.89" fill="url(#g50)" stroke="#2b618b" stroke-width="0.75"/><polygon points="53.05,61.27 50.34,62.01 53.05,41.27" fill="url(#g6)" stroke="#1c527c" stroke-width="0.75"/><polygon points="26.90,62.01 24.19,61.27 26.90,42.01" fill="url(#g11)" stroke="#1b4e77" stroke-width="0.75"/><polygon points="16.97,58.18 16.97,38.18 19.19,39.34" fill="url(#g18)" stroke="#1e5581" stroke-width="0.75"/><polygon points="50.34,62.01 47.51,62.59 50.34,42.01" fill="url(#g8)" stroke="#1b4f79" stroke-width="0.75"/><polygon points="58.04,59.34 58.04,39.34 60.27,38.18" fill="url(#g1)" stroke="#245b86" stroke-width="0.75"/><polygon points="29.73,62.59 26.90,62.01 29.73,42.59" fill="#1a4c75" stroke="#1a4c75" stroke-width="0.75"/><polygon points="47.51,62.59 44.59,63.02 47.51,42.59" fill="url(#g10)" stroke="#1b4e77" stroke-width="0.75"/><polygon points="32.65,63.02 29.73,62.59 32.65,43.02" fill="#1a4b74" stroke="#1a4b74" stroke-width="0.75"/><polygon points="19.19,59.34 19.19,39.34 21.61,40.38" fill="url(#g16)" stroke="#1d537e" stroke-width="0.75"/><polygon points="44.59,63.02 41.62,63.27 44.59,43.02" fill="#1a4c75" stroke="#1a4c75" stroke-width="0.75"/><polygon points="35.62,63.27 32.65,63.02 35.62,43.27" fill="#1a4b73" stroke="#1a4b73" stroke-width="0.75"/><polygon points="41.62,63.27 38.62,63.36 41.62,43.27" fill="#1a4b74" stroke="#1a4b74" stroke-width="0.75"/><polygon points="38.62,63.36 35.62,63.27 38.62,43.36" fill="#1a4b73" stroke="#1a4b73" stroke-width="0.75"/><polygon points="55.63,60.38 55.63,40.38 58.04,39.34" fill="url(#g3)" stroke="#1e5681" stroke-width="0.75"/><polygon points="21.61,60.38 21.61,40.38 24.19,41.27" fill="url(#g14)" stroke="#1c507a" stroke-width="0.75"/><polygon points="53.05,61.27 53.05,41.27 55.63,40.38" fill="url(#g5)" stroke="#1d537e" stroke-width="0.75"/><polygon points="24.19,61.27 24.19,41.27 26.90,42.01" fill="url(#g12)" stroke="#1b4e78" stroke-width="0.75"/><polygon points="50.34,62.01 50.34,42.01 53.05,41.27" fill="url(#g7)" stroke="#1c517b" stroke-width="0.75"/><polygon points="26.90,62.01 26.90,42.01 29.73,42.59" fill="#1a4d76" stroke="#1a4d76" stroke-width="0.75"/><polygon points="47.51,62.59 47.51,42.59 50.34,42.01" fill="url(#g9)" stroke="#1b4f78" stroke-width="0.75"/><polygon points="29.73,62.59 29.73,42.59 32.65,43.02" fill="#1a4c74" stroke="#1a4c74" stroke-width="0.75"/><polygon points="44.59,63.02 44.59,43.02 47.51,42.59" fill="#1a4d76" stroke="#1a4d76" stroke-width="0.75"/><polygon points="32.65,63.02 32.65,43.02 35.62,43.27" fill="#1a4b73" stroke="#1a4b73" stroke-width="0.75"/><polygon points="41.62,63.27 41.62,43.27 44.59,43.02" fill="#1a4c74" stroke="#1a4c74" stroke-width="0.75"/><polygon points="35.62,63.27 35.62,43.27 38.62,43.36" fill="#194b73" stroke="#194b73" stroke-width="0.75"/><polygon points="38.62,63.36 38.62,43.36 41.62,43.27" fill="#1a4b73" stroke="#1a4b73" stroke-width="0.75"/></g><g stroke="#0b2742" stroke-width="0.45" stroke-linecap="round" fill="none" opacity="0.5" stroke-dasharray="2.00 1.20"><line x1="65.62" y1="37.34" x2="66.91" y2="38.91"/><line x1="9.32" y1="40.55" x2="10.33" y2="38.91"/><line x1="8.15" y1="43.94" x2="8.59" y2="42.23"/><line x1="8.08" y1="44.78" x2="8.15" y2="43.94"/><line x1="10.33" y1="38.91" x2="11.62" y2="37.34"/><line x1="68.65" y1="42.23" x2="69.09" y2="43.94"/><line x1="69.09" y1="43.94" x2="69.17" y2="44.85"/><line x1="67.92" y1="40.55" x2="68.65" y2="42.23"/><line x1="11.62" y1="37.34" x2="13.16" y2="35.86"/><line x1="66.91" y1="38.91" x2="67.92" y2="40.55"/><line x1="8.59" y1="42.23" x2="9.32" y2="40.55"/><line x1="64.08" y1="35.86" x2="65.62" y2="37.34"/></g><g stroke="#0b2742" stroke-width="1.2" stroke-linecap="round" fill="none" opacity="1"><line x1="50.34" y1="42.01" x2="47.51" y2="42.59"/><line x1="35.62" y1="8.09" x2="38.62" y2="8.00"/><line x1="29.73" y1="42.59" x2="26.90" y2="42.01"/><line x1="38.62" y1="63.36" x2="35.62" y2="63.27"/><line x1="44.59" y1="8.34" x2="47.51" y2="8.76"/><line x1="19.19" y1="12.01" x2="21.61" y2="10.98"/><line x1="38.62" y1="28.00" x2="41.62" y2="28.09"/><line x1="21.61" y1="30.98" x2="24.19" y2="30.09"/><line x1="32.65" y1="63.02" x2="29.73" y2="62.59"/><line x1="35.62" y1="28.09" x2="38.62" y2="28.00"/><line x1="32.65" y1="28.34" x2="35.62" y2="28.09"/><line x1="53.05" y1="30.09" x2="55.63" y2="30.98"/><line x1="47.51" y1="42.59" x2="44.59" y2="43.02"/><line x1="41.62" y1="8.09" x2="44.59" y2="8.34"/><line x1="13.16" y1="15.86" x2="14.95" y2="14.46"/><line x1="14.95" y1="14.46" x2="16.97" y2="13.18"/><line x1="68.65" y1="49.13" x2="67.92" y2="50.81"/><line x1="55.63" y1="60.38" x2="53.05" y2="61.27"/><line x1="26.90" y1="9.35" x2="29.73" y2="8.76"/><line x1="35.62" y1="43.27" x2="32.65" y2="43.02"/><line x1="10.33" y1="52.44" x2="9.32" y2="50.81"/><line x1="14.95" y1="56.89" x2="13.16" y2="55.50"/><line x1="60.27" y1="58.18" x2="58.04" y2="59.34"/><line x1="55.63" y1="40.38" x2="53.05" y2="41.27"/><line x1="65.62" y1="34.01" x2="64.08" y2="35.50"/><line x1="69.09" y1="47.41" x2="68.65" y2="49.13"/><line x1="11.62" y1="17.34" x2="13.16" y2="15.86"/><line x1="8.15" y1="47.41" x2="8.00" y2="45.68"/><line x1="60.27" y1="38.18" x2="58.04" y2="39.34"/><line x1="53.05" y1="41.27" x2="50.34" y2="42.01"/><line x1="14.95" y1="36.89" x2="13.16" y2="35.50"/><line x1="16.97" y1="13.18" x2="19.19" y2="12.01"/><line x1="58.04" y1="12.01" x2="60.27" y2="13.18"/><line x1="64.08" y1="15.86" x2="65.62" y2="17.34"/><line x1="26.90" y1="29.35" x2="29.73" y2="28.76"/><line x1="55.63" y1="30.98" x2="58.04" y2="32.01"/><line x1="26.90" y1="62.01" x2="24.19" y2="61.27"/><line x1="50.34" y1="9.35" x2="53.05" y2="10.09"/><line x1="8.00" y1="45.68" x2="8.08" y2="44.78"/><line x1="21.61" y1="60.38" x2="19.19" y2="59.34"/><line x1="32.65" y1="8.34" x2="35.62" y2="8.09"/><line x1="69.09" y1="23.94" x2="69.24" y2="25.68"/><line x1="69.24" y1="45.68" x2="69.09" y2="47.41"/><line x1="29.73" y1="28.76" x2="32.65" y2="28.34"/><line x1="55.63" y1="10.98" x2="58.04" y2="12.01"/><line x1="64.08" y1="55.50" x2="62.29" y2="56.89"/><line x1="13.16" y1="55.50" x2="11.62" y2="54.01"/><line x1="24.19" y1="30.09" x2="26.90" y2="29.35"/><line x1="44.59" y1="43.02" x2="41.62" y2="43.27"/><line x1="67.92" y1="50.81" x2="66.91" y2="52.44"/><line x1="8.15" y1="27.41" x2="8.00" y2="25.68"/><line x1="29.73" y1="62.59" x2="26.90" y2="62.01"/><line x1="8.59" y1="29.13" x2="8.15" y2="27.41"/><line x1="16.97" y1="33.18" x2="19.19" y2="32.01"/><line x1="10.33" y1="32.44" x2="9.32" y2="30.81"/><line x1="24.19" y1="10.09" x2="26.90" y2="9.35"/><line x1="21.61" y1="10.98" x2="24.19" y2="10.09"/><line x1="8.59" y1="22.23" x2="9.32" y2="20.55"/><line x1="32.65" y1="43.02" x2="29.73" y2="42.59"/><line x1="69.24" y1="45.68" x2="69.24" y2="25.68"/><line x1="24.19" y1="41.27" x2="21.61" y2="40.38"/><line x1="10.33" y1="18.91" x2="11.62" y2="17.34"/><line x1="13.38" y1="35.69" x2="14.95" y2="34.46"/><line x1="69.17" y1="44.85" x2="69.24" y2="45.68"/><line x1="69.09" y1="27.41" x2="68.65" y2="29.13"/><line x1="65.62" y1="54.01" x2="64.08" y2="55.50"/><line x1="21.61" y1="40.38" x2="19.19" y2="39.34"/><line x1="44.59" y1="28.34" x2="47.51" y2="28.76"/><line x1="38.62" y1="43.36" x2="35.62" y2="43.27"/><line x1="13.16" y1="35.50" x2="11.62" y2="34.01"/><line x1="62.29" y1="34.46" x2="63.91" y2="35.73"/><line x1="16.97" y1="58.18" x2="14.95" y2="56.89"/><line x1="19.19" y1="39.34" x2="16.97" y2="38.18"/><line x1="58.04" y1="32.01" x2="60.27" y2="33.18"/><line x1="29.73" y1="8.76" x2="32.65" y2="8.34"/><line x1="67.92" y1="30.81" x2="66.91" y2="32.44"/><line x1="53.05" y1="61.27" x2="50.34" y2="62.01"/><line x1="66.91" y1="18.91" x2="67.92" y2="20.55"/><line x1="8.00" y1="45.68" x2="8.00" y2="25.68"/><line x1="58.04" y1="39.34" x2="55.63" y2="40.38"/><line x1="64.08" y1="35.50" x2="62.29" y2="36.89"/><line x1="47.51" y1="8.76" x2="50.34" y2="9.35"/><line x1="9.32" y1="30.81" x2="8.59" y2="29.13"/><line x1="8.15" y1="23.94" x2="8.59" y2="22.23"/><line x1="16.97" y1="38.18" x2="14.95" y2="36.89"/><line x1="66.91" y1="32.44" x2="65.62" y2="34.01"/><line x1="19.19" y1="59.34" x2="16.97" y2="58.18"/><line x1="62.29" y1="14.46" x2="64.08" y2="15.86"/><line x1="68.65" y1="22.23" x2="69.09" y2="23.94"/><line x1="53.05" y1="10.09" x2="55.63" y2="10.98"/><line x1="41.62" y1="43.27" x2="38.62" y2="43.36"/><line x1="60.27" y1="58.18" x2="62.29" y2="56.89"/><line x1="60.27" y1="33.18" x2="62.29" y2="34.46"/><line x1="44.59" y1="63.02" x2="41.62" y2="63.27"/><line x1="9.32" y1="20.55" x2="10.33" y2="18.91"/><line x1="26.90" y1="42.01" x2="24.19" y2="41.27"/><line x1="24.19" y1="61.27" x2="21.61" y2="60.38"/><line x1="60.27" y1="13.18" x2="62.29" y2="14.46"/><line x1="66.91" y1="52.44" x2="65.62" y2="54.01"/><line x1="19.19" y1="32.01" x2="21.61" y2="30.98"/><line x1="11.62" y1="54.01" x2="10.33" y2="52.44"/><line x1="47.51" y1="62.59" x2="44.59" y2="63.02"/><line x1="41.62" y1="63.27" x2="38.62" y2="63.36"/><line x1="47.51" y1="28.76" x2="50.34" y2="29.35"/><line x1="35.62" y1="63.27" x2="32.65" y2="63.02"/><line x1="14.95" y1="34.46" x2="16.97" y2="33.18"/><line x1="9.32" y1="50.81" x2="8.59" y2="49.13"/><line x1="38.62" y1="8.00" x2="41.62" y2="8.09"/><line x1="50.34" y1="62.01" x2="47.51" y2="62.59"/><line x1="8.00" y1="25.68" x2="8.15" y2="23.94"/><line x1="69.24" y1="25.68" x2="69.09" y2="27.41"/><line x1="60.27" y1="38.18" x2="62.29" y2="36.89"/><line x1="65.62" y1="17.34" x2="66.91" y2="18.91"/><line x1="41.62" y1="28.09" x2="44.59" y2="28.34"/><line x1="11.62" y1="34.01" x2="10.33" y2="32.44"/><line x1="8.59" y1="49.13" x2="8.15" y2="47.41"/><line x1="58.04" y1="59.34" x2="55.63" y2="60.38"/><line x1="67.92" y1="20.55" x2="68.65" y2="22.23"/><line x1="50.34" y1="29.35" x2="53.05" y2="30.09"/><line x1="68.65" y1="29.13" x2="67.92" y2="30.81"/></g></svg>
